<?xml version="1.0" encoding="UTF-8" standalone="no"?>
<!-- Created with Inkscape (http://www.inkscape.org/) -->

<svg
   xmlns:dc="http://purl.org/dc/elements/1.1/"
   xmlns:cc="http://creativecommons.org/ns#"
   xmlns:rdf="http://www.w3.org/1999/02/22-rdf-syntax-ns#"
   xmlns:svg="http://www.w3.org/2000/svg"
   xmlns="http://www.w3.org/2000/svg"
   xmlns:sodipodi="http://sodipodi.sourceforge.net/DTD/sodipodi-0.dtd"
   xmlns:inkscape="http://www.inkscape.org/namespaces/inkscape"
   width="24in"
   height="36in"
   viewBox="0 0 2160 3240"
   id="svg2"
   version="1.1"
   inkscape:version="0.91 r13725"
   sodipodi:docname="gatsbyposter2.svg">
  <defs
     id="defs4" />
  <sodipodi:namedview
     id="base"
     pagecolor="#ffffff"
     bordercolor="#666666"
     borderopacity="1.0"
     inkscape:pageopacity="0.0"
     inkscape:pageshadow="2"
     inkscape:zoom="0.24748737"
     inkscape:cx="1660.0082"
     inkscape:cy="1640.5072"
     inkscape:document-units="px"
     inkscape:current-layer="layer1"
     showgrid="false"
     units="in"
     inkscape:window-width="1920"
     inkscape:window-height="1059"
     inkscape:window-x="1920"
     inkscape:window-y="21"
     inkscape:window-maximized="0"
     inkscape:snap-page="true" />
  <metadata
     id="metadata7">
    <rdf:RDF>
      <cc:Work
         rdf:about="">
        <dc:format>image/svg+xml</dc:format>
        <dc:type
           rdf:resource="http://purl.org/dc/dcmitype/StillImage" />
        <dc:title />
      </cc:Work>
    </rdf:RDF>
  </metadata>
  <g
     inkscape:label="Layer 1"
     inkscape:groupmode="layer"
     id="layer1"
     transform="translate(0,2187.6378)">
    <g
       id="g4651"
       transform="matrix(-1,0,0,-1,1043.4037,-2925.9123)"
       style="opacity:0.25;fill:#ffcb00;fill-opacity:1">
      <rect
         transform="matrix(0.70710678,0.70710678,-0.70710678,0.70710678,0,0)"
         y="-11.983567"
         x="-2521.7168"
         height="25"
         width="2500"
         id="rect4653"
         style="fill:#ffcb00;fill-opacity:1;stroke-width:25;stroke-miterlimit:4;stroke-dasharray:none" />
      <rect
         style="fill:#ffcb00;fill-opacity:1;stroke-width:25;stroke-miterlimit:4;stroke-dasharray:none"
         id="rect4655"
         width="2500"
         height="25"
         x="-2486.916"
         y="21.779898"
         transform="matrix(-0.70710678,0.70710678,-0.70710678,-0.70710678,0,0)" />
    </g>
    <g
       style="opacity:0.25;fill:#ffcb00;fill-opacity:1"
       transform="matrix(-1,0,0,-1,1043.4037,-2825.9123)"
       id="g4645">
      <rect
         style="fill:#ffcb00;fill-opacity:1;stroke-width:25;stroke-miterlimit:4;stroke-dasharray:none"
         id="rect4647"
         width="2500"
         height="25"
         x="-2521.7168"
         y="-11.983567"
         transform="matrix(0.70710678,0.70710678,-0.70710678,0.70710678,0,0)" />
      <rect
         transform="matrix(-0.70710678,0.70710678,-0.70710678,-0.70710678,0,0)"
         y="21.779898"
         x="-2486.916"
         height="25"
         width="2500"
         id="rect4649"
         style="fill:#ffcb00;fill-opacity:1;stroke-width:25;stroke-miterlimit:4;stroke-dasharray:none" />
    </g>
    <g
       id="g4639"
       transform="matrix(-1,0,0,-1,1043.4037,-2725.9123)"
       style="opacity:0.25;fill:#ffcb00;fill-opacity:1">
      <rect
         transform="matrix(0.70710678,0.70710678,-0.70710678,0.70710678,0,0)"
         y="-11.983567"
         x="-2521.7168"
         height="25"
         width="2500"
         id="rect4641"
         style="fill:#ffcb00;fill-opacity:1;stroke-width:25;stroke-miterlimit:4;stroke-dasharray:none" />
      <rect
         style="fill:#ffcb00;fill-opacity:1;stroke-width:25;stroke-miterlimit:4;stroke-dasharray:none"
         id="rect4643"
         width="2500"
         height="25"
         x="-2486.916"
         y="21.779898"
         transform="matrix(-0.70710678,0.70710678,-0.70710678,-0.70710678,0,0)" />
    </g>
    <g
       style="opacity:0.25;fill:#ffcb00;fill-opacity:1"
       transform="matrix(-1,0,0,-1,1043.4037,-2625.9123)"
       id="g4633">
      <rect
         style="fill:#ffcb00;fill-opacity:1;stroke-width:25;stroke-miterlimit:4;stroke-dasharray:none"
         id="rect4635"
         width="2500"
         height="25"
         x="-2521.7168"
         y="-11.983567"
         transform="matrix(0.70710678,0.70710678,-0.70710678,0.70710678,0,0)" />
      <rect
         transform="matrix(-0.70710678,0.70710678,-0.70710678,-0.70710678,0,0)"
         y="21.779898"
         x="-2486.916"
         height="25"
         width="2500"
         id="rect4637"
         style="fill:#ffcb00;fill-opacity:1;stroke-width:25;stroke-miterlimit:4;stroke-dasharray:none" />
    </g>
    <g
       id="g4621"
       transform="matrix(-1,0,0,-1,1043.4037,-2525.9123)"
       style="opacity:0.25;fill:#ffcb00;fill-opacity:1">
      <rect
         transform="matrix(0.70710678,0.70710678,-0.70710678,0.70710678,0,0)"
         y="-11.983567"
         x="-2521.7168"
         height="25"
         width="2500"
         id="rect4623"
         style="fill:#ffcb00;fill-opacity:1;stroke-width:25;stroke-miterlimit:4;stroke-dasharray:none" />
      <rect
         style="fill:#ffcb00;fill-opacity:1;stroke-width:25;stroke-miterlimit:4;stroke-dasharray:none"
         id="rect4625"
         width="2500"
         height="25"
         x="-2486.916"
         y="21.779898"
         transform="matrix(-0.70710678,0.70710678,-0.70710678,-0.70710678,0,0)" />
    </g>
    <g
       style="opacity:0.25;fill:#ffcb00;fill-opacity:1"
       transform="matrix(-1,0,0,-1,1043.4037,-2425.9123)"
       id="g4615">
      <rect
         style="fill:#ffcb00;fill-opacity:1;stroke-width:25;stroke-miterlimit:4;stroke-dasharray:none"
         id="rect4617"
         width="2500"
         height="25"
         x="-2521.7168"
         y="-11.983567"
         transform="matrix(0.70710678,0.70710678,-0.70710678,0.70710678,0,0)" />
      <rect
         transform="matrix(-0.70710678,0.70710678,-0.70710678,-0.70710678,0,0)"
         y="21.779898"
         x="-2486.916"
         height="25"
         width="2500"
         id="rect4619"
         style="fill:#ffcb00;fill-opacity:1;stroke-width:25;stroke-miterlimit:4;stroke-dasharray:none" />
    </g>
    <g
       id="g4609"
       transform="matrix(-1,0,0,-1,1043.4037,-2325.9123)"
       style="opacity:0.25;fill:#ffcb00;fill-opacity:1">
      <rect
         transform="matrix(0.70710678,0.70710678,-0.70710678,0.70710678,0,0)"
         y="-11.983567"
         x="-2521.7168"
         height="25"
         width="2500"
         id="rect4611"
         style="fill:#ffcb00;fill-opacity:1;stroke-width:25;stroke-miterlimit:4;stroke-dasharray:none" />
      <rect
         style="fill:#ffcb00;fill-opacity:1;stroke-width:25;stroke-miterlimit:4;stroke-dasharray:none"
         id="rect4613"
         width="2500"
         height="25"
         x="-2486.916"
         y="21.779898"
         transform="matrix(-0.70710678,0.70710678,-0.70710678,-0.70710678,0,0)" />
    </g>
    <g
       style="opacity:0.25;fill:#ffcb00;fill-opacity:1"
       transform="matrix(-1,0,0,-1,1043.4037,-2225.9123)"
       id="g4603">
      <rect
         style="fill:#ffcb00;fill-opacity:1;stroke-width:25;stroke-miterlimit:4;stroke-dasharray:none"
         id="rect4605"
         width="2500"
         height="25"
         x="-2521.7168"
         y="-11.983567"
         transform="matrix(0.70710678,0.70710678,-0.70710678,0.70710678,0,0)" />
      <rect
         transform="matrix(-0.70710678,0.70710678,-0.70710678,-0.70710678,0,0)"
         y="21.779898"
         x="-2486.916"
         height="25"
         width="2500"
         id="rect4607"
         style="fill:#ffcb00;fill-opacity:1;stroke-width:25;stroke-miterlimit:4;stroke-dasharray:none" />
    </g>
    <g
       id="g4591"
       transform="matrix(-1,0,0,-1,1043.4037,-2125.9123)"
       style="opacity:0.25;fill:#ffcb00;fill-opacity:1">
      <rect
         transform="matrix(0.70710678,0.70710678,-0.70710678,0.70710678,0,0)"
         y="-11.983567"
         x="-2521.7168"
         height="25"
         width="2500"
         id="rect4593"
         style="fill:#ffcb00;fill-opacity:1;stroke-width:25;stroke-miterlimit:4;stroke-dasharray:none" />
      <rect
         style="fill:#ffcb00;fill-opacity:1;stroke-width:25;stroke-miterlimit:4;stroke-dasharray:none"
         id="rect4595"
         width="2500"
         height="25"
         x="-2486.916"
         y="21.779898"
         transform="matrix(-0.70710678,0.70710678,-0.70710678,-0.70710678,0,0)" />
    </g>
    <g
       style="opacity:0.25;fill:#ffcb00;fill-opacity:1"
       transform="matrix(-1,0,0,-1,1043.4037,-2025.9123)"
       id="g4585">
      <rect
         style="fill:#ffcb00;fill-opacity:1;stroke-width:25;stroke-miterlimit:4;stroke-dasharray:none"
         id="rect4587"
         width="2500"
         height="25"
         x="-2521.7168"
         y="-11.983567"
         transform="matrix(0.70710678,0.70710678,-0.70710678,0.70710678,0,0)" />
      <rect
         transform="matrix(-0.70710678,0.70710678,-0.70710678,-0.70710678,0,0)"
         y="21.779898"
         x="-2486.916"
         height="25"
         width="2500"
         id="rect4589"
         style="fill:#ffcb00;fill-opacity:1;stroke-width:25;stroke-miterlimit:4;stroke-dasharray:none" />
    </g>
    <g
       id="g4579"
       transform="matrix(-1,0,0,-1,1043.4037,-1925.9123)"
       style="opacity:0.25;fill:#ffcb00;fill-opacity:1">
      <rect
         transform="matrix(0.70710678,0.70710678,-0.70710678,0.70710678,0,0)"
         y="-11.983567"
         x="-2521.7168"
         height="25"
         width="2500"
         id="rect4581"
         style="fill:#ffcb00;fill-opacity:1;stroke-width:25;stroke-miterlimit:4;stroke-dasharray:none" />
      <rect
         style="fill:#ffcb00;fill-opacity:1;stroke-width:25;stroke-miterlimit:4;stroke-dasharray:none"
         id="rect4583"
         width="2500"
         height="25"
         x="-2486.916"
         y="21.779898"
         transform="matrix(-0.70710678,0.70710678,-0.70710678,-0.70710678,0,0)" />
    </g>
    <g
       style="opacity:0.25;fill:#ffcb00;fill-opacity:1"
       transform="matrix(-1,0,0,-1,1043.4037,-1825.9123)"
       id="g4573">
      <rect
         style="fill:#ffcb00;fill-opacity:1;stroke-width:25;stroke-miterlimit:4;stroke-dasharray:none"
         id="rect4575"
         width="2500"
         height="25"
         x="-2521.7168"
         y="-11.983567"
         transform="matrix(0.70710678,0.70710678,-0.70710678,0.70710678,0,0)" />
      <rect
         transform="matrix(-0.70710678,0.70710678,-0.70710678,-0.70710678,0,0)"
         y="21.779898"
         x="-2486.916"
         height="25"
         width="2500"
         id="rect4577"
         style="fill:#ffcb00;fill-opacity:1;stroke-width:25;stroke-miterlimit:4;stroke-dasharray:none" />
    </g>
    <g
       id="g4567"
       transform="matrix(-1,0,0,-1,1043.4037,-1725.9123)"
       style="opacity:0.25;fill:#ffcb00;fill-opacity:1">
      <rect
         transform="matrix(0.70710678,0.70710678,-0.70710678,0.70710678,0,0)"
         y="-11.983567"
         x="-2521.7168"
         height="25"
         width="2500"
         id="rect4569"
         style="fill:#ffcb00;fill-opacity:1;stroke-width:25;stroke-miterlimit:4;stroke-dasharray:none" />
      <rect
         style="fill:#ffcb00;fill-opacity:1;stroke-width:25;stroke-miterlimit:4;stroke-dasharray:none"
         id="rect4571"
         width="2500"
         height="25"
         x="-2486.916"
         y="21.779898"
         transform="matrix(-0.70710678,0.70710678,-0.70710678,-0.70710678,0,0)" />
    </g>
    <g
       style="opacity:0.25;fill:#ffcb00;fill-opacity:1"
       transform="matrix(-1,0,0,-1,1043.4037,-1625.9123)"
       id="g4561">
      <rect
         style="fill:#ffcb00;fill-opacity:1;stroke-width:25;stroke-miterlimit:4;stroke-dasharray:none"
         id="rect4563"
         width="2500"
         height="25"
         x="-2521.7168"
         y="-11.983567"
         transform="matrix(0.70710678,0.70710678,-0.70710678,0.70710678,0,0)" />
      <rect
         transform="matrix(-0.70710678,0.70710678,-0.70710678,-0.70710678,0,0)"
         y="21.779898"
         x="-2486.916"
         height="25"
         width="2500"
         id="rect4565"
         style="fill:#ffcb00;fill-opacity:1;stroke-width:25;stroke-miterlimit:4;stroke-dasharray:none" />
    </g>
    <g
       id="g4555"
       transform="matrix(-1,0,0,-1,1043.4037,-1525.9123)"
       style="opacity:0.25;fill:#ffcb00;fill-opacity:1">
      <rect
         transform="matrix(0.70710678,0.70710678,-0.70710678,0.70710678,0,0)"
         y="-11.983567"
         x="-2521.7168"
         height="25"
         width="2500"
         id="rect4557"
         style="fill:#ffcb00;fill-opacity:1;stroke-width:25;stroke-miterlimit:4;stroke-dasharray:none" />
      <rect
         style="fill:#ffcb00;fill-opacity:1;stroke-width:25;stroke-miterlimit:4;stroke-dasharray:none"
         id="rect4559"
         width="2500"
         height="25"
         x="-2486.916"
         y="21.779898"
         transform="matrix(-0.70710678,0.70710678,-0.70710678,-0.70710678,0,0)" />
    </g>
    <g
       style="opacity:0.25;fill:#ffcb00;fill-opacity:1"
       transform="matrix(-1,0,0,-1,1043.4037,-1425.9123)"
       id="g4549">
      <rect
         style="fill:#ffcb00;fill-opacity:1;stroke-width:25;stroke-miterlimit:4;stroke-dasharray:none"
         id="rect4551"
         width="2500"
         height="25"
         x="-2521.7168"
         y="-11.983567"
         transform="matrix(0.70710678,0.70710678,-0.70710678,0.70710678,0,0)" />
      <rect
         transform="matrix(-0.70710678,0.70710678,-0.70710678,-0.70710678,0,0)"
         y="21.779898"
         x="-2486.916"
         height="25"
         width="2500"
         id="rect4553"
         style="fill:#ffcb00;fill-opacity:1;stroke-width:25;stroke-miterlimit:4;stroke-dasharray:none" />
    </g>
    <g
       id="g4537"
       transform="matrix(-1,0,0,-1,1043.4037,-1325.9123)"
       style="opacity:0.25;fill:#ffcb00;fill-opacity:1">
      <rect
         transform="matrix(0.70710678,0.70710678,-0.70710678,0.70710678,0,0)"
         y="-11.983567"
         x="-2521.7168"
         height="25"
         width="2500"
         id="rect4539"
         style="fill:#ffcb00;fill-opacity:1;stroke-width:25;stroke-miterlimit:4;stroke-dasharray:none" />
      <rect
         style="fill:#ffcb00;fill-opacity:1;stroke-width:25;stroke-miterlimit:4;stroke-dasharray:none"
         id="rect4541"
         width="2500"
         height="25"
         x="-2486.916"
         y="21.779898"
         transform="matrix(-0.70710678,0.70710678,-0.70710678,-0.70710678,0,0)" />
    </g>
    <g
       style="opacity:0.25;fill:#ffcb00;fill-opacity:1"
       transform="matrix(-1,0,0,-1,1043.4037,-1325.9123)"
       id="g4531">
      <rect
         style="fill:#ffcb00;fill-opacity:1;stroke-width:25;stroke-miterlimit:4;stroke-dasharray:none"
         id="rect4533"
         width="2500"
         height="25"
         x="-2521.7168"
         y="-11.983567"
         transform="matrix(0.70710678,0.70710678,-0.70710678,0.70710678,0,0)" />
      <rect
         transform="matrix(-0.70710678,0.70710678,-0.70710678,-0.70710678,0,0)"
         y="21.779898"
         x="-2486.916"
         height="25"
         width="2500"
         id="rect4535"
         style="fill:#ffcb00;fill-opacity:1;stroke-width:25;stroke-miterlimit:4;stroke-dasharray:none" />
    </g>
    <path
       sodipodi:nodetypes="ccccc"
       inkscape:connector-curvature="0"
       id="path4143"
       d="m 1412.219,-1412.5031 702.542,0 -479.6421,1136.73678 -102.9894,0 z"
       style="opacity:1;fill:#bca041;fill-opacity:0.81104653;stroke:#000000;stroke-width:29.97763252;stroke-miterlimit:4;stroke-dasharray:none;stroke-opacity:1" />
    <path
       style="fill:#96807d;fill-opacity:1;stroke:#000000;stroke-width:29.97763252;stroke-miterlimit:4;stroke-dasharray:none;stroke-opacity:1"
       d="m 1196.38,-1652.3242 702.542,0 -359.7316,1136.73682 -222.8999,0 z"
       id="path4141"
       inkscape:connector-curvature="0"
       sodipodi:nodetypes="ccccc" />
    <path
       sodipodi:nodetypes="ccccc"
       inkscape:connector-curvature="0"
       id="path4139"
       d="m 956.55901,-1892.1452 702.54199,0 -239.8211,1136.73676 -342.8104,0 z"
       style="fill:#dabc93;fill-opacity:1;stroke:#000000;stroke-width:29.97763252;stroke-miterlimit:4;stroke-dasharray:none;stroke-opacity:1" />
    <path
       style="fill:#bca041;fill-opacity:0.81104653;stroke:#000000;stroke-width:29.97763252;stroke-miterlimit:4;stroke-dasharray:none;stroke-opacity:1"
       d="m 747.78099,-1412.5031 -702.542014,0 479.642124,1136.73678 102.98936,0 z"
       id="path4149"
       inkscape:connector-curvature="0"
       sodipodi:nodetypes="ccccc" />
    <path
       sodipodi:nodetypes="ccccc"
       inkscape:connector-curvature="0"
       id="path4147"
       d="m 963.61995,-1652.3242 -702.54201,0 359.73159,1136.73682 222.89989,0 z"
       style="fill:#96807d;fill-opacity:1;stroke:#000000;stroke-width:29.97763252;stroke-miterlimit:4;stroke-dasharray:none;stroke-opacity:1" />
    <path
       style="fill:#dabc93;fill-opacity:1;stroke:#000000;stroke-width:29.97763252;stroke-miterlimit:4;stroke-dasharray:none;stroke-opacity:1"
       d="m 1203.4409,-1892.1452 -702.5419,0 239.82106,1136.73676 342.81034,0 z"
       id="path4145"
       inkscape:connector-curvature="0"
       sodipodi:nodetypes="ccccc" />
    <path
       style="fill:#a2acbc;fill-opacity:1;stroke:#000000;stroke-width:17.9865799;stroke-miterlimit:4;stroke-dasharray:none;stroke-opacity:1"
       d="m 716.73794,-2131.9663 702.54196,0 -119.9105,1136.73678 -462.72093,0 z"
       id="rect4136"
       inkscape:connector-curvature="0"
       sodipodi:nodetypes="ccccc" />
    <rect
       style="opacity:1;fill:#ffffff;fill-opacity:1;stroke:#000000;stroke-width:29.97763252;stroke-miterlimit:4;stroke-dasharray:none;stroke-opacity:1"
       id="rect4151"
       width="1148.8525"
       height="1148.8525"
       x="-121.78198"
       y="-1632.1763"
       transform="matrix(0.70710678,0.70710678,-0.70710678,0.70710678,0,0)"
       ry="0" />
    <rect
       style="opacity:1;fill:#4a87a6;fill-opacity:0;stroke:none;stroke-width:15;stroke-miterlimit:4;stroke-dasharray:none;stroke-opacity:1"
       id="rect4230"
       width="485.71429"
       height="362.14285"
       x="-5315.7144"
       y="-317.63779" />
    <path
       style="fill:#000000;fill-opacity:1"
       d="m 2160,1052.3621 -151.8808,10e-5 -151.879,-10e-5 0,-4.375 0,-4.375 30,10e-5 30.0001,0 -10e-5,-21.2501 0,-21.2499 10.582,0 10.582,0 0.3555,-13.37115 0.3555,-13.37103 36.875,0.33785 c 20.2813,0.18583 37.8628,-0.046 39.0704,-0.51562 1.2074,-0.46951 4.572,-5.43256 7.4785,-11.02931 10.6546,-20.51662 29.2917,-38.61948 50.6386,-49.19137 l 9.0625,-4.48836 10e-5,-37.93549 -10e-5,-37.93564 13.1251,0 13.1249,7e-5 0,-11.87501 0,-11.87501 21.2265,0 21.2266,7e-5 0.3359,-29.06251 0.3361,-29.06259 4.3749,7e-5 4.375,0 0.3164,150.31245 0.3184,150.31248 z m -10.0098,-8.7499 10e-5,-49.24025 0,-49.24023 -8.8418,-2.16607 c -11.9596,-2.93082 -32.2193,-2.0345 -43.4806,1.92389 -24.8748,8.74366 -44.5494,31.74153 -49.5606,57.93166 -2.5204,13.1739 -2.1845,21.6864 1.3517,34.2284 l 1.8516,6.5625 49.3398,0 49.3398,10e-5 z m 10e-5,-138.45705 0,-32.02147 0,-32.02161 -17.5,7e-5 -17.5001,0 10e-5,30.4512 0,30.45113 14.0624,0.76374 c 7.7344,0.42017 15.6094,1.12706 17.5001,1.57021 l 3.4375,0.80673 z m 0,-71.54308 0,-8.12494 0,-8.12501 -17.5,0 -17.5001,0 0,8.12508 0,8.12494 17.5001,0 17.5,-7e-5 z m -0.072,102.2306 c 0.011,-0.56031 -0.052,-1.31289 -0.1485,-2.30467 -0.3718,-3.82241 -0.8997,-4.28691 -6.6542,-5.85365 -8.9567,-2.43789 -30.6947,-2.39009 -40.9122,0.0901 -35.0764,8.5135 -61.7194,35.97704 -68.9746,71.10158 -2.7674,13.39817 -2.3886,27.44507 1.127,41.92377 0.5487,2.2599 1.5531,2.8126 5.1172,2.8126 4.0337,-10e-5 4.3537,-0.2548 3.5332,-2.8125 -3.5684,-11.1237 -4.1151,-32.3015 -1.1387,-44.11131 8.7904,-34.87946 40.0904,-60.62345 76.2481,-62.71295 9.9871,-0.57714 15.026,-0.059 28.5292,2.93159 2.5296,0.56024 3.2393,0.61646 3.2735,-1.06433 z m -42.4277,-32.23049 0,-31.25002 0,-31.25002 -9.375,0 -9.375,0 0,33.01368 0,33.01178 6.5625,-1.74811 c 3.6093,-0.96075 7.828,-1.75172 9.375,-1.76169 l 2.8125,-0.0161 z m -94.9201,80.90037 c -0.016,-3.78882 -5.6173,-3.40041 -33.8299,-3.40041 l -33.75,0 0,10.00005 -10e-5,10.00001 31.8516,0 31.8496,-10e-5 0.7715,-3.43747 c 0.4237,-1.89059 1.2737,-5.40625 1.8906,-7.81247 0.6053,-2.3606 1.2221,-4.08672 1.2167,-5.34961 z m -2.2577,59.09965 -0.8907,-6.5625 c -0.4894,-3.6094 -1.117,-11.625 -1.3945,-17.8125 l -0.5038,-11.2501 -31.2677,-0.3339 -31.2656,-0.3341 10e-5,18.1466 0,18.1465 32.6601,0 32.6621,0 z m -72.8222,0 -10e-5,-18.1894 10e-5,-18.1914 -6.5625,0.3789 -6.5626,0.3768 -0.3476,17.8126 -0.3457,17.8125 6.9081,0 6.9103,0 z"
       id="path4315"
       inkscape:connector-curvature="0" />
    <path
       inkscape:connector-curvature="0"
       id="path4330"
       d="m 0,1052.3621 151.8808,10e-5 151.879,-10e-5 0,-4.375 0,-4.375 -30.0001,10e-5 -30,0 1e-4,-21.2501 0,-21.2499 -10.582,0 -10.582,0 -0.3555,-13.37115 -0.3555,-13.37103 -36.8751,0.33785 c -20.2812,0.18583 -37.8628,-0.046 -39.0703,-0.51562 -1.2074,-0.46951 -4.572,-5.43256 -7.4785,-11.02931 -10.6546,-20.51662 -29.2917,-38.61947 -50.6387,-49.19136 l -9.0625,-4.48836 0,-37.9355 0,-37.93564 -13.125,0 -13.125,7e-5 0,-11.87501 0,-11.87501 -21.2265,0 -21.2265,7e-5 -0.3359,-29.06251 -0.3361,-29.06258 -4.3749,7e-5 -4.375,0 L 0.3183,902.04962 0,1052.3621 Z m 10.0097,-8.7499 0,-49.24025 0,-49.24023 8.8418,-2.16607 c 11.9595,-2.93082 32.2193,-2.0345 43.4805,1.92389 24.8749,8.74366 44.5495,31.74153 49.5606,57.93166 2.5205,13.1739 2.1846,21.6864 -1.3516,34.2284 l -1.8516,6.5625 -49.3398,0 -49.3399,10e-5 z m 0,-138.45704 0,-32.02148 0,-32.02161 17.5,7e-5 17.5,0 0,30.4512 0,30.45113 -14.0625,0.76375 c -7.7343,0.42016 -15.6093,1.12706 -17.5,1.5702 l -3.4375,0.80674 z m 0,-71.54309 0,-8.12494 -10e-5,-8.12501 17.5001,0 17.5,0 0,8.12508 0,8.12494 -17.5,0 -17.5,-7e-5 z m 0.072,102.2306 c -0.011,-0.56031 0.052,-1.31288 0.1484,-2.30467 0.3719,-3.82241 0.8998,-4.28691 6.6543,-5.85364 8.9567,-2.43789 30.6947,-2.39009 40.9122,0.0901 35.0764,8.51349 61.7194,35.97703 68.9746,71.10157 2.7674,13.39817 2.3886,27.44507 -1.127,41.92377 -0.5487,2.2599 -1.5531,2.8126 -5.1172,2.8126 -4.0337,-10e-5 -4.3537,-0.2548 -3.5332,-2.8125 3.5683,-11.1237 4.1151,-32.3015 1.1387,-44.11131 -8.7905,-34.87946 -40.0905,-60.62345 -76.2481,-62.71295 -9.9872,-0.57714 -15.026,-0.059 -28.5293,2.9316 -2.5295,0.56024 -3.2392,0.61645 -3.2735,-1.06434 z m 42.4277,-32.23049 0,-31.25002 0,-31.25002 9.375,0 9.3749,0 0,33.01369 1e-4,33.01177 -6.5625,-1.74811 c -3.6093,-0.96074 -7.828,-1.75171 -9.375,-1.76168 l -2.8125,-0.0161 z m 94.92,80.90037 c 0.016,-3.78882 5.6174,-3.40041 33.8299,-3.40041 l 33.7501,0 0,10.00005 1e-4,10.00001 -31.8516,0 -31.8496,-10e-5 -0.7716,-3.43747 c -0.4236,-1.89059 -1.2736,-5.40625 -1.8905,-7.81247 -0.6053,-2.3606 -1.2221,-4.08672 -1.2168,-5.34961 z m 2.2578,59.09965 0.8907,-6.5625 c 0.4894,-3.6094 1.117,-11.625 1.3945,-17.8125 l 0.5037,-11.2501 31.2678,-0.3339 31.2656,-0.3341 -1e-4,18.1466 0,18.1465 -32.6601,0 -32.6621,0 z m 72.8222,0 1e-4,-18.1894 -1e-4,-18.1914 6.5625,0.3789 6.5625,0.3768 0.3477,17.8126 0.3457,17.8125 -6.9081,0 -6.9103,0 z"
       style="fill:#000000;fill-opacity:1" />
    <path
       style="fill:#000000;fill-opacity:1"
       d="m 0,-2187.6377 151.88079,-10e-5 151.879,10e-5 0,4.375 0,4.375 -30,-10e-5 -30.0001,0 1e-4,21.2501 0,21.2499 -10.582,0 -10.582,0 -0.3555,13.3711 -0.3555,13.3711 -36.875,-0.3379 c -20.2813,-0.1858 -37.8628,0.046 -39.0704,0.5156 -1.2074,0.4696 -4.572,5.4326 -7.4785,11.0294 -10.6546,20.5166 -29.2917,38.6194 -50.6386,49.1913 l -9.0625,4.4884 -10e-5,37.9355 10e-5,37.9356 -13.1251,0 -13.12493,0 0,11.875 0,11.875 -21.2265,0 -21.22657,-10e-5 -0.33587,29.0625 -0.33609,29.0626 -4.37494,-10e-5 -4.37501,0 L 0.31835,-2037.3252 1e-5,-2187.6377 Z m 10.00974,8.7499 -1e-5,49.2403 0,49.2402 8.84175,2.1661 c 11.95958,2.9308 32.21931,2.0345 43.48061,-1.9239 24.8748,-8.7437 44.5494,-31.7416 49.5606,-57.9317 2.5204,-13.1739 2.1845,-21.6864 -1.3517,-34.2284 l -1.8516,-6.5625 -49.3398,0 -49.33985,-10e-5 z m -1e-5,138.457 0,32.0215 0,32.0216 17.49998,0 17.50004,0 -7e-5,-30.4512 0,-30.4512 -14.06244,-0.7637 c -7.73434,-0.4202 -15.60931,-1.1271 -17.50005,-1.5702 l -3.43746,-0.8068 z m 0,71.5431 0,8.125 -7e-5,8.125 17.50005,0 17.50004,0 0,-8.1251 0,-8.1249 -17.50004,0 -17.49998,0 z m 0.0723,-102.2306 c -0.0114,0.5604 0.0518,1.3129 0.14842,2.3047 0.37187,3.8224 0.89973,4.2869 6.65423,5.8536 8.95671,2.4379 30.69473,2.3901 40.91221,-0.09 35.0764,-8.5135 61.7194,-35.9771 68.9746,-71.1016 2.7674,-13.3982 2.3886,-27.4451 -1.127,-41.9238 -0.5487,-2.2599 -1.5531,-2.8126 -5.1172,-2.8126 -4.0337,10e-5 -4.3537,0.2548 -3.5332,2.8125 3.5684,11.1237 4.1151,32.3015 1.1387,44.1113 -8.7904,34.8795 -40.0904,60.6235 -76.24806,62.713 -9.98718,0.5771 -15.02602,0.059 -28.52929,-2.9316 -2.52953,-0.5603 -3.23925,-0.6165 -3.27348,1.0643 z m 42.42768,32.2305 0,31.2501 0,31.25 9.37498,0 9.375,0 0,-33.0137 0,-33.0118 -6.5625,1.7481 c -3.6093,0.9608 -7.828,1.7517 -9.37496,1.7617 l -2.81252,0.016 z m 94.92008,-80.9003 c 0.016,3.7888 5.6173,3.4004 33.8299,3.4004 l 33.75,0 0,-10.0001 1e-4,-10 -31.8516,0 -31.8496,10e-5 -0.7715,3.4375 c -0.4237,1.8906 -1.2737,5.4062 -1.8906,7.8124 -0.6053,2.3606 -1.2221,4.0868 -1.2167,5.3497 z m 2.2577,-59.0997 0.8907,6.5625 c 0.4894,3.6094 1.117,11.625 1.3945,17.8125 l 0.5038,11.2501 31.2677,0.3339 31.2656,0.3341 -1e-4,-18.1466 0,-18.1465 -32.6601,0 -32.6621,0 z m 72.8222,0 1e-4,18.1894 -1e-4,18.1914 6.5625,-0.3789 6.5626,-0.3768 0.3476,-17.8126 0.3457,-17.8125 -6.9081,0 -6.9103,0 z"
       id="path4332"
       inkscape:connector-curvature="0" />
    <path
       inkscape:connector-curvature="0"
       id="path4334"
       d="m 2160,-2187.6377 -151.8808,-10e-5 -151.879,10e-5 0,4.375 0,4.375 30.0001,-10e-5 30,0 -10e-5,21.2501 0,21.2499 10.582,0 10.582,0 0.3555,13.3712 0.3555,13.371 36.8751,-0.3379 c 20.2812,-0.1858 37.8628,0.046 39.0703,0.5157 1.2074,0.4695 4.572,5.4325 7.4785,11.0293 10.6546,20.5166 29.2917,38.6194 50.6387,49.1913 l 9.0625,4.4884 0,37.9355 0,37.9356 13.125,0 13.125,0 0,11.875 0,11.875 21.2265,0 21.2265,-10e-5 0.3359,29.0625 0.3361,29.0626 4.3749,-10e-5 4.375,0 0.3165,-150.3124 0.3183,-150.3125 z m -10.0097,8.7499 0,49.2403 0,49.2402 -8.8418,2.1661 c -11.9595,2.9308 -32.2193,2.0345 -43.4805,-1.9239 -24.8749,-8.7437 -44.5495,-31.7416 -49.5606,-57.9317 -2.5205,-13.1739 -2.1846,-21.6864 1.3516,-34.2284 l 1.8516,-6.5625 49.3398,0 49.3399,-10e-5 z m 0,138.4571 0,32.0214 0,32.0216 -17.5,0 -17.5,0 0,-30.4512 0,-30.4512 14.0625,-0.7637 c 7.7343,-0.4202 15.6093,-1.1271 17.5,-1.5702 l 3.4375,-0.8067 z m 0,71.543 0,8.125 1e-4,8.125 -17.5001,0 -17.5,0 0,-8.1251 0,-8.1249 17.5,0 17.5,0 z m -0.072,-102.2306 c 0.011,0.5603 -0.052,1.3129 -0.1484,2.3047 -0.3719,3.8224 -0.8998,4.2869 -6.6543,5.8537 -8.9567,2.4378 -30.6947,2.39 -40.9122,-0.09 -35.0764,-8.5135 -61.7194,-35.9771 -68.9746,-71.1016 -2.7674,-13.3982 -2.3886,-27.4451 1.127,-41.9238 0.5487,-2.2599 1.5531,-2.8126 5.1172,-2.8126 4.0337,10e-5 4.3537,0.2548 3.5332,2.8125 -3.5683,11.1237 -4.1151,32.3015 -1.1387,44.1113 8.7905,34.8795 40.0905,60.6235 76.2481,62.713 9.9872,0.5771 15.026,0.059 28.5293,-2.9316 2.5295,-0.5603 3.2392,-0.6165 3.2735,1.0643 z m -42.4277,32.2305 0,31.25 0,31.2501 -9.375,0 -9.3749,0 0,-33.0137 -10e-5,-33.0118 6.5625,1.7481 c 3.6093,0.9608 7.828,1.7517 9.375,1.7617 l 2.8125,0.016 z m -94.92,-80.9003 c -0.016,3.7888 -5.6174,3.4004 -33.8299,3.4004 l -33.7501,0 0,-10.0001 -10e-5,-10 31.8516,0 31.8496,10e-5 0.7716,3.4375 c 0.4236,1.8906 1.2736,5.4062 1.8905,7.8124 0.6053,2.3606 1.2221,4.0868 1.2168,5.3497 z m -2.2578,-59.0997 -0.8907,6.5625 c -0.4894,3.6094 -1.117,11.625 -1.3945,17.8125 l -0.5037,11.2501 -31.2678,0.3339 -31.2656,0.3341 10e-5,-18.1466 0,-18.1465 32.6601,0 32.6621,0 z m -72.8222,0 -10e-5,18.1894 10e-5,18.1914 -6.5625,-0.3789 -6.5625,-0.3768 -0.3477,-17.8126 -0.3457,-17.8125 6.9081,0 6.9103,0 z"
       style="fill:#000000;fill-opacity:1" />
    <text
       xml:space="preserve"
       style="font-style:normal;font-weight:normal;font-size:66.34179688px;line-height:125%;font-family:sans-serif;letter-spacing:0px;word-spacing:0px;fill:#000000;fill-opacity:1;stroke:none;stroke-width:1px;stroke-linecap:butt;stroke-linejoin:miter;stroke-opacity:1"
       x="712.88672"
       y="-514.96814"
       id="text4357"
       sodipodi:linespacing="125%"><tspan
         sodipodi:role="line"
         x="712.88672"
         y="-514.96814"
         style="font-style:normal;font-variant:normal;font-weight:normal;font-stretch:normal;font-size:312.5px;font-family:'Grenadier NF';-inkscape-font-specification:'Grenadier NF'"
         id="tspan4371">Prom</tspan></text>
    <text
       xml:space="preserve"
       style="font-style:normal;font-weight:normal;font-size:40px;line-height:125%;font-family:sans-serif;letter-spacing:0px;word-spacing:0px;fill:#000000;fill-opacity:1;stroke:none;stroke-width:1px;stroke-linecap:butt;stroke-linejoin:miter;stroke-opacity:1"
       x="759.23688"
       y="-220.27795"
       id="text4357-4"
       sodipodi:linespacing="125%"><tspan
         sodipodi:role="line"
         x="759.23688"
         y="-220.27795"
         style="font-style:normal;font-variant:normal;font-weight:normal;font-stretch:normal;font-size:180px;font-family:'Grenadier NF';-inkscape-font-specification:'Grenadier NF'"
         id="tspan4395">Whenever</tspan></text>
    <flowRoot
       xml:space="preserve"
       id="flowRoot4431"
       style="font-style:normal;font-weight:normal;font-size:40px;line-height:125%;font-family:sans-serif;letter-spacing:0px;word-spacing:0px;fill:#000000;fill-opacity:1;stroke:none;stroke-width:1px;stroke-linecap:butt;stroke-linejoin:miter;stroke-opacity:1"
       transform="translate(-387.89858,-2308.8561)"><flowRegion
         id="flowRegion4433"><rect
           id="rect4435"
           width="2020.3051"
           height="606.09137"
           x="581.8479"
           y="2747.0457" /></flowRegion><flowPara
         id="flowPara4437"
         style="font-size:80px">&quot;It's always party time&quot; or whatever the quote is</flowPara></flowRoot>    <g
       id="g4443"
       transform="translate(1092.6163,511.83339)"
       style="fill:#ffcb00;fill-opacity:1;opacity:0.25">
      <rect
         transform="matrix(0.70710678,0.70710678,-0.70710678,0.70710678,0,0)"
         y="-11.983567"
         x="-2521.7168"
         height="25"
         width="2500"
         id="rect4439"
         style="fill:#ffcb00;fill-opacity:1;stroke-width:25;stroke-miterlimit:4;stroke-dasharray:none" />
      <rect
         style="fill:#ffcb00;fill-opacity:1;stroke-width:25;stroke-miterlimit:4;stroke-dasharray:none"
         id="rect4441"
         width="2500"
         height="25"
         x="-2486.916"
         y="21.779898"
         transform="matrix(-0.70710678,0.70710678,-0.70710678,-0.70710678,0,0)" />
    </g>
    <g
       transform="translate(1092.6163,611.83339)"
       id="g4447"
       style="fill:#ffcb00;fill-opacity:1;opacity:0.25">
      <rect
         style="fill:#ffcb00;fill-opacity:1;stroke-width:25;stroke-miterlimit:4;stroke-dasharray:none"
         id="rect4449"
         width="2500"
         height="25"
         x="-2521.7168"
         y="-11.983567"
         transform="matrix(0.70710678,0.70710678,-0.70710678,0.70710678,0,0)" />
      <rect
         transform="matrix(-0.70710678,0.70710678,-0.70710678,-0.70710678,0,0)"
         y="21.779898"
         x="-2486.916"
         height="25"
         width="2500"
         id="rect4451"
         style="fill:#ffcb00;fill-opacity:1;stroke-width:25;stroke-miterlimit:4;stroke-dasharray:none" />
    </g>
    <g
       id="g4453"
       transform="translate(1092.6163,711.83339)"
       style="fill:#ffcb00;fill-opacity:1;opacity:0.25">
      <rect
         transform="matrix(0.70710678,0.70710678,-0.70710678,0.70710678,0,0)"
         y="-11.983567"
         x="-2521.7168"
         height="25"
         width="2500"
         id="rect4455"
         style="fill:#ffcb00;fill-opacity:1;stroke-width:25;stroke-miterlimit:4;stroke-dasharray:none" />
      <rect
         style="fill:#ffcb00;fill-opacity:1;stroke-width:25;stroke-miterlimit:4;stroke-dasharray:none"
         id="rect4457"
         width="2500"
         height="25"
         x="-2486.916"
         y="21.779898"
         transform="matrix(-0.70710678,0.70710678,-0.70710678,-0.70710678,0,0)" />
    </g>
    <g
       transform="translate(1092.6163,811.83339)"
       id="g4459"
       style="fill:#ffcb00;fill-opacity:1;opacity:0.25">
      <rect
         style="fill:#ffcb00;fill-opacity:1;stroke-width:25;stroke-miterlimit:4;stroke-dasharray:none"
         id="rect4461"
         width="2500"
         height="25"
         x="-2521.7168"
         y="-11.983567"
         transform="matrix(0.70710678,0.70710678,-0.70710678,0.70710678,0,0)" />
      <rect
         transform="matrix(-0.70710678,0.70710678,-0.70710678,-0.70710678,0,0)"
         y="21.779898"
         x="-2486.916"
         height="25"
         width="2500"
         id="rect4463"
         style="fill:#ffcb00;fill-opacity:1;stroke-width:25;stroke-miterlimit:4;stroke-dasharray:none" />
    </g>
    <g
       id="g4465"
       transform="translate(1092.6163,911.83339)"
       style="fill:#ffcb00;fill-opacity:1;opacity:0.25">
      <rect
         transform="matrix(0.70710678,0.70710678,-0.70710678,0.70710678,0,0)"
         y="-11.983567"
         x="-2521.7168"
         height="25"
         width="2500"
         id="rect4467"
         style="fill:#ffcb00;fill-opacity:1;stroke-width:25;stroke-miterlimit:4;stroke-dasharray:none" />
      <rect
         style="fill:#ffcb00;fill-opacity:1;stroke-width:25;stroke-miterlimit:4;stroke-dasharray:none"
         id="rect4469"
         width="2500"
         height="25"
         x="-2486.916"
         y="21.779898"
         transform="matrix(-0.70710678,0.70710678,-0.70710678,-0.70710678,0,0)" />
    </g>
    <g
       transform="translate(1092.6163,1011.8334)"
       id="g4471"
       style="fill:#ffcb00;fill-opacity:1;opacity:0.25">
      <rect
         style="fill:#ffcb00;fill-opacity:1;stroke-width:25;stroke-miterlimit:4;stroke-dasharray:none"
         id="rect4473"
         width="2500"
         height="25"
         x="-2521.7168"
         y="-11.983567"
         transform="matrix(0.70710678,0.70710678,-0.70710678,0.70710678,0,0)" />
      <rect
         transform="matrix(-0.70710678,0.70710678,-0.70710678,-0.70710678,0,0)"
         y="21.779898"
         x="-2486.916"
         height="25"
         width="2500"
         id="rect4475"
         style="fill:#ffcb00;fill-opacity:1;stroke-width:25;stroke-miterlimit:4;stroke-dasharray:none" />
    </g>
    <g
       id="g4477"
       transform="translate(1092.6163,1111.8334)"
       style="fill:#ffcb00;fill-opacity:1;opacity:0.25">
      <rect
         transform="matrix(0.70710678,0.70710678,-0.70710678,0.70710678,0,0)"
         y="-11.983567"
         x="-2521.7168"
         height="25"
         width="2500"
         id="rect4479"
         style="fill:#ffcb00;fill-opacity:1;stroke-width:25;stroke-miterlimit:4;stroke-dasharray:none" />
      <rect
         style="fill:#ffcb00;fill-opacity:1;stroke-width:25;stroke-miterlimit:4;stroke-dasharray:none"
         id="rect4481"
         width="2500"
         height="25"
         x="-2486.916"
         y="21.779898"
         transform="matrix(-0.70710678,0.70710678,-0.70710678,-0.70710678,0,0)" />
    </g>
    <g
       transform="translate(1092.6163,1211.8334)"
       id="g4483"
       style="fill:#ffcb00;fill-opacity:1;opacity:0.25">
      <rect
         style="fill:#ffcb00;fill-opacity:1;stroke-width:25;stroke-miterlimit:4;stroke-dasharray:none"
         id="rect4485"
         width="2500"
         height="25"
         x="-2521.7168"
         y="-11.983567"
         transform="matrix(0.70710678,0.70710678,-0.70710678,0.70710678,0,0)" />
      <rect
         transform="matrix(-0.70710678,0.70710678,-0.70710678,-0.70710678,0,0)"
         y="21.779898"
         x="-2486.916"
         height="25"
         width="2500"
         id="rect4487"
         style="fill:#ffcb00;fill-opacity:1;stroke-width:25;stroke-miterlimit:4;stroke-dasharray:none" />
    </g>
    <g
       id="g4489"
       transform="translate(1092.6163,1311.8334)"
       style="fill:#ffcb00;fill-opacity:1;opacity:0.25">
      <rect
         transform="matrix(0.70710678,0.70710678,-0.70710678,0.70710678,0,0)"
         y="-11.983567"
         x="-2521.7168"
         height="25"
         width="2500"
         id="rect4491"
         style="fill:#ffcb00;fill-opacity:1;stroke-width:25;stroke-miterlimit:4;stroke-dasharray:none" />
      <rect
         style="fill:#ffcb00;fill-opacity:1;stroke-width:25;stroke-miterlimit:4;stroke-dasharray:none"
         id="rect4493"
         width="2500"
         height="25"
         x="-2486.916"
         y="21.779898"
         transform="matrix(-0.70710678,0.70710678,-0.70710678,-0.70710678,0,0)" />
    </g>
    <g
       transform="translate(1092.6163,1411.8334)"
       id="g4495"
       style="fill:#ffcb00;fill-opacity:1;opacity:0.25">
      <rect
         style="fill:#ffcb00;fill-opacity:1;stroke-width:25;stroke-miterlimit:4;stroke-dasharray:none"
         id="rect4497"
         width="2500"
         height="25"
         x="-2521.7168"
         y="-11.983567"
         transform="matrix(0.70710678,0.70710678,-0.70710678,0.70710678,0,0)" />
      <rect
         transform="matrix(-0.70710678,0.70710678,-0.70710678,-0.70710678,0,0)"
         y="21.779898"
         x="-2486.916"
         height="25"
         width="2500"
         id="rect4499"
         style="fill:#ffcb00;fill-opacity:1;stroke-width:25;stroke-miterlimit:4;stroke-dasharray:none" />
    </g>
    <g
       id="g4501"
       transform="translate(1092.6163,1511.8334)"
       style="fill:#ffcb00;fill-opacity:1;opacity:0.25">
      <rect
         transform="matrix(0.70710678,0.70710678,-0.70710678,0.70710678,0,0)"
         y="-11.983567"
         x="-2521.7168"
         height="25"
         width="2500"
         id="rect4503"
         style="fill:#ffcb00;fill-opacity:1;stroke-width:25;stroke-miterlimit:4;stroke-dasharray:none" />
      <rect
         style="fill:#ffcb00;fill-opacity:1;stroke-width:25;stroke-miterlimit:4;stroke-dasharray:none"
         id="rect4505"
         width="2500"
         height="25"
         x="-2486.916"
         y="21.779898"
         transform="matrix(-0.70710678,0.70710678,-0.70710678,-0.70710678,0,0)" />
    </g>
    <g
       transform="translate(1092.6163,1611.8334)"
       id="g4507"
       style="fill:#ffcb00;fill-opacity:1;opacity:0.25">
      <rect
         style="fill:#ffcb00;fill-opacity:1;stroke-width:25;stroke-miterlimit:4;stroke-dasharray:none"
         id="rect4509"
         width="2500"
         height="25"
         x="-2521.7168"
         y="-11.983567"
         transform="matrix(0.70710678,0.70710678,-0.70710678,0.70710678,0,0)" />
      <rect
         transform="matrix(-0.70710678,0.70710678,-0.70710678,-0.70710678,0,0)"
         y="21.779898"
         x="-2486.916"
         height="25"
         width="2500"
         id="rect4511"
         style="fill:#ffcb00;fill-opacity:1;stroke-width:25;stroke-miterlimit:4;stroke-dasharray:none" />
    </g>
    <g
       id="g4513"
       transform="translate(1092.6163,1711.8334)"
       style="fill:#ffcb00;fill-opacity:1;opacity:0.25">
      <rect
         transform="matrix(0.70710678,0.70710678,-0.70710678,0.70710678,0,0)"
         y="-11.983567"
         x="-2521.7168"
         height="25"
         width="2500"
         id="rect4515"
         style="fill:#ffcb00;fill-opacity:1;stroke-width:25;stroke-miterlimit:4;stroke-dasharray:none" />
      <rect
         style="fill:#ffcb00;fill-opacity:1;stroke-width:25;stroke-miterlimit:4;stroke-dasharray:none"
         id="rect4517"
         width="2500"
         height="25"
         x="-2486.916"
         y="21.779898"
         transform="matrix(-0.70710678,0.70710678,-0.70710678,-0.70710678,0,0)" />
    </g>
    <g
       transform="translate(1092.6163,1811.8334)"
       id="g4519"
       style="fill:#ffcb00;fill-opacity:1;opacity:0.25">
      <rect
         style="fill:#ffcb00;fill-opacity:1;stroke-width:25;stroke-miterlimit:4;stroke-dasharray:none"
         id="rect4521"
         width="2500"
         height="25"
         x="-2521.7168"
         y="-11.983567"
         transform="matrix(0.70710678,0.70710678,-0.70710678,0.70710678,0,0)" />
      <rect
         transform="matrix(-0.70710678,0.70710678,-0.70710678,-0.70710678,0,0)"
         y="21.779898"
         x="-2486.916"
         height="25"
         width="2500"
         id="rect4523"
         style="fill:#ffcb00;fill-opacity:1;stroke-width:25;stroke-miterlimit:4;stroke-dasharray:none" />
    </g>
    <rect
       style="opacity:1;fill:#ffffff;fill-opacity:1;stroke-width:25;stroke-miterlimit:4;stroke-dasharray:none"
       id="rect4525"
       width="2502.8572"
       height="660"
       x="0"
       y="1052.3622" />
    <rect
       style="opacity:1;fill:#ffffff;fill-opacity:1;stroke-width:25;stroke-miterlimit:4;stroke-dasharray:none"
       id="rect4527"
       width="1694.2858"
       height="3677.1428"
       x="2160"
       y="-2624.7808" />
    <rect
       style="opacity:1;fill:#ffffff;fill-opacity:1;stroke-width:25;stroke-miterlimit:4;stroke-dasharray:none"
       id="rect4529"
       width="931.42853"
       height="3891.4287"
       x="-931.42853"
       y="-2839.0664" />
    <rect
       style="opacity:1;fill:#ffffff;fill-opacity:1;stroke-width:25;stroke-miterlimit:4;stroke-dasharray:none"
       id="rect4663"
       width="2645.7144"
       height="754.28577"
       x="0"
       y="-2941.9236" />
  </g>
</svg>
