<?xml version="1.0" encoding="UTF-8" standalone="no"?>
<!-- Created with Inkscape (http://www.inkscape.org/) -->

<svg
   xmlns:dc="http://purl.org/dc/elements/1.1/"
   xmlns:cc="http://creativecommons.org/ns#"
   xmlns:rdf="http://www.w3.org/1999/02/22-rdf-syntax-ns#"
   xmlns:svg="http://www.w3.org/2000/svg"
   xmlns="http://www.w3.org/2000/svg"
   xmlns:sodipodi="http://sodipodi.sourceforge.net/DTD/sodipodi-0.dtd"
   xmlns:inkscape="http://www.inkscape.org/namespaces/inkscape"
   width="675"
   height="360"
   id="svg2"
   version="1.1"
   inkscape:version="0.48.5 r10040"
   sodipodi:docname="New document 1">
  <defs
     id="defs4" />
  <sodipodi:namedview
     id="base"
     pagecolor="#ffffff"
     bordercolor="#666666"
     borderopacity="1.0"
     inkscape:pageopacity="0.0"
     inkscape:pageshadow="2"
     inkscape:zoom="1.4142136"
     inkscape:cx="339.22572"
     inkscape:cy="252.06325"
     inkscape:document-units="px"
     inkscape:current-layer="layer1"
     showgrid="false"
     units="in"
     width="11in"
     inkscape:window-width="1920"
     inkscape:window-height="1032"
     inkscape:window-x="0"
     inkscape:window-y="29"
     inkscape:window-maximized="1"
     inkscape:snap-page="true" />
  <metadata
     id="metadata7">
    <rdf:RDF>
      <cc:Work
         rdf:about="">
        <dc:format>image/svg+xml</dc:format>
        <dc:type
           rdf:resource="http://purl.org/dc/dcmitype/StillImage" />
        <dc:title></dc:title>
      </cc:Work>
    </rdf:RDF>
  </metadata>
  <g
     inkscape:label="Layer 1"
     inkscape:groupmode="layer"
     id="layer1"
     transform="translate(0,-692.35968)">
    <g
       id="g3877">
      <g
         transform="matrix(1.0079051,0,0,1.0079051,34.222657,739.13309)"
         id="g3786">
        <rect
           style="fill:#ffffff;fill-opacity:1"
           x="0"
           y="0"
           width="253"
           height="253"
           id="rect3775" />
        <g
           id="elements">
          <path
             inkscape:connector-curvature="0"
             style="fill:#000000"
             d="m 11,11 11,0 0,11 -11,0 z m 11,0 11,0 0,11 -11,0 z m 11,0 11,0 0,11 -11,0 z m 11,0 11,0 0,11 -11,0 z m 11,0 11,0 0,11 -11,0 z m 11,0 11,0 0,11 -11,0 z m 11,0 11,0 0,11 -11,0 z m 44,0 11,0 0,11 -11,0 z m 11,0 11,0 0,11 -11,0 z m 11,0 11,0 0,11 -11,0 z m 22,0 11,0 0,11 -11,0 z m 11,0 11,0 0,11 -11,0 z m 11,0 11,0 0,11 -11,0 z m 11,0 11,0 0,11 -11,0 z m 11,0 11,0 0,11 -11,0 z m 11,0 11,0 0,11 -11,0 z m 11,0 11,0 0,11 -11,0 z m -220,11 11,0 0,11 -11,0 z m 66,0 11,0 0,11 -11,0 z m 22,0 11,0 0,11 -11,0 z m 11,0 11,0 0,11 -11,0 z m 11,0 11,0 0,11 -11,0 z m 22,0 11,0 0,11 -11,0 z m 22,0 11,0 0,11 -11,0 z m 66,0 11,0 0,11 -11,0 z m -220,11 11,0 0,11 -11,0 z m 22,0 11,0 0,11 -11,0 z m 11,0 11,0 0,11 -11,0 z m 11,0 11,0 0,11 -11,0 z m 22,0 11,0 0,11 -11,0 z m 44,0 11,0 0,11 -11,0 z m 11,0 11,0 0,11 -11,0 z m 11,0 11,0 0,11 -11,0 z m 22,0 11,0 0,11 -11,0 z m 22,0 11,0 0,11 -11,0 z m 11,0 11,0 0,11 -11,0 z m 11,0 11,0 0,11 -11,0 z m 22,0 11,0 0,11 -11,0 z m -220,11 11,0 0,11 -11,0 z m 22,0 11,0 0,11 -11,0 z m 11,0 11,0 0,11 -11,0 z m 11,0 11,0 0,11 -11,0 z m 22,0 11,0 0,11 -11,0 z m 22,0 11,0 0,11 -11,0 z m 11,0 11,0 0,11 -11,0 z m 33,0 11,0 0,11 -11,0 z m 22,0 11,0 0,11 -11,0 z m 22,0 11,0 0,11 -11,0 z m 11,0 11,0 0,11 -11,0 z m 11,0 11,0 0,11 -11,0 z m 22,0 11,0 0,11 -11,0 z m -220,11 11,0 0,11 -11,0 z m 22,0 11,0 0,11 -11,0 z m 11,0 11,0 0,11 -11,0 z m 11,0 11,0 0,11 -11,0 z m 22,0 11,0 0,11 -11,0 z m 33,0 11,0 0,11 -11,0 z m 33,0 11,0 0,11 -11,0 z m 22,0 11,0 0,11 -11,0 z m 22,0 11,0 0,11 -11,0 z m 11,0 11,0 0,11 -11,0 z m 11,0 11,0 0,11 -11,0 z m 22,0 11,0 0,11 -11,0 z m -220,11 11,0 0,11 -11,0 z m 66,0 11,0 0,11 -11,0 z m 22,0 11,0 0,11 -11,0 z m 33,0 11,0 0,11 -11,0 z m 33,0 11,0 0,11 -11,0 z m 66,0 11,0 0,11 -11,0 z m -220,11 11,0 0,11 -11,0 z m 11,0 11,0 0,11 -11,0 z m 11,0 11,0 0,11 -11,0 z m 11,0 11,0 0,11 -11,0 z m 11,0 11,0 0,11 -11,0 z m 11,0 11,0 0,11 -11,0 z m 11,0 11,0 0,11 -11,0 z m 22,0 11,0 0,11 -11,0 z m 22,0 11,0 0,11 -11,0 z m 22,0 11,0 0,11 -11,0 z m 22,0 11,0 0,11 -11,0 z m 11,0 11,0 0,11 -11,0 z m 11,0 11,0 0,11 -11,0 z m 11,0 11,0 0,11 -11,0 z m 11,0 11,0 0,11 -11,0 z m 11,0 11,0 0,11 -11,0 z m 11,0 11,0 0,11 -11,0 z m -121,11 11,0 0,11 -11,0 z m -99,11 11,0 0,11 -11,0 z m 11,0 11,0 0,11 -11,0 z m 11,0 11,0 0,11 -11,0 z m 11,0 11,0 0,11 -11,0 z m 11,0 11,0 0,11 -11,0 z m 22,0 11,0 0,11 -11,0 z m 11,0 11,0 0,11 -11,0 z m 11,0 11,0 0,11 -11,0 z m 33,0 11,0 0,11 -11,0 z m 22,0 11,0 0,11 -11,0 z m 22,0 11,0 0,11 -11,0 z m 22,0 11,0 0,11 -11,0 z m 22,0 11,0 0,11 -11,0 z m -209,11 11,0 0,11 -11,0 z m 55,0 11,0 0,11 -11,0 z m 33,0 11,0 0,11 -11,0 z m 22,0 11,0 0,11 -11,0 z m 22,0 11,0 0,11 -11,0 z m 44,0 11,0 0,11 -11,0 z m 11,0 11,0 0,11 -11,0 z m 33,0 11,0 0,11 -11,0 z m -220,11 11,0 0,11 -11,0 z m 22,0 11,0 0,11 -11,0 z m 11,0 11,0 0,11 -11,0 z m 22,0 11,0 0,11 -11,0 z m 11,0 11,0 0,11 -11,0 z m 33,0 11,0 0,11 -11,0 z m 11,0 11,0 0,11 -11,0 z m 22,0 11,0 0,11 -11,0 z m 55,0 11,0 0,11 -11,0 z m 22,0 11,0 0,11 -11,0 z m -198,11 11,0 0,11 -11,0 z m 22,0 11,0 0,11 -11,0 z m 11,0 11,0 0,11 -11,0 z m 33,0 11,0 0,11 -11,0 z m 11,0 11,0 0,11 -11,0 z m 11,0 11,0 0,11 -11,0 z m 22,0 11,0 0,11 -11,0 z m 11,0 11,0 0,11 -11,0 z m 11,0 11,0 0,11 -11,0 z m 33,0 11,0 0,11 -11,0 z m 11,0 11,0 0,11 -11,0 z m 11,0 11,0 0,11 -11,0 z m 11,0 11,0 0,11 -11,0 z m 11,0 11,0 0,11 -11,0 z m -198,11 11,0 0,11 -11,0 z m 11,0 11,0 0,11 -11,0 z m 33,0 11,0 0,11 -11,0 z m 11,0 11,0 0,11 -11,0 z m 11,0 11,0 0,11 -11,0 z m 11,0 11,0 0,11 -11,0 z m 77,0 11,0 0,11 -11,0 z m 33,0 11,0 0,11 -11,0 z m -121,11 11,0 0,11 -11,0 z m 33,0 11,0 0,11 -11,0 z m 22,0 11,0 0,11 -11,0 z m 22,0 11,0 0,11 -11,0 z m 11,0 11,0 0,11 -11,0 z m 11,0 11,0 0,11 -11,0 z m 33,0 11,0 0,11 -11,0 z m -220,11 11,0 0,11 -11,0 z m 11,0 11,0 0,11 -11,0 z m 11,0 11,0 0,11 -11,0 z m 11,0 11,0 0,11 -11,0 z m 11,0 11,0 0,11 -11,0 z m 11,0 11,0 0,11 -11,0 z m 11,0 11,0 0,11 -11,0 z m 22,0 11,0 0,11 -11,0 z m 11,0 11,0 0,11 -11,0 z m 33,0 11,0 0,11 -11,0 z m 22,0 11,0 0,11 -11,0 z m 11,0 11,0 0,11 -11,0 z m 22,0 11,0 0,11 -11,0 z m 22,0 11,0 0,11 -11,0 z m -209,11 11,0 0,11 -11,0 z m 66,0 11,0 0,11 -11,0 z m 33,0 11,0 0,11 -11,0 z m 22,0 11,0 0,11 -11,0 z m 11,0 11,0 0,11 -11,0 z m 33,0 11,0 0,11 -11,0 z m 33,0 11,0 0,11 -11,0 z m 11,0 11,0 0,11 -11,0 z m -209,11 11,0 0,11 -11,0 z m 22,0 11,0 0,11 -11,0 z m 11,0 11,0 0,11 -11,0 z m 11,0 11,0 0,11 -11,0 z m 22,0 11,0 0,11 -11,0 z m 22,0 11,0 0,11 -11,0 z m 33,0 11,0 0,11 -11,0 z m 11,0 11,0 0,11 -11,0 z m 11,0 11,0 0,11 -11,0 z m 11,0 11,0 0,11 -11,0 z m 22,0 11,0 0,11 -11,0 z m 33,0 11,0 0,11 -11,0 z m 11,0 11,0 0,11 -11,0 z m -220,11 11,0 0,11 -11,0 z m 22,0 11,0 0,11 -11,0 z m 11,0 11,0 0,11 -11,0 z m 11,0 11,0 0,11 -11,0 z m 22,0 11,0 0,11 -11,0 z m 22,0 11,0 0,11 -11,0 z m 33,0 11,0 0,11 -11,0 z m 22,0 11,0 0,11 -11,0 z m 22,0 11,0 0,11 -11,0 z m 11,0 11,0 0,11 -11,0 z m 11,0 11,0 0,11 -11,0 z m -187,11 11,0 0,11 -11,0 z m 22,0 11,0 0,11 -11,0 z m 11,0 11,0 0,11 -11,0 z m 11,0 11,0 0,11 -11,0 z m 22,0 11,0 0,11 -11,0 z m 22,0 11,0 0,11 -11,0 z m 33,0 11,0 0,11 -11,0 z m 11,0 11,0 0,11 -11,0 z m -132,11 11,0 0,11 -11,0 z m 66,0 11,0 0,11 -11,0 z m 22,0 11,0 0,11 -11,0 z m 11,0 11,0 0,11 -11,0 z m 11,0 11,0 0,11 -11,0 z m 22,0 11,0 0,11 -11,0 z m 11,0 11,0 0,11 -11,0 z m 33,0 11,0 0,11 -11,0 z m 11,0 11,0 0,11 -11,0 z m 11,0 11,0 0,11 -11,0 z m -198,11 11,0 0,11 -11,0 z m 11,0 11,0 0,11 -11,0 z m 11,0 11,0 0,11 -11,0 z m 11,0 11,0 0,11 -11,0 z m 11,0 11,0 0,11 -11,0 z m 11,0 11,0 0,11 -11,0 z m 11,0 11,0 0,11 -11,0 z m 22,0 11,0 0,11 -11,0 z m 11,0 11,0 0,11 -11,0 z m 22,0 11,0 0,11 -11,0 z m 11,0 11,0 0,11 -11,0 z m 22,0 11,0 0,11 -11,0 z m 55,0 11,0 0,11 -11,0 z"
             id="path3778" />
        </g>
      </g>
      <text
         sodipodi:linespacing="125%"
         id="text2985"
         y="740.7229"
         x="37.880859"
         style="font-size:40px;font-style:normal;font-weight:normal;line-height:125%;letter-spacing:0px;word-spacing:0px;fill:#000000;fill-opacity:1;stroke:none;font-family:Sans"
         xml:space="preserve"><tspan
           style="font-style:normal;font-variant:normal;font-weight:normal;font-stretch:normal;font-family:Roboto;-inkscape-font-specification:Roboto"
           y="740.7229"
           x="37.880859"
           id="tspan2987"
           sodipodi:role="line">Letter to BSD:</tspan></text>
      <text
         sodipodi:linespacing="125%"
         id="text2989"
         y="1024.5238"
         x="17.792969"
         style="font-size:40px;font-style:normal;font-weight:normal;line-height:125%;letter-spacing:0px;word-spacing:0px;fill:#000000;fill-opacity:1;stroke:none;font-family:Sans"
         xml:space="preserve"><tspan
           y="1024.5238"
           x="17.792969"
           id="tspan2991"
           sodipodi:role="line">goo.gl/pF4du9</tspan></text>
    </g>
    <g
       id="g3867"
       transform="translate(0,0.78518659)">
      <text
         xml:space="preserve"
         style="font-size:40px;font-style:normal;font-weight:normal;line-height:125%;letter-spacing:0px;word-spacing:0px;fill:#000000;fill-opacity:1;stroke:none;font-family:Sans"
         x="344.19922"
         y="738.74249"
         id="text3761"
         sodipodi:linespacing="125%"><tspan
           sodipodi:role="line"
           id="tspan3763"
           x="344.19922"
           y="738.74249"
           style="font-style:normal;font-variant:normal;font-weight:normal;font-stretch:normal;font-family:Roboto;-inkscape-font-specification:Roboto">Letter to Parents:</tspan></text>
      <text
         xml:space="preserve"
         style="font-size:40px;font-style:normal;font-weight:normal;line-height:125%;letter-spacing:0px;word-spacing:0px;fill:#000000;fill-opacity:1;stroke:none;font-family:Sans"
         x="355.79102"
         y="1024.5237"
         id="text3765"
         sodipodi:linespacing="125%"><tspan
           sodipodi:role="line"
           id="tspan3767"
           x="355.79102"
           y="1024.5237">goo.gl/Ez73TC</tspan></text>
      <g
         transform="matrix(0.94444444,0,0,0.94444444,370.12694,739.13309)"
         id="g3808">
        <rect
           style="fill:#ffffff;fill-opacity:1"
           x="0"
           y="0"
           width="270"
           height="270"
           id="rect3797" />
        <g
           id="elements-3">
          <path
             inkscape:connector-curvature="0"
             style="fill:#000000"
             d="m 10,10 10,0 0,10 -10,0 z m 10,0 10,0 0,10 -10,0 z m 10,0 10,0 0,10 -10,0 z m 10,0 10,0 0,10 -10,0 z m 10,0 10,0 0,10 -10,0 z m 10,0 10,0 0,10 -10,0 z m 10,0 10,0 0,10 -10,0 z m 40,0 10,0 0,10 -10,0 z m 20,0 10,0 0,10 -10,0 z m 20,0 10,0 0,10 -10,0 z m 40,0 10,0 0,10 -10,0 z m 10,0 10,0 0,10 -10,0 z m 10,0 10,0 0,10 -10,0 z m 10,0 10,0 0,10 -10,0 z m 10,0 10,0 0,10 -10,0 z m 10,0 10,0 0,10 -10,0 z m 10,0 10,0 0,10 -10,0 z m -240,10 10,0 0,10 -10,0 z m 60,0 10,0 0,10 -10,0 z m 20,0 10,0 0,10 -10,0 z m 20,0 10,0 0,10 -10,0 z m 30,0 10,0 0,10 -10,0 z m 10,0 10,0 0,10 -10,0 z m 10,0 10,0 0,10 -10,0 z m 30,0 10,0 0,10 -10,0 z m 60,0 10,0 0,10 -10,0 z m -240,10 10,0 0,10 -10,0 z m 20,0 10,0 0,10 -10,0 z m 10,0 10,0 0,10 -10,0 z m 10,0 10,0 0,10 -10,0 z m 20,0 10,0 0,10 -10,0 z m 60,0 10,0 0,10 -10,0 z m 20,0 10,0 0,10 -10,0 z m 40,0 10,0 0,10 -10,0 z m 20,0 10,0 0,10 -10,0 z m 10,0 10,0 0,10 -10,0 z m 10,0 10,0 0,10 -10,0 z m 20,0 10,0 0,10 -10,0 z m -240,10 10,0 0,10 -10,0 z m 20,0 10,0 0,10 -10,0 z m 10,0 10,0 0,10 -10,0 z m 10,0 10,0 0,10 -10,0 z m 20,0 10,0 0,10 -10,0 z m 20,0 10,0 0,10 -10,0 z m 10,0 10,0 0,10 -10,0 z m 10,0 10,0 0,10 -10,0 z m 20,0 10,0 0,10 -10,0 z m 10,0 10,0 0,10 -10,0 z m 30,0 10,0 0,10 -10,0 z m 20,0 10,0 0,10 -10,0 z m 20,0 10,0 0,10 -10,0 z m 10,0 10,0 0,10 -10,0 z m 10,0 10,0 0,10 -10,0 z m 20,0 10,0 0,10 -10,0 z m -240,10 10,0 0,10 -10,0 z m 20,0 10,0 0,10 -10,0 z m 10,0 10,0 0,10 -10,0 z m 10,0 10,0 0,10 -10,0 z m 20,0 10,0 0,10 -10,0 z m 30,0 10,0 0,10 -10,0 z m 50,0 10,0 0,10 -10,0 z m 20,0 10,0 0,10 -10,0 z m 20,0 10,0 0,10 -10,0 z m 20,0 10,0 0,10 -10,0 z m 10,0 10,0 0,10 -10,0 z m 10,0 10,0 0,10 -10,0 z m 20,0 10,0 0,10 -10,0 z m -240,10 10,0 0,10 -10,0 z m 60,0 10,0 0,10 -10,0 z m 20,0 10,0 0,10 -10,0 z m 10,0 10,0 0,10 -10,0 z m 20,0 10,0 0,10 -10,0 z m 10,0 10,0 0,10 -10,0 z m 10,0 10,0 0,10 -10,0 z m 20,0 10,0 0,10 -10,0 z m 10,0 10,0 0,10 -10,0 z m 20,0 10,0 0,10 -10,0 z m 60,0 10,0 0,10 -10,0 z m -240,10 10,0 0,10 -10,0 z m 10,0 10,0 0,10 -10,0 z m 10,0 10,0 0,10 -10,0 z m 10,0 10,0 0,10 -10,0 z m 10,0 10,0 0,10 -10,0 z m 10,0 10,0 0,10 -10,0 z m 10,0 10,0 0,10 -10,0 z m 20,0 10,0 0,10 -10,0 z m 20,0 10,0 0,10 -10,0 z m 20,0 10,0 0,10 -10,0 z m 20,0 10,0 0,10 -10,0 z m 20,0 10,0 0,10 -10,0 z m 20,0 10,0 0,10 -10,0 z m 10,0 10,0 0,10 -10,0 z m 10,0 10,0 0,10 -10,0 z m 10,0 10,0 0,10 -10,0 z m 10,0 10,0 0,10 -10,0 z m 10,0 10,0 0,10 -10,0 z m 10,0 10,0 0,10 -10,0 z m -150,10 10,0 0,10 -10,0 z m 10,0 10,0 0,10 -10,0 z m 10,0 10,0 0,10 -10,0 z m 30,0 10,0 0,10 -10,0 z m 10,0 10,0 0,10 -10,0 z m 10,0 10,0 0,10 -10,0 z m -160,10 10,0 0,10 -10,0 z m 10,0 10,0 0,10 -10,0 z m 10,0 10,0 0,10 -10,0 z m 10,0 10,0 0,10 -10,0 z m 10,0 10,0 0,10 -10,0 z m 20,0 10,0 0,10 -10,0 z m 10,0 10,0 0,10 -10,0 z m 10,0 10,0 0,10 -10,0 z m 10,0 10,0 0,10 -10,0 z m 20,0 10,0 0,10 -10,0 z m 30,0 10,0 0,10 -10,0 z m 10,0 10,0 0,10 -10,0 z m 20,0 10,0 0,10 -10,0 z m 20,0 10,0 0,10 -10,0 z m 20,0 10,0 0,10 -10,0 z m 20,0 10,0 0,10 -10,0 z m -230,10 10,0 0,10 -10,0 z m 20,0 10,0 0,10 -10,0 z m 10,0 10,0 0,10 -10,0 z m 20,0 10,0 0,10 -10,0 z m 20,0 10,0 0,10 -10,0 z m 30,0 10,0 0,10 -10,0 z m 20,0 10,0 0,10 -10,0 z m 20,0 10,0 0,10 -10,0 z m 10,0 10,0 0,10 -10,0 z m 10,0 10,0 0,10 -10,0 z m 30,0 10,0 0,10 -10,0 z m 40,0 10,0 0,10 -10,0 z m -230,10 10,0 0,10 -10,0 z m 10,0 10,0 0,10 -10,0 z m 20,0 10,0 0,10 -10,0 z m 20,0 10,0 0,10 -10,0 z m 10,0 10,0 0,10 -10,0 z m 20,0 10,0 0,10 -10,0 z m 20,0 10,0 0,10 -10,0 z m 40,0 10,0 0,10 -10,0 z m 10,0 10,0 0,10 -10,0 z m 10,0 10,0 0,10 -10,0 z m 10,0 10,0 0,10 -10,0 z m 20,0 10,0 0,10 -10,0 z m 10,0 10,0 0,10 -10,0 z m 10,0 10,0 0,10 -10,0 z m 20,0 10,0 0,10 -10,0 z m 10,0 10,0 0,10 -10,0 z m -240,10 10,0 0,10 -10,0 z m 50,0 10,0 0,10 -10,0 z m 30,0 10,0 0,10 -10,0 z m 40,0 10,0 0,10 -10,0 z m 40,0 10,0 0,10 -10,0 z m 10,0 10,0 0,10 -10,0 z m 20,0 10,0 0,10 -10,0 z m 50,0 10,0 0,10 -10,0 z m -230,10 10,0 0,10 -10,0 z m 10,0 10,0 0,10 -10,0 z m 10,0 10,0 0,10 -10,0 z m 20,0 10,0 0,10 -10,0 z m 10,0 10,0 0,10 -10,0 z m 20,0 10,0 0,10 -10,0 z m 10,0 10,0 0,10 -10,0 z m 10,0 10,0 0,10 -10,0 z m 20,0 10,0 0,10 -10,0 z m 20,0 10,0 0,10 -10,0 z m 30,0 10,0 0,10 -10,0 z m 10,0 10,0 0,10 -10,0 z m 20,0 10,0 0,10 -10,0 z m 20,0 10,0 0,10 -10,0 z m 10,0 10,0 0,10 -10,0 z m 10,0 10,0 0,10 -10,0 z m -240,10 10,0 0,10 -10,0 z m 10,0 10,0 0,10 -10,0 z m 10,0 10,0 0,10 -10,0 z m 10,0 10,0 0,10 -10,0 z m 40,0 10,0 0,10 -10,0 z m 120,0 10,0 0,10 -10,0 z m 20,0 10,0 0,10 -10,0 z m 20,0 10,0 0,10 -10,0 z m -230,10 10,0 0,10 -10,0 z m 60,0 10,0 0,10 -10,0 z m 10,0 10,0 0,10 -10,0 z m 10,0 10,0 0,10 -10,0 z m 10,0 10,0 0,10 -10,0 z m 10,0 10,0 0,10 -10,0 z m 10,0 10,0 0,10 -10,0 z m 10,0 10,0 0,10 -10,0 z m 10,0 10,0 0,10 -10,0 z m 20,0 10,0 0,10 -10,0 z m 20,0 10,0 0,10 -10,0 z m 20,0 10,0 0,10 -10,0 z m 10,0 10,0 0,10 -10,0 z m 10,0 10,0 0,10 -10,0 z m 20,0 10,0 0,10 -10,0 z m 10,0 10,0 0,10 -10,0 z m -240,10 10,0 0,10 -10,0 z m 30,0 10,0 0,10 -10,0 z m 10,0 10,0 0,10 -10,0 z m 10,0 10,0 0,10 -10,0 z m 60,0 10,0 0,10 -10,0 z m 30,0 10,0 0,10 -10,0 z m 10,0 10,0 0,10 -10,0 z m 10,0 10,0 0,10 -10,0 z m 10,0 10,0 0,10 -10,0 z m 20,0 10,0 0,10 -10,0 z m 10,0 10,0 0,10 -10,0 z m 40,0 10,0 0,10 -10,0 z m -240,10 10,0 0,10 -10,0 z m 20,0 10,0 0,10 -10,0 z m 10,0 10,0 0,10 -10,0 z m 30,0 10,0 0,10 -10,0 z m 20,0 10,0 0,10 -10,0 z m 10,0 10,0 0,10 -10,0 z m 20,0 10,0 0,10 -10,0 z m 50,0 10,0 0,10 -10,0 z m 10,0 10,0 0,10 -10,0 z m 10,0 10,0 0,10 -10,0 z m 10,0 10,0 0,10 -10,0 z m 10,0 10,0 0,10 -10,0 z m 20,0 10,0 0,10 -10,0 z m -140,10 10,0 0,10 -10,0 z m 10,0 10,0 0,10 -10,0 z m 10,0 10,0 0,10 -10,0 z m 20,0 10,0 0,10 -10,0 z m 10,0 10,0 0,10 -10,0 z m 20,0 10,0 0,10 -10,0 z m 10,0 10,0 0,10 -10,0 z m 40,0 10,0 0,10 -10,0 z m 10,0 10,0 0,10 -10,0 z m -210,10 10,0 0,10 -10,0 z m 10,0 10,0 0,10 -10,0 z m 10,0 10,0 0,10 -10,0 z m 10,0 10,0 0,10 -10,0 z m 10,0 10,0 0,10 -10,0 z m 10,0 10,0 0,10 -10,0 z m 10,0 10,0 0,10 -10,0 z m 20,0 10,0 0,10 -10,0 z m 50,0 10,0 0,10 -10,0 z m 10,0 10,0 0,10 -10,0 z m 20,0 10,0 0,10 -10,0 z m 20,0 10,0 0,10 -10,0 z m 20,0 10,0 0,10 -10,0 z m 20,0 10,0 0,10 -10,0 z m 10,0 10,0 0,10 -10,0 z m 10,0 10,0 0,10 -10,0 z m -240,10 10,0 0,10 -10,0 z m 60,0 10,0 0,10 -10,0 z m 40,0 10,0 0,10 -10,0 z m 20,0 10,0 0,10 -10,0 z m 10,0 10,0 0,10 -10,0 z m 30,0 10,0 0,10 -10,0 z m 40,0 10,0 0,10 -10,0 z m 10,0 10,0 0,10 -10,0 z m 20,0 10,0 0,10 -10,0 z m 10,0 10,0 0,10 -10,0 z m -240,10 10,0 0,10 -10,0 z m 20,0 10,0 0,10 -10,0 z m 10,0 10,0 0,10 -10,0 z m 10,0 10,0 0,10 -10,0 z m 20,0 10,0 0,10 -10,0 z m 20,0 10,0 0,10 -10,0 z m 10,0 10,0 0,10 -10,0 z m 30,0 10,0 0,10 -10,0 z m 20,0 10,0 0,10 -10,0 z m 10,0 10,0 0,10 -10,0 z m 10,0 10,0 0,10 -10,0 z m 10,0 10,0 0,10 -10,0 z m 10,0 10,0 0,10 -10,0 z m 10,0 10,0 0,10 -10,0 z m 10,0 10,0 0,10 -10,0 z m 20,0 10,0 0,10 -10,0 z m 10,0 10,0 0,10 -10,0 z m 10,0 10,0 0,10 -10,0 z m -240,10 10,0 0,10 -10,0 z m 20,0 10,0 0,10 -10,0 z m 10,0 10,0 0,10 -10,0 z m 10,0 10,0 0,10 -10,0 z m 20,0 10,0 0,10 -10,0 z m 20,0 10,0 0,10 -10,0 z m 80,0 10,0 0,10 -10,0 z m 20,0 10,0 0,10 -10,0 z m 20,0 10,0 0,10 -10,0 z m 10,0 10,0 0,10 -10,0 z m 10,0 10,0 0,10 -10,0 z m 10,0 10,0 0,10 -10,0 z m 10,0 10,0 0,10 -10,0 z m -240,10 10,0 0,10 -10,0 z m 20,0 10,0 0,10 -10,0 z m 10,0 10,0 0,10 -10,0 z m 10,0 10,0 0,10 -10,0 z m 20,0 10,0 0,10 -10,0 z m 20,0 10,0 0,10 -10,0 z m 20,0 10,0 0,10 -10,0 z m 10,0 10,0 0,10 -10,0 z m 10,0 10,0 0,10 -10,0 z m 90,0 10,0 0,10 -10,0 z m 10,0 10,0 0,10 -10,0 z m 20,0 10,0 0,10 -10,0 z m -240,10 10,0 0,10 -10,0 z m 60,0 10,0 0,10 -10,0 z m 20,0 10,0 0,10 -10,0 z m 10,0 10,0 0,10 -10,0 z m 20,0 10,0 0,10 -10,0 z m 30,0 10,0 0,10 -10,0 z m 10,0 10,0 0,10 -10,0 z m 10,0 10,0 0,10 -10,0 z m 10,0 10,0 0,10 -10,0 z m 20,0 10,0 0,10 -10,0 z m 10,0 10,0 0,10 -10,0 z m 10,0 10,0 0,10 -10,0 z m 30,0 10,0 0,10 -10,0 z m -240,10 10,0 0,10 -10,0 z m 10,0 10,0 0,10 -10,0 z m 10,0 10,0 0,10 -10,0 z m 10,0 10,0 0,10 -10,0 z m 10,0 10,0 0,10 -10,0 z m 10,0 10,0 0,10 -10,0 z m 10,0 10,0 0,10 -10,0 z m 20,0 10,0 0,10 -10,0 z m 30,0 10,0 0,10 -10,0 z m 80,0 10,0 0,10 -10,0 z m 10,0 10,0 0,10 -10,0 z m 10,0 10,0 0,10 -10,0 z m 10,0 10,0 0,10 -10,0 z m 10,0 10,0 0,10 -10,0 z m 10,0 10,0 0,10 -10,0 z"
             id="path3800" />
        </g>
      </g>
    </g>
    <rect
       style="fill:none;fill-opacity:1;stroke:#000000;stroke-opacity:1;stroke-width:2;stroke-miterlimit:4;stroke-dasharray:none"
       id="rect3906"
       width="675"
       height="360"
       x="0"
       y="0"
       transform="translate(0,692.35968)" />
  </g>
</svg>
