<?xml version="1.0" encoding="UTF-8" standalone="no"?>
<!-- Created with Inkscape (http://www.inkscape.org/) -->

<svg
   xmlns:dc="http://purl.org/dc/elements/1.1/"
   xmlns:cc="http://creativecommons.org/ns#"
   xmlns:rdf="http://www.w3.org/1999/02/22-rdf-syntax-ns#"
   xmlns:svg="http://www.w3.org/2000/svg"
   xmlns="http://www.w3.org/2000/svg"
   xmlns:xlink="http://www.w3.org/1999/xlink"
   xmlns:sodipodi="http://sodipodi.sourceforge.net/DTD/sodipodi-0.dtd"
   xmlns:inkscape="http://www.inkscape.org/namespaces/inkscape"
   id="svg2"
   version="1.1"
   inkscape:version="0.91 r13725"
   width="24in"
   height="36in"
   viewBox="0 0 2160 3240"
   sodipodi:docname="sadiesposter1.svg">
  <metadata
     id="metadata8">
    <rdf:RDF>
      <cc:Work
         rdf:about="">
        <dc:format>image/svg+xml</dc:format>
        <dc:type
           rdf:resource="http://purl.org/dc/dcmitype/StillImage" />
        <dc:title />
      </cc:Work>
    </rdf:RDF>
  </metadata>
  <defs
     id="defs6">
    <linearGradient
       inkscape:collect="always"
       id="linearGradient4929">
      <stop
         style="stop-color:#74ffff;stop-opacity:1;"
         offset="0"
         id="stop4931" />
      <stop
         style="stop-color:#74ffff;stop-opacity:0;"
         offset="1"
         id="stop4933" />
    </linearGradient>
    <linearGradient
       inkscape:collect="always"
       xlink:href="#linearGradient4929"
       id="linearGradient4935"
       x1="1040.1301"
       y1="351.14587"
       x2="1045.8776"
       y2="1216.4944"
       gradientUnits="userSpaceOnUse" />
  </defs>
  <sodipodi:namedview
     pagecolor="#ffffff"
     bordercolor="#666666"
     borderopacity="1"
     objecttolerance="10"
     gridtolerance="10"
     guidetolerance="10"
     inkscape:pageopacity="0"
     inkscape:pageshadow="2"
     inkscape:window-width="1920"
     inkscape:window-height="1029"
     id="namedview4"
     showgrid="false"
     units="in"
     inkscape:zoom="0.29236776"
     inkscape:cx="661.20763"
     inkscape:cy="1545.3732"
     inkscape:window-x="0"
     inkscape:window-y="25"
     inkscape:window-maximized="1"
     inkscape:current-layer="svg2"
     showguides="false" />
  <rect
     style="fill:#ffff9f;fill-opacity:1;fill-rule:evenodd;stroke:#000000;stroke-width:1px;stroke-linecap:butt;stroke-linejoin:miter;stroke-opacity:1"
     id="rect4216"
     width="2951.7617"
     height="1340.7771"
     x="-120.40171"
     y="1864.9585"
     transform="matrix(0.99388344,0.11043417,-0.11043417,0.99388344,0,0)" />
  <rect
     style="fill:url(#linearGradient4935);fill-opacity:1"
     id="rect4368"
     width="2273.4392"
     height="1373.7378"
     x="-33.859734"
     y="-7.3694229" />
  <rect
     style="fill:#0069ff;fill-opacity:1"
     id="rect4218"
     width="2915.8372"
     height="779.92261"
     x="-57.269611"
     y="1229.4282"
     transform="matrix(0.99810772,0.06148965,-0.1182826,0.99297997,0,0)" />
  <rect
     transform="matrix(0.99999998,-2.0640408e-4,-0.05679472,0.99838588,0,0)"
     y="1226.0768"
     x="-560.16113"
     height="779.92261"
     width="2915.8372"
     id="rect4361"
     style="fill:#0069ff;fill-opacity:1" />
  <text
     xml:space="preserve"
     style="font-style:normal;font-weight:normal;font-size:183.34463501px;line-height:125%;font-family:sans-serif;letter-spacing:0px;word-spacing:0px;opacity:1;fill:#000000;fill-opacity:1;stroke:none;stroke-width:1px;stroke-linecap:butt;stroke-linejoin:miter;stroke-opacity:1"
     x="538.1026"
     y="1130.8097"
     id="text4943"
     sodipodi:linespacing="125%"><tspan
       sodipodi:role="line"
       id="tspan4945"
       x="538.1026"
       y="1130.8097"
       style="font-style:normal;font-variant:normal;font-weight:normal;font-stretch:normal;font-size:183.28520203px;font-family:'Lobster Two';-inkscape-font-specification:'Lobster Two'">Saturday, Feburary 13</tspan></text>
  <rect
     y="-10.53456"
     x="2167.0232"
     height="3482.7156"
     width="880.35309"
     id="rect4362"
     style="fill:#ffffff;fill-opacity:1" />
  <rect
     transform="matrix(0,1,-1,0,0,0)"
     y="-2902.2627"
     x="-919.91022"
     height="3482.7156"
     width="880.35309"
     id="rect4366"
     style="fill:#ffffff;fill-opacity:1" />
  <g
     id="g4202">
    <path
       style="fill:#41bf06"
       d="m -122.29076,2973.5529 c -0.64119,-1.9337 0.50251,-13.4819 2.54156,-25.6628 2.03904,-12.181 6.93374,-43.5213 10.87696,-69.6452 6.88753,-45.629 9.032408,-56.9732 25.506353,-134.8979 27.545354,-130.2942 75.652607,-278.4261 142.416977,-438.5294 25.81082,-61.8956 33.97798,-79.7656 67.91795,-148.6088 10.87487,-22.0584 22.27686,-45.2254 25.33768,-51.4822 4.50232,-9.2033 4.72034,-11.6623 1.14177,-12.8751 -2.43288,-0.8245 -6.14103,0.05 -8.24026,1.943 -4.46248,4.0245 -55.21937,23.3574 -58.44904,22.2629 -1.20659,-0.4089 -4.74258,-4.9349 -7.85787,-10.0575 -11.37801,-18.7101 -36.79069,-54.7606 -38.13411,-54.0972 -0.75944,0.375 1.27505,16.0556 4.52117,34.8458 3.24603,18.7901 4.8996,35.9268 3.67448,38.0814 -3.55963,6.2603 -118.200599,37.5009 -140.921429,38.4023 -2.693501,0.1068 -7.569801,-4.4331 -11.200331,-10.4279 l -6.42987,-10.6172 -1.55071,10.901 c -1.0086,7.0898 -3.26315,11.9539 -6.44862,13.9127 -5.47555,3.3671 -75.14678,16.094 -113.7675,20.782 -13.81273,1.6767 -26.79374,1.6532 -28.84681,-0.052 -5.38825,-4.476 0.51513,-19.3757 17.93617,-45.2696 8.17658,-12.1532 23.22363,-35.413 33.43798,-51.6884 10.21431,-16.2754 26.42614,-40.2697 36.02622,-53.3206 9.60017,-13.051 18.53121,-25.2765 19.847,-27.1679 1.79424,-2.5794 5.35733,-1.9116 14.25582,2.6715 l 11.86361,6.1102 -1.23934,-13.1186 c -0.68166,-7.2153 -1.78482,-14.2234 -2.45154,-15.5735 -3.29777,-6.6791 15.70317,-32.0964 55.188105,-73.8245 17.263263,-18.244 22.022421,-20.1446 31.649455,-12.6391 3.725752,2.9045 10.74015,6.1766 15.587593,7.2712 l 8.813723,1.9903 -5.189129,-21.1427 c -2.854085,-11.6284 -4.710847,-22.5539 -4.126226,-24.2789 1.212831,-3.5787 49.213409,-46.3233 68.419149,-60.9274 20.45039,-15.5505 65.31492,-46.515 66.71055,-46.042 0.70265,0.2381 14.97345,14.553 31.71282,31.8109 16.73949,17.2579 31.25953,32.1253 32.26683,33.0388 4.75981,4.3167 3.7668,-9.3101 -3.44196,-47.2321 -4.31718,-22.7105 -7.36838,-42.711 -6.78049,-44.4457 0.58786,-1.7346 11.08123,-8.0324 23.31845,-13.995 22.40024,-10.9146 27.53796,-16.8518 13.34029,-15.4163 -6.55128,0.6625 -10.92333,-2.5222 -29.87957,-21.7645 -12.21304,-12.3972 -23.27332,-22.013 -24.57841,-21.3686 -1.30522,0.6444 -0.36401,10.1929 2.0916,21.2187 4.96139,22.277 4.74707,24.794 -2.34241,27.5109 -6.54521,2.5083 -127.59795,-2.5843 -137.53832,-5.7861 -2.43744,-0.7849 -9.81001,-9.5691 -16.3835,-19.5202 -6.573529,-9.9509 -13.689619,-18.6817 -15.813465,-19.4015 -4.928362,-1.6702 -7.735094,6.7084 -8.835481,26.376 -1.483365,26.5062 -3.590069,42.0564 -6.108571,45.0883 -3.516982,4.234 -11.253328,4.9773 -68.871783,6.6178 -72.32713,2.0593 -67.27436,3.76 -71.17327,-23.9556 -1.78223,-12.6686 -4.2449,-24.2497 -5.47263,-25.7359 -1.22804,-1.4866 -9.90774,4.9605 -19.29526,14.332 -11.9946,11.9744 -21.29796,18.3677 -31.32009,21.5236 -48.56821,15.2937 -144.94909,43.5006 -153.99937,45.0697 -9.45838,1.6397 -11.0631,1.2049 -13.38911,-3.6285 -2.3091,-4.7981 0.85814,-9.0656 25.08283,-33.7964 128.37794,-131.0598 259.99003,-197.6097 408.81314,-206.717 24.33535,-1.4893 72.98925,0.1525 89.47087,3.019 8.10359,1.4094 22.11062,3.585 31.12652,4.8348 34.49301,4.7813 87.79975,19.7879 119.64524,33.6819 39.47929,17.2246 49.20136,20.5583 50.32079,17.2552 0.49234,-1.4527 -9.58186,-14.1966 -22.38729,-28.3196 -30.13193,-33.2327 -31.05807,-34.953 -26.33902,-48.9225 3.84308,-11.3771 13.50428,-63.4982 13.3269,-71.8983 -0.14265,-6.751 -1.78277,-4.8483 -20.59579,23.8933 -9.65332,14.7481 -19.78208,28.0147 -22.50835,29.4812 -4.20008,2.2596 -10.02756,-1.7977 -38.17495,-26.5783 -18.27005,-16.0847 -40.0791,-35.1851 -48.46457,-42.4452 -8.38553,-7.2603 -15.69372,-15.8928 -16.24045,-19.1834 -0.74802,-4.5024 4.81144,-12.7735 22.46671,-33.4251 12.90332,-15.0931 23.95271,-28.894 24.55412,-30.6686 1.74587,-5.1515 -2.87292,-5.2967 -24.7801,-0.7791 -26.11871,5.3862 -30.00043,3.6307 -84.48518,-38.2099 -31.72298,-24.3611 -41.09717,-32.9618 -39.8707,-36.5807 0.88194,-2.6023 12.54059,-10.0711 25.90803,-16.5973 13.36757,-6.5263 24.6833,-12.9835 25.14624,-14.3495 1.00186,-2.9561 -7.44354,-3.8941 -40.43939,-4.4911 l -24.64781,-0.446 -10.79614,-10.0647 c -10.9538,-10.2117 -73.776225,-63.9334 -100.530333,-85.967 -43.128297,-35.5188 -60.300487,-54.8434 -52.261867,-58.8126 4.91932,-2.4289 113.724393,24.5452 160.15357,39.704 36.53414,11.9283 99.75205,37.6677 110.05887,44.8111 4.6562,3.2269 13.11544,7.443 18.79825,9.3689 5.68291,1.926 13.39301,6.1356 17.13353,9.3545 3.74053,3.2189 11.49542,8.5743 17.23308,11.9009 32.11605,18.6198 45.13107,27.9811 84.04841,60.4527 18.17334,15.1634 54.0725,51.8547 71.848,73.4332 15.0868,18.3145 58.74549,80.2015 65.87059,93.3727 4.37145,8.0809 5.5558,8.9274 6.9079,4.9378 0.89757,-2.6484 0.60891,-11.9574 -0.6414,-20.6865 l -2.2733,-15.8714 18.63928,-13.5838 c 13.35967,-9.7363 17.58058,-14.2101 14.90156,-15.7948 -2.05574,-1.216 -17.69452,-3.4742 -34.75293,-5.0181 -17.05832,-1.544 -32.23242,-3.8298 -33.72004,-5.0798 -2.88445,-2.4234 -5.51214,-16.2197 -13.6755,-71.8037 -2.81898,-19.1943 -4.30805,-37.3105 -3.30905,-40.2583 1.29731,-3.8279 7.3619,-5.9359 21.22281,-7.3765 10.67354,-1.1094 19.99233,-3.7458 20.70839,-5.8587 0.75866,-2.2385 -5.38864,-8.9068 -14.73118,-15.9797 -15.56449,-11.7834 -17.03965,-14.291 -50.47531,-85.8028 -42.75761,-91.4495 -42.2177,-95.6693 7.51423,-58.7333 38.03174,28.2462 83.38467,68.0158 107.58598,94.3414 11.66471,12.6885 21.68849,23.2327 22.27511,23.4315 0.58673,0.1989 11.25499,13.5206 23.70723,29.6039 47.44011,61.2731 76.84364,122.1942 89.93199,186.33 4.38077,21.4666 5.25249,28.8386 7.55102,63.8551 2.0383,31.052 -1.82172,72.5049 -8.61914,92.5618 -9.64522,28.4599 -15.30185,56.9157 -11.56587,58.1818 2.03055,0.6882 16.40828,-4.0174 31.95042,-10.4569 15.54227,-6.4394 39.84747,-14.8278 54.01176,-18.6407 14.16423,-3.813 31.96879,-8.6997 39.56575,-10.8594 41.23874,-11.7231 141.38551,-18.2493 204.22122,-13.3083 45.5009,3.5779 128.69729,23.0536 172.02129,40.269 43.9872,17.4789 83.0233,35.0833 101.5044,45.776 57.958,33.5334 139.8683,90.1544 144.7638,100.0692 4.1881,8.482 -3.4596,12.1924 -18.7686,9.106 -6.8019,-1.3714 -25.2297,-3.9025 -40.9505,-5.6247 -15.7208,-1.7222 -36.5991,-4.3397 -46.3962,-5.8168 -9.7969,-1.477 -23.1975,-3.3702 -29.779,-4.2071 -6.5814,-0.8367 -23.4104,-2.9724 -37.3976,-4.7456 -45.9961,-5.8314 -46.3635,-5.9884 -69.3362,-29.6229 -11.3727,-11.7004 -21.0721,-21.4072 -21.5541,-21.5705 -3.0432,-1.0314 -1.7584,8.0147 4.3794,30.835 3.8467,14.3016 5.809,26.9821 4.3606,28.1785 -5.919,4.8899 -40.0817,-0.9096 -104.93709,-17.8142 l -21.6189,-5.635 -11.4333,-18.2176 c -6.2883,-10.0197 -12.7778,-18.6734 -14.421,-19.2303 -4.2929,-1.4548 -9.9599,17.4636 -10.53,35.1532 -0.672,20.8492 -8.8377,44.3904 -15.4891,44.6542 -6.31605,0.2506 -74.71996,-7.5786 -113.5403,-12.9953 -16.62632,-2.3198 -17.72058,-8.3248 -7.2785,-39.9407 4.61789,-13.9823 8.23939,-28.2841 8.04727,-31.7817 -0.31406,-5.7203 -1.1256,-5.5249 -8.07617,1.9436 -4.24984,4.5667 -16.26057,20.1553 -26.69064,34.6412 -10.43,14.486 -22.11562,27.694 -25.96812,29.351 -3.85264,1.6571 -22.59269,2.7325 -41.64483,2.39 -47.30426,-0.8506 -45.02414,-1.0776 -39.29791,3.913 2.64984,2.3094 10.38003,6.1828 17.17822,8.6073 11.81416,4.2136 27.19426,12.0634 58.68707,29.9535 7.91553,4.4966 17.96602,10.0597 22.33446,12.3624 10.27776,5.4177 58.72412,41.0064 77.45239,56.8964 16.80413,14.2576 49.92862,48.4651 54.50215,56.284 1.71552,2.9328 4.20176,5.6994 5.52494,6.1478 1.32308,0.4484 11.37195,13.9771 22.33067,30.0636 37.145,54.526 65.5515,117.382 82.0842,181.6305 14.4623,56.2028 23.0736,158.7698 18.0673,215.1955 -1.1827,13.3292 -2.6977,32.1352 -3.3665,41.791 -1.2801,18.4781 -3.664,22.9167 -10.9773,20.4381 -4.4998,-1.525 -76.6224,-149.1329 -79.2703,-162.2367 -0.7887,-3.903 -1.1499,-16.4786 -0.8027,-27.9457 0.3471,-11.4671 -0.9123,-21.2989 -2.7988,-21.8481 -1.8864,-0.5496 -12.13977,4.401 -22.78521,11.0008 -10.64543,6.5998 -21.08336,11.414 -23.19555,10.6982 -2.1122,-0.7158 -7.49088,-5.9789 -11.95259,-11.6958 -4.46174,-5.7168 -22.09833,-26.9142 -39.19244,-47.1052 -17.09401,-20.1909 -31.65685,-39.1093 -32.36182,-42.0408 -0.95293,-3.9626 4.68685,-11.5862 21.98462,-29.7176 12.79646,-13.4132 24.4125,-25.7545 25.81336,-27.4252 4.07189,-4.8556 -4.12188,-5.9778 -27.03945,-3.7029 -11.75075,1.1664 -23.92373,1.2536 -27.05111,0.1937 -8.10481,-2.7467 -98.76445,-95.084 -98.99212,-100.824 -0.12074,-3.0428 7.8566,-8.9833 22.0203,-16.3978 14.59909,-7.6425 21.05919,-12.4983 18.85239,-14.1706 -3.00031,-2.2738 -25.82666,-3.8628 -45.46691,-3.1651 -11.7674,0.418 -25.70486,-5.5448 -28.15411,-12.0449 -4.42886,-11.7538 -38.56059,-51.6432 -61.27455,-71.6108 -26.43378,-23.2377 -54.63405,-44.2347 -58.27993,-43.3933 -1.36482,0.315 -7.10043,9.2511 -12.74584,19.8579 -5.64528,10.6067 -13.79989,25.8099 -18.12137,33.7848 -62.61284,115.5481 -124.96849,291.3009 -166.03264,467.9718 -20.9526,90.1447 -37.21411,169.9225 -46.40706,227.6701 -2.20351,13.8414 -6.03239,37.8197 -8.50869,53.285 -7.16824,44.7668 -25.63283,188.917 -29.49734,230.2803 -8.50821,91.0665 -12.41421,141.7022 -15.21966,197.2987 -1.74754,34.633 -4.38953,60.1438 -6.32763,61.1008 -4.77261,2.3565 -321.24072,-103.8183 -322.71743,-108.2714 z m 344.35912,-994.5823 c 4.4756,-5.3879 0.94872,-13.3251 -7.13913,-16.0661 -8.23341,-2.7904 -9.03641,-0.7908 -4.06493,10.1231 4.6062,10.1121 6.78217,11.2663 11.20406,5.943 z m 236.34321,-470.5389 c 2.80643,-2.6284 4.62391,-5.7483 4.0389,-6.9333 -1.24334,-2.5181 -15.36064,3.0877 -16.54012,6.568 -1.6084,4.7458 7.53837,5.0131 12.50122,0.3653 z"
       id="path4413"
       inkscape:connector-curvature="0" />
    <path
       sodipodi:nodetypes="cssssssssssscsscssssssscc"
       style="fill:#6f4a25"
       d="m -122.29076,2973.5529 c -0.64119,-1.9337 0.50251,-13.4819 2.54156,-25.6628 2.03904,-12.181 6.93374,-43.5213 10.87696,-69.6452 6.88753,-45.629 9.032408,-56.9732 25.506353,-134.8979 27.545354,-130.2942 75.652607,-278.4261 142.416977,-438.5294 25.88843,-62.0816 34.22412,-80.3118 67.94608,-148.5993 10.8904,-22.0531 22.59624,-46.1703 26.01285,-53.5937 5.98473,-13.0029 7.69848,-14.2135 46.80259,-33.0616 22.32475,-10.7604 41.16621,-21.2632 41.86988,-23.3395 0.70367,-2.0763 -4.57224,-15.5124 -11.72429,-29.8581 -13.23555,-26.5482 -13.92478,-34.33 -3.67813,-41.5323 5.08662,-3.5754 6.71309,-2.7276 30.96263,16.1379 28.69646,22.3253 34.02171,24.8767 45.1416,21.6277 21.4507,-6.2672 107.61735,-83.8459 128.23729,-115.4563 20.62345,-31.6158 33.39923,-55.1083 44.08599,-81.0665 11.37756,-27.6364 18.10587,-35.9702 24.65109,-30.5333 3.09199,2.5685 2.61497,5.0549 -2.61424,13.6268 -15.96909,26.177 -50.55272,96.0393 -74.17996,149.8508 -25.59854,58.3013 -76.0605,204.7509 -93.39052,271.0363 -27.18194,103.968 -56.14318,237.8216 -69.19396,319.8029 -2.20351,13.8414 -6.03239,37.8197 -8.50869,53.2851 -7.16824,44.7667 -25.63283,188.9169 -29.49734,230.2803 -8.50821,91.0664 -12.41421,141.7021 -15.21966,197.2987 -1.74754,34.633 -4.38953,60.1438 -6.32763,61.1007 -4.77261,2.3565 -321.24072,-103.8182 -322.71743,-108.2713 z"
       id="path4411"
       inkscape:connector-curvature="0" />
  </g>
  <rect
     style="fill:#ffffff;fill-opacity:1"
     id="rect4360"
     width="880.35309"
     height="3482.7156"
     x="-885.19019"
     y="-10.534558" />
  <rect
     style="fill:#ffffff;fill-opacity:1"
     id="rect4364"
     width="880.35309"
     height="3482.7156"
     x="2978.7964"
     y="-353.10889"
     transform="matrix(0,1,1,0,0,0)" />
  <text
     xml:space="preserve"
     style="font-style:normal;font-weight:normal;font-size:206.98983765px;line-height:125%;font-family:sans-serif;letter-spacing:0px;word-spacing:0px;fill:#000000;fill-opacity:1;stroke:none;stroke-width:1px;stroke-linecap:butt;stroke-linejoin:miter;stroke-opacity:1"
     x="437.82715"
     y="2632.896"
     id="text4367"
     sodipodi:linespacing="125%"><tspan
       sodipodi:role="line"
       id="tspan4369"
       x="437.82715"
       y="2632.896"
       style="font-style:normal;font-variant:normal;font-weight:normal;font-stretch:normal;font-family:'CF Jack Story';-inkscape-font-specification:'CF Jack Story';letter-spacing:0px">$10 before Monday</tspan></text>
  <text
     sodipodi:linespacing="125%"
     id="text4371"
     y="2897.595"
     x="441.2475"
     style="font-style:normal;font-weight:normal;font-size:206.98983765px;line-height:125%;font-family:sans-serif;letter-spacing:0px;word-spacing:0px;fill:#000000;fill-opacity:1;stroke:none;stroke-width:1px;stroke-linecap:butt;stroke-linejoin:miter;stroke-opacity:1"
     xml:space="preserve"><tspan
       style="font-style:normal;font-variant:normal;font-weight:normal;font-stretch:normal;font-family:'CF Jack Story';-inkscape-font-specification:'CF Jack Story';letter-spacing:0px"
       y="2897.595"
       x="441.2475"
       id="tspan4373"
       sodipodi:role="line">$15 after</tspan></text>
  <g
     id="g4937"
     transform="matrix(1.0663835,0,0,1.0663835,-0.93255313,-24.73643)">
    <text
       sodipodi:linespacing="125%"
       id="text4156"
       y="558.56677"
       x="-22.758789"
       style="font-style:normal;font-weight:normal;font-size:425.13787842px;line-height:125%;font-family:sans-serif;letter-spacing:0px;word-spacing:0px;fill:#000000;fill-opacity:1;stroke:none;stroke-width:1px;stroke-linecap:butt;stroke-linejoin:miter;stroke-opacity:1"
       xml:space="preserve"><tspan
         style="font-style:normal;font-variant:normal;font-weight:normal;font-stretch:normal;font-size:425px;font-family:Pacifico;-inkscape-font-specification:Pacifico;letter-spacing:0px"
         y="558.56677"
         x="-22.758789"
         id="tspan4158"
         sodipodi:role="line">Sadie'</tspan></text>
    <text
       xml:space="preserve"
       style="font-style:normal;font-weight:normal;font-size:425.13787842px;line-height:125%;font-family:sans-serif;letter-spacing:0px;word-spacing:0px;fill:#000000;fill-opacity:1;stroke:none;stroke-width:1px;stroke-linecap:butt;stroke-linejoin:miter;stroke-opacity:1"
       x="1012.4479"
       y="564.27356"
       id="text4901"
       sodipodi:linespacing="125%"><tspan
         sodipodi:role="line"
         id="tspan4903"
         x="1012.4479"
         y="564.27356"
         style="font-style:normal;font-variant:normal;font-weight:normal;font-stretch:normal;font-size:425px;font-family:Pacifico;-inkscape-font-specification:Pacifico;letter-spacing:0px">s 2016</tspan></text>
  </g>
  <flowRoot
     xml:space="preserve"
     id="flowRoot4158"
     style="fill:black;stroke:none;stroke-opacity:1;stroke-width:1px;stroke-linejoin:miter;stroke-linecap:butt;fill-opacity:1;font-family:sans-serif;font-style:normal;font-weight:normal;font-size:40px;line-height:125%;letter-spacing:0px;word-spacing:0px"><flowRegion
       id="flowRegion4160"><rect
         id="rect4162"
         width="393.34021"
         height="872.18921"
         x="-998.74213"
         y="917.58252" /></flowRegion><flowPara
       id="flowPara4164" /></flowRoot></svg>
