<?xml version="1.0" encoding="UTF-8" standalone="no"?>
<!-- Created with Inkscape (http://www.inkscape.org/) -->

<svg
   xmlns:dc="http://purl.org/dc/elements/1.1/"
   xmlns:cc="http://creativecommons.org/ns#"
   xmlns:rdf="http://www.w3.org/1999/02/22-rdf-syntax-ns#"
   xmlns:svg="http://www.w3.org/2000/svg"
   xmlns="http://www.w3.org/2000/svg"
   xmlns:sodipodi="http://sodipodi.sourceforge.net/DTD/sodipodi-0.dtd"
   xmlns:inkscape="http://www.inkscape.org/namespaces/inkscape"
   width="24in"
   height="36in"
   viewBox="0 0 2160 3240"
   id="svg2"
   version="1.1"
   inkscape:version="0.91 r13725"
   sodipodi:docname="VotingPoster.svg">
  <defs
     id="defs4" />
  <sodipodi:namedview
     id="base"
     pagecolor="#ffffff"
     bordercolor="#666666"
     borderopacity="1.0"
     inkscape:pageopacity="0.0"
     inkscape:pageshadow="2"
     inkscape:zoom="0.24748737"
     inkscape:cx="1904.3942"
     inkscape:cy="1783.3358"
     inkscape:document-units="px"
     inkscape:current-layer="layer1"
     showgrid="false"
     units="in"
     inkscape:window-width="1920"
     inkscape:window-height="1059"
     inkscape:window-x="0"
     inkscape:window-y="21"
     inkscape:window-maximized="0" />
  <metadata
     id="metadata7">
    <rdf:RDF>
      <cc:Work
         rdf:about="">
        <dc:format>image/svg+xml</dc:format>
        <dc:type
           rdf:resource="http://purl.org/dc/dcmitype/StillImage" />
        <dc:title></dc:title>
      </cc:Work>
    </rdf:RDF>
  </metadata>
  <g
     inkscape:label="Layer 1"
     inkscape:groupmode="layer"
     id="layer1"
     transform="translate(0,2187.6378)">
    <text
       xml:space="preserve"
       style="font-style:normal;font-weight:normal;font-size:120px;line-height:125%;font-family:sans-serif;letter-spacing:0px;word-spacing:0px;fill:#000000;fill-opacity:1;stroke:none;stroke-width:1px;stroke-linecap:butt;stroke-linejoin:miter;stroke-opacity:1"
       x="748.57141"
       y="-1233.3521"
       id="text4140"
       sodipodi:linespacing="125%"><tspan
         sodipodi:role="line"
         id="tspan4142"
         x="748.57141"
         y="-1233.3521" /></text>
    <text
       xml:space="preserve"
       style="font-style:normal;font-weight:normal;font-size:300.55004883px;line-height:125%;font-family:sans-serif;letter-spacing:0px;word-spacing:0px;fill:#f47321;fill-opacity:1;stroke:none;stroke-width:1px;stroke-linecap:butt;stroke-linejoin:miter;stroke-opacity:1"
       x="480.25732"
       y="-1433.9886"
       id="text4144"
       sodipodi:linespacing="125%"><tspan
         sodipodi:role="line"
         id="tspan4146"
         x="480.25732"
         y="-1433.9886"
         style="font-style:italic;font-variant:normal;font-weight:normal;font-stretch:normal;font-size:450.82510376px;font-family:Arvo;-inkscape-font-specification:'Arvo Italic';fill:#f47321;fill-opacity:1">Vote!</tspan></text>
    <rect
       style="opacity:1;fill:#f47321;fill-opacity:0.50196081;stroke:none;stroke-width:5.64281797;stroke-miterlimit:4;stroke-dasharray:none;stroke-opacity:1;"
       id="rect4241"
       width="1793.3881"
       height="468.06796"
       x="183.30595"
       y="-821.67175"
       ry="234.03398" />
    <text
       xml:space="preserve"
       style="font-style:normal;font-weight:normal;font-size:120px;line-height:125%;font-family:sans-serif;letter-spacing:0px;word-spacing:0px;fill:#000000;fill-opacity:1;stroke:none;stroke-width:1px;stroke-linecap:butt;stroke-linejoin:miter;stroke-opacity:1"
       x="932.8125"
       y="-666.32922"
       id="text4152"
       sodipodi:linespacing="125%"><tspan
         sodipodi:role="line"
         x="932.8125"
         y="-666.32922"
         id="tspan4156">Go to</tspan></text>
    <text
       xml:space="preserve"
       style="font-style:normal;font-weight:normal;font-size:120px;line-height:125%;font-family:sans-serif;letter-spacing:0px;word-spacing:0px;fill:#000000;fill-opacity:1;stroke:none;stroke-width:1px;stroke-linecap:butt;stroke-linejoin:miter;stroke-opacity:1"
       x="269.20898"
       y="-496.61243"
       id="text4160"
       sodipodi:linespacing="125%"><tspan
         sodipodi:role="line"
         id="tspan4162"
         x="269.20898"
         y="-496.61243">beaverton.voting4schools.com</tspan></text>
    <text
       xml:space="preserve"
       style="font-style:normal;font-weight:normal;font-size:120px;line-height:125%;font-family:sans-serif;letter-spacing:0px;word-spacing:0px;fill:#000000;fill-opacity:1;stroke:none;stroke-width:1px;stroke-linecap:butt;stroke-linejoin:miter;stroke-opacity:1"
       x="307.11612"
       y="144.34888"
       id="text4175"
       sodipodi:linespacing="125%"><tspan
         sodipodi:role="line"
         id="tspan4177"
         x="307.11612"
         y="144.34888"
         style="font-style:normal;font-variant:normal;font-weight:normal;font-stretch:normal;font-family:'Bitstream Vera Sans';-inkscape-font-specification:'Bitstream Vera Sans'">iOS</tspan></text>
    <g
       transform="matrix(3.1346939,0,0,3.1346939,1288.9884,228.85654)"
       id="elements-0">
      <path
         inkscape:connector-curvature="0"
         style="fill:#000000"
         d="m 7,7 7,0 0,7 -7,0 z m 7,0 7,0 0,7 -7,0 z m 7,0 7,0 0,7 -7,0 z m 7,0 7,0 0,7 -7,0 z m 7,0 7,0 0,7 -7,0 z m 7,0 7,0 0,7 -7,0 z m 7,0 7,0 0,7 -7,0 z m 21,0 7,0 0,7 -7,0 z m 49,0 7,0 0,7 -7,0 z m 7,0 7,0 0,7 -7,0 z m 7,0 7,0 0,7 -7,0 z m 7,0 7,0 0,7 -7,0 z m 7,0 7,0 0,7 -7,0 z m 7,0 7,0 0,7 -7,0 z m 7,0 7,0 0,7 -7,0 z m 7,0 7,0 0,7 -7,0 z m 21,0 7,0 0,7 -7,0 z m 7,0 7,0 0,7 -7,0 z m 7,0 7,0 0,7 -7,0 z m 7,0 7,0 0,7 -7,0 z m 7,0 7,0 0,7 -7,0 z m 7,0 7,0 0,7 -7,0 z m 7,0 7,0 0,7 -7,0 z m -224,7 7,0 0,7 -7,0 z m 42,0 7,0 0,7 -7,0 z m 14,0 7,0 0,7 -7,0 z m 7,0 7,0 0,7 -7,0 z m 14,0 7,0 0,7 -7,0 z m 7,0 7,0 0,7 -7,0 z m 7,0 7,0 0,7 -7,0 z m 7,0 7,0 0,7 -7,0 z m 7,0 7,0 0,7 -7,0 z m 21,0 7,0 0,7 -7,0 z m 14,0 7,0 0,7 -7,0 z m 42,0 7,0 0,7 -7,0 z m 42,0 7,0 0,7 -7,0 z m -224,7 7,0 0,7 -7,0 z m 14,0 7,0 0,7 -7,0 z m 7,0 7,0 0,7 -7,0 z m 7,0 7,0 0,7 -7,0 z m 14,0 7,0 0,7 -7,0 z m 21,0 7,0 0,7 -7,0 z m 7,0 7,0 0,7 -7,0 z m 7,0 7,0 0,7 -7,0 z m 21,0 7,0 0,7 -7,0 z m 14,0 7,0 0,7 -7,0 z m 21,0 7,0 0,7 -7,0 z m 7,0 7,0 0,7 -7,0 z m 7,0 7,0 0,7 -7,0 z m 14,0 7,0 0,7 -7,0 z m 21,0 7,0 0,7 -7,0 z m 14,0 7,0 0,7 -7,0 z m 7,0 7,0 0,7 -7,0 z m 7,0 7,0 0,7 -7,0 z m 14,0 7,0 0,7 -7,0 z m -224,7 7,0 0,7 -7,0 z m 14,0 7,0 0,7 -7,0 z m 7,0 7,0 0,7 -7,0 z m 7,0 7,0 0,7 -7,0 z m 14,0 7,0 0,7 -7,0 z m 14,0 7,0 0,7 -7,0 z m 7,0 7,0 0,7 -7,0 z m 14,0 7,0 0,7 -7,0 z m 7,0 7,0 0,7 -7,0 z m 7,0 7,0 0,7 -7,0 z m 28,0 7,0 0,7 -7,0 z m 14,0 7,0 0,7 -7,0 z m 7,0 7,0 0,7 -7,0 z m 14,0 7,0 0,7 -7,0 z m 7,0 7,0 0,7 -7,0 z m 7,0 7,0 0,7 -7,0 z m 14,0 7,0 0,7 -7,0 z m 14,0 7,0 0,7 -7,0 z m 7,0 7,0 0,7 -7,0 z m 7,0 7,0 0,7 -7,0 z m 14,0 7,0 0,7 -7,0 z m -224,7 7,0 0,7 -7,0 z m 14,0 7,0 0,7 -7,0 z m 7,0 7,0 0,7 -7,0 z m 7,0 7,0 0,7 -7,0 z m 14,0 7,0 0,7 -7,0 z m 28,0 7,0 0,7 -7,0 z m 14,0 7,0 0,7 -7,0 z m 14,0 7,0 0,7 -7,0 z m 14,0 7,0 0,7 -7,0 z m 14,0 7,0 0,7 -7,0 z m 7,0 7,0 0,7 -7,0 z m 14,0 7,0 0,7 -7,0 z m 14,0 7,0 0,7 -7,0 z m 21,0 7,0 0,7 -7,0 z m 14,0 7,0 0,7 -7,0 z m 7,0 7,0 0,7 -7,0 z m 7,0 7,0 0,7 -7,0 z m 14,0 7,0 0,7 -7,0 z m -224,7 7,0 0,7 -7,0 z m 42,0 7,0 0,7 -7,0 z m 14,0 7,0 0,7 -7,0 z m 14,0 7,0 0,7 -7,0 z m 14,0 7,0 0,7 -7,0 z m 14,0 7,0 0,7 -7,0 z m 7,0 7,0 0,7 -7,0 z m 7,0 7,0 0,7 -7,0 z m 28,0 7,0 0,7 -7,0 z m 7,0 7,0 0,7 -7,0 z m 7,0 7,0 0,7 -7,0 z m 14,0 7,0 0,7 -7,0 z m 14,0 7,0 0,7 -7,0 z m 42,0 7,0 0,7 -7,0 z m -224,7 7,0 0,7 -7,0 z m 7,0 7,0 0,7 -7,0 z m 7,0 7,0 0,7 -7,0 z m 7,0 7,0 0,7 -7,0 z m 7,0 7,0 0,7 -7,0 z m 7,0 7,0 0,7 -7,0 z m 7,0 7,0 0,7 -7,0 z m 14,0 7,0 0,7 -7,0 z m 14,0 7,0 0,7 -7,0 z m 14,0 7,0 0,7 -7,0 z m 14,0 7,0 0,7 -7,0 z m 14,0 7,0 0,7 -7,0 z m 14,0 7,0 0,7 -7,0 z m 14,0 7,0 0,7 -7,0 z m 14,0 7,0 0,7 -7,0 z m 14,0 7,0 0,7 -7,0 z m 14,0 7,0 0,7 -7,0 z m 7,0 7,0 0,7 -7,0 z m 7,0 7,0 0,7 -7,0 z m 7,0 7,0 0,7 -7,0 z m 7,0 7,0 0,7 -7,0 z m 7,0 7,0 0,7 -7,0 z m 7,0 7,0 0,7 -7,0 z m -147,7 7,0 0,7 -7,0 z m 28,0 7,0 0,7 -7,0 z m 21,0 7,0 0,7 -7,0 z m 7,0 7,0 0,7 -7,0 z m 14,0 7,0 0,7 -7,0 z m 7,0 7,0 0,7 -7,0 z m -154,7 7,0 0,7 -7,0 z m 7,0 7,0 0,7 -7,0 z m 7,0 7,0 0,7 -7,0 z m 7,0 7,0 0,7 -7,0 z m 7,0 7,0 0,7 -7,0 z m 14,0 7,0 0,7 -7,0 z m 7,0 7,0 0,7 -7,0 z m 7,0 7,0 0,7 -7,0 z m 7,0 7,0 0,7 -7,0 z m 7,0 7,0 0,7 -7,0 z m 7,0 7,0 0,7 -7,0 z m 7,0 7,0 0,7 -7,0 z m 14,0 7,0 0,7 -7,0 z m 21,0 7,0 0,7 -7,0 z m 7,0 7,0 0,7 -7,0 z m 14,0 7,0 0,7 -7,0 z m 35,0 7,0 0,7 -7,0 z m 14,0 7,0 0,7 -7,0 z m 14,0 7,0 0,7 -7,0 z m 14,0 7,0 0,7 -7,0 z m -217,7 7,0 0,7 -7,0 z m 14,0 7,0 0,7 -7,0 z m 7,0 7,0 0,7 -7,0 z m 14,0 7,0 0,7 -7,0 z m 28,0 7,0 0,7 -7,0 z m 14,0 7,0 0,7 -7,0 z m 21,0 7,0 0,7 -7,0 z m 14,0 7,0 0,7 -7,0 z m 7,0 7,0 0,7 -7,0 z m 14,0 7,0 0,7 -7,0 z m 7,0 7,0 0,7 -7,0 z m 21,0 7,0 0,7 -7,0 z m 21,0 7,0 0,7 -7,0 z m 28,0 7,0 0,7 -7,0 z m 7,0 7,0 0,7 -7,0 z m 7,0 7,0 0,7 -7,0 z m -217,7 7,0 0,7 -7,0 z m 14,0 7,0 0,7 -7,0 z m 7,0 7,0 0,7 -7,0 z m 14,0 7,0 0,7 -7,0 z m 21,0 7,0 0,7 -7,0 z m 28,0 7,0 0,7 -7,0 z m 14,0 7,0 0,7 -7,0 z m 49,0 7,0 0,7 -7,0 z m 21,0 7,0 0,7 -7,0 z m 7,0 7,0 0,7 -7,0 z m 14,0 7,0 0,7 -7,0 z m 7,0 7,0 0,7 -7,0 z m 14,0 7,0 0,7 -7,0 z m -217,7 7,0 0,7 -7,0 z m 35,0 7,0 0,7 -7,0 z m 14,0 7,0 0,7 -7,0 z m 14,0 7,0 0,7 -7,0 z m 7,0 7,0 0,7 -7,0 z m 28,0 7,0 0,7 -7,0 z m 7,0 7,0 0,7 -7,0 z m 7,0 7,0 0,7 -7,0 z m 28,0 7,0 0,7 -7,0 z m 7,0 7,0 0,7 -7,0 z m 7,0 7,0 0,7 -7,0 z m 7,0 7,0 0,7 -7,0 z m 7,0 7,0 0,7 -7,0 z m 7,0 7,0 0,7 -7,0 z m 7,0 7,0 0,7 -7,0 z m 14,0 7,0 0,7 -7,0 z m 14,0 7,0 0,7 -7,0 z m -210,7 7,0 0,7 -7,0 z m 7,0 7,0 0,7 -7,0 z m 21,0 7,0 0,7 -7,0 z m 7,0 7,0 0,7 -7,0 z m 7,0 7,0 0,7 -7,0 z m 7,0 7,0 0,7 -7,0 z m 14,0 7,0 0,7 -7,0 z m 21,0 7,0 0,7 -7,0 z m 7,0 7,0 0,7 -7,0 z m 7,0 7,0 0,7 -7,0 z m 7,0 7,0 0,7 -7,0 z m 7,0 7,0 0,7 -7,0 z m 7,0 7,0 0,7 -7,0 z m 14,0 7,0 0,7 -7,0 z m 21,0 7,0 0,7 -7,0 z m 21,0 7,0 0,7 -7,0 z m 14,0 7,0 0,7 -7,0 z m 7,0 7,0 0,7 -7,0 z m 7,0 7,0 0,7 -7,0 z m -203,7 7,0 0,7 -7,0 z m 7,0 7,0 0,7 -7,0 z m 7,0 7,0 0,7 -7,0 z m 7,0 7,0 0,7 -7,0 z m 14,0 7,0 0,7 -7,0 z m 14,0 7,0 0,7 -7,0 z m 7,0 7,0 0,7 -7,0 z m 14,0 7,0 0,7 -7,0 z m 7,0 7,0 0,7 -7,0 z m 35,0 7,0 0,7 -7,0 z m 14,0 7,0 0,7 -7,0 z m 7,0 7,0 0,7 -7,0 z m 7,0 7,0 0,7 -7,0 z m 7,0 7,0 0,7 -7,0 z m 14,0 7,0 0,7 -7,0 z m 21,0 7,0 0,7 -7,0 z m 35,0 7,0 0,7 -7,0 z m 7,0 7,0 0,7 -7,0 z m -224,7 7,0 0,7 -7,0 z m 7,0 7,0 0,7 -7,0 z m 21,0 7,0 0,7 -7,0 z m 7,0 7,0 0,7 -7,0 z m 7,0 7,0 0,7 -7,0 z m 14,0 7,0 0,7 -7,0 z m 7,0 7,0 0,7 -7,0 z m 28,0 7,0 0,7 -7,0 z m 14,0 7,0 0,7 -7,0 z m 7,0 7,0 0,7 -7,0 z m 14,0 7,0 0,7 -7,0 z m 14,0 7,0 0,7 -7,0 z m 7,0 7,0 0,7 -7,0 z m 28,0 7,0 0,7 -7,0 z m 21,0 7,0 0,7 -7,0 z m 21,0 7,0 0,7 -7,0 z m -161,7 7,0 0,7 -7,0 z m 7,0 7,0 0,7 -7,0 z m 7,0 7,0 0,7 -7,0 z m 28,0 7,0 0,7 -7,0 z m 14,0 7,0 0,7 -7,0 z m 35,0 7,0 0,7 -7,0 z m 7,0 7,0 0,7 -7,0 z m 7,0 7,0 0,7 -7,0 z m 14,0 7,0 0,7 -7,0 z m 7,0 7,0 0,7 -7,0 z m 28,0 7,0 0,7 -7,0 z m -210,7 7,0 0,7 -7,0 z m 14,0 7,0 0,7 -7,0 z m 7,0 7,0 0,7 -7,0 z m 7,0 7,0 0,7 -7,0 z m 7,0 7,0 0,7 -7,0 z m 7,0 7,0 0,7 -7,0 z m 7,0 7,0 0,7 -7,0 z m 7,0 7,0 0,7 -7,0 z m 21,0 7,0 0,7 -7,0 z m 14,0 7,0 0,7 -7,0 z m 7,0 7,0 0,7 -7,0 z m 21,0 7,0 0,7 -7,0 z m 14,0 7,0 0,7 -7,0 z m 21,0 7,0 0,7 -7,0 z m 7,0 7,0 0,7 -7,0 z m 7,0 7,0 0,7 -7,0 z m 7,0 7,0 0,7 -7,0 z m 14,0 7,0 0,7 -7,0 z m 7,0 7,0 0,7 -7,0 z m 21,0 7,0 0,7 -7,0 z m -217,7 7,0 0,7 -7,0 z m 7,0 7,0 0,7 -7,0 z m 14,0 7,0 0,7 -7,0 z m 28,0 7,0 0,7 -7,0 z m 7,0 7,0 0,7 -7,0 z m 14,0 7,0 0,7 -7,0 z m 7,0 7,0 0,7 -7,0 z m 7,0 7,0 0,7 -7,0 z m 7,0 7,0 0,7 -7,0 z m 21,0 7,0 0,7 -7,0 z m 7,0 7,0 0,7 -7,0 z m 7,0 7,0 0,7 -7,0 z m 7,0 7,0 0,7 -7,0 z m 7,0 7,0 0,7 -7,0 z m 7,0 7,0 0,7 -7,0 z m 7,0 7,0 0,7 -7,0 z m 7,0 7,0 0,7 -7,0 z m 7,0 7,0 0,7 -7,0 z m 14,0 7,0 0,7 -7,0 z m 21,0 7,0 0,7 -7,0 z m 14,0 7,0 0,7 -7,0 z m 7,0 7,0 0,7 -7,0 z m -224,7 7,0 0,7 -7,0 z m 42,0 7,0 0,7 -7,0 z m 7,0 7,0 0,7 -7,0 z m 35,0 7,0 0,7 -7,0 z m 21,0 7,0 0,7 -7,0 z m 14,0 7,0 0,7 -7,0 z m 21,0 7,0 0,7 -7,0 z m 7,0 7,0 0,7 -7,0 z m 28,0 7,0 0,7 -7,0 z m 7,0 7,0 0,7 -7,0 z m 7,0 7,0 0,7 -7,0 z m 7,0 7,0 0,7 -7,0 z m 7,0 7,0 0,7 -7,0 z m 14,0 7,0 0,7 -7,0 z m -217,7 7,0 0,7 -7,0 z m 28,0 7,0 0,7 -7,0 z m 7,0 7,0 0,7 -7,0 z m 14,0 7,0 0,7 -7,0 z m 7,0 7,0 0,7 -7,0 z m 7,0 7,0 0,7 -7,0 z m 7,0 7,0 0,7 -7,0 z m 42,0 7,0 0,7 -7,0 z m 14,0 7,0 0,7 -7,0 z m 21,0 7,0 0,7 -7,0 z m 49,0 7,0 0,7 -7,0 z m 14,0 7,0 0,7 -7,0 z m -203,7 7,0 0,7 -7,0 z m 35,0 7,0 0,7 -7,0 z m 14,0 7,0 0,7 -7,0 z m 14,0 7,0 0,7 -7,0 z m 7,0 7,0 0,7 -7,0 z m 7,0 7,0 0,7 -7,0 z m 7,0 7,0 0,7 -7,0 z m 7,0 7,0 0,7 -7,0 z m 7,0 7,0 0,7 -7,0 z m 7,0 7,0 0,7 -7,0 z m 7,0 7,0 0,7 -7,0 z m 35,0 7,0 0,7 -7,0 z m 7,0 7,0 0,7 -7,0 z m 7,0 7,0 0,7 -7,0 z m 7,0 7,0 0,7 -7,0 z m 14,0 7,0 0,7 -7,0 z m 7,0 7,0 0,7 -7,0 z m 21,0 7,0 0,7 -7,0 z m -217,7 7,0 0,7 -7,0 z m 21,0 7,0 0,7 -7,0 z m 7,0 7,0 0,7 -7,0 z m 7,0 7,0 0,7 -7,0 z m 14,0 7,0 0,7 -7,0 z m 21,0 7,0 0,7 -7,0 z m 7,0 7,0 0,7 -7,0 z m 14,0 7,0 0,7 -7,0 z m 14,0 7,0 0,7 -7,0 z m 7,0 7,0 0,7 -7,0 z m 14,0 7,0 0,7 -7,0 z m 7,0 7,0 0,7 -7,0 z m 7,0 7,0 0,7 -7,0 z m 7,0 7,0 0,7 -7,0 z m 7,0 7,0 0,7 -7,0 z m 7,0 7,0 0,7 -7,0 z m 21,0 7,0 0,7 -7,0 z m 7,0 7,0 0,7 -7,0 z m 14,0 7,0 0,7 -7,0 z m 14,0 7,0 0,7 -7,0 z m 7,0 7,0 0,7 -7,0 z m -224,7 7,0 0,7 -7,0 z m 21,0 7,0 0,7 -7,0 z m 7,0 7,0 0,7 -7,0 z m 14,0 7,0 0,7 -7,0 z m 7,0 7,0 0,7 -7,0 z m 7,0 7,0 0,7 -7,0 z m 14,0 7,0 0,7 -7,0 z m 14,0 7,0 0,7 -7,0 z m 7,0 7,0 0,7 -7,0 z m 7,0 7,0 0,7 -7,0 z m 7,0 7,0 0,7 -7,0 z m 42,0 7,0 0,7 -7,0 z m 28,0 7,0 0,7 -7,0 z m 28,0 7,0 0,7 -7,0 z m 14,0 7,0 0,7 -7,0 z m -217,7 7,0 0,7 -7,0 z m 14,0 7,0 0,7 -7,0 z m 14,0 7,0 0,7 -7,0 z m 7,0 7,0 0,7 -7,0 z m 49,0 7,0 0,7 -7,0 z m 14,0 7,0 0,7 -7,0 z m 14,0 7,0 0,7 -7,0 z m 14,0 7,0 0,7 -7,0 z m 14,0 7,0 0,7 -7,0 z m 7,0 7,0 0,7 -7,0 z m 14,0 7,0 0,7 -7,0 z m 14,0 7,0 0,7 -7,0 z m 14,0 7,0 0,7 -7,0 z m 7,0 7,0 0,7 -7,0 z m 7,0 7,0 0,7 -7,0 z m 7,0 7,0 0,7 -7,0 z m -210,7 7,0 0,7 -7,0 z m 14,0 7,0 0,7 -7,0 z m 14,0 7,0 0,7 -7,0 z m 7,0 7,0 0,7 -7,0 z m 7,0 7,0 0,7 -7,0 z m 14,0 7,0 0,7 -7,0 z m 14,0 7,0 0,7 -7,0 z m 7,0 7,0 0,7 -7,0 z m 7,0 7,0 0,7 -7,0 z m 7,0 7,0 0,7 -7,0 z m 7,0 7,0 0,7 -7,0 z m 21,0 7,0 0,7 -7,0 z m 7,0 7,0 0,7 -7,0 z m 14,0 7,0 0,7 -7,0 z m 14,0 7,0 0,7 -7,0 z m 7,0 7,0 0,7 -7,0 z m 7,0 7,0 0,7 -7,0 z m 7,0 7,0 0,7 -7,0 z m 7,0 7,0 0,7 -7,0 z m 7,0 7,0 0,7 -7,0 z m 7,0 7,0 0,7 -7,0 z m 7,0 7,0 0,7 -7,0 z m 21,0 7,0 0,7 -7,0 z m -168,7 7,0 0,7 -7,0 z m 21,0 7,0 0,7 -7,0 z m 14,0 7,0 0,7 -7,0 z m 28,0 7,0 0,7 -7,0 z m 7,0 7,0 0,7 -7,0 z m 7,0 7,0 0,7 -7,0 z m 7,0 7,0 0,7 -7,0 z m 7,0 7,0 0,7 -7,0 z m 7,0 7,0 0,7 -7,0 z m 14,0 7,0 0,7 -7,0 z m 28,0 7,0 0,7 -7,0 z m 14,0 7,0 0,7 -7,0 z m 14,0 7,0 0,7 -7,0 z m -224,7 7,0 0,7 -7,0 z m 7,0 7,0 0,7 -7,0 z m 7,0 7,0 0,7 -7,0 z m 7,0 7,0 0,7 -7,0 z m 7,0 7,0 0,7 -7,0 z m 7,0 7,0 0,7 -7,0 z m 7,0 7,0 0,7 -7,0 z m 14,0 7,0 0,7 -7,0 z m 14,0 7,0 0,7 -7,0 z m 14,0 7,0 0,7 -7,0 z m 7,0 7,0 0,7 -7,0 z m 7,0 7,0 0,7 -7,0 z m 7,0 7,0 0,7 -7,0 z m 14,0 7,0 0,7 -7,0 z m 21,0 7,0 0,7 -7,0 z m 21,0 7,0 0,7 -7,0 z m 7,0 7,0 0,7 -7,0 z m 14,0 7,0 0,7 -7,0 z m 14,0 7,0 0,7 -7,0 z m 14,0 7,0 0,7 -7,0 z m 7,0 7,0 0,7 -7,0 z m -217,7 7,0 0,7 -7,0 z m 42,0 7,0 0,7 -7,0 z m 35,0 7,0 0,7 -7,0 z m 21,0 7,0 0,7 -7,0 z m 14,0 7,0 0,7 -7,0 z m 14,0 7,0 0,7 -7,0 z m 14,0 7,0 0,7 -7,0 z m 7,0 7,0 0,7 -7,0 z m 7,0 7,0 0,7 -7,0 z m 7,0 7,0 0,7 -7,0 z m 7,0 7,0 0,7 -7,0 z m 28,0 7,0 0,7 -7,0 z m 7,0 7,0 0,7 -7,0 z m 7,0 7,0 0,7 -7,0 z m 14,0 7,0 0,7 -7,0 z m -224,7 7,0 0,7 -7,0 z m 14,0 7,0 0,7 -7,0 z m 7,0 7,0 0,7 -7,0 z m 7,0 7,0 0,7 -7,0 z m 14,0 7,0 0,7 -7,0 z m 14,0 7,0 0,7 -7,0 z m 14,0 7,0 0,7 -7,0 z m 14,0 7,0 0,7 -7,0 z m 7,0 7,0 0,7 -7,0 z m 7,0 7,0 0,7 -7,0 z m 7,0 7,0 0,7 -7,0 z m 7,0 7,0 0,7 -7,0 z m 7,0 7,0 0,7 -7,0 z m 49,0 7,0 0,7 -7,0 z m 7,0 7,0 0,7 -7,0 z m 7,0 7,0 0,7 -7,0 z m 7,0 7,0 0,7 -7,0 z m 7,0 7,0 0,7 -7,0 z m 28,0 7,0 0,7 -7,0 z m -224,7 7,0 0,7 -7,0 z m 14,0 7,0 0,7 -7,0 z m 7,0 7,0 0,7 -7,0 z m 7,0 7,0 0,7 -7,0 z m 14,0 7,0 0,7 -7,0 z m 14,0 7,0 0,7 -7,0 z m 7,0 7,0 0,7 -7,0 z m 7,0 7,0 0,7 -7,0 z m 7,0 7,0 0,7 -7,0 z m 7,0 7,0 0,7 -7,0 z m 7,0 7,0 0,7 -7,0 z m 21,0 7,0 0,7 -7,0 z m 14,0 7,0 0,7 -7,0 z m 7,0 7,0 0,7 -7,0 z m 7,0 7,0 0,7 -7,0 z m 21,0 7,0 0,7 -7,0 z m 35,0 7,0 0,7 -7,0 z m 7,0 7,0 0,7 -7,0 z m -203,7 7,0 0,7 -7,0 z m 14,0 7,0 0,7 -7,0 z m 7,0 7,0 0,7 -7,0 z m 7,0 7,0 0,7 -7,0 z m 14,0 7,0 0,7 -7,0 z m 14,0 7,0 0,7 -7,0 z m 14,0 7,0 0,7 -7,0 z m 28,0 7,0 0,7 -7,0 z m 7,0 7,0 0,7 -7,0 z m 7,0 7,0 0,7 -7,0 z m 42,0 7,0 0,7 -7,0 z m 14,0 7,0 0,7 -7,0 z m 14,0 7,0 0,7 -7,0 z m 28,0 7,0 0,7 -7,0 z m 7,0 7,0 0,7 -7,0 z m -217,7 7,0 0,7 -7,0 z m 42,0 7,0 0,7 -7,0 z m 14,0 7,0 0,7 -7,0 z m 14,0 7,0 0,7 -7,0 z m 7,0 7,0 0,7 -7,0 z m 7,0 7,0 0,7 -7,0 z m 21,0 7,0 0,7 -7,0 z m 7,0 7,0 0,7 -7,0 z m 14,0 7,0 0,7 -7,0 z m 14,0 7,0 0,7 -7,0 z m 7,0 7,0 0,7 -7,0 z m 7,0 7,0 0,7 -7,0 z m 21,0 7,0 0,7 -7,0 z m 7,0 7,0 0,7 -7,0 z m 21,0 7,0 0,7 -7,0 z m 7,0 7,0 0,7 -7,0 z m -210,7 7,0 0,7 -7,0 z m 7,0 7,0 0,7 -7,0 z m 7,0 7,0 0,7 -7,0 z m 7,0 7,0 0,7 -7,0 z m 7,0 7,0 0,7 -7,0 z m 7,0 7,0 0,7 -7,0 z m 7,0 7,0 0,7 -7,0 z m 14,0 7,0 0,7 -7,0 z m 35,0 7,0 0,7 -7,0 z m 7,0 7,0 0,7 -7,0 z m 7,0 7,0 0,7 -7,0 z m 14,0 7,0 0,7 -7,0 z m 35,0 7,0 0,7 -7,0 z m 7,0 7,0 0,7 -7,0 z m 7,0 7,0 0,7 -7,0 z m 14,0 7,0 0,7 -7,0 z m 7,0 7,0 0,7 -7,0 z m 28,0 7,0 0,7 -7,0 z"
         id="path4216" />
    </g>
    <path
       id="path4194"
       d="m 157.69353,250.7994 21.94285,0 0,21.94285 -21.94285,0 z m 21.94285,0 21.94286,0 0,21.94285 -21.94286,0 z m 21.94286,0 21.94286,0 0,21.94285 -21.94286,0 z m 21.94286,0 21.94286,0 0,21.94285 -21.94286,0 z m 21.94286,0 21.94285,0 0,21.94285 -21.94285,0 z m 21.94285,0 21.94286,0 0,21.94285 -21.94286,0 z m 21.94286,0 21.94286,0 0,21.94285 -21.94286,0 z m 65.82857,0 21.94286,0 0,21.94285 -21.94286,0 z m 87.77143,0 21.94286,0 0,21.94285 -21.94286,0 z m 21.94286,0 21.94286,0 0,21.94285 -21.94286,0 z m 65.82857,0 21.94286,0 0,21.94285 -21.94286,0 z m 21.94286,0 21.94286,0 0,21.94285 -21.94286,0 z m 21.94286,0 21.94285,0 0,21.94285 -21.94285,0 z m 21.94285,0 21.94286,0 0,21.94285 -21.94286,0 z m 21.94286,0 21.94286,0 0,21.94285 -21.94286,0 z m 43.88572,0 21.94285,0 0,21.94285 -21.94285,0 z m 65.82857,0 21.94285,0 0,21.94285 -21.94285,0 z m 21.94285,0 21.94286,0 0,21.94285 -21.94286,0 z m 21.94286,0 21.94286,0 0,21.94285 -21.94286,0 z m 21.94286,0 21.94286,0 0,21.94285 -21.94286,0 z m 21.94286,0 21.94285,0 0,21.94285 -21.94285,0 z m 21.94285,0 21.94286,0 0,21.94285 -21.94286,0 z m 21.94286,0 21.94286,0 0,21.94285 -21.94286,0 z m -702.17143,21.94285 21.94285,0 0,21.94286 -21.94285,0 z m 131.65714,0 21.94286,0 0,21.94286 -21.94286,0 z m 43.88572,0 21.94285,0 0,21.94286 -21.94285,0 z m 21.94285,0 21.94286,0 0,21.94286 -21.94286,0 z m 43.88572,0 21.94285,0 0,21.94286 -21.94285,0 z m 21.94285,0 21.94286,0 0,21.94286 -21.94286,0 z m 65.82858,0 21.94285,0 0,21.94286 -21.94285,0 z m 21.94285,0 21.94286,0 0,21.94286 -21.94286,0 z m 87.77143,0 21.94286,0 0,21.94286 -21.94286,0 z m 21.94286,0 21.94286,0 0,21.94286 -21.94286,0 z m 109.71429,0 21.94285,0 0,21.94286 -21.94285,0 z m 131.65714,0 21.94286,0 0,21.94286 -21.94286,0 z m -702.17143,21.94286 21.94285,0 0,21.94286 -21.94285,0 z m 43.88571,0 21.94286,0 0,21.94286 -21.94286,0 z m 21.94286,0 21.94286,0 0,21.94286 -21.94286,0 z m 21.94286,0 21.94285,0 0,21.94286 -21.94285,0 z m 43.88571,0 21.94286,0 0,21.94286 -21.94286,0 z m 65.82857,0 21.94286,0 0,21.94286 -21.94286,0 z m 21.94286,0 21.94286,0 0,21.94286 -21.94286,0 z m 21.94286,0 21.94285,0 0,21.94286 -21.94285,0 z m 87.77143,0 21.94285,0 0,21.94286 -21.94285,0 z m 21.94285,0 21.94286,0 0,21.94286 -21.94286,0 z m 43.88572,0 21.94286,0 0,21.94286 -21.94286,0 z m 21.94286,0 21.94285,0 0,21.94286 -21.94285,0 z m 21.94285,0 21.94286,0 0,21.94286 -21.94286,0 z m 21.94286,0 21.94286,0 0,21.94286 -21.94286,0 z m 21.94286,0 21.94286,0 0,21.94286 -21.94286,0 z m 21.94286,0 21.94285,0 0,21.94286 -21.94285,0 z m 65.82857,0 21.94285,0 0,21.94286 -21.94285,0 z m 43.88571,0 21.94286,0 0,21.94286 -21.94286,0 z m 21.94286,0 21.94286,0 0,21.94286 -21.94286,0 z m 21.94286,0 21.94285,0 0,21.94286 -21.94285,0 z m 43.88571,0 21.94286,0 0,21.94286 -21.94286,0 z m -702.17143,21.94286 21.94285,0 0,21.94286 -21.94285,0 z m 43.88571,0 21.94286,0 0,21.94286 -21.94286,0 z m 21.94286,0 21.94286,0 0,21.94286 -21.94286,0 z m 21.94286,0 21.94285,0 0,21.94286 -21.94285,0 z m 43.88571,0 21.94286,0 0,21.94286 -21.94286,0 z m 43.88572,0 21.94285,0 0,21.94286 -21.94285,0 z m 21.94285,0 21.94286,0 0,21.94286 -21.94286,0 z m 43.88572,0 21.94285,0 0,21.94286 -21.94285,0 z m 109.71428,0 21.94286,0 0,21.94286 -21.94286,0 z m 21.94286,0 21.94286,0 0,21.94286 -21.94286,0 z m 43.88572,0 21.94285,0 0,21.94286 -21.94285,0 z m 65.82857,0 21.94286,0 0,21.94286 -21.94286,0 z m 21.94286,0 21.94285,0 0,21.94286 -21.94285,0 z m 21.94285,0 21.94286,0 0,21.94286 -21.94286,0 z m 43.88572,0 21.94285,0 0,21.94286 -21.94285,0 z m 43.88571,0 21.94286,0 0,21.94286 -21.94286,0 z m 21.94286,0 21.94286,0 0,21.94286 -21.94286,0 z m 21.94286,0 21.94285,0 0,21.94286 -21.94285,0 z m 43.88571,0 21.94286,0 0,21.94286 -21.94286,0 z m -702.17143,21.94286 21.94285,0 0,21.94285 -21.94285,0 z m 43.88571,0 21.94286,0 0,21.94285 -21.94286,0 z m 21.94286,0 21.94286,0 0,21.94285 -21.94286,0 z m 21.94286,0 21.94285,0 0,21.94285 -21.94285,0 z m 43.88571,0 21.94286,0 0,21.94285 -21.94286,0 z m 87.77143,0 21.94286,0 0,21.94285 -21.94286,0 z m 43.88571,0 21.94286,0 0,21.94285 -21.94286,0 z m 21.94286,0 21.94286,0 0,21.94285 -21.94286,0 z m 131.65715,0 21.94285,0 0,21.94285 -21.94285,0 z m 21.94285,0 21.94286,0 0,21.94285 -21.94286,0 z m 21.94286,0 21.94286,0 0,21.94285 -21.94286,0 z m 21.94286,0 21.94286,0 0,21.94285 -21.94286,0 z m 21.94286,0 21.94285,0 0,21.94285 -21.94285,0 z m 21.94285,0 21.94286,0 0,21.94285 -21.94286,0 z m 43.88572,0 21.94285,0 0,21.94285 -21.94285,0 z m 43.88571,0 21.94286,0 0,21.94285 -21.94286,0 z m 21.94286,0 21.94286,0 0,21.94285 -21.94286,0 z m 21.94286,0 21.94285,0 0,21.94285 -21.94285,0 z m 43.88571,0 21.94286,0 0,21.94285 -21.94286,0 z m -702.17143,21.94285 21.94285,0 0,21.94286 -21.94285,0 z m 131.65714,0 21.94286,0 0,21.94286 -21.94286,0 z m 43.88572,0 21.94285,0 0,21.94286 -21.94285,0 z m 43.88571,0 21.94286,0 0,21.94286 -21.94286,0 z m 65.82857,0 21.94286,0 0,21.94286 -21.94286,0 z m 21.94286,0 21.94286,0 0,21.94286 -21.94286,0 z m 21.94286,0 21.94285,0 0,21.94286 -21.94285,0 z m 43.88571,0 21.94286,0 0,21.94286 -21.94286,0 z m 21.94286,0 21.94286,0 0,21.94286 -21.94286,0 z m 43.88571,0 21.94286,0 0,21.94286 -21.94286,0 z m 21.94286,0 21.94286,0 0,21.94286 -21.94286,0 z m 109.71429,0 21.94285,0 0,21.94286 -21.94285,0 z m 131.65714,0 21.94286,0 0,21.94286 -21.94286,0 z m -702.17143,21.94286 21.94285,0 0,21.94286 -21.94285,0 z m 21.94285,0 21.94286,0 0,21.94286 -21.94286,0 z m 21.94286,0 21.94286,0 0,21.94286 -21.94286,0 z m 21.94286,0 21.94286,0 0,21.94286 -21.94286,0 z m 21.94286,0 21.94285,0 0,21.94286 -21.94285,0 z m 21.94285,0 21.94286,0 0,21.94286 -21.94286,0 z m 21.94286,0 21.94286,0 0,21.94286 -21.94286,0 z m 43.88572,0 21.94285,0 0,21.94286 -21.94285,0 z m 43.88571,0 21.94286,0 0,21.94286 -21.94286,0 z m 43.88571,0 21.94286,0 0,21.94286 -21.94286,0 z m 43.88572,0 21.94286,0 0,21.94286 -21.94286,0 z m 43.88571,0 21.94286,0 0,21.94286 -21.94286,0 z m 43.88572,0 21.94286,0 0,21.94286 -21.94286,0 z m 43.88571,0 21.94286,0 0,21.94286 -21.94286,0 z m 43.88572,0 21.94286,0 0,21.94286 -21.94286,0 z m 43.88571,0 21.94286,0 0,21.94286 -21.94286,0 z m 43.88572,0 21.94285,0 0,21.94286 -21.94285,0 z m 21.94285,0 21.94286,0 0,21.94286 -21.94286,0 z m 21.94286,0 21.94286,0 0,21.94286 -21.94286,0 z m 21.94286,0 21.94286,0 0,21.94286 -21.94286,0 z m 21.94286,0 21.94285,0 0,21.94286 -21.94285,0 z m 21.94285,0 21.94286,0 0,21.94286 -21.94286,0 z m 21.94286,0 21.94286,0 0,21.94286 -21.94286,0 z m -438.85715,21.94286 21.94286,0 0,21.94286 -21.94286,0 z m 21.94286,0 21.94286,0 0,21.94286 -21.94286,0 z m 43.88572,0 21.94285,0 0,21.94286 -21.94285,0 z m 21.94285,0 21.94286,0 0,21.94286 -21.94286,0 z m 65.82858,0 21.94285,0 0,21.94286 -21.94285,0 z m 21.94285,0 21.94286,0 0,21.94286 -21.94286,0 z m 21.94286,0 21.94286,0 0,21.94286 -21.94286,0 z m 43.88572,0 21.94285,0 0,21.94286 -21.94285,0 z m 21.94285,0 21.94286,0 0,21.94286 -21.94286,0 z m -526.62857,21.94286 21.94285,0 0,21.94285 -21.94285,0 z m 21.94285,0 21.94286,0 0,21.94285 -21.94286,0 z m 21.94286,0 21.94286,0 0,21.94285 -21.94286,0 z m 21.94286,0 21.94286,0 0,21.94285 -21.94286,0 z m 21.94286,0 21.94285,0 0,21.94285 -21.94285,0 z m 43.88571,0 21.94286,0 0,21.94285 -21.94286,0 z m 21.94286,0 21.94286,0 0,21.94285 -21.94286,0 z m 21.94286,0 21.94285,0 0,21.94285 -21.94285,0 z m 21.94285,0 21.94286,0 0,21.94285 -21.94286,0 z m 21.94286,0 21.94286,0 0,21.94285 -21.94286,0 z m 43.88571,0 21.94286,0 0,21.94285 -21.94286,0 z m 43.88572,0 21.94286,0 0,21.94285 -21.94286,0 z m 21.94286,0 21.94285,0 0,21.94285 -21.94285,0 z m 21.94285,0 21.94286,0 0,21.94285 -21.94286,0 z m 21.94286,0 21.94286,0 0,21.94285 -21.94286,0 z m 21.94286,0 21.94286,0 0,21.94285 -21.94286,0 z m 21.94286,0 21.94285,0 0,21.94285 -21.94285,0 z m 65.82857,0 21.94286,0 0,21.94285 -21.94286,0 z m 65.82857,0 21.94286,0 0,21.94285 -21.94286,0 z m 43.88571,0 21.94286,0 0,21.94285 -21.94286,0 z m 43.88572,0 21.94286,0 0,21.94285 -21.94286,0 z m 43.88571,0 21.94286,0 0,21.94285 -21.94286,0 z m -658.28572,21.94285 21.94286,0 0,21.94286 -21.94286,0 z m 21.94286,0 21.94286,0 0,21.94286 -21.94286,0 z m 21.94286,0 21.94286,0 0,21.94286 -21.94286,0 z m 43.88571,0 21.94286,0 0,21.94286 -21.94286,0 z m 65.82858,0 21.94285,0 0,21.94286 -21.94285,0 z m 21.94285,0 21.94286,0 0,21.94286 -21.94286,0 z m 153.6,0 21.94286,0 0,21.94286 -21.94286,0 z m 21.94286,0 21.94286,0 0,21.94286 -21.94286,0 z m 21.94286,0 21.94286,0 0,21.94286 -21.94286,0 z m 21.94286,0 21.94285,0 0,21.94286 -21.94285,0 z m 21.94285,0 21.94286,0 0,21.94286 -21.94286,0 z m 21.94286,0 21.94286,0 0,21.94286 -21.94286,0 z m 21.94286,0 21.94286,0 0,21.94286 -21.94286,0 z m 21.94286,0 21.94285,0 0,21.94286 -21.94285,0 z m 43.88571,0 21.94286,0 0,21.94286 -21.94286,0 z m 21.94286,0 21.94285,0 0,21.94286 -21.94285,0 z m 109.71428,0 21.94286,0 0,21.94286 -21.94286,0 z m 21.94286,0 21.94286,0 0,21.94286 -21.94286,0 z m -680.22858,21.94286 21.94286,0 0,21.94286 -21.94286,0 z m 43.88572,0 21.94286,0 0,21.94286 -21.94286,0 z m 65.82857,0 21.94286,0 0,21.94286 -21.94286,0 z m 43.88572,0 21.94285,0 0,21.94286 -21.94285,0 z m 21.94285,0 21.94286,0 0,21.94286 -21.94286,0 z m 43.88572,0 21.94285,0 0,21.94286 -21.94285,0 z m 21.94285,0 21.94286,0 0,21.94286 -21.94286,0 z m 65.82858,0 21.94285,0 0,21.94286 -21.94285,0 z m 21.94285,0 21.94286,0 0,21.94286 -21.94286,0 z m 21.94286,0 21.94286,0 0,21.94286 -21.94286,0 z m 87.77143,0 21.94286,0 0,21.94286 -21.94286,0 z m -438.85715,21.94286 21.94286,0 0,21.94285 -21.94286,0 z m 43.88572,0 21.94286,0 0,21.94285 -21.94286,0 z m 109.71429,0 21.94285,0 0,21.94285 -21.94285,0 z m 21.94285,0 21.94286,0 0,21.94285 -21.94286,0 z m 21.94286,0 21.94286,0 0,21.94285 -21.94286,0 z m 21.94286,0 21.94285,0 0,21.94285 -21.94285,0 z m 65.82857,0 21.94286,0 0,21.94285 -21.94286,0 z m 21.94286,0 21.94285,0 0,21.94285 -21.94285,0 z m 21.94285,0 21.94286,0 0,21.94285 -21.94286,0 z m 109.71429,0 21.94286,0 0,21.94285 -21.94286,0 z m 131.65714,0 21.94286,0 0,21.94285 -21.94286,0 z m 65.82858,0 21.94285,0 0,21.94285 -21.94285,0 z m -658.28572,21.94285 21.94285,0 0,21.94286 -21.94285,0 z m 43.88571,0 21.94286,0 0,21.94286 -21.94286,0 z m 65.82857,0 21.94286,0 0,21.94286 -21.94286,0 z m 21.94286,0 21.94286,0 0,21.94286 -21.94286,0 z m 21.94286,0 21.94286,0 0,21.94286 -21.94286,0 z m 21.94286,0 21.94285,0 0,21.94286 -21.94285,0 z m 21.94285,0 21.94286,0 0,21.94286 -21.94286,0 z m 43.88572,0 21.94285,0 0,21.94286 -21.94285,0 z m 131.65714,0 21.94286,0 0,21.94286 -21.94286,0 z m 43.88572,0 21.94285,0 0,21.94286 -21.94285,0 z m 131.65714,0 21.94286,0 0,21.94286 -21.94286,0 z m 43.88571,0 21.94286,0 0,21.94286 -21.94286,0 z m 21.94286,0 21.94286,0 0,21.94286 -21.94286,0 z m -614.4,21.94286 21.94285,0 0,21.94286 -21.94285,0 z m 43.88571,0 21.94286,0 0,21.94286 -21.94286,0 z m 43.88572,0 21.94285,0 0,21.94286 -21.94285,0 z m 87.77143,0 21.94285,0 0,21.94286 -21.94285,0 z m 43.88571,0 21.94286,0 0,21.94286 -21.94286,0 z m 43.88571,0 21.94286,0 0,21.94286 -21.94286,0 z m 21.94286,0 21.94286,0 0,21.94286 -21.94286,0 z m 21.94286,0 21.94286,0 0,21.94286 -21.94286,0 z m 43.88571,0 21.94286,0 0,21.94286 -21.94286,0 z m 21.94286,0 21.94286,0 0,21.94286 -21.94286,0 z m 21.94286,0 21.94286,0 0,21.94286 -21.94286,0 z m 21.94286,0 21.94285,0 0,21.94286 -21.94285,0 z m 21.94285,0 21.94286,0 0,21.94286 -21.94286,0 z m 65.82858,0 21.94285,0 0,21.94286 -21.94285,0 z m 43.88571,0 21.94286,0 0,21.94286 -21.94286,0 z m 21.94286,0 21.94285,0 0,21.94286 -21.94285,0 z m 65.82857,0 21.94286,0 0,21.94286 -21.94286,0 z m 43.88571,0 21.94286,0 0,21.94286 -21.94286,0 z m 21.94286,0 21.94286,0 0,21.94286 -21.94286,0 z m -636.34286,21.94286 21.94286,0 0,21.94286 -21.94286,0 z m 21.94286,0 21.94285,0 0,21.94286 -21.94285,0 z m 21.94285,0 21.94286,0 0,21.94286 -21.94286,0 z m 21.94286,0 21.94286,0 0,21.94286 -21.94286,0 z m 21.94286,0 21.94286,0 0,21.94286 -21.94286,0 z m 65.82857,0 21.94286,0 0,21.94286 -21.94286,0 z m 65.82857,0 21.94286,0 0,21.94286 -21.94286,0 z m 21.94286,0 21.94286,0 0,21.94286 -21.94286,0 z m 21.94286,0 21.94285,0 0,21.94286 -21.94285,0 z m 21.94285,0 21.94286,0 0,21.94286 -21.94286,0 z m 43.88572,0 21.94286,0 0,21.94286 -21.94286,0 z m 43.88571,0 21.94286,0 0,21.94286 -21.94286,0 z m 43.88572,0 21.94286,0 0,21.94286 -21.94286,0 z m 109.71428,0 21.94286,0 0,21.94286 -21.94286,0 z m 21.94286,0 21.94286,0 0,21.94286 -21.94286,0 z m 21.94286,0 21.94286,0 0,21.94286 -21.94286,0 z m 43.88571,0 21.94286,0 0,21.94286 -21.94286,0 z m -680.22857,21.94286 21.94285,0 0,21.94285 -21.94285,0 z m 43.88571,0 21.94286,0 0,21.94285 -21.94286,0 z m 65.82857,0 21.94286,0 0,21.94285 -21.94286,0 z m 43.88572,0 21.94286,0 0,21.94285 -21.94286,0 z m 21.94286,0 21.94285,0 0,21.94285 -21.94285,0 z m 87.77142,0 21.94286,0 0,21.94285 -21.94286,0 z m 21.94286,0 21.94286,0 0,21.94285 -21.94286,0 z m 65.82857,0 21.94286,0 0,21.94285 -21.94286,0 z m 65.82858,0 21.94285,0 0,21.94285 -21.94285,0 z m 43.88571,0 21.94286,0 0,21.94285 -21.94286,0 z m 21.94286,0 21.94286,0 0,21.94285 -21.94286,0 z m 21.94286,0 21.94285,0 0,21.94285 -21.94285,0 z m 109.71428,0 21.94286,0 0,21.94285 -21.94286,0 z m 43.88572,0 21.94285,0 0,21.94285 -21.94285,0 z m -658.28572,21.94285 21.94285,0 0,21.94286 -21.94285,0 z m 21.94285,0 21.94286,0 0,21.94286 -21.94286,0 z m 21.94286,0 21.94286,0 0,21.94286 -21.94286,0 z m 21.94286,0 21.94286,0 0,21.94286 -21.94286,0 z m 21.94286,0 21.94285,0 0,21.94286 -21.94285,0 z m 21.94285,0 21.94286,0 0,21.94286 -21.94286,0 z m 21.94286,0 21.94286,0 0,21.94286 -21.94286,0 z m 43.88572,0 21.94285,0 0,21.94286 -21.94285,0 z m 21.94285,0 21.94286,0 0,21.94286 -21.94286,0 z m 21.94286,0 21.94286,0 0,21.94286 -21.94286,0 z m 43.88571,0 21.94286,0 0,21.94286 -21.94286,0 z m 43.88572,0 21.94286,0 0,21.94286 -21.94286,0 z m 43.88571,0 21.94286,0 0,21.94286 -21.94286,0 z m 21.94286,0 21.94286,0 0,21.94286 -21.94286,0 z m 109.71429,0 21.94286,0 0,21.94286 -21.94286,0 z m 21.94286,0 21.94285,0 0,21.94286 -21.94285,0 z m 21.94285,0 21.94286,0 0,21.94286 -21.94286,0 z m 21.94286,0 21.94286,0 0,21.94286 -21.94286,0 z m 43.88571,0 21.94286,0 0,21.94286 -21.94286,0 z m 21.94286,0 21.94286,0 0,21.94286 -21.94286,0 z m 65.82857,0 21.94286,0 0,21.94286 -21.94286,0 z m -680.22857,21.94286 21.94285,0 0,21.94286 -21.94285,0 z m 43.88571,0 21.94286,0 0,21.94286 -21.94286,0 z m 43.88572,0 21.94285,0 0,21.94286 -21.94285,0 z m 65.82857,0 21.94286,0 0,21.94286 -21.94286,0 z m 21.94286,0 21.94285,0 0,21.94286 -21.94285,0 z m 219.42857,0 21.94286,0 0,21.94286 -21.94286,0 z m 21.94286,0 21.94285,0 0,21.94286 -21.94285,0 z m 21.94285,0 21.94286,0 0,21.94286 -21.94286,0 z m 21.94286,0 21.94286,0 0,21.94286 -21.94286,0 z m 21.94286,0 21.94286,0 0,21.94286 -21.94286,0 z m 21.94286,0 21.94285,0 0,21.94286 -21.94285,0 z m 21.94285,0 21.94286,0 0,21.94286 -21.94286,0 z m 43.88572,0 21.94285,0 0,21.94286 -21.94285,0 z m 21.94285,0 21.94286,0 0,21.94286 -21.94286,0 z m 43.88572,0 21.94286,0 0,21.94286 -21.94286,0 z m 43.88571,0 21.94286,0 0,21.94286 -21.94286,0 z m 21.94286,0 21.94286,0 0,21.94286 -21.94286,0 z m -658.28572,21.94286 21.94286,0 0,21.94286 -21.94286,0 z m 65.82857,0 21.94286,0 0,21.94286 -21.94286,0 z m 21.94286,0 21.94286,0 0,21.94286 -21.94286,0 z m 43.88572,0 21.94285,0 0,21.94286 -21.94285,0 z m 21.94285,0 21.94286,0 0,21.94286 -21.94286,0 z m 21.94286,0 21.94286,0 0,21.94286 -21.94286,0 z m 21.94286,0 21.94285,0 0,21.94286 -21.94285,0 z m 21.94285,0 21.94286,0 0,21.94286 -21.94286,0 z m 65.82858,0 21.94285,0 0,21.94286 -21.94285,0 z m 21.94285,0 21.94286,0 0,21.94286 -21.94286,0 z m 87.77143,0 21.94286,0 0,21.94286 -21.94286,0 z m 43.88572,0 21.94286,0 0,21.94286 -21.94286,0 z m 65.82857,0 21.94286,0 0,21.94286 -21.94286,0 z m 21.94286,0 21.94285,0 0,21.94286 -21.94285,0 z m 43.88571,0 21.94286,0 0,21.94286 -21.94286,0 z m 21.94286,0 21.94286,0 0,21.94286 -21.94286,0 z m 43.88571,0 21.94286,0 0,21.94286 -21.94286,0 z m -526.62857,21.94286 21.94286,0 0,21.94285 -21.94286,0 z m 21.94286,0 21.94285,0 0,21.94285 -21.94285,0 z m 65.82857,0 21.94285,0 0,21.94285 -21.94285,0 z m 65.82857,0 21.94286,0 0,21.94285 -21.94286,0 z m 21.94286,0 21.94285,0 0,21.94285 -21.94285,0 z m 21.94285,0 21.94286,0 0,21.94285 -21.94286,0 z m 43.88572,0 21.94286,0 0,21.94285 -21.94286,0 z m 21.94286,0 21.94285,0 0,21.94285 -21.94285,0 z m 43.88571,0 21.94286,0 0,21.94285 -21.94286,0 z m 131.65714,0 21.94286,0 0,21.94285 -21.94286,0 z m 43.88572,0 21.94286,0 0,21.94285 -21.94286,0 z m 21.94286,0 21.94285,0 0,21.94285 -21.94285,0 z m -658.28572,21.94285 21.94285,0 0,21.94286 -21.94285,0 z m 43.88571,0 21.94286,0 0,21.94286 -21.94286,0 z m 21.94286,0 21.94286,0 0,21.94286 -21.94286,0 z m 43.88571,0 21.94286,0 0,21.94286 -21.94286,0 z m 21.94286,0 21.94286,0 0,21.94286 -21.94286,0 z m 43.88572,0 21.94285,0 0,21.94286 -21.94285,0 z m 43.88571,0 21.94286,0 0,21.94286 -21.94286,0 z m 21.94286,0 21.94285,0 0,21.94286 -21.94285,0 z m 87.77143,0 21.94285,0 0,21.94286 -21.94285,0 z m 65.82857,0 21.94286,0 0,21.94286 -21.94286,0 z m 43.88571,0 21.94286,0 0,21.94286 -21.94286,0 z m 43.88572,0 21.94286,0 0,21.94286 -21.94286,0 z m 21.94286,0 21.94285,0 0,21.94286 -21.94285,0 z m 21.94285,0 21.94286,0 0,21.94286 -21.94286,0 z m 21.94286,0 21.94286,0 0,21.94286 -21.94286,0 z m 65.82857,0 21.94286,0 0,21.94286 -21.94286,0 z m 65.82857,0 21.94286,0 0,21.94286 -21.94286,0 z m -680.22857,21.94286 21.94285,0 0,21.94286 -21.94285,0 z m 65.82857,0 21.94286,0 0,21.94286 -21.94286,0 z m 131.65714,0 21.94286,0 0,21.94286 -21.94286,0 z m 65.82857,0 21.94286,0 0,21.94286 -21.94286,0 z m 21.94286,0 21.94286,0 0,21.94286 -21.94286,0 z m 21.94286,0 21.94286,0 0,21.94286 -21.94286,0 z m 21.94286,0 21.94285,0 0,21.94286 -21.94285,0 z m 87.77143,0 21.94285,0 0,21.94286 -21.94285,0 z m 21.94285,0 21.94286,0 0,21.94286 -21.94286,0 z m 65.82858,0 21.94285,0 0,21.94286 -21.94285,0 z m 65.82857,0 21.94285,0 0,21.94286 -21.94285,0 z m 109.71428,0 21.94286,0 0,21.94286 -21.94286,0 z m 21.94286,0 21.94286,0 0,21.94286 -21.94286,0 z m -702.17143,21.94286 21.94285,0 0,21.94286 -21.94285,0 z m 65.82857,0 21.94286,0 0,21.94286 -21.94286,0 z m 21.94286,0 21.94285,0 0,21.94286 -21.94285,0 z m 21.94285,0 21.94286,0 0,21.94286 -21.94286,0 z m 21.94286,0 21.94286,0 0,21.94286 -21.94286,0 z m 21.94286,0 21.94286,0 0,21.94286 -21.94286,0 z m 21.94286,0 21.94285,0 0,21.94286 -21.94285,0 z m 43.88571,0 21.94286,0 0,21.94286 -21.94286,0 z m 65.82857,0 21.94286,0 0,21.94286 -21.94286,0 z m 21.94286,0 21.94286,0 0,21.94286 -21.94286,0 z m 21.94286,0 21.94285,0 0,21.94286 -21.94285,0 z m 65.82857,0 21.94286,0 0,21.94286 -21.94286,0 z m 87.77143,0 21.94286,0 0,21.94286 -21.94286,0 z m 65.82857,0 21.94286,0 0,21.94286 -21.94286,0 z m 87.77143,0 21.94286,0 0,21.94286 -21.94286,0 z m 21.94286,0 21.94285,0 0,21.94286 -21.94285,0 z m 21.94285,0 21.94286,0 0,21.94286 -21.94286,0 z m -680.22857,21.94286 21.94285,0 0,21.94285 -21.94285,0 z m 43.88571,0 21.94286,0 0,21.94285 -21.94286,0 z m 21.94286,0 21.94286,0 0,21.94285 -21.94286,0 z m 197.48571,0 21.94286,0 0,21.94285 -21.94286,0 z m 21.94286,0 21.94286,0 0,21.94285 -21.94286,0 z m 43.88572,0 21.94285,0 0,21.94285 -21.94285,0 z m 21.94285,0 21.94286,0 0,21.94285 -21.94286,0 z m 43.88572,0 21.94286,0 0,21.94285 -21.94286,0 z m 43.88571,0 21.94286,0 0,21.94285 -21.94286,0 z m 21.94286,0 21.94286,0 0,21.94285 -21.94286,0 z m 21.94286,0 21.94286,0 0,21.94285 -21.94286,0 z m 21.94286,0 21.94285,0 0,21.94285 -21.94285,0 z m 43.88571,0 21.94286,0 0,21.94285 -21.94286,0 z m 87.77143,0 21.94286,0 0,21.94285 -21.94286,0 z m 21.94286,0 21.94285,0 0,21.94285 -21.94285,0 z m -658.28572,21.94285 21.94285,0 0,21.94286 -21.94285,0 z m 43.88571,0 21.94286,0 0,21.94286 -21.94286,0 z m 65.82857,0 21.94286,0 0,21.94286 -21.94286,0 z m 21.94286,0 21.94286,0 0,21.94286 -21.94286,0 z m 21.94286,0 21.94286,0 0,21.94286 -21.94286,0 z m 65.82857,0 21.94286,0 0,21.94286 -21.94286,0 z m 43.88571,0 21.94286,0 0,21.94286 -21.94286,0 z m 43.88572,0 21.94286,0 0,21.94286 -21.94286,0 z m 21.94286,0 21.94285,0 0,21.94286 -21.94285,0 z m 43.88571,0 21.94286,0 0,21.94286 -21.94286,0 z m 21.94286,0 21.94286,0 0,21.94286 -21.94286,0 z m 43.88571,0 21.94286,0 0,21.94286 -21.94286,0 z m 43.88572,0 21.94286,0 0,21.94286 -21.94286,0 z m 21.94286,0 21.94285,0 0,21.94286 -21.94285,0 z m 21.94285,0 21.94286,0 0,21.94286 -21.94286,0 z m 21.94286,0 21.94286,0 0,21.94286 -21.94286,0 z m 21.94286,0 21.94285,0 0,21.94286 -21.94285,0 z m 21.94285,0 21.94286,0 0,21.94286 -21.94286,0 z m 21.94286,0 21.94286,0 0,21.94286 -21.94286,0 z m 21.94286,0 21.94286,0 0,21.94286 -21.94286,0 z m 65.82857,0 21.94286,0 0,21.94286 -21.94286,0 z m -526.62857,21.94286 21.94285,0 0,21.94286 -21.94285,0 z m 21.94285,0 21.94286,0 0,21.94286 -21.94286,0 z m 153.6,0 21.94286,0 0,21.94286 -21.94286,0 z m 43.88572,0 21.94286,0 0,21.94286 -21.94286,0 z m 21.94286,0 21.94285,0 0,21.94286 -21.94285,0 z m 43.88571,0 21.94286,0 0,21.94286 -21.94286,0 z m 21.94286,0 21.94286,0 0,21.94286 -21.94286,0 z m 43.88571,0 21.94286,0 0,21.94286 -21.94286,0 z m 87.77143,0 21.94286,0 0,21.94286 -21.94286,0 z m 21.94286,0 21.94286,0 0,21.94286 -21.94286,0 z m 21.94286,0 21.94285,0 0,21.94286 -21.94285,0 z m 43.88571,0 21.94286,0 0,21.94286 -21.94286,0 z m -702.17143,21.94286 21.94285,0 0,21.94285 -21.94285,0 z m 21.94285,0 21.94286,0 0,21.94285 -21.94286,0 z m 21.94286,0 21.94286,0 0,21.94285 -21.94286,0 z m 21.94286,0 21.94286,0 0,21.94285 -21.94286,0 z m 21.94286,0 21.94285,0 0,21.94285 -21.94285,0 z m 21.94285,0 21.94286,0 0,21.94285 -21.94286,0 z m 21.94286,0 21.94286,0 0,21.94285 -21.94286,0 z m 43.88572,0 21.94285,0 0,21.94285 -21.94285,0 z m 21.94285,0 21.94286,0 0,21.94285 -21.94286,0 z m 43.88572,0 21.94285,0 0,21.94285 -21.94285,0 z m 21.94285,0 21.94286,0 0,21.94285 -21.94286,0 z m 109.71429,0 21.94286,0 0,21.94285 -21.94286,0 z m 65.82857,0 21.94286,0 0,21.94285 -21.94286,0 z m 21.94286,0 21.94286,0 0,21.94285 -21.94286,0 z m 21.94286,0 21.94286,0 0,21.94285 -21.94286,0 z m 21.94286,0 21.94285,0 0,21.94285 -21.94285,0 z m 21.94285,0 21.94286,0 0,21.94285 -21.94286,0 z m 43.88572,0 21.94285,0 0,21.94285 -21.94285,0 z m 43.88571,0 21.94286,0 0,21.94285 -21.94286,0 z m 43.88572,0 21.94285,0 0,21.94285 -21.94285,0 z m 21.94285,0 21.94286,0 0,21.94285 -21.94286,0 z m -680.22857,21.94285 21.94285,0 0,21.94286 -21.94285,0 z m 131.65714,0 21.94286,0 0,21.94286 -21.94286,0 z m 87.77143,0 21.94286,0 0,21.94286 -21.94286,0 z m 21.94286,0 21.94285,0 0,21.94286 -21.94285,0 z m 65.82857,0 21.94286,0 0,21.94286 -21.94286,0 z m 21.94286,0 21.94285,0 0,21.94286 -21.94285,0 z m 21.94285,0 21.94286,0 0,21.94286 -21.94286,0 z m 43.88572,0 21.94286,0 0,21.94286 -21.94286,0 z m 21.94286,0 21.94285,0 0,21.94286 -21.94285,0 z m 21.94285,0 21.94286,0 0,21.94286 -21.94286,0 z m 21.94286,0 21.94286,0 0,21.94286 -21.94286,0 z m 43.88572,0 21.94285,0 0,21.94286 -21.94285,0 z m 21.94285,0 21.94286,0 0,21.94286 -21.94286,0 z m 87.77143,0 21.94286,0 0,21.94286 -21.94286,0 z m 21.94286,0 21.94286,0 0,21.94286 -21.94286,0 z m 21.94286,0 21.94285,0 0,21.94286 -21.94285,0 z m -658.28572,21.94286 21.94285,0 0,21.94286 -21.94285,0 z m 43.88571,0 21.94286,0 0,21.94286 -21.94286,0 z m 21.94286,0 21.94286,0 0,21.94286 -21.94286,0 z m 21.94286,0 21.94285,0 0,21.94286 -21.94285,0 z m 43.88571,0 21.94286,0 0,21.94286 -21.94286,0 z m 43.88572,0 21.94285,0 0,21.94286 -21.94285,0 z m 21.94285,0 21.94286,0 0,21.94286 -21.94286,0 z m 21.94286,0 21.94286,0 0,21.94286 -21.94286,0 z m 21.94286,0 21.94285,0 0,21.94286 -21.94285,0 z m 87.77143,0 21.94285,0 0,21.94286 -21.94285,0 z m 65.82857,0 21.94286,0 0,21.94286 -21.94286,0 z m 87.77143,0 21.94286,0 0,21.94286 -21.94286,0 z m 43.88571,0 21.94286,0 0,21.94286 -21.94286,0 z m 21.94286,0 21.94286,0 0,21.94286 -21.94286,0 z m 21.94286,0 21.94285,0 0,21.94286 -21.94285,0 z m 21.94285,0 21.94286,0 0,21.94286 -21.94286,0 z m 21.94286,0 21.94286,0 0,21.94286 -21.94286,0 z m 21.94286,0 21.94286,0 0,21.94286 -21.94286,0 z m -636.34286,21.94286 21.94285,0 0,21.94286 -21.94285,0 z m 43.88571,0 21.94286,0 0,21.94286 -21.94286,0 z m 21.94286,0 21.94286,0 0,21.94286 -21.94286,0 z m 21.94286,0 21.94285,0 0,21.94286 -21.94285,0 z m 43.88571,0 21.94286,0 0,21.94286 -21.94286,0 z m 43.88572,0 21.94285,0 0,21.94286 -21.94285,0 z m 87.77142,0 21.94286,0 0,21.94286 -21.94286,0 z m 21.94286,0 21.94286,0 0,21.94286 -21.94286,0 z m 21.94286,0 21.94286,0 0,21.94286 -21.94286,0 z m 43.88571,0 21.94286,0 0,21.94286 -21.94286,0 z m 21.94286,0 21.94286,0 0,21.94286 -21.94286,0 z m 21.94286,0 21.94286,0 0,21.94286 -21.94286,0 z m 21.94286,0 21.94285,0 0,21.94286 -21.94285,0 z m 21.94285,0 21.94286,0 0,21.94286 -21.94286,0 z m 65.82858,0 21.94285,0 0,21.94286 -21.94285,0 z m 87.77142,0 21.94286,0 0,21.94286 -21.94286,0 z m 21.94286,0 21.94286,0 0,21.94286 -21.94286,0 z m 21.94286,0 21.94286,0 0,21.94286 -21.94286,0 z m 21.94286,0 21.94285,0 0,21.94286 -21.94285,0 z m 21.94285,0 21.94286,0 0,21.94286 -21.94286,0 z m 21.94286,0 21.94286,0 0,21.94286 -21.94286,0 z m -702.17143,21.94286 21.94285,0 0,21.94285 -21.94285,0 z m 43.88571,0 21.94286,0 0,21.94285 -21.94286,0 z m 21.94286,0 21.94286,0 0,21.94285 -21.94286,0 z m 21.94286,0 21.94285,0 0,21.94285 -21.94285,0 z m 43.88571,0 21.94286,0 0,21.94285 -21.94286,0 z m 43.88572,0 21.94285,0 0,21.94285 -21.94285,0 z m 21.94285,0 21.94286,0 0,21.94285 -21.94286,0 z m 87.77143,0 21.94286,0 0,21.94285 -21.94286,0 z m 21.94286,0 21.94286,0 0,21.94285 -21.94286,0 z m 21.94286,0 21.94285,0 0,21.94285 -21.94285,0 z m 21.94285,0 21.94286,0 0,21.94285 -21.94286,0 z m 21.94286,0 21.94286,0 0,21.94285 -21.94286,0 z m 87.77143,0 21.94286,0 0,21.94285 -21.94286,0 z m 65.82857,0 21.94286,0 0,21.94285 -21.94286,0 z m 43.88572,0 21.94285,0 0,21.94285 -21.94285,0 z m 65.82857,0 21.94286,0 0,21.94285 -21.94286,0 z m 21.94286,0 21.94285,0 0,21.94285 -21.94285,0 z m -658.28572,21.94285 21.94285,0 0,21.94286 -21.94285,0 z m 131.65714,0 21.94286,0 0,21.94286 -21.94286,0 z m 43.88572,0 21.94285,0 0,21.94286 -21.94285,0 z m 43.88571,0 21.94286,0 0,21.94286 -21.94286,0 z m 43.88571,0 21.94286,0 0,21.94286 -21.94286,0 z m 21.94286,0 21.94286,0 0,21.94286 -21.94286,0 z m 43.88572,0 21.94285,0 0,21.94286 -21.94285,0 z m 87.77143,0 21.94285,0 0,21.94286 -21.94285,0 z m 21.94285,0 21.94286,0 0,21.94286 -21.94286,0 z m 21.94286,0 21.94286,0 0,21.94286 -21.94286,0 z m 21.94286,0 21.94286,0 0,21.94286 -21.94286,0 z m 65.82857,0 21.94286,0 0,21.94286 -21.94286,0 z m 21.94286,0 21.94285,0 0,21.94286 -21.94285,0 z m 21.94285,0 21.94286,0 0,21.94286 -21.94286,0 z m 21.94286,0 21.94286,0 0,21.94286 -21.94286,0 z m 21.94286,0 21.94286,0 0,21.94286 -21.94286,0 z m 21.94286,0 21.94285,0 0,21.94286 -21.94285,0 z m -658.28572,21.94286 21.94285,0 0,21.94286 -21.94285,0 z m 21.94285,0 21.94286,0 0,21.94286 -21.94286,0 z m 21.94286,0 21.94286,0 0,21.94286 -21.94286,0 z m 21.94286,0 21.94286,0 0,21.94286 -21.94286,0 z m 21.94286,0 21.94285,0 0,21.94286 -21.94285,0 z m 21.94285,0 21.94286,0 0,21.94286 -21.94286,0 z m 21.94286,0 21.94286,0 0,21.94286 -21.94286,0 z m 43.88572,0 21.94285,0 0,21.94286 -21.94285,0 z m 21.94285,0 21.94286,0 0,21.94286 -21.94286,0 z m 21.94286,0 21.94286,0 0,21.94286 -21.94286,0 z m 43.88571,0 21.94286,0 0,21.94286 -21.94286,0 z m 43.88572,0 21.94286,0 0,21.94286 -21.94286,0 z m 87.77143,0 21.94286,0 0,21.94286 -21.94286,0 z m 21.94286,0 21.94285,0 0,21.94286 -21.94285,0 z m 65.82857,0 21.94286,0 0,21.94286 -21.94286,0 z m 21.94286,0 21.94285,0 0,21.94286 -21.94285,0 z m 21.94285,0 21.94286,0 0,21.94286 -21.94286,0 z m 43.88572,0 21.94285,0 0,21.94286 -21.94285,0 z m 43.88571,0 21.94286,0 0,21.94286 -21.94286,0 z m 65.82857,0 21.94286,0 0,21.94286 -21.94286,0 z"
       style="fill:#000000;fill-opacity:1"
       inkscape:connector-curvature="0" />
    <text
       xml:space="preserve"
       style="font-style:normal;font-weight:normal;font-size:120px;line-height:125%;font-family:sans-serif;letter-spacing:0px;word-spacing:0px;fill:#000000;fill-opacity:1;stroke:none;stroke-width:1px;stroke-linecap:butt;stroke-linejoin:miter;stroke-opacity:1"
       x="-2085.4556"
       y="302.82901"
       id="text4229"
       sodipodi:linespacing="125%"
       transform="scale(-1,1)"><tspan
         sodipodi:role="line"
         id="tspan4231"
         x="-2085.4556"
         y="302.82901" /></text>
    <text
       xml:space="preserve"
       style="font-style:normal;font-weight:normal;font-size:120px;line-height:125%;font-family:sans-serif;letter-spacing:0px;word-spacing:0px;fill:#000000;fill-opacity:1;stroke:none;stroke-width:1px;stroke-linecap:butt;stroke-linejoin:miter;stroke-opacity:1"
       x="1448.4253"
       y="149.38028"
       id="text4233"
       sodipodi:linespacing="125%"><tspan
         sodipodi:role="line"
         id="tspan4235"
         x="1448.4253"
         y="149.38028"
         style="font-style:normal;font-variant:normal;font-weight:normal;font-stretch:normal;font-family:'Bitstream Vera Sans';-inkscape-font-specification:'Bitstream Vera Sans'">Android</tspan></text>
    <text
       xml:space="preserve"
       style="font-style:normal;font-weight:normal;font-size:120px;line-height:125%;font-family:sans-serif;letter-spacing:0px;word-spacing:0px;fill:#000000;fill-opacity:1;stroke:none;stroke-width:1px;stroke-linecap:butt;stroke-linejoin:miter;stroke-opacity:1"
       x="508.62305"
       y="-47.902023"
       id="text4237"
       sodipodi:linespacing="125%"><tspan
         sodipodi:role="line"
         id="tspan4239"
         x="508.62305"
         y="-47.902023">Or download the app:</tspan></text>
    <text
       xml:space="preserve"
       style="font-style:normal;font-weight:normal;font-size:151.50189209px;line-height:125%;font-family:sans-serif;letter-spacing:0px;word-spacing:0px;fill:#000000;fill-opacity:1;stroke:none;stroke-width:1px;stroke-linecap:butt;stroke-linejoin:miter;stroke-opacity:1"
       x="131.76506"
       y="-1021.4011"
       id="text4726"
       sodipodi:linespacing="125%"><tspan
         sodipodi:role="line"
         id="tspan4728"
         x="131.76506"
         y="-1021.4011"
         style="font-style:normal;font-variant:normal;font-weight:normal;font-stretch:normal;font-family:Cantarell;-inkscape-font-specification:Cantarell;fill:#f47321;fill-opacity:1">Student Leadership Elections</tspan></text>
    <text
       xml:space="preserve"
       style="font-style:normal;font-weight:normal;font-size:120px;line-height:125%;font-family:sans-serif;letter-spacing:0px;word-spacing:0px;fill:#000000;fill-opacity:1;stroke:none;stroke-width:1px;stroke-linecap:butt;stroke-linejoin:miter;stroke-opacity:1"
       x="925.29974"
       y="-1222.5013"
       id="text4730"
       sodipodi:linespacing="125%"><tspan
         sodipodi:role="line"
         id="tspan4732"
         x="925.29974"
         y="-1222.5013">in the </tspan></text>
  </g>
</svg>
