<?xml version="1.0" standalone="no"?><!DOCTYPE svg PUBLIC "-//W3C//DTD SVG 1.1//EN" "http://www.w3.org/Graphics/SVG/1.1/DTD/svg11.dtd"><svg xmlns="http://www.w3.org/2000/svg" viewBox="0 0 650 400" version="1.1"><clipPath id="box"><rect x="0" y="0" width="650" height="400" style="fill:none;stroke:none;" /></clipPath><g clip-path="url(#box)"><rect x="0.00" y="0.00" width="650.00" height="400.00" style="fill:#FFFFFF;stroke:none;" /><path d="M0.00 400.00 L650.00 400.00 M0.00 300.00 L650.00 300.00 M0.00 200.00 L650.00 200.00 M0.00 100.00 L650.00 100.00 M0.00 0.00 L650.00 0.00 M0.00 0.00 L0.00 400.00 M108.00 0.00 L108.00 400.00 M216.00 0.00 L216.00 400.00 M325.00 0.00 L325.00 400.00 M433.00 0.00 L433.00 400.00 M541.00 0.00 L541.00 400.00 M650.00 0.00 L650.00 400.00 " style="fill:none;stroke:#D0D0D0;stroke-width:1;" /><path d="M108.33 0.00 L108.33 400.00 " style="fill:none;stroke:#000000;stroke-width:1;" /><path d="M101.83 400.00 L114.83 400.00 M101.83 300.00 L114.83 300.00 M101.83 200.00 L114.83 200.00 M101.83 100.00 L114.83 100.00 M101.83 0.00 L114.83 0.00 " style="fill:none;stroke:#000000;stroke-width:1;" /><path d="M0.00 300.00 L650.00 300.00 " style="fill:none;stroke:#000000;stroke-width:1;" /><path d="M0.00 293.50 L0.00 306.50 M108.33 293.50 L108.33 306.50 M216.67 293.50 L216.67 306.50 M325.00 293.50 L325.00 306.50 M433.33 293.50 L433.33 306.50 M541.67 293.50 L541.67 306.50 M650.00 293.50 L650.00 306.50 " style="fill:none;stroke:#000000;stroke-width:1;" /><text x="116.45833333333333" y="302.5" text-anchor="start" style="font:10px Droid Sans,Trebuchet MS,Arial,Helvetica,sans-serif;stroke:none;fill:#000000">0</text><text x="116.45833333333333" y="202.5" text-anchor="start" style="font:10px Droid Sans,Trebuchet MS,Arial,Helvetica,sans-serif;stroke:none;fill:#000000">1</text><text x="116.45833333333333" y="102.5" text-anchor="start" style="font:10px Droid Sans,Trebuchet MS,Arial,Helvetica,sans-serif;stroke:none;fill:#000000">2</text><text x="108.33333333333333" y="316.125" text-anchor="middle" style="font:10px Droid Sans,Trebuchet MS,Arial,Helvetica,sans-serif;stroke:none;fill:#000000">0</text><text x="216.66666666666666" y="316.125" text-anchor="middle" style="font:10px Droid Sans,Trebuchet MS,Arial,Helvetica,sans-serif;stroke:none;fill:#000000">1</text><text x="325" y="316.125" text-anchor="middle" style="font:10px Droid Sans,Trebuchet MS,Arial,Helvetica,sans-serif;stroke:none;fill:#000000">2</text><text x="433.3333333333333" y="316.125" text-anchor="middle" style="font:10px Droid Sans,Trebuchet MS,Arial,Helvetica,sans-serif;stroke:none;fill:#000000">3</text><text x="541.6666666666667" y="316.125" text-anchor="middle" style="font:10px Droid Sans,Trebuchet MS,Arial,Helvetica,sans-serif;stroke:none;fill:#000000">4</text><path d="M137.36 400.00 L137.36 400.00 L137.67 399.00 L137.99 398.00 L138.30 397.00 L138.62 396.00 L138.93 395.00 L139.24 394.01 L139.56 393.01 L139.88 392.01 L140.19 391.01 L140.51 390.01 L140.83 389.02 L141.15 388.02 L141.47 387.02 L141.79 386.02 L142.11 385.02 L142.43 384.02 L142.75 383.03 L143.07 382.03 L143.39 381.03 L143.71 380.03 L144.04 379.03 L144.36 378.03 L144.69 377.04 L145.01 376.04 L145.34 375.04 L145.66 374.04 L145.99 373.04 L146.32 372.05 L146.65 371.05 L146.97 370.05 L147.30 369.05 L147.63 368.05 L147.96 367.05 L148.29 366.06 L148.63 365.06 L148.96 364.06 L149.29 363.06 L149.63 362.06 L149.96 361.07 L150.30 360.07 L150.63 359.07 L150.97 358.07 L151.30 357.07 L151.64 356.08 L151.98 355.08 L152.32 354.08 L152.66 353.08 L153.00 352.08 L153.34 351.09 L153.68 350.09 L154.02 349.09 L154.37 348.09 L154.71 347.09 L155.05 346.10 L155.40 345.10 L155.74 344.10 L156.09 343.10 L156.44 342.10 L156.78 341.11 L157.13 340.11 L157.48 339.11 L157.83 338.11 L158.18 337.11 L158.53 336.12 L158.89 335.12 L159.24 334.12 L159.59 333.12 L159.95 332.12 L160.30 331.13 L160.66 330.13 L161.02 329.13 L161.37 328.13 L161.73 327.14 L162.09 326.14 L162.45 325.14 L162.81 324.14 L163.17 323.14 L163.53 322.15 L163.90 321.15 L164.26 320.15 L164.63 319.15 L164.99 318.16 L165.36 317.16 L165.72 316.16 L166.09 315.16 L166.46 314.16 L166.83 313.17 L167.20 312.17 L167.57 311.17 L167.95 310.17 L168.32 309.18 L168.69 308.18 L169.07 307.18 L169.44 306.18 L169.82 305.19 L170.20 304.19 L170.58 303.19 L170.96 302.19 L171.34 301.20 L171.72 300.20 L172.10 299.20 L172.48 298.20 L172.87 297.21 L173.25 296.21 L173.64 295.21 L174.03 294.21 L174.41 293.22 L174.80 292.22 L175.19 291.22 L175.58 290.22 L175.98 289.23 L176.37 288.23 L176.76 287.23 L177.16 286.23 L177.56 285.24 L177.95 284.24 L178.35 283.24 L178.75 282.24 L179.15 281.25 L179.55 280.25 L179.96 279.25 L180.36 278.26 L180.77 277.26 L181.17 276.26 L181.58 275.26 L181.99 274.27 L182.40 273.27 L182.81 272.27 L183.22 271.28 L183.63 270.28 L184.05 269.28 L184.47 268.28 L184.88 267.29 L185.30 266.29 L185.72 265.29 L186.14 264.30 L186.56 263.30 L186.99 262.30 L187.41 261.31 L187.84 260.31 L188.26 259.31 L188.69 258.31 L189.12 257.32 L189.55 256.32 L189.98 255.32 L190.42 254.33 L190.85 253.33 L191.29 252.33 L191.73 251.34 L192.17 250.34 L192.61 249.34 L193.05 248.35 L193.50 247.35 L193.94 246.35 L194.39 245.36 L194.84 244.36 L195.29 243.36 L195.74 242.37 L196.19 241.37 L196.65 240.37 L197.10 239.38 L197.56 238.38 L198.02 237.39 L198.48 236.39 L198.95 235.39 L199.41 234.40 L199.88 233.40 L200.34 232.40 L200.81 231.41 L201.29 230.41 L201.76 229.42 L202.23 228.42 L202.71 227.42 L203.19 226.43 L203.67 225.43 L204.15 224.43 L204.64 223.44 L205.12 222.44 L205.61 221.45 L206.10 220.45 L206.60 219.46 L207.09 218.46 L207.59 217.46 L208.09 216.47 L208.59 215.47 L209.09 214.48 L209.60 213.48 L210.10 212.48 L210.61 211.49 L211.12 210.49 L211.64 209.50 L212.15 208.50 L212.67 207.51 L213.19 206.51 L213.72 205.52 L214.24 204.52 L214.77 203.53 L215.30 202.53 L215.84 201.54 L216.37 200.54 L216.91 199.55 L217.45 198.55 L218.00 197.56 L218.55 196.56 L219.10 195.57 L219.65 194.57 L220.20 193.58 L220.76 192.58 L221.32 191.59 L221.89 190.59 L222.46 189.60 L223.03 188.60 L223.60 187.61 L224.18 186.61 L224.76 185.62 L225.34 184.63 L225.93 183.63 L226.52 182.64 L227.11 181.64 L227.71 180.65 L228.31 179.66 L228.92 178.66 L229.53 177.67 L230.14 176.68 L230.76 175.68 L231.38 174.69 L232.00 173.69 L232.63 172.70 L233.26 171.71 L233.90 170.72 L234.54 169.72 L235.19 168.73 L235.84 167.74 L236.50 166.74 L237.16 165.75 L237.82 164.76 L238.49 163.77 L239.17 162.77 L239.85 161.78 L240.53 160.79 L241.23 159.80 L241.92 158.81 L242.63 157.81 L243.34 156.82 L244.05 155.83 L244.77 154.84 L245.50 153.85 L246.24 152.86 L246.98 151.87 L247.73 150.88 L248.48 149.89 L249.25 148.90 L250.02 147.91 L250.80 146.92 L251.58 145.93 L252.38 144.94 L253.18 143.95 L253.99 142.96 L254.82 141.97 L255.65 140.98 L256.49 140.00 L257.34 139.01 L258.20 138.02 L259.07 137.03 L259.96 136.05 L260.85 135.06 L261.76 134.07 L262.68 133.09 L263.62 132.10 L264.57 131.12 L265.53 130.13 L266.51 129.15 L267.50 128.17 L268.52 127.18 L269.55 126.20 L270.59 125.22 L271.66 124.24 L272.75 123.26 L273.86 122.28 L275.00 121.30 L276.16 120.33 L277.35 119.35 L278.56 118.37 L279.81 117.40 L281.09 116.43 L282.41 115.46 L283.76 114.49 L285.16 113.52 L286.61 112.56 L288.11 111.59 L289.67 110.63 L291.30 109.68 L293.00 108.73 L294.78 107.78 L296.67 106.84 L298.67 105.91 L300.67 105.04 L302.67 104.25 L304.67 103.52 L306.67 102.86 L308.67 102.27 L310.67 101.75 L312.67 101.30 L314.67 100.91 L316.67 100.59 L318.67 100.34 L320.67 100.16 L322.67 100.05 L324.67 100.00 L326.67 100.02 L328.67 100.11 L330.67 100.27 L332.67 100.50 L334.67 100.80 L336.67 101.16 L338.67 101.59 L340.67 102.09 L342.67 102.66 L344.67 103.30 L346.67 104.00 L348.67 104.77 L350.67 105.61 L352.67 106.52 L354.67 107.50 L356.67 108.55 L358.58 109.61 L360.38 110.67 L362.08 111.72 L363.70 112.76 L365.25 113.80 L366.74 114.84 L368.17 115.88 L369.55 116.91 L370.89 117.94 L372.19 118.97 L373.45 120.00 L374.67 121.03 L375.87 122.05 L377.04 123.07 L378.18 124.10 L379.29 125.12 L380.39 126.14 L381.46 127.16 L382.51 128.18 L383.54 129.20 L384.55 130.21 L385.54 131.23 L386.52 132.25 L387.48 133.26 L388.43 134.28 L389.36 135.29 L390.28 136.31 L391.18 137.32 L392.07 138.33 L392.96 139.35 L393.82 140.36 L394.68 141.37 L395.53 142.39 L396.37 143.40 L397.19 144.41 L398.01 145.42 L398.82 146.43 L399.62 147.44 L400.41 148.45 L401.19 149.46 L401.97 150.47 L402.73 151.48 L403.49 152.49 L404.24 153.50 L404.99 154.51 L405.72 155.52 L406.45 156.53 L407.18 157.54 L407.89 158.55 L408.61 159.56 L409.31 160.57 L410.01 161.58 L410.70 162.58 L411.39 163.59 L412.07 164.60 L412.75 165.61 L413.42 166.62 L414.09 167.62 L414.75 168.63 L415.40 169.64 L416.05 170.64 L416.70 171.65 L417.34 172.66 L417.98 173.67 L418.61 174.67 L419.24 175.68 L419.87 176.69 L420.49 177.69 L421.11 178.70 L421.72 179.71 L422.33 180.71 L422.93 181.72 L423.53 182.72 L424.13 183.73 L424.72 184.74 L425.31 185.74 L425.90 186.75 L426.48 187.75 L427.06 188.76 L427.64 189.77 L428.21 190.77 L428.78 191.78 L429.35 192.78 L429.91 193.79 L430.48 194.79 L431.03 195.80 L431.59 196.80 L432.14 197.81 L432.69 198.81 L433.24 199.82 L433.78 200.82 L434.32 201.83 L434.86 202.83 L435.39 203.84 L435.93 204.84 L436.46 205.85 L436.98 206.85 L437.51 207.86 L438.03 208.86 L438.55 209.87 L439.07 210.87 L439.59 211.88 L440.10 212.88 L440.61 213.89 L441.12 214.89 L441.63 215.89 L442.13 216.90 L442.63 217.90 L443.13 218.91 L443.63 219.91 L444.13 220.92 L444.62 221.92 L445.11 222.92 L445.60 223.93 L446.09 224.93 L446.57 225.94 L447.06 226.94 L447.54 227.94 L448.02 228.95 L448.50 229.95 L448.97 230.96 L449.45 231.96 L449.92 232.96 L450.39 233.97 L450.86 234.97 L451.33 235.97 L451.79 236.98 L452.25 237.98 L452.72 238.99 L453.18 239.99 L453.64 240.99 L454.09 242.00 L454.55 243.00 L455.00 244.00 L455.45 245.01 L455.90 246.01 L456.35 247.01 L456.80 248.02 L457.25 249.02 L457.69 250.02 L458.13 251.03 L458.58 252.03 L459.02 253.03 L459.45 254.04 L459.89 255.04 L460.33 256.04 L460.76 257.05 L461.19 258.05 L461.63 259.05 L462.06 260.06 L462.49 261.06 L462.91 262.06 L463.34 263.07 L463.76 264.07 L464.19 265.07 L464.61 266.08 L465.03 267.08 L465.45 268.08 L465.87 269.08 L466.29 270.09 L466.70 271.09 L467.12 272.09 L467.53 273.10 L467.94 274.10 L468.35 275.10 L468.76 276.10 L469.17 277.11 L469.58 278.11 L469.99 279.11 L470.39 280.12 L470.80 281.12 L471.20 282.12 L471.60 283.12 L472.00 284.13 L472.40 285.13 L472.80 286.13 L473.20 287.14 L473.59 288.14 L473.99 289.14 L474.38 290.14 L474.78 291.15 L475.17 292.15 L475.56 293.15 L475.95 294.15 L476.34 295.16 L476.73 296.16 L477.12 297.16 L477.50 298.16 L477.89 299.17 L478.27 300.17 L478.65 301.17 L479.04 302.17 L479.42 303.18 L479.80 304.18 L480.18 305.18 L480.56 306.18 L480.93 307.19 L481.31 308.19 L481.69 309.19 L482.06 310.19 L482.44 311.20 L482.81 312.20 L483.18 313.20 L483.55 314.20 L483.92 315.21 L484.29 316.21 L484.66 317.21 L485.03 318.21 L485.40 319.21 L485.76 320.22 L486.13 321.22 L486.49 322.22 L486.86 323.22 L487.22 324.23 L487.58 325.23 L487.94 326.23 L488.30 327.23 L488.66 328.23 L489.02 329.24 L489.38 330.24 L489.74 331.24 L490.10 332.24 L490.45 333.25 L490.81 334.25 L491.16 335.25 L491.51 336.25 L491.87 337.25 L492.22 338.26 L492.57 339.26 L492.92 340.26 L493.27 341.26 L493.62 342.26 L493.97 343.27 L494.32 344.27 L494.66 345.27 L495.01 346.27 L495.35 347.28 L495.70 348.28 L496.04 349.28 L496.39 350.28 L496.73 351.28 L497.07 352.29 L497.41 353.29 L497.75 354.29 L498.09 355.29 L498.43 356.29 L498.77 357.29 L499.11 358.30 L499.45 359.30 L499.78 360.30 L500.12 361.30 L500.45 362.30 L500.79 363.31 L501.12 364.31 L501.46 365.31 L501.79 366.31 L502.12 367.31 L502.45 368.32 L502.78 369.32 L503.12 370.32 L503.44 371.32 L503.77 372.32 L504.10 373.33 L504.43 374.33 L504.76 375.33 L505.08 376.33 L505.41 377.33 L505.74 378.33 L506.06 379.34 L506.39 380.34 L506.71 381.34 L507.03 382.34 L507.36 383.34 L507.68 384.35 L508.00 385.35 L508.32 386.35 L508.64 387.35 L508.96 388.35 L509.28 389.35 L509.60 390.36 L509.92 391.36 L510.23 392.36 L510.55 393.36 L510.87 394.36 L511.18 395.36 L511.50 396.37 L511.81 397.37 L512.13 398.37 L512.44 399.37 L512.76 400.37 " style="fill:none;stroke:#000000;stroke-width:1;" /></g></svg>