<?xml version="1.0" encoding="UTF-8" standalone="no"?>
<!-- Created with Inkscape (http://www.inkscape.org/) -->

<svg
   xmlns:osb="http://www.openswatchbook.org/uri/2009/osb"
   xmlns:dc="http://purl.org/dc/elements/1.1/"
   xmlns:cc="http://creativecommons.org/ns#"
   xmlns:rdf="http://www.w3.org/1999/02/22-rdf-syntax-ns#"
   xmlns:svg="http://www.w3.org/2000/svg"
   xmlns="http://www.w3.org/2000/svg"
   xmlns:xlink="http://www.w3.org/1999/xlink"
   xmlns:sodipodi="http://sodipodi.sourceforge.net/DTD/sodipodi-0.dtd"
   xmlns:inkscape="http://www.inkscape.org/namespaces/inkscape"
   width="8.5in"
   height="11in"
   viewBox="0 0 765 990"
   id="svg2"
   version="1.1"
   inkscape:version="0.91 r13725"
   sodipodi:docname="pinkweek-fact4.svg">
  <sodipodi:namedview
     id="base"
     pagecolor="#ffffff"
     bordercolor="#666666"
     borderopacity="1.0"
     inkscape:pageopacity="0.0"
     inkscape:pageshadow="2"
     inkscape:zoom="0.64000001"
     inkscape:cx="384.64808"
     inkscape:cy="-382.70139"
     inkscape:document-units="px"
     inkscape:current-layer="layer1"
     showgrid="false"
     inkscape:window-width="1280"
     inkscape:window-height="751"
     inkscape:window-x="0"
     inkscape:window-y="25"
     inkscape:window-maximized="1"
     units="in"
     showguides="false"
     inkscape:snap-page="true" />
  <defs
     id="defs4">
    <linearGradient
       id="linearGradient6969"
       osb:paint="solid">
      <stop
         style="stop-color:#6f5fc7;stop-opacity:1;"
         offset="0"
         id="stop6971" />
    </linearGradient>
    <pattern
       inkscape:collect="always"
       xlink:href="#pattern6244"
       id="pattern6965"
       patternTransform="matrix(0.31021823,0,0,0.32931318,649.88339,124.91807)" />
    <pattern
       patternUnits="userSpaceOnUse"
       width="835"
       height="1075"
       patternTransform="translate(-336.02546,41.605866)"
       id="pattern6244">
      <path
         inkscape:connector-curvature="0"
         id="rect6032"
         d="m 115,0 0,115 -115,0 0,5 115,0 0,115 -115,0 0,5 115,0 0,115 -115,0 0,5 115,0 0,115 -115,0 0,5 115,0 0,115 -115,0 0,5 115,0 0,115 -115,0 0,5 115,0 0,115 -115,0 0,5 115,0 0,115 -115,0 0,5.00003 115,0 0,114.99997 5,0 0,-114.99997 115,0 0,114.99997 5,0 0,-114.99997 115,0 0,114.99997 5,0 0,-114.99997 115,0 0,114.99997 5,0 0,-114.99997 115,0 0,114.99997 5,0 0,-114.99997 115,0 0,114.99997 5,0 0,-114.99997 115,0 0,-5.00003 -115,0 0,-115 115,0 0,-5 -115,0 0,-115 115,0 0,-5 -115,0 0,-115 115,0 0,-5 -115,0 0,-115 115,0 0,-5 -115,0 0,-115 115,0 0,-5 -115,0 0,-115 115,0 0,-5 -115,0 0,-115 115,0 0,-5 -115,0 0,-115 -5,0 0,115 -115,0 0,-115 -5,0 0,115 -115,0 0,-115 -5,0 0,115 -115,0 0,-115 -5,0 0,115 -115,0 0,-115 -5,0 0,115 -115,0 0,-115 -5,0 z m 5,120 115,0 0,115 -115,0 0,-115 z m 120,0 115,0 0,115 -115,0 0,-115 z m 120,0 115,0 0,115 -115,0 0,-115 z m 120,0 115,0 0,115 -115,0 0,-115 z m 120,0 115,0 0,115 -115,0 0,-115 z m -480,120 115,0 0,115 -115,0 0,-115 z m 120,0 115,0 0,115 -115,0 0,-115 z m 120,0 115,0 0,115 -115,0 0,-115 z m 120,0 115,0 0,115 -115,0 0,-115 z m 120,0 115,0 0,115 -115,0 0,-115 z m -480,120 115,0 0,115 -115,0 0,-115 z m 120,0 115,0 0,115 -115,0 0,-115 z m 120,0 115,0 0,115 -115,0 0,-115 z m 120,0 115,0 0,115 -115,0 0,-115 z m 120,0 115,0 0,115 -115,0 0,-115 z m -480,120 115,0 0,115 -115,0 0,-115 z m 120,0 115,0 0,115 -115,0 0,-115 z m 120,0 115,0 0,115 -115,0 0,-115 z m 120,0 115,0 0,115 -115,0 0,-115 z m 120,0 115,0 0,115 -115,0 0,-115 z m -480,120 115,0 0,115 -115,0 0,-115 z m 120,0 115,0 0,115 -115,0 0,-115 z m 120,0 115,0 0,115 -115,0 0,-115 z m 120,0 115,0 0,115 -115,0 0,-115 z m 120,0 115,0 0,115 -115,0 0,-115 z m -480,120 115,0 0,115 -115,0 0,-115 z m 120,0 115,0 0,115 -115,0 0,-115 z m 120,0 115,0 0,115 -115,0 0,-115 z m 120,0 115,0 0,115 -115,0 0,-115 z m 120,0 115,0 0,115 -115,0 0,-115 z m -480,120 115,0 0,115 -115,0 0,-115 z m 120,0 115,0 0,115 -115,0 0,-115 z m 120,0 115,0 0,115 -115,0 0,-115 z m 120,0 115,0 0,115 -115,0 0,-115 z m 120,0 115,0 0,115 -115,0 0,-115 z"
         style="opacity:1;fill:#f5acc7;fill-opacity:1" />
    </pattern>
    <filter
       inkscape:collect="always"
       style="color-interpolation-filters:sRGB"
       id="filter5081"
       x="-0.0027482721"
       width="1.0054965"
       y="-0.0021300691"
       height="1.0042601">
      <feGaussianBlur
         inkscape:collect="always"
         stdDeviation="0.87519797"
         id="feGaussianBlur5083" />
    </filter>
  </defs>
  <metadata
     id="metadata7">
    <rdf:RDF>
      <cc:Work
         rdf:about="">
        <dc:format>image/svg+xml</dc:format>
        <dc:type
           rdf:resource="http://purl.org/dc/dcmitype/StillImage" />
        <dc:title />
      </cc:Work>
    </rdf:RDF>
  </metadata>
  <g
     inkscape:label="Layer 1"
     inkscape:groupmode="layer"
     id="layer1"
     transform="translate(0,-62.362205)">
    <rect
       style="opacity:1;fill:url(#pattern6965);stroke:none;filter:url(#filter5081)"
       width="764.28937"
       height="986.10657"
       x="3.3857968"
       y="66.329224"
       id="rect6247" />
    <text
       xml:space="preserve"
       style="font-style:normal;font-weight:normal;font-size:91.58835602px;line-height:125%;font-family:sans-serif;letter-spacing:0px;word-spacing:0px;fill:#0099c7;fill-opacity:1;stroke:none;stroke-width:1px;stroke-linecap:butt;stroke-linejoin:miter;stroke-opacity:1"
       x="55.091553"
       y="158.47255"
       id="text4136"
       sodipodi:linespacing="125%"><tspan
         sodipodi:role="line"
         id="tspan4138"
         x="55.091553"
         y="158.47255"
         style="font-style:normal;font-variant:normal;font-weight:bold;font-stretch:normal;font-size:92.5px;font-family:Sawasdee;-inkscape-font-specification:'Sawasdee Bold';fill:#0099c7;fill-opacity:1"
         transform="translate(29.854735,-41.339844)">BHS Pink Week</tspan></text>
    <text
       sodipodi:linespacing="125%"
       id="text5063"
       y="1011.0786"
       x="60.963135"
       style="font-style:normal;font-weight:normal;font-size:91.58835602px;line-height:125%;font-family:sans-serif;letter-spacing:0px;word-spacing:0px;fill:#0099c7;fill-opacity:1;stroke:none;stroke-width:1px;stroke-linecap:butt;stroke-linejoin:miter;stroke-opacity:1"
       xml:space="preserve"><tspan
         transform="translate(29.854735,-41.339844)"
         style="font-style:normal;font-variant:normal;font-weight:bold;font-stretch:normal;font-size:92.5px;font-family:Sawasdee;-inkscape-font-specification:'Sawasdee Bold';fill:#0099c7;fill-opacity:1"
         y="1011.0786"
         x="60.963135"
         id="tspan5065"
         sodipodi:role="line">10/12 – 10/16</tspan></text>
    <text
       xml:space="preserve"
       style="font-style:normal;font-weight:normal;font-size:40px;line-height:125%;font-family:sans-serif;letter-spacing:0px;word-spacing:0px;fill:#000000;fill-opacity:1;stroke:none;stroke-width:1px;stroke-linecap:butt;stroke-linejoin:miter;stroke-opacity:1"
       x="384.375"
       y="819.54968"
       id="text5091"
       sodipodi:linespacing="125%"><tspan
         sodipodi:role="line"
         id="tspan5093"
         x="384.375"
         y="819.54968" /><tspan
         sodipodi:role="line"
         x="384.375"
         y="869.54968"
         id="tspan5095" /></text>
    <rect
       style="fill:none;fill-opacity:1;stroke:#000000;stroke-width:0.85496014;stroke-opacity:1"
       id="rect5163"
       width="724.52002"
       height="440.77005"
       x="20.239981"
       y="297.9147" />
  </g>
  <g
     id="checkerboard"
     transform="translate(0,40)">
    <g
       id="diagonal1">
      <rect
         height="50"
         id="cell0x0"
         style="fill:#a300ff;fill-opacity:0;stroke:none;stroke-width:1"
         width="50"
         x="-316.42856"
         y="221.42857" />
      <rect
         height="50"
         id="cell2x0"
         style="fill:#a300ff;fill-opacity:0;stroke:none;stroke-width:1"
         width="50"
         x="-216.42857"
         y="221.42857" />
      <rect
         height="50"
         id="cell4x0"
         style="fill:#a300ff;fill-opacity:0;stroke:none;stroke-width:1"
         width="50"
         x="-116.42857"
         y="221.42857" />
      <rect
         height="50"
         id="cell6x0"
         style="fill:#a300ff;fill-opacity:0;stroke:none;stroke-width:1"
         width="50"
         x="-16.428572"
         y="221.42857" />
      <rect
         height="50"
         id="cell8x0"
         style="fill:#a300ff;fill-opacity:0;stroke:none;stroke-width:1"
         width="50"
         x="83.571426"
         y="221.42857" />
      <rect
         height="50"
         id="cell1x1"
         style="fill:#a300ff;fill-opacity:0;stroke:none;stroke-width:1"
         width="50"
         x="-266.42856"
         y="271.42856" />
      <rect
         height="50"
         id="cell3x1"
         style="fill:#a300ff;fill-opacity:0;stroke:none;stroke-width:1"
         width="50"
         x="-166.42857"
         y="271.42856" />
      <rect
         height="50"
         id="cell5x1"
         style="fill:#a300ff;fill-opacity:0;stroke:none;stroke-width:1"
         width="50"
         x="-66.428574"
         y="271.42856" />
      <rect
         height="50"
         id="cell7x1"
         style="fill:#a300ff;fill-opacity:0;stroke:none;stroke-width:1"
         width="50"
         x="33.57143"
         y="271.42856" />
      <rect
         height="50"
         id="cell9x1"
         style="fill:#a300ff;fill-opacity:0;stroke:none;stroke-width:1"
         width="50"
         x="133.57143"
         y="271.42856" />
      <rect
         height="50"
         id="cell0x2"
         style="fill:#a300ff;fill-opacity:0;stroke:none;stroke-width:1"
         width="50"
         x="-316.42856"
         y="321.42856" />
      <rect
         height="50"
         id="cell2x2"
         style="fill:#a300ff;fill-opacity:0;stroke:none;stroke-width:1"
         width="50"
         x="-216.42857"
         y="321.42856" />
      <rect
         height="50"
         id="cell4x2"
         style="fill:#a300ff;fill-opacity:0;stroke:none;stroke-width:1"
         width="50"
         x="-116.42857"
         y="321.42856" />
      <rect
         height="50"
         id="cell6x2"
         style="fill:#a300ff;fill-opacity:0;stroke:none;stroke-width:1"
         width="50"
         x="-16.428572"
         y="321.42856" />
      <rect
         height="50"
         id="cell8x2"
         style="fill:#a300ff;fill-opacity:0;stroke:none;stroke-width:1"
         width="50"
         x="83.571426"
         y="321.42856" />
      <rect
         height="50"
         id="cell1x3"
         style="fill:#a300ff;fill-opacity:0;stroke:none;stroke-width:1"
         width="50"
         x="-266.42856"
         y="371.42856" />
      <rect
         height="50"
         id="cell3x3"
         style="fill:#a300ff;fill-opacity:0;stroke:none;stroke-width:1"
         width="50"
         x="-166.42857"
         y="371.42856" />
      <rect
         height="50"
         id="cell5x3"
         style="fill:#a300ff;fill-opacity:0;stroke:none;stroke-width:1"
         width="50"
         x="-66.428574"
         y="371.42856" />
      <rect
         height="50"
         id="cell7x3"
         style="fill:#a300ff;fill-opacity:0;stroke:none;stroke-width:1"
         width="50"
         x="33.57143"
         y="371.42856" />
      <rect
         height="50"
         id="cell9x3"
         style="fill:#a300ff;fill-opacity:0;stroke:none;stroke-width:1"
         width="50"
         x="133.57143"
         y="371.42856" />
      <rect
         height="50"
         id="cell0x4"
         style="fill:#a300ff;fill-opacity:0;stroke:none;stroke-width:1"
         width="50"
         x="-316.42856"
         y="421.42856" />
      <rect
         height="50"
         id="cell2x4"
         style="fill:#a300ff;fill-opacity:0;stroke:none;stroke-width:1"
         width="50"
         x="-216.42857"
         y="421.42856" />
      <rect
         height="50"
         id="cell4x4"
         style="fill:#a300ff;fill-opacity:0;stroke:none;stroke-width:1"
         width="50"
         x="-116.42857"
         y="421.42856" />
      <rect
         height="50"
         id="cell6x4"
         style="fill:#a300ff;fill-opacity:0;stroke:none;stroke-width:1"
         width="50"
         x="-16.428572"
         y="421.42856" />
      <rect
         height="50"
         id="cell8x4"
         style="fill:#a300ff;fill-opacity:0;stroke:none;stroke-width:1"
         width="50"
         x="83.571426"
         y="421.42856" />
      <rect
         height="50"
         id="cell1x5"
         style="fill:#a300ff;fill-opacity:0;stroke:none;stroke-width:1"
         width="50"
         x="-266.42856"
         y="471.42856" />
      <rect
         height="50"
         id="cell3x5"
         style="fill:#a300ff;fill-opacity:0;stroke:none;stroke-width:1"
         width="50"
         x="-166.42857"
         y="471.42856" />
      <rect
         height="50"
         id="cell5x5"
         style="fill:#a300ff;fill-opacity:0;stroke:none;stroke-width:1"
         width="50"
         x="-66.428574"
         y="471.42856" />
      <rect
         height="50"
         id="cell7x5"
         style="fill:#a300ff;fill-opacity:0;stroke:none;stroke-width:1"
         width="50"
         x="33.57143"
         y="471.42856" />
      <rect
         height="50"
         id="cell9x5"
         style="fill:#a300ff;fill-opacity:0;stroke:none;stroke-width:1"
         width="50"
         x="133.57143"
         y="471.42856" />
      <rect
         height="50"
         id="cell0x6"
         style="fill:#a300ff;fill-opacity:0;stroke:none;stroke-width:1"
         width="50"
         x="-316.42856"
         y="521.42859" />
      <rect
         height="50"
         id="cell2x6"
         style="fill:#a300ff;fill-opacity:0;stroke:none;stroke-width:1"
         width="50"
         x="-216.42857"
         y="521.42859" />
      <rect
         height="50"
         id="cell4x6"
         style="fill:#a300ff;fill-opacity:0;stroke:none;stroke-width:1"
         width="50"
         x="-116.42857"
         y="521.42859" />
      <rect
         height="50"
         id="cell6x6"
         style="fill:#a300ff;fill-opacity:0;stroke:none;stroke-width:1"
         width="50"
         x="-16.428572"
         y="521.42859" />
      <rect
         height="50"
         id="cell8x6"
         style="fill:#a300ff;fill-opacity:0;stroke:none;stroke-width:1"
         width="50"
         x="83.571426"
         y="521.42859" />
      <rect
         height="50"
         id="cell1x7"
         style="fill:#a300ff;fill-opacity:0;stroke:none;stroke-width:1"
         width="50"
         x="-266.42856"
         y="571.42859" />
      <rect
         height="50"
         id="cell3x7"
         style="fill:#a300ff;fill-opacity:0;stroke:none;stroke-width:1"
         width="50"
         x="-166.42857"
         y="571.42859" />
      <rect
         height="50"
         id="cell5x7"
         style="fill:#a300ff;fill-opacity:0;stroke:none;stroke-width:1"
         width="50"
         x="-66.428574"
         y="571.42859" />
      <rect
         height="50"
         id="cell7x7"
         style="fill:#a300ff;fill-opacity:0;stroke:none;stroke-width:1"
         width="50"
         x="33.57143"
         y="571.42859" />
      <rect
         height="50"
         id="cell9x7"
         style="fill:#a300ff;fill-opacity:0;stroke:none;stroke-width:1"
         width="50"
         x="133.57143"
         y="571.42859" />
      <rect
         height="50"
         id="cell0x8"
         style="fill:#a300ff;fill-opacity:0;stroke:none;stroke-width:1"
         width="50"
         x="-316.42856"
         y="621.42859" />
      <rect
         height="50"
         id="cell2x8"
         style="fill:#a300ff;fill-opacity:0;stroke:none;stroke-width:1"
         width="50"
         x="-216.42857"
         y="621.42859" />
      <rect
         height="50"
         id="cell4x8"
         style="fill:#a300ff;fill-opacity:0;stroke:none;stroke-width:1"
         width="50"
         x="-116.42857"
         y="621.42859" />
      <rect
         height="50"
         id="cell6x8"
         style="fill:#a300ff;fill-opacity:0;stroke:none;stroke-width:1"
         width="50"
         x="-16.428572"
         y="621.42859" />
      <rect
         height="50"
         id="cell8x8"
         style="fill:#a300ff;fill-opacity:0;stroke:none;stroke-width:1"
         width="50"
         x="83.571426"
         y="621.42859" />
      <rect
         height="50"
         id="cell1x9"
         style="fill:#a300ff;fill-opacity:0;stroke:none;stroke-width:1"
         width="50"
         x="-266.42856"
         y="671.42859" />
      <rect
         height="50"
         id="cell3x9"
         style="fill:#a300ff;fill-opacity:0;stroke:none;stroke-width:1"
         width="50"
         x="-166.42857"
         y="671.42859" />
      <rect
         height="50"
         id="cell5x9"
         style="fill:#a300ff;fill-opacity:0;stroke:none;stroke-width:1"
         width="50"
         x="-66.428574"
         y="671.42859" />
      <rect
         height="50"
         id="cell7x9"
         style="fill:#a300ff;fill-opacity:0;stroke:none;stroke-width:1"
         width="50"
         x="33.57143"
         y="671.42859" />
      <rect
         height="50"
         id="cell9x9"
         style="fill:#a300ff;fill-opacity:0;stroke:none;stroke-width:1"
         width="50"
         x="133.57143"
         y="671.42859" />
    </g>
    <g
       id="diagonal2">
      <rect
         height="50"
         id="cell1x0"
         style="fill:#a20000;fill-opacity:0;stroke:none;stroke-width:1"
         width="50"
         x="-266.42856"
         y="221.42857" />
      <rect
         height="50"
         id="cell3x0"
         style="fill:#a20000;fill-opacity:0;stroke:none;stroke-width:1"
         width="50"
         x="-166.42857"
         y="221.42857" />
      <rect
         height="50"
         id="cell5x0"
         style="fill:#a20000;fill-opacity:0;stroke:none;stroke-width:1"
         width="50"
         x="-66.428574"
         y="221.42857" />
      <rect
         height="50"
         id="cell7x0"
         style="fill:#a20000;fill-opacity:0;stroke:none;stroke-width:1"
         width="50"
         x="33.57143"
         y="221.42857" />
      <rect
         height="50"
         id="cell9x0"
         style="fill:#a20000;fill-opacity:0;stroke:none;stroke-width:1"
         width="50"
         x="133.57143"
         y="221.42857" />
      <rect
         height="50"
         id="cell0x1"
         style="fill:#a20000;fill-opacity:0;stroke:none;stroke-width:1"
         width="50"
         x="-316.42856"
         y="271.42856" />
      <rect
         height="50"
         id="cell2x1"
         style="fill:#a20000;fill-opacity:0;stroke:none;stroke-width:1"
         width="50"
         x="-216.42857"
         y="271.42856" />
      <rect
         height="50"
         id="cell4x1"
         style="fill:#a20000;fill-opacity:0;stroke:none;stroke-width:1"
         width="50"
         x="-116.42857"
         y="271.42856" />
      <rect
         height="50"
         id="cell6x1"
         style="fill:#a20000;fill-opacity:0;stroke:none;stroke-width:1"
         width="50"
         x="-16.428572"
         y="271.42856" />
      <rect
         height="50"
         id="cell8x1"
         style="fill:#a20000;fill-opacity:0;stroke:none;stroke-width:1"
         width="50"
         x="83.571426"
         y="271.42856" />
      <rect
         height="50"
         id="cell1x2"
         style="fill:#a20000;fill-opacity:0;stroke:none;stroke-width:1"
         width="50"
         x="-266.42856"
         y="321.42856" />
      <rect
         height="50"
         id="cell3x2"
         style="fill:#a20000;fill-opacity:0;stroke:none;stroke-width:1"
         width="50"
         x="-166.42857"
         y="321.42856" />
      <rect
         height="50"
         id="cell5x2"
         style="fill:#a20000;fill-opacity:0;stroke:none;stroke-width:1"
         width="50"
         x="-66.428574"
         y="321.42856" />
      <rect
         height="50"
         id="cell7x2"
         style="fill:#a20000;fill-opacity:0;stroke:none;stroke-width:1"
         width="50"
         x="33.57143"
         y="321.42856" />
      <rect
         height="50"
         id="cell9x2"
         style="fill:#a20000;fill-opacity:0;stroke:none;stroke-width:1"
         width="50"
         x="133.57143"
         y="321.42856" />
      <rect
         height="50"
         id="cell0x3"
         style="fill:#a20000;fill-opacity:0;stroke:none;stroke-width:1"
         width="50"
         x="-316.42856"
         y="371.42856" />
      <rect
         height="50"
         id="cell2x3"
         style="fill:#a20000;fill-opacity:0;stroke:none;stroke-width:1"
         width="50"
         x="-216.42857"
         y="371.42856" />
      <rect
         height="50"
         id="cell4x3"
         style="fill:#a20000;fill-opacity:0;stroke:none;stroke-width:1"
         width="50"
         x="-116.42857"
         y="371.42856" />
      <rect
         height="50"
         id="cell6x3"
         style="fill:#a20000;fill-opacity:0;stroke:none;stroke-width:1"
         width="50"
         x="-16.428572"
         y="371.42856" />
      <rect
         height="50"
         id="cell8x3"
         style="fill:#a20000;fill-opacity:0;stroke:none;stroke-width:1"
         width="50"
         x="83.571426"
         y="371.42856" />
      <rect
         height="50"
         id="cell1x4"
         style="fill:#a20000;fill-opacity:0;stroke:none;stroke-width:1"
         width="50"
         x="-266.42856"
         y="421.42856" />
      <rect
         height="50"
         id="cell3x4"
         style="fill:#a20000;fill-opacity:0;stroke:none;stroke-width:1"
         width="50"
         x="-166.42857"
         y="421.42856" />
      <rect
         height="50"
         id="cell5x4"
         style="fill:#a20000;fill-opacity:0;stroke:none;stroke-width:1"
         width="50"
         x="-66.428574"
         y="421.42856" />
      <rect
         height="50"
         id="cell7x4"
         style="fill:#a20000;fill-opacity:0;stroke:none;stroke-width:1"
         width="50"
         x="33.57143"
         y="421.42856" />
      <rect
         height="50"
         id="cell9x4"
         style="fill:#a20000;fill-opacity:0;stroke:none;stroke-width:1"
         width="50"
         x="133.57143"
         y="421.42856" />
      <rect
         height="50"
         id="cell0x5"
         style="fill:#a20000;fill-opacity:0;stroke:none;stroke-width:1"
         width="50"
         x="-316.42856"
         y="471.42856" />
      <rect
         height="50"
         id="cell2x5"
         style="fill:#a20000;fill-opacity:0;stroke:none;stroke-width:1"
         width="50"
         x="-216.42857"
         y="471.42856" />
      <rect
         height="50"
         id="cell4x5"
         style="fill:#a20000;fill-opacity:0;stroke:none;stroke-width:1"
         width="50"
         x="-116.42857"
         y="471.42856" />
      <rect
         height="50"
         id="cell6x5"
         style="fill:#a20000;fill-opacity:0;stroke:none;stroke-width:1"
         width="50"
         x="-16.428572"
         y="471.42856" />
      <rect
         height="50"
         id="cell8x5"
         style="fill:#a20000;fill-opacity:0;stroke:none;stroke-width:1"
         width="50"
         x="83.571426"
         y="471.42856" />
      <rect
         height="50"
         id="cell1x6"
         style="fill:#a20000;fill-opacity:0;stroke:none;stroke-width:1"
         width="50"
         x="-266.42856"
         y="521.42859" />
      <rect
         height="50"
         id="cell3x6"
         style="fill:#a20000;fill-opacity:0;stroke:none;stroke-width:1"
         width="50"
         x="-166.42857"
         y="521.42859" />
      <rect
         height="50"
         id="cell5x6"
         style="fill:#a20000;fill-opacity:0;stroke:none;stroke-width:1"
         width="50"
         x="-66.428574"
         y="521.42859" />
      <rect
         height="50"
         id="cell7x6"
         style="fill:#a20000;fill-opacity:0;stroke:none;stroke-width:1"
         width="50"
         x="33.57143"
         y="521.42859" />
      <rect
         height="50"
         id="cell9x6"
         style="fill:#a20000;fill-opacity:0;stroke:none;stroke-width:1"
         width="50"
         x="133.57143"
         y="521.42859" />
      <rect
         height="50"
         id="cell0x7"
         style="fill:#a20000;fill-opacity:0;stroke:none;stroke-width:1"
         width="50"
         x="-316.42856"
         y="571.42859" />
      <rect
         height="50"
         id="cell2x7"
         style="fill:#a20000;fill-opacity:0;stroke:none;stroke-width:1"
         width="50"
         x="-216.42857"
         y="571.42859" />
      <rect
         height="50"
         id="cell4x7"
         style="fill:#a20000;fill-opacity:0;stroke:none;stroke-width:1"
         width="50"
         x="-116.42857"
         y="571.42859" />
      <rect
         height="50"
         id="cell6x7"
         style="fill:#a20000;fill-opacity:0;stroke:none;stroke-width:1"
         width="50"
         x="-16.428572"
         y="571.42859" />
      <rect
         height="50"
         id="cell8x7"
         style="fill:#a20000;fill-opacity:0;stroke:none;stroke-width:1"
         width="50"
         x="83.571426"
         y="571.42859" />
      <rect
         height="50"
         id="cell1x8"
         style="fill:#a20000;fill-opacity:0;stroke:none;stroke-width:1"
         width="50"
         x="-266.42856"
         y="621.42859" />
      <rect
         height="50"
         id="cell3x8"
         style="fill:#a20000;fill-opacity:0;stroke:none;stroke-width:1"
         width="50"
         x="-166.42857"
         y="621.42859" />
      <rect
         height="50"
         id="cell5x8"
         style="fill:#a20000;fill-opacity:0;stroke:none;stroke-width:1"
         width="50"
         x="-66.428574"
         y="621.42859" />
      <rect
         height="50"
         id="cell7x8"
         style="fill:#a20000;fill-opacity:0;stroke:none;stroke-width:1"
         width="50"
         x="33.57143"
         y="621.42859" />
      <rect
         height="50"
         id="cell9x8"
         style="fill:#a20000;fill-opacity:0;stroke:none;stroke-width:1"
         width="50"
         x="133.57143"
         y="621.42859" />
      <rect
         height="50"
         id="cell0x9"
         style="fill:#a20000;fill-opacity:0;stroke:none;stroke-width:1"
         width="50"
         x="-316.42856"
         y="671.42859" />
      <rect
         height="50"
         id="cell2x9"
         style="fill:#a20000;fill-opacity:0;stroke:none;stroke-width:1"
         width="50"
         x="-216.42857"
         y="671.42859" />
      <rect
         height="50"
         id="cell4x9"
         style="fill:#a20000;fill-opacity:0;stroke:none;stroke-width:1"
         width="50"
         x="-116.42857"
         y="671.42859" />
      <rect
         height="50"
         id="cell6x9"
         style="fill:#a20000;fill-opacity:0;stroke:none;stroke-width:1"
         width="50"
         x="-16.428572"
         y="671.42859" />
      <rect
         height="50"
         id="cell8x9"
         style="fill:#a20000;fill-opacity:0;stroke:none;stroke-width:1"
         width="50"
         x="83.571426"
         y="671.42859" />
    </g>
  </g>
  <g
     id="g5152"
     transform="translate(0,40)">
    <g
       id="g5154">
      <rect
         y="221.42857"
         x="-316.42856"
         width="50"
         style="fill:#a300ff;fill-opacity:0;stroke:none;stroke-width:1"
         id="rect5156"
         height="50" />
      <rect
         y="221.42857"
         x="-216.42857"
         width="50"
         style="fill:#a300ff;fill-opacity:0;stroke:none;stroke-width:1"
         id="rect5158"
         height="50" />
      <rect
         y="221.42857"
         x="-116.42857"
         width="50"
         style="fill:#a300ff;fill-opacity:0;stroke:none;stroke-width:1"
         id="rect5160"
         height="50" />
      <rect
         y="221.42857"
         x="-16.428572"
         width="50"
         style="fill:#a300ff;fill-opacity:0;stroke:none;stroke-width:1"
         id="rect5162"
         height="50" />
      <rect
         y="221.42857"
         x="83.571426"
         width="50"
         style="fill:#a300ff;fill-opacity:0;stroke:none;stroke-width:1"
         id="rect5164"
         height="50" />
      <rect
         y="271.42856"
         x="-266.42856"
         width="50"
         style="fill:#a300ff;fill-opacity:0;stroke:none;stroke-width:1"
         id="rect5166"
         height="50" />
      <rect
         y="271.42856"
         x="-166.42857"
         width="50"
         style="fill:#a300ff;fill-opacity:0;stroke:none;stroke-width:1"
         id="rect5168"
         height="50" />
      <rect
         y="271.42856"
         x="-66.428574"
         width="50"
         style="fill:#a300ff;fill-opacity:0;stroke:none;stroke-width:1"
         id="rect5170"
         height="50" />
      <rect
         y="271.42856"
         x="33.57143"
         width="50"
         style="fill:#a300ff;fill-opacity:0;stroke:none;stroke-width:1"
         id="rect5172"
         height="50" />
      <rect
         y="271.42856"
         x="133.57143"
         width="50"
         style="fill:#a300ff;fill-opacity:0;stroke:none;stroke-width:1"
         id="rect5174"
         height="50" />
      <rect
         y="321.42856"
         x="-316.42856"
         width="50"
         style="fill:#a300ff;fill-opacity:0;stroke:none;stroke-width:1"
         id="rect5176"
         height="50" />
      <rect
         y="321.42856"
         x="-216.42857"
         width="50"
         style="fill:#a300ff;fill-opacity:0;stroke:none;stroke-width:1"
         id="rect5178"
         height="50" />
      <rect
         y="321.42856"
         x="-116.42857"
         width="50"
         style="fill:#a300ff;fill-opacity:0;stroke:none;stroke-width:1"
         id="rect5180"
         height="50" />
      <rect
         y="321.42856"
         x="-16.428572"
         width="50"
         style="fill:#a300ff;fill-opacity:0;stroke:none;stroke-width:1"
         id="rect5182"
         height="50" />
      <rect
         y="321.42856"
         x="83.571426"
         width="50"
         style="fill:#a300ff;fill-opacity:0;stroke:none;stroke-width:1"
         id="rect5184"
         height="50" />
      <rect
         y="371.42856"
         x="-266.42856"
         width="50"
         style="fill:#a300ff;fill-opacity:0;stroke:none;stroke-width:1"
         id="rect5186"
         height="50" />
      <rect
         y="371.42856"
         x="-166.42857"
         width="50"
         style="fill:#a300ff;fill-opacity:0;stroke:none;stroke-width:1"
         id="rect5188"
         height="50" />
      <rect
         y="371.42856"
         x="-66.428574"
         width="50"
         style="fill:#a300ff;fill-opacity:0;stroke:none;stroke-width:1"
         id="rect5190"
         height="50" />
      <rect
         y="371.42856"
         x="33.57143"
         width="50"
         style="fill:#a300ff;fill-opacity:0;stroke:none;stroke-width:1"
         id="rect5192"
         height="50" />
      <rect
         y="371.42856"
         x="133.57143"
         width="50"
         style="fill:#a300ff;fill-opacity:0;stroke:none;stroke-width:1"
         id="rect5194"
         height="50" />
      <rect
         y="421.42856"
         x="-316.42856"
         width="50"
         style="fill:#a300ff;fill-opacity:0;stroke:none;stroke-width:1"
         id="rect5196"
         height="50" />
      <rect
         y="421.42856"
         x="-216.42857"
         width="50"
         style="fill:#a300ff;fill-opacity:0;stroke:none;stroke-width:1"
         id="rect5198"
         height="50" />
      <rect
         y="421.42856"
         x="-116.42857"
         width="50"
         style="fill:#a300ff;fill-opacity:0;stroke:none;stroke-width:1"
         id="rect5200"
         height="50" />
      <rect
         y="421.42856"
         x="-16.428572"
         width="50"
         style="fill:#a300ff;fill-opacity:0;stroke:none;stroke-width:1"
         id="rect5202"
         height="50" />
      <rect
         y="421.42856"
         x="83.571426"
         width="50"
         style="fill:#a300ff;fill-opacity:0;stroke:none;stroke-width:1"
         id="rect5204"
         height="50" />
      <rect
         y="471.42856"
         x="-266.42856"
         width="50"
         style="fill:#a300ff;fill-opacity:0;stroke:none;stroke-width:1"
         id="rect5206"
         height="50" />
      <rect
         y="471.42856"
         x="-166.42857"
         width="50"
         style="fill:#a300ff;fill-opacity:0;stroke:none;stroke-width:1"
         id="rect5208"
         height="50" />
      <rect
         y="471.42856"
         x="-66.428574"
         width="50"
         style="fill:#a300ff;fill-opacity:0;stroke:none;stroke-width:1"
         id="rect5210"
         height="50" />
      <rect
         y="471.42856"
         x="33.57143"
         width="50"
         style="fill:#a300ff;fill-opacity:0;stroke:none;stroke-width:1"
         id="rect5212"
         height="50" />
      <rect
         y="471.42856"
         x="133.57143"
         width="50"
         style="fill:#a300ff;fill-opacity:0;stroke:none;stroke-width:1"
         id="rect5214"
         height="50" />
      <rect
         y="521.42859"
         x="-316.42856"
         width="50"
         style="fill:#a300ff;fill-opacity:0;stroke:none;stroke-width:1"
         id="rect5216"
         height="50" />
      <rect
         y="521.42859"
         x="-216.42857"
         width="50"
         style="fill:#a300ff;fill-opacity:0;stroke:none;stroke-width:1"
         id="rect5218"
         height="50" />
      <rect
         y="521.42859"
         x="-116.42857"
         width="50"
         style="fill:#a300ff;fill-opacity:0;stroke:none;stroke-width:1"
         id="rect5220"
         height="50" />
      <rect
         y="521.42859"
         x="-16.428572"
         width="50"
         style="fill:#a300ff;fill-opacity:0;stroke:none;stroke-width:1"
         id="rect5222"
         height="50" />
      <rect
         y="521.42859"
         x="83.571426"
         width="50"
         style="fill:#a300ff;fill-opacity:0;stroke:none;stroke-width:1"
         id="rect5224"
         height="50" />
      <rect
         y="571.42859"
         x="-266.42856"
         width="50"
         style="fill:#a300ff;fill-opacity:0;stroke:none;stroke-width:1"
         id="rect5226"
         height="50" />
      <rect
         y="571.42859"
         x="-166.42857"
         width="50"
         style="fill:#a300ff;fill-opacity:0;stroke:none;stroke-width:1"
         id="rect5228"
         height="50" />
      <rect
         y="571.42859"
         x="-66.428574"
         width="50"
         style="fill:#a300ff;fill-opacity:0;stroke:none;stroke-width:1"
         id="rect5230"
         height="50" />
      <rect
         y="571.42859"
         x="33.57143"
         width="50"
         style="fill:#a300ff;fill-opacity:0;stroke:none;stroke-width:1"
         id="rect5232"
         height="50" />
      <rect
         y="571.42859"
         x="133.57143"
         width="50"
         style="fill:#a300ff;fill-opacity:0;stroke:none;stroke-width:1"
         id="rect5234"
         height="50" />
      <rect
         y="621.42859"
         x="-316.42856"
         width="50"
         style="fill:#a300ff;fill-opacity:0;stroke:none;stroke-width:1"
         id="rect5236"
         height="50" />
      <rect
         y="621.42859"
         x="-216.42857"
         width="50"
         style="fill:#a300ff;fill-opacity:0;stroke:none;stroke-width:1"
         id="rect5238"
         height="50" />
      <rect
         y="621.42859"
         x="-116.42857"
         width="50"
         style="fill:#a300ff;fill-opacity:0;stroke:none;stroke-width:1"
         id="rect5240"
         height="50" />
      <rect
         y="621.42859"
         x="-16.428572"
         width="50"
         style="fill:#a300ff;fill-opacity:0;stroke:none;stroke-width:1"
         id="rect5242"
         height="50" />
      <rect
         y="621.42859"
         x="83.571426"
         width="50"
         style="fill:#a300ff;fill-opacity:0;stroke:none;stroke-width:1"
         id="rect5244"
         height="50" />
      <rect
         y="671.42859"
         x="-266.42856"
         width="50"
         style="fill:#a300ff;fill-opacity:0;stroke:none;stroke-width:1"
         id="rect5246"
         height="50" />
      <rect
         y="671.42859"
         x="-166.42857"
         width="50"
         style="fill:#a300ff;fill-opacity:0;stroke:none;stroke-width:1"
         id="rect5248"
         height="50" />
      <rect
         y="671.42859"
         x="-66.428574"
         width="50"
         style="fill:#a300ff;fill-opacity:0;stroke:none;stroke-width:1"
         id="rect5250"
         height="50" />
      <rect
         y="671.42859"
         x="33.57143"
         width="50"
         style="fill:#a300ff;fill-opacity:0;stroke:none;stroke-width:1"
         id="rect5252"
         height="50" />
      <rect
         y="671.42859"
         x="133.57143"
         width="50"
         style="fill:#a300ff;fill-opacity:0;stroke:none;stroke-width:1"
         id="rect5254"
         height="50" />
    </g>
    <g
       id="g5256">
      <rect
         y="221.42857"
         x="-266.42856"
         width="50"
         style="fill:#a20000;fill-opacity:0;stroke:none;stroke-width:1"
         id="rect5258"
         height="50" />
      <rect
         y="221.42857"
         x="-166.42857"
         width="50"
         style="fill:#a20000;fill-opacity:0;stroke:none;stroke-width:1"
         id="rect5260"
         height="50" />
      <rect
         y="221.42857"
         x="-66.428574"
         width="50"
         style="fill:#a20000;fill-opacity:0;stroke:none;stroke-width:1"
         id="rect5262"
         height="50" />
      <rect
         y="221.42857"
         x="33.57143"
         width="50"
         style="fill:#a20000;fill-opacity:0;stroke:none;stroke-width:1"
         id="rect5264"
         height="50" />
      <rect
         y="221.42857"
         x="133.57143"
         width="50"
         style="fill:#a20000;fill-opacity:0;stroke:none;stroke-width:1"
         id="rect5266"
         height="50" />
      <rect
         y="271.42856"
         x="-316.42856"
         width="50"
         style="fill:#a20000;fill-opacity:0;stroke:none;stroke-width:1"
         id="rect5268"
         height="50" />
      <rect
         y="271.42856"
         x="-216.42857"
         width="50"
         style="fill:#a20000;fill-opacity:0;stroke:none;stroke-width:1"
         id="rect5270"
         height="50" />
      <rect
         y="271.42856"
         x="-116.42857"
         width="50"
         style="fill:#a20000;fill-opacity:0;stroke:none;stroke-width:1"
         id="rect5272"
         height="50" />
      <rect
         y="271.42856"
         x="-16.428572"
         width="50"
         style="fill:#a20000;fill-opacity:0;stroke:none;stroke-width:1"
         id="rect5274"
         height="50" />
      <rect
         y="271.42856"
         x="83.571426"
         width="50"
         style="fill:#a20000;fill-opacity:0;stroke:none;stroke-width:1"
         id="rect5276"
         height="50" />
      <rect
         y="321.42856"
         x="-266.42856"
         width="50"
         style="fill:#a20000;fill-opacity:0;stroke:none;stroke-width:1"
         id="rect5278"
         height="50" />
      <rect
         y="321.42856"
         x="-166.42857"
         width="50"
         style="fill:#a20000;fill-opacity:0;stroke:none;stroke-width:1"
         id="rect5280"
         height="50" />
      <rect
         y="321.42856"
         x="-66.428574"
         width="50"
         style="fill:#a20000;fill-opacity:0;stroke:none;stroke-width:1"
         id="rect5282"
         height="50" />
      <rect
         y="321.42856"
         x="33.57143"
         width="50"
         style="fill:#a20000;fill-opacity:0;stroke:none;stroke-width:1"
         id="rect5284"
         height="50" />
      <rect
         y="321.42856"
         x="133.57143"
         width="50"
         style="fill:#a20000;fill-opacity:0;stroke:none;stroke-width:1"
         id="rect5286"
         height="50" />
      <rect
         y="371.42856"
         x="-316.42856"
         width="50"
         style="fill:#a20000;fill-opacity:0;stroke:none;stroke-width:1"
         id="rect5288"
         height="50" />
      <rect
         y="371.42856"
         x="-216.42857"
         width="50"
         style="fill:#a20000;fill-opacity:0;stroke:none;stroke-width:1"
         id="rect5290"
         height="50" />
      <rect
         y="371.42856"
         x="-116.42857"
         width="50"
         style="fill:#a20000;fill-opacity:0;stroke:none;stroke-width:1"
         id="rect5292"
         height="50" />
      <rect
         y="371.42856"
         x="-16.428572"
         width="50"
         style="fill:#a20000;fill-opacity:0;stroke:none;stroke-width:1"
         id="rect5294"
         height="50" />
      <rect
         y="371.42856"
         x="83.571426"
         width="50"
         style="fill:#a20000;fill-opacity:0;stroke:none;stroke-width:1"
         id="rect5296"
         height="50" />
      <rect
         y="421.42856"
         x="-266.42856"
         width="50"
         style="fill:#a20000;fill-opacity:0;stroke:none;stroke-width:1"
         id="rect5298"
         height="50" />
      <rect
         y="421.42856"
         x="-166.42857"
         width="50"
         style="fill:#a20000;fill-opacity:0;stroke:none;stroke-width:1"
         id="rect5300"
         height="50" />
      <rect
         y="421.42856"
         x="-66.428574"
         width="50"
         style="fill:#a20000;fill-opacity:0;stroke:none;stroke-width:1"
         id="rect5302"
         height="50" />
      <rect
         y="421.42856"
         x="33.57143"
         width="50"
         style="fill:#a20000;fill-opacity:0;stroke:none;stroke-width:1"
         id="rect5304"
         height="50" />
      <rect
         y="421.42856"
         x="133.57143"
         width="50"
         style="fill:#a20000;fill-opacity:0;stroke:none;stroke-width:1"
         id="rect5306"
         height="50" />
      <rect
         y="471.42856"
         x="-316.42856"
         width="50"
         style="fill:#a20000;fill-opacity:0;stroke:none;stroke-width:1"
         id="rect5308"
         height="50" />
      <rect
         y="471.42856"
         x="-216.42857"
         width="50"
         style="fill:#a20000;fill-opacity:0;stroke:none;stroke-width:1"
         id="rect5310"
         height="50" />
      <rect
         y="471.42856"
         x="-116.42857"
         width="50"
         style="fill:#a20000;fill-opacity:0;stroke:none;stroke-width:1"
         id="rect5312"
         height="50" />
      <rect
         y="471.42856"
         x="-16.428572"
         width="50"
         style="fill:#a20000;fill-opacity:0;stroke:none;stroke-width:1"
         id="rect5314"
         height="50" />
      <rect
         y="471.42856"
         x="83.571426"
         width="50"
         style="fill:#a20000;fill-opacity:0;stroke:none;stroke-width:1"
         id="rect5316"
         height="50" />
      <rect
         y="521.42859"
         x="-266.42856"
         width="50"
         style="fill:#a20000;fill-opacity:0;stroke:none;stroke-width:1"
         id="rect5318"
         height="50" />
      <rect
         y="521.42859"
         x="-166.42857"
         width="50"
         style="fill:#a20000;fill-opacity:0;stroke:none;stroke-width:1"
         id="rect5320"
         height="50" />
      <rect
         y="521.42859"
         x="-66.428574"
         width="50"
         style="fill:#a20000;fill-opacity:0;stroke:none;stroke-width:1"
         id="rect5322"
         height="50" />
      <rect
         y="521.42859"
         x="33.57143"
         width="50"
         style="fill:#a20000;fill-opacity:0;stroke:none;stroke-width:1"
         id="rect5324"
         height="50" />
      <rect
         y="521.42859"
         x="133.57143"
         width="50"
         style="fill:#a20000;fill-opacity:0;stroke:none;stroke-width:1"
         id="rect5326"
         height="50" />
      <rect
         y="571.42859"
         x="-316.42856"
         width="50"
         style="fill:#a20000;fill-opacity:0;stroke:none;stroke-width:1"
         id="rect5328"
         height="50" />
      <rect
         y="571.42859"
         x="-216.42857"
         width="50"
         style="fill:#a20000;fill-opacity:0;stroke:none;stroke-width:1"
         id="rect5330"
         height="50" />
      <rect
         y="571.42859"
         x="-116.42857"
         width="50"
         style="fill:#a20000;fill-opacity:0;stroke:none;stroke-width:1"
         id="rect5332"
         height="50" />
      <rect
         y="571.42859"
         x="-16.428572"
         width="50"
         style="fill:#a20000;fill-opacity:0;stroke:none;stroke-width:1"
         id="rect5334"
         height="50" />
      <rect
         y="571.42859"
         x="83.571426"
         width="50"
         style="fill:#a20000;fill-opacity:0;stroke:none;stroke-width:1"
         id="rect5336"
         height="50" />
      <rect
         y="621.42859"
         x="-266.42856"
         width="50"
         style="fill:#a20000;fill-opacity:0;stroke:none;stroke-width:1"
         id="rect5338"
         height="50" />
      <rect
         y="621.42859"
         x="-166.42857"
         width="50"
         style="fill:#a20000;fill-opacity:0;stroke:none;stroke-width:1"
         id="rect5340"
         height="50" />
      <rect
         y="621.42859"
         x="-66.428574"
         width="50"
         style="fill:#a20000;fill-opacity:0;stroke:none;stroke-width:1"
         id="rect5342"
         height="50" />
      <rect
         y="621.42859"
         x="33.57143"
         width="50"
         style="fill:#a20000;fill-opacity:0;stroke:none;stroke-width:1"
         id="rect5344"
         height="50" />
      <rect
         y="621.42859"
         x="133.57143"
         width="50"
         style="fill:#a20000;fill-opacity:0;stroke:none;stroke-width:1"
         id="rect5346"
         height="50" />
      <rect
         y="671.42859"
         x="-316.42856"
         width="50"
         style="fill:#a20000;fill-opacity:0;stroke:none;stroke-width:1"
         id="rect5348"
         height="50" />
      <rect
         y="671.42859"
         x="-216.42857"
         width="50"
         style="fill:#a20000;fill-opacity:0;stroke:none;stroke-width:1"
         id="rect5350"
         height="50" />
      <rect
         y="671.42859"
         x="-116.42857"
         width="50"
         style="fill:#a20000;fill-opacity:0;stroke:none;stroke-width:1"
         id="rect5352"
         height="50" />
      <rect
         y="671.42859"
         x="-16.428572"
         width="50"
         style="fill:#a20000;fill-opacity:0;stroke:none;stroke-width:1"
         id="rect5354"
         height="50" />
      <rect
         y="671.42859"
         x="83.571426"
         width="50"
         style="fill:#a20000;fill-opacity:0;stroke:none;stroke-width:1"
         id="rect5356"
         height="50" />
    </g>
  </g>
</svg>
