<?xml version="1.0" encoding="UTF-8" standalone="no"?>
<!-- Created with Inkscape (http://www.inkscape.org/) -->

<svg
   xmlns:dc="http://purl.org/dc/elements/1.1/"
   xmlns:cc="http://creativecommons.org/ns#"
   xmlns:rdf="http://www.w3.org/1999/02/22-rdf-syntax-ns#"
   xmlns:svg="http://www.w3.org/2000/svg"
   xmlns="http://www.w3.org/2000/svg"
   xmlns:xlink="http://www.w3.org/1999/xlink"
   xmlns:sodipodi="http://sodipodi.sourceforge.net/DTD/sodipodi-0.dtd"
   xmlns:inkscape="http://www.inkscape.org/namespaces/inkscape"
   width="210mm"
   height="297mm"
   viewBox="0 0 744.09448819 1052.3622047"
   id="svg2"
   version="1.1"
   inkscape:version="0.91 r13725"
   sodipodi:docname="pinkweekshirtsvg.svg">
  <defs
     id="defs4">
    <inkscape:path-effect
       effect="spiro"
       id="path-effect4226"
       is_visible="true" />
    <inkscape:path-effect
       effect="bend_path"
       id="path-effect4224"
       is_visible="true"
       bendpath="m 313.86385,506.00072 c 17.58886,-90.74 292.55596,181.90149 210.95223,4.28571"
       prop_scale="1"
       scale_y_rel="false"
       vertical="false"
       bendpath-nodetypes="cc" />
  </defs>
  <sodipodi:namedview
     id="base"
     pagecolor="#ffffff"
     bordercolor="#666666"
     borderopacity="1.0"
     inkscape:pageopacity="0.0"
     inkscape:pageshadow="2"
     inkscape:zoom="0.82956229"
     inkscape:cx="372.04724"
     inkscape:cy="526.1811"
     inkscape:document-units="px"
     inkscape:current-layer="layer1"
     showgrid="false"
     inkscape:window-width="1920"
     inkscape:window-height="1059"
     inkscape:window-x="0"
     inkscape:window-y="21"
     inkscape:window-maximized="0"
     inkscape:snap-page="true" />
  <metadata
     id="metadata7">
    <rdf:RDF>
      <cc:Work
         rdf:about="">
        <dc:format>image/svg+xml</dc:format>
        <dc:type
           rdf:resource="http://purl.org/dc/dcmitype/StillImage" />
        <dc:title />
      </cc:Work>
    </rdf:RDF>
  </metadata>
  <g
     inkscape:label="Layer 1"
     inkscape:groupmode="layer"
     id="layer1">
    <rect
       style="opacity:1;fill:#ffcee9;fill-opacity:1;stroke:#510000;stroke-width:1;stroke-miterlimit:4;stroke-dasharray:none;stroke-opacity:1"
       id="rect8276"
       width="744.09448"
       height="1052.3622"
       x="0"
       y="0" />
    <circle
       style="fill:#710000;fill-opacity:1;stroke:none;stroke-width:25;stroke-miterlimit:4;stroke-dasharray:none;stroke-opacity:1;opacity:0"
       id="path4136"
       cx="372.04724"
       cy="526.18109"
       r="252.85715" />
    <text
       xml:space="preserve"
       style="font-style:normal;font-weight:normal;font-size:75.26212311px;line-height:125%;font-family:sans-serif;letter-spacing:0px;word-spacing:0px;fill:#ff6356;fill-opacity:1;stroke:none;stroke-width:1px;stroke-linecap:butt;stroke-linejoin:miter;stroke-opacity:1;"
       id="text4138"
       sodipodi:linespacing="125%"><textPath
         xlink:href="#path4144"
         id="textPath4146"
         style="font-size:80px;fill:#ff6356;fill-opacity:1;"><tspan
           style="font-style:normal;font-variant:normal;font-weight:normal;font-stretch:normal;font-size:80px;font-family:Freshman;-inkscape-font-specification:Freshman;fill:#ff6356;fill-opacity:1;"
           id="tspan4140"
           dx="1075.7142 3.4059799e-08">United as</tspan></textPath></text>
    <circle
       style="opacity:1;fill:none;fill-opacity:1;stroke:none;stroke-width:0.7082476;stroke-miterlimit:4;stroke-dasharray:none;stroke-opacity:1"
       id="path4144"
       cx="372.04724"
       cy="526.18109"
       r="270.14587" />
    <circle
       style="opacity:1;fill:none;fill-opacity:1;stroke:none;stroke-width:1.65270245;stroke-miterlimit:4;stroke-dasharray:none;stroke-opacity:1"
       id="path4144-2"
       cx="-365.98633"
       cy="216.46526"
       r="630.38794"
       transform="scale(-1,1)" />
    <text
       xml:space="preserve"
       style="font-style:normal;font-weight:normal;font-size:40px;line-height:125%;font-family:sans-serif;letter-spacing:0px;word-spacing:0px;fill:#ff6356;fill-opacity:1;stroke:none;stroke-width:1px;stroke-linecap:butt;stroke-linejoin:miter;stroke-opacity:1;"
       id="text4203"
       sodipodi:linespacing="125%"
       x="20"
       transform="translate(0,16)"><textPath
         xlink:href="#path4144-2"
         id="textPath4207"
         style="font-size:90px;letter-spacing:5px;fill:#ff6356;fill-opacity:1;"><tspan
           style="font-style:normal;font-variant:normal;font-weight:normal;font-stretch:normal;font-size:90px;font-family:Freshman;-inkscape-font-specification:Freshman;letter-spacing:5px;fill:#ff6356;fill-opacity:1;"
           id="tspan4205"
           dx="896.56458">One</tspan></textPath></text>
    <path
       style="fill:#fe6598"
       d="m 461.3774,733.90948 c -8.17413,-5.99986 -36.71841,-35.78013 -52.67558,-54.9565 -48.54733,-58.34125 -89.68626,-123.27872 -110.00519,-173.64231 -12.40822,-30.7557 -18.39512,-62.93334 -15.42489,-82.90378 1.57794,-10.60932 18.76098,-65.12958 24.51043,-77.7694 l 2.94962,-6.48457 0.10179,7.62608 c 0.54527,40.85206 41.62474,135.43435 85.56077,196.99704 37.45607,52.48305 80.78845,95.77052 126.6762,126.54494 8.49015,5.69388 15.24823,11.00097 15.01797,11.79352 -0.60292,2.07525 -67.54654,56.9201 -69.47668,56.9201 -0.88794,0 -4.14343,-1.8563 -7.23444,-4.12512 z M 246.9663,712.81234 c -22.10578,-9.07233 -40.53192,-16.83474 -40.94699,-17.24981 -0.41507,-0.41506 5.99926,-7.01252 14.25405,-14.66101 34.14452,-31.63663 84.66198,-87.29796 103.0476,-113.54027 1.07704,-1.53729 2.18912,-2.50997 2.47127,-2.16152 0.28215,0.34846 3.02531,4.84854 6.09591,10.00017 6.76259,11.34577 24.31709,38.28229 31.61553,48.51248 l 5.3104,7.44356 -8.56083,12.73065 c -27.30578,40.60593 -65.15838,85.66728 -71.78963,85.46141 -0.71775,-0.0223 -19.39154,-7.46333 -41.49731,-16.53566 z M 398.10918,541.30913 c -6.33629,-9.12922 -15.27267,-22.67949 -19.85861,-30.1117 l -8.3381,-13.51311 8.93949,-16.36104 c 29.26912,-53.5683 48.76257,-109.70783 48.95764,-140.99402 0.0414,-6.6255 0.53531,-9.9565 1.2794,-8.62688 1.88482,3.36798 13.79637,42.39142 18.67531,61.18226 7.58992,29.23184 5.70771,56.77145 -6.45275,94.41334 -8.14031,25.19779 -27.75576,70.60974 -30.49951,70.60974 -0.65029,0 -6.36658,-7.46938 -12.70287,-16.59859 z M 320.66203,385.34616 c -5.77249,-19.73427 -7.17302,-27.13377 -7.48773,-39.56049 -0.24532,-9.68613 0.20065,-12.29125 2.75272,-16.0803 6.99684,-10.38816 24.19326,-15.3018 53.8145,-15.37674 27.7313,-0.0702 43.93874,3.42999 52.51226,11.34054 3.43229,3.16688 3.96279,4.75639 3.96279,11.87366 0,9.99027 -3.18724,27.74124 -8.19769,45.6562 l -3.73198,13.34377 -4.48253,-2.95386 c -17.13617,-11.29229 -32.40366,-15.61173 -46.1798,-13.06507 -9.57948,1.77086 -21.07143,6.69291 -30.52876,13.07558 -3.54957,2.39558 -6.96941,4.35559 -7.59966,4.35559 -0.63024,0 -2.80559,-5.67399 -4.83412,-12.60888 z"
       id="path8274"
       inkscape:connector-curvature="0" />
  </g>
</svg>
