<?xml version="1.0" encoding="UTF-8" standalone="no"?>
<!-- Created with Inkscape (http://www.inkscape.org/) -->

<svg
   xmlns:dc="http://purl.org/dc/elements/1.1/"
   xmlns:cc="http://creativecommons.org/ns#"
   xmlns:rdf="http://www.w3.org/1999/02/22-rdf-syntax-ns#"
   xmlns:svg="http://www.w3.org/2000/svg"
   xmlns="http://www.w3.org/2000/svg"
   xmlns:xlink="http://www.w3.org/1999/xlink"
   xmlns:sodipodi="http://sodipodi.sourceforge.net/DTD/sodipodi-0.dtd"
   xmlns:inkscape="http://www.inkscape.org/namespaces/inkscape"
   width="765"
   height="990"
   id="svg2"
   version="1.1"
   inkscape:version="0.48.5 r10040"
   sodipodi:docname="pinkweekposter.svg">
  <defs
     id="defs4">
    <linearGradient
       id="linearGradient3764">
      <stop
         style="stop-color:#ff69b4;stop-opacity:1;"
         offset="0"
         id="stop3766" />
      <stop
         style="stop-color:#ff69b4;stop-opacity:0;"
         offset="1"
         id="stop3768" />
    </linearGradient>
    <linearGradient
       inkscape:collect="always"
       xlink:href="#linearGradient3764"
       id="linearGradient3770"
       x1="371.69553"
       y1="990"
       x2="368.97958"
       y2="0"
       gradientUnits="userSpaceOnUse" />
    <inkscape:perspective
       id="perspective10"
       inkscape:persp3d-origin="350 : 185.32499 : 1"
       inkscape:vp_z="700 : 277.98749 : 1"
       inkscape:vp_y="0 : 1000 : 0"
       inkscape:vp_x="0 : 277.98749 : 1"
       sodipodi:type="inkscape:persp3d" />
    <filter
       inkscape:label="negative overlay"
       id="negative_overlay_filter">
      <feColorMatrix
         in="BackgroundImage"
         result="negative_overlay_filter_colormatrix_result"
         values="-1 0 0 0 1 0 -1 0 0 1 0 0 -1 0 1 0 0 0 1 0"
         id="negative_overlay_filter_colormatrix" />
      <feBlend
         in="negative_overlay_filter_colormatrix_result"
         in2="SourceAlpha"
         result="negative_overlay_filter_blend_result"
         blend="normal"
         id="negative_overlay_filter_blend" />
      <feComposite
         in="negative_overlay_filter_blend_result"
         in2="SourceGraphic"
         operator="in"
         id="negative_overlay_filter_composite" />
    </filter>
    <linearGradient
       x1="-625.71"
       y1="515.42"
       x2="122.24"
       gradientUnits="userSpaceOnUse"
       y2="515.42"
       id="linearGradient2397">
      <stop
         offset="0"
         style="stop-color:#ff0000"
         id="stop2393" />
      <stop
         offset=".13472"
         style="stop-color:#ffff00"
         id="stop2409" />
      <stop
         offset=".28889"
         style="stop-color:#00ff00"
         id="stop2411" />
      <stop
         offset=".49610"
         style="stop-color:#00ffff"
         id="stop2399" />
      <stop
         offset=".69799"
         style="stop-color:#0000ff"
         id="stop2413" />
      <stop
         offset=".89128"
         style="stop-color:#ff00ff"
         id="stop2415" />
      <stop
         offset="1"
         style="stop-color:#ff0000"
         id="stop2395" />
    </linearGradient>
    <filter
       inkscape:collect="always"
       id="filter4020">
      <feGaussianBlur
         inkscape:collect="always"
         stdDeviation="5.604241"
         id="feGaussianBlur4022" />
    </filter>
    <filter
       inkscape:collect="always"
       id="filter4024">
      <feGaussianBlur
         inkscape:collect="always"
         stdDeviation="1.5702745"
         id="feGaussianBlur4026" />
    </filter>
  </defs>
  <sodipodi:namedview
     id="base"
     pagecolor="#ffffff"
     bordercolor="#666666"
     borderopacity="1.0"
     inkscape:pageopacity="0.0"
     inkscape:pageshadow="2"
     inkscape:zoom="0.64"
     inkscape:cx="249.4647"
     inkscape:cy="454.96672"
     inkscape:document-units="px"
     inkscape:current-layer="layer1"
     showgrid="false"
     units="in"
     inkscape:window-width="1280"
     inkscape:window-height="752"
     inkscape:window-x="0"
     inkscape:window-y="29"
     inkscape:window-maximized="1"
     inkscape:snap-page="true" />
  <metadata
     id="metadata7">
    <rdf:RDF>
      <cc:Work
         rdf:about="">
        <dc:format>image/svg+xml</dc:format>
        <dc:type
           rdf:resource="http://purl.org/dc/dcmitype/StillImage" />
        <dc:title></dc:title>
      </cc:Work>
    </rdf:RDF>
  </metadata>
  <g
     inkscape:label="Layer 1"
     inkscape:groupmode="layer"
     id="layer1"
     transform="translate(0,-62.35975)">
    <rect
       id="rect2994"
       width="765"
       height="990"
       x="0"
       y="0"
       transform="translate(0,62.35975)"
       style="stroke:none;stroke-opacity:1;fill:url(#linearGradient3770);fill-opacity:1.0" />
    <g
       id="g3823"
       transform="translate(22.565865,-52.03724)">
      <path
         style="fill:#f2acc6"
         d="m 200.41185,420.26199 c -0.0363,-0.6875 -0.14885,-4.625 -0.25,-8.75 l -0.18391,-7.5 -4.25,-0.3075 c -2.3375,-0.16912 -4.25,-0.69031 -4.25,-1.1582 0,-1.55069 17.06641,-35.0343 17.85678,-35.0343 0.72955,0 3.7317,6.14508 7.67736,15.71468 1.507,3.65502 1.56126,4.65094 0.40858,7.5 -0.73104,1.80693 -1.57972,3.51032 -1.88595,3.78532 -1.48285,1.33165 -4.28738,8.10188 -3.6271,8.75598 0.41307,0.40921 1.72288,0.74402 2.91069,0.74402 2.0263,0 2.17748,0.54026 2.44857,8.75 l 0.28894,8.75 -8.53894,0 c -6.12923,0 -8.55758,-0.35275 -8.60502,-1.25 z m 54.73336,0.58394 c -0.36699,-0.367 -0.66727,-4.41727 -0.66727,-9.00061 l 0,-8.33333 -4.5,0 c -2.475,0 -4.49787,-0.1125 -4.49528,-0.25 0.0302,-1.59605 18.07012,-90.06208 18.51085,-90.77519 0.33136,-0.53615 2.37591,-0.97481 4.54345,-0.97481 l 3.94099,0 0,-9 0,-9 4,0 4,0 0,9.5 0,9.5 3.25,0.13618 c 2.09998,0.088 2.50223,0.28319 1.13677,0.55163 -1.80287,0.35443 -2.37031,1.76637 -3.86371,9.61382 -0.96277,5.0591 -2.87565,14.82337 -4.25086,21.69837 -1.3752,6.875 -2.85937,14.3 -3.29817,16.5 -0.4388,2.2 -1.71467,8.98596 -2.83528,15.07991 -1.1206,6.09395 -2.77582,14.32621 -3.67825,18.29391 -1.68109,7.39116 -1.45297,10.34642 0.77611,10.05461 4.90896,-0.64265 5.60588,-0.0372 6.29368,5.46777 0.37081,2.96791 0.37667,6.75086 0.013,8.40657 l -0.66119,3.01037 -8.77379,0.094 c -4.82559,0.0517 -9.07407,-0.20623 -9.44107,-0.57323 z m 106.88,-0.12 c -0.30099,-0.301 -0.54727,-6.32227 -0.54727,-13.38061 l 0,-12.83333 -4.05902,0 c -7.79438,0 -3.02864,-1.55253 5.50374,-1.79294 6.90906,-0.19468 8.7187,0.0552 9.18414,1.26813 0.39451,1.02807 1.34491,1.31852 2.97541,0.90929 2.22712,-0.55898 2.39574,-0.32113 2.39574,3.3793 0,3.86426 -0.11578,3.99912 -3.96115,4.61402 l -3.96115,0.63341 -0.28885,8.71629 -0.28885,8.71629 -3.20273,0.15871 c -1.7615,0.0873 -3.449,-0.0876 -3.75,-0.38856 z m 89.1194,0.11939 c -0.36667,-0.36666 -0.66667,-6.44166 -0.66667,-13.5 l 0,-12.83333 -4.66667,0 c -7.81049,0 -3.77999,-1.42198 4.88777,-1.72443 6.38077,-0.22264 8.49745,0.0647 9.91312,1.3459 1.01395,0.91761 2.68778,1.39684 3.8329,1.09738 1.78763,-0.46748 2.03288,-0.0603 2.03288,3.37477 0,3.59113 -0.22193,3.90762 -2.75,3.92169 -4.74498,0.0264 -5.43145,1.12717 -5.36213,8.5981 0.0841,9.0665 -0.39739,10.38659 -3.78859,10.38659 -1.52127,0 -3.06595,-0.3 -3.43261,-0.66667 z m 43.1209,-8.17703 -0.28757,-8.6563 -4.5,-0.5 -4.5,-0.5 0,-14.70977 0,-14.70976 4.43097,-4.51249 c 4.86754,-4.95708 5.82814,-4.86827 8.76464,0.81029 0.86006,1.66317 2.18039,3.64058 2.93406,4.39426 1.01822,1.01821 1.37033,4.67139 1.37033,14.21711 0,7.06573 0.27314,13.55859 0.60699,14.42857 0.41243,1.07479 1.87932,1.58179 4.57654,1.58179 l 3.96956,0 -0.32655,8.25 -0.32654,8.25 -8.21243,0.1563 -8.21244,0.15629 -0.28756,-8.65629 z m 61.81942,7.26191 c -0.33385,-0.86998 -0.60699,-4.91998 -0.60699,-9 l 0,-7.41821 -4.35008,0 c -4.32964,0 -4.3872,-0.0477 -12.25,-10.16008 -4.34496,-5.58804 -10.04292,-12.90054 -12.66215,-16.25 -11.44637,-14.63757 -18.73777,-24.46537 -18.73777,-25.25593 0,-0.46901 8.94425,-9.78861 19.87611,-20.71022 l 19.87611,-19.85747 4.08937,0.38998 4.08937,0.38999 0.28453,-9.02314 0.28452,-9.02313 4.25,-0.3075 c 2.51457,-0.18193 4.25,0.12432 4.25,0.75 0,0.58163 1.52686,1.0575 3.39301,1.0575 4.14881,0 4.60699,1.00266 4.60699,10.08179 l 0,6.91821 -4.18354,0 c -4.10753,0 -4.55719,0.37292 -24.75,20.52615 -11.61896,11.5962 -20.13141,20.84107 -19.56646,21.25 2.82165,2.04245 9.52964,11.36688 8.90472,12.37801 -0.41495,0.67141 -0.27727,0.88511 0.32889,0.51048 0.57344,-0.35441 3.90547,3.00168 7.40451,7.45797 3.49902,4.45629 7.03688,8.9152 7.86188,9.90868 0.825,0.99348 2.4,3.06082 3.5,4.5941 1.1,1.53328 2.72534,3.53265 3.61187,4.44306 0.88652,0.91041 2.44605,3.06744 3.4656,4.79342 1.01955,1.72597 2.44584,3.13813 3.16952,3.13813 0.72368,0 1.5748,0.675 1.89138,1.5 0.37526,0.97789 1.93066,1.5 4.46862,1.5 l 3.89301,0 0,8.5 0,8.5 -7.89301,0 c -6.2749,0 -8.01745,-0.32427 -8.5,-1.58179 z m -390.60699,-7.41821 c 0,-3.85 0.3375,-7.03037 0.75,-7.06749 3.64109,-0.32764 7.69035,-1.03953 8.06949,-1.41867 0.47269,-0.47269 -1.37027,-10.82915 -4.8072,-27.01384 -1.05117,-4.95 -3.32045,-16.425 -5.04286,-25.5 -1.7224,-9.075 -3.51427,-18.075 -3.98192,-20 -0.46766,-1.925 -1.30445,-5.975 -1.85954,-9 -2.40684,-13.11632 -1.7788,-12 -6.75124,-12 l -4.46435,0 0.29381,-7.25 0.29381,-7.25 16,0 16,0 0.29382,7.25 0.2938,7.25 -4.5438,0 c -5.43228,0 -5.38911,-0.23191 -2.55294,13.71194 1.09498,5.38343 3.60289,17.88806 5.57312,27.78806 4.61537,23.19122 5.2893,25.71405 6.74196,25.23836 0.65672,-0.21506 6.04227,-10.03166 11.9679,-21.81468 5.92563,-11.78303 11.10062,-21.53488 11.5,-21.67079 0.39939,-0.1359 5.66951,9.6516 11.71138,21.75 6.04188,12.09841 11.5056,21.99711 12.1416,21.99711 1.09793,0 2.01364,-2.42793 3.01722,-8 0.24765,-1.375 2.9085,-14.79827 5.913,-29.82949 3.0045,-15.03122 5.20672,-27.74372 4.89382,-28.25 -0.3129,-0.50628 -2.34235,-0.92051 -4.50989,-0.92051 l -3.94098,0 0,-7.5 0,-7.5 16.5,0 16.5,0 0,7.5 0,7.5 -4.5,0 c -2.47501,0 -4.52429,0.1125 -4.55395,0.25 -5.88578,27.27296 -18.44806,92.48921 -17.92853,93.07466 0.40249,0.45356 2.46365,0.92229 4.58037,1.04162 l 3.84857,0.21697 0.35481,7.20837 0.35481,7.20838 -16.62185,0 -16.62185,0 0.29381,-7.25 0.29381,-7.25 3,0.26297 c 6.51406,0.571 6.36018,-0.28743 -3.6547,-20.38765 -5.16768,-10.37171 -10.05942,-18.98187 -10.87054,-19.1337 -1.01138,-0.18931 -4.3812,5.51366 -10.72476,18.15021 -5.0875,10.13444 -9.25,18.91719 -9.25,19.51721 0,1.16517 0.7783,1.37863 5.5,1.50847 l 3,0.0825 0.29381,7.25 0.2938,7.24999 -16.5438,0 -16.54381,0 0,-7 z m 116.40829,5.62159 c -0.29589,-0.77106 -0.3963,-4.00208 -0.22313,-7.18004 l 0.31484,-5.7781 3.93493,-0.32193 c 2.16421,-0.17706 4.29482,-0.88884 4.73469,-1.58173 1.01169,-1.59363 1.06197,-89.84752 0.0521,-91.43529 -0.41121,-0.64653 -2.54182,-1.32153 -4.73469,-1.5 l -3.98703,-0.3245 0,-7 0,-7 39,0 39,0 0,11.5 0,11.5 -7,0 -7,0 -0.3075,-4.25 -0.3075,-4.25 -19.96364,0 -19.96364,0 0.27114,19.75 0.27114,19.75 10.5,0 10.5,0 0.3075,-4.25 0.3075,-4.25 6.9425,0 c 5.49098,0 6.94884,0.31362 6.9728,1.5 0.0167,0.825 0.0453,7.9125 0.0637,15.75 l 0.0333,14.25 -7.06365,0.29381 -7.06366,0.29381 0,-4.02476 c 0,-4.92106 -0.95033,-5.27618 -13,-4.85791 l -8.5,0.29505 -0.27114,19.75 c -0.23503,17.11985 -0.0686,19.7537 1.25,19.77778 0.83663,0.0153 8.49614,0.0278 17.02114,0.0278 8.525,0 16.85,-0.0125 18.5,-0.0278 2.8891,-0.0267 3,-0.19575 3,-4.57159 l 0,-4.54381 7.25,0.29381 7.25,0.29381 0,11.5 0,11.5 -38.77687,0.26177 c -32.5146,0.21949 -38.86375,0.0354 -39.31484,-1.14018 z m 88.79767,-5.85994 0.29404,-7.26165 3.81814,-0.15147 c 2.09998,-0.0833 3.99963,-0.33297 4.22146,-0.55479 0.29233,-0.29233 0.72799,-82.63958 0.48931,-92.48624 -0.0165,-0.68192 -1.84861,-1.32416 -4.27891,-1.5 l -4.25,-0.3075 0,-7 0,-7 39,0 39,0 0,11.5 0,11.5 -7.25,0.29381 -7.25,0.29381 0,-4.56495 0,-4.56495 -19.75,0.27114 -19.75,0.27114 0,19.5 0,19.5 10.5,0 10.5,0 0.3075,-4.25 0.3075,-4.25 6.9425,0 6.9425,0 0,16 0,16 -7,0 -7,0 0,-3.89301 c 0,-2.62743 -0.51423,-4.09034 -1.58179,-4.5 -2.05454,-0.7884 -16.78188,-0.7884 -18.83642,0 -1.36714,0.52462 -1.58179,3.2386 -1.58179,20 0,12.24534 0.36857,19.40222 1,19.41801 0.55,0.0138 8.875,0.025 18.5,0.025 9.625,0 18.175,-0.0113 19,-0.025 1.10959,-0.0185 1.5,-1.20765 1.5,-4.56881 l 0,-4.54381 7.25,0.29381 7.25,0.29381 0,11.5 0,11.5 -39.29404,0.26165 -39.29405,0.26164 0.29405,-7.26164 z m 89.00023,-0.0116 c 0.28184,-6.95464 0.39566,-7.25442 2.79381,-7.35843 6.6078,-0.2866 6,4.50838 6,-47.33407 l 0,-46.9425 -4.25,-0.3075 -4.25,-0.3075 -0.29381,-7.25 -0.29381,-7.25 16.54381,0 16.54381,0 0,7.5 0,7.5 -4.5,0 -4.5,0 0,20 c 0,13.7589 0.3399,20 1.08923,20 1.9107,0 39.21777,-37.69424 38.48329,-38.88266 -0.37981,-0.61459 -2.464,-1.11739 -4.63154,-1.11739 l -3.94098,0 0,-7.52114 0,-7.52114 19.75,0.27114 19.75,0.27114 0,7 0,7 -4.05718,0.29808 c -3.81812,0.28051 -5.26175,1.50372 -24.5,20.75918 -20.23302,20.25112 -20.42743,20.48649 -18.94282,22.93441 0.825,1.36031 9.93103,13.22911 20.23563,26.37511 l 18.73563,23.90182 4.55851,0.68359 4.55851,0.68359 -0.29414,6.68211 -0.29414,6.68211 -18.25,0.27256 -18.25,0.27256 0,-7.02256 c 0,-4.91463 0.37521,-7.04324 1.25,-7.09146 3.25028,-0.17916 7.02598,-0.87374 7.53917,-1.38693 0.73661,-0.7366 -1.38602,-3.60813 -17.58846,-23.79417 -7.39448,-9.2125 -13.96907,-16.75 -14.61019,-16.75 -0.64113,0 -3.28628,2.15296 -5.87811,4.78435 l -4.7124,4.78435 0,15.71565 c 0,11.83186 0.30891,15.74994 1.25,15.85439 0.6875,0.0763 2.71249,0.0612 4.5,-0.0335 l 3.25,-0.17223 0,7.53349 0,7.53349 -16.54381,0 -16.54381,0 0.29381,-7.25 z m -152.20619,-27.39858 0,-18.64853 8.62695,0.60881 c 4.74482,0.33485 8.83443,0.8163 9.08803,1.0699 0.2536,0.2536 0.67805,7.80305 0.94323,16.77656 0.26517,8.97351 0.66988,16.50322 0.89936,16.73269 0.22947,0.22948 3.75397,0.3198 7.83222,0.20072 4.39022,-0.12819 7.68284,0.21689 8.07162,0.84593 0.45422,0.73495 -4.91008,1.06245 -17.40239,1.06245 l -18.05902,0 0,-18.64853 z m 89,0.14853 0,-18.5 3.75,0.009 c 2.0625,0.005 6.0397,0.28384 8.83822,0.62013 l 5.08822,0.61144 0.2106,16.59536 c 0.11583,9.12745 0.38634,16.7711 0.60114,16.98589 0.21479,0.21479 4.01473,0.38079 8.44431,0.36889 4.42958,-0.0119 8.30842,0.39039 8.61966,0.89398 0.33451,0.54094 -6.81795,0.91531 -17.49313,0.91531 l -18.05902,0 0,-18.5 z m -51.75,-9.1576 c -0.93632,-0.38132 -1.25,-5.13057 -1.25,-18.92573 l 0,-18.41667 4.89301,0 c 3.24475,0 5.07193,0.46625 5.42414,1.3841 0.3287,0.85658 1.71446,1.2834 3.63597,1.11989 2.13465,-0.18165 3.4,0.28729 4.0494,1.50071 0.5195,0.97071 0.84396,8.88154 0.72102,17.57964 l -0.22354,15.81471 -8,0.22621 c -4.4,0.12441 -8.5625,-0.003 -9.25,-0.28286 z m 87.75,-18.49499 0,-18.84741 4.53138,0 c 3.10561,0 4.71252,0.47201 5.10705,1.50015 0.36387,0.94824 1.45441,1.34079 2.96421,1.06702 4.80982,-0.87219 5.39736,1.17507 5.39736,18.80685 l 0,16.23117 -9,0.0448 -9,0.0448 0,-18.84742 z m -247.43055,16.15259 c -2.34711,-9.67916 -12.17229,-61.06383 -11.7556,-61.48052 0.28571,-0.28571 2.22696,-0.51948 4.31388,-0.51948 l 3.7944,0 0.28893,-8.75 0.28894,-8.75 5.75,-0.2999 c 3.5393,-0.1846 5.75,0.10375 5.75,0.75 0,0.57744 1.8,1.0499 4,1.0499 l 4,0 0,8.5 c 0,8.99061 0.0673,8.88121 -5.25,8.5306 -3.44513,-0.22717 -3.50988,1.08142 -0.69225,13.99135 1.13177,5.18557 1.84874,10.22762 1.59326,11.20456 -0.25547,0.97694 -0.11267,1.55881 0.31734,1.29305 0.43002,-0.26577 1.0761,1.35697 1.43574,3.60607 0.56644,3.5423 -0.0255,5.5797 -4.42513,15.23183 -2.79347,6.1284 -5.917,12.71754 -6.94116,14.64254 -1.84751,3.47253 -1.86689,3.48038 -2.46835,1 z m 9.09283,-21.25 c -0.27742,-0.6875 -0.50439,-0.125 -0.50439,1.25 0,1.375 0.22697,1.9375 0.50439,1.25 0.27741,-0.6875 0.27741,-1.8125 0,-2.5 z m 29.52332,5.51628 -9.17984,-18.23372 2.70544,-5.51628 c 1.48799,-3.03395 2.97202,-5.51628 3.29785,-5.51628 0.32583,0 1.65404,2.1375 2.95157,4.75 l 2.35916,4.75 1.59011,-3.7449 c 1.55115,-3.65316 3.09011,-4.93791 3.09011,-2.57969 0,0.64647 1.65021,4.51518 3.66714,8.59712 l 3.66714,7.42172 -1.1851,8.65288 c -0.6518,4.75908 -1.76979,11.12787 -2.48442,14.15287 l -1.29932,5.5 -9.17984,-18.23372 z m 83.8144,-27.76628 0,-18.5 4.25,0.10853 c 4.66927,0.11924 16.84911,1.5107 15.25,1.7422 -0.59844,0.0866 -0.86061,3.05701 -0.65287,7.39702 0.19092,3.98874 0.0351,11.86475 -0.34623,17.50225 l -0.69336,10.25 -8.90377,0 -8.90377,0 0,-18.5 z m 89,-0.1446 0,-18.64461 6.75,0.6375 c 3.7125,0.35062 8.1,0.67622 9.75,0.72355 1.65,0.0473 2.55,0.27564 2,0.50736 -0.62224,0.26215 -0.93349,7.03196 -0.82393,17.92105 l 0.17606,17.49975 -8.92606,0 -8.92607,0 0,-18.6446 z m 88.22693,-0.1054 0.27307,-17.75 4.5,-0.5 4.5,-0.5 0.0935,-8.5 0.0935,-8.5 4.65652,-0.30479 c 3.47895,-0.22771 4.65652,0.0508 4.65652,1.10143 0,0.97634 1.14639,1.37522 3.75,1.30479 l 3.75,-0.10143 0.29044,8.25 0.29044,8.25 -4.54044,0 -4.54044,0 0,9.11995 0,9.11996 -4.25,4.14487 c -2.3375,2.27967 -5.88613,6.05069 -7.88583,8.38004 -1.99971,2.32935 -4.1476,4.23518 -4.77308,4.23518 -0.8172,0 -1.06039,-4.99523 -0.86416,-17.75 z m -121.9094,-8.75974 c -1.07836,-0.78854 -1.31916,-3.85558 -1.0992,-14 l 0.28167,-12.99026 3.5,0 3.5,0 0.29397,8.46816 c 0.31305,9.01784 0.84304,9.99084 5.45603,10.01653 2.59032,0.0144 2.75,0.2766 2.75,4.51531 0,4.96839 0.9436,4.48078 -9.4008,4.85782 -2.14544,0.0782 -4.52219,-0.3122 -5.28167,-0.86756 z m 88.13367,0.62761 c -0.24816,-0.24816 -0.4512,-6.70337 -0.4512,-14.3449 l 0,-13.8937 3.75,0.31036 3.75,0.31037 0.5,9 0.5,9 3.75,0.31037 3.75,0.31036 -3.1e-4,4.68964 -3.1e-4,4.68963 -7.54849,0.0345 c -4.15167,0.019 -7.75153,-0.16851 -7.99969,-0.41666 z m -116.7012,-8.78015 c 0.6875,-0.27741 1.8125,-0.27741 2.5,0 0.6875,0.27741 0.125,0.50439 -1.25,0.50439 -1.375,0 -1.9375,-0.22698 -1.25,-0.50439 z m -157,-25.06993 c 2.3375,-0.21053 6.1625,-0.21053 8.5,0 2.3375,0.21054 0.425,0.3828 -4.25,0.3828 -4.675,0 -6.5875,-0.17226 -4.25,-0.3828 z m 19.5,-0.07 -5.25,-0.30231 0,-10.94774 0,-10.94774 -5.5,0 -5.5,0 0,-22 0,-22 5.25,-0.0407 c 2.8875,-0.0224 13.54835,-0.004 23.69079,0.0402 l 18.44079,0.081 9.30921,-9.27051 9.30921,-9.2705 0,-25.54321 0,-25.54321 -7.94983,-7.90321 c -4.37241,-4.34676 -7.75298,-8.22172 -7.51237,-8.61103 0.61345,-0.99258 8.10062,-0.38332 13.4622,1.09548 7.0461,1.94342 9.62978,4.97673 10.45549,12.27506 0.38377,3.39201 1.22577,6.50315 1.87113,6.91364 0.64536,0.4105 2.86088,0.75325 4.92338,0.76167 l 3.75,0.0153 0,24.54399 0,24.54399 -8.22837,8.52893 c -6.52617,6.76456 -8.69829,8.4391 -10.5,8.09468 -1.24939,-0.23883 -2.27163,-0.14895 -2.27163,0.19975 0,0.34869 -9.9,0.46754 -22,0.26411 l -22,-0.36987 0,20.92823 0,20.92823 2.59009,1.38617 c 1.42455,0.7624 3.78704,1.40094 5.25,1.41898 l 2.65991,0.0328 0,10.35128 0,10.35128 -4.5,0.14872 c -2.475,0.0818 -6.8625,0.0127 -9.75,-0.15354 z M 258.8595,209.9601 c 0.34149,-0.88992 0.17385,-1.29132 -0.39301,-0.94098 -0.5437,0.33602 -0.98855,1.0344 -0.98855,1.55194 0,1.43843 0.71677,1.12146 1.38156,-0.61096 z m 20.88219,77.83436 c 1.52006,-0.22986 3.77006,-0.22371 5,0.0136 1.22994,0.23736 -0.0137,0.42542 -2.76375,0.41792 -2.75,-0.008 -3.75631,-0.20172 -2.23625,-0.43157 z m 18.73625,-11.02526 0,-11.25721 -5.5,0 -5.5,0 0,-55 0,-55 5.46502,0 5.46501,0 0.28499,-10.25 0.28498,-10.25 4,0 4,0 0.2888,9.96497 c 0.18624,6.42603 0.71895,10.23832 1.5,10.73468 0.66616,0.42335 3.0112,0.84996 5.2112,0.94803 3.51857,0.15685 3.33803,0.24896 -1.5,0.76532 l -5.5,0.587 0.0405,64.66597 0.0405,64.66596 -4.29053,0.34124 -4.29052,0.34124 0,-11.2572 z m 11.75,11.08051 c 0.6875,-0.27741 1.8125,-0.27741 2.5,0 0.6875,0.27741 0.125,0.50439 -1.25,0.50439 -1.375,0 -1.9375,-0.22698 -1.25,-0.50439 z m 25.51375,-0.0553 c 1.52006,-0.22986 3.77006,-0.22371 5,0.0136 1.22994,0.23736 -0.0137,0.42542 -2.76375,0.41792 -2.75,-0.008 -3.75631,-0.20172 -2.23625,-0.43157 z m 11.54875,0.0345 c 0.72187,-0.28887 1.58437,-0.25335 1.91667,0.0789 0.33229,0.33229 -0.25834,0.56864 -1.3125,0.52522 -1.16495,-0.048 -1.4019,-0.28494 -0.60417,-0.60416 z m 3.67914,-0.15858 c -0.2704,-0.2704 -0.49103,-5.47914 -0.49028,-11.57498 l 10e-4,-11.08333 -5.50137,0.34255 -5.50099,0.34252 0,-41.59255 c 0,-22.8759 0.22448,-41.59255 0.49884,-41.59255 0.27436,0 4.54936,8.29943 9.5,18.44318 l 9.00116,18.44317 0,22.05683 c 0,25.01453 0.18488,25.65513 7.38569,25.59088 l 3.81756,-0.0341 -0.38479,9.69983 c -0.21163,5.3349 -0.61233,9.92737 -0.89044,10.20548 -0.67966,0.67966 -16.81299,1.37639 -17.43638,0.753 z m 64.9135,-0.65834 c -0.18433,-0.55 -0.2384,-30.25 -0.12014,-66 l 0.215,-65 5.21558,-0.30107 5.21558,-0.30106 0.28442,-10.19894 0.28442,-10.19893 4.25,-0.3075 4.25,-0.3075 0,9.93506 c 0,11.59852 0.71423,12.80107 7.00542,11.79506 2.44836,-0.3915 3.99458,-0.2471 3.99458,0.37306 0,0.55845 -2.43796,1.01182 -5.44098,1.01182 -2.99254,0 -5.68549,0.39562 -5.98434,0.87916 -0.29884,0.48353 -0.56738,29.70203 -0.59676,64.93 l -0.0534,64.05084 -9.0921,0.32 c -5.4632,0.19228 -9.22588,-0.0791 -9.42726,-0.68 z m 11.27797,-128.6875 c -0.31922,-0.79773 -0.55618,-0.56078 -0.60416,0.60417 -0.0434,1.05416 0.19293,1.64479 0.52522,1.3125 0.33229,-0.3323 0.36781,-1.1948 0.0789,-1.91667 z m 38.06689,129.45529 c 2.3375,-0.21053 6.1625,-0.21053 8.5,0 2.3375,0.21054 0.425,0.3828 -4.25,0.3828 -4.675,0 -6.5875,-0.17226 -4.25,-0.3828 z m 14.24767,-11.35006 0.002,-11.58228 -5.5,0.45611 -5.5,0.4561 0,-18.17145 0,-18.17145 5.04291,-5.0429 c 2.77359,-2.7736 5.62771,-4.8185 6.34248,-4.54421 0.71477,0.27428 2.03715,2.05302 2.93864,3.95276 0.90148,1.89974 2.32791,4.02577 3.16985,4.72451 0.9883,0.82022 1.2008,1.66804 0.59963,2.39241 -0.51213,0.61708 -0.92495,7.73121 -0.91738,15.80918 0.008,8.07796 -0.3261,15.27587 -0.74151,15.99535 -0.4154,0.71948 -0.39838,0.9859 0.0378,0.59205 0.43619,-0.39385 1.67107,0.40009 2.74416,1.76432 1.54606,1.96549 2.66025,2.40225 5.36725,2.10394 l 3.4165,-0.37646 0,10.28867 0,10.28867 -8.50233,0.32348 -8.50234,0.32347 0.002,-11.58227 z m 49.75233,11.35006 c 2.3375,-0.21053 6.1625,-0.21053 8.5,0 2.3375,0.21054 0.425,0.3828 -4.25,0.3828 -4.675,0 -6.5875,-0.17226 -4.25,-0.3828 z m 24.25,-11.60006 0,-11.33228 -5.25,0.42361 -5.25,0.4236 -6.96698,-8.84133 c -3.83184,-4.86273 -11.94988,-15.14133 -18.04009,-22.84133 -6.0902,-7.7 -13.87394,-17.64806 -17.29719,-22.10681 l -6.22409,-8.1068 24.07088,-24.1432 24.07087,-24.14319 5.40832,0 5.40831,0 0.28499,-10.23125 0.28498,-10.23126 3.77411,-0.28771 c 2.64919,-0.20195 3.94784,0.16504 4.35699,1.23126 0.38323,0.99868 1.91632,1.51896 4.47589,1.51896 l 3.89301,0 0,10 0,10 -5.17093,0 -5.17094,0 -23.82906,23.71165 c -13.10599,13.04141 -23.82907,24.40851 -23.82907,25.26022 0,0.85171 1.14822,2.78687 2.5516,4.30035 1.40338,1.51348 2.23385,3.26591 1.84549,3.89429 -0.42073,0.68075 -0.26424,0.86942 0.38719,0.46681 1.11574,-0.68956 13.18421,13.92246 31.51846,38.16131 5.67554,7.50337 9.23957,11.16066 10.89757,11.18273 0.93517,0.0125 2.06017,0.58514 2.5,1.27264 0.43983,0.6875 1.36219,1.295 2.04969,1.35 0.6875,0.055 2.375,0.1675 3.75,0.25 2.49,0.1494 2.5,0.19 2.5,10.15 l 0,10 -8.5,0 -8.5,0 0,-11.33227 z m -21.42128,-41.44154 c -1.72194,-1.64929 -1.74325,-1.62798 -0.47833,0.47833 0.72815,1.21249 1.53915,1.98927 1.80223,1.72619 0.26308,-0.26308 -0.33267,-1.25511 -1.3239,-2.20452 z m -374.36706,49.98275 -8.28833,-0.29106 0.28833,-8.70894 0.28834,-8.70894 5.25,-0.30226 5.25,-0.30226 0,-55.84075 c 0,-62.19844 0.63845,-57.05473 -7.08179,-57.05473 l -3.91821,0 0,-9 0,-9 39.12218,0 39.12219,0 8.37782,8.17738 8.37781,8.17738 0,25.5947 0,25.5947 -8.27089,8.22792 -8.27089,8.22792 -24.22911,0 c -13.32601,0 -24.24489,0.3375 -24.26417,0.75 -0.0813,1.73941 -0.12857,43.85916 -0.0505,45 0.0562,0.82193 1.79784,1.25 5.08555,1.25 l 5,0 0,8.9412 0,8.9412 -11.75,0.3088 c -6.4625,0.16984 -15.47975,0.17782 -20.03834,0.0177 z M 224.89615,200.905 c 1.37835,-0.52892 1.58179,-3.53763 1.58179,-23.39301 0,-19.85538 -0.20344,-22.86409 -1.58179,-23.39301 -2.44543,-0.9384 -42.74425,-0.68661 -44.26404,0.27656 -1.06211,0.67312 -1.34037,5.46579 -1.31996,22.73469 0.0142,12.03497 0.0573,22.44426 0.0958,23.13176 0.0537,0.95985 5.15758,1.25 21.98818,1.25 12.05501,0 22.63001,-0.27314 23.49999,-0.60699 z m -44.41821,-23.31169 0,-22.08132 22,0 c 13.51929,0 22,0.37325 22,0.96826 0,0.55344 -5.03405,1.08897 -11.75,1.25 l -11.75,0.28174 -0.5,20.54865 -0.5,20.54865 -9.75,0.28267 -9.75,0.28267 0,-22.08132 z m 90.75,107.14195 -14.75,-0.27674 0,-8.97326 0,-8.97327 5.5,0 5.5,0 0,-55.89301 c 0,-62.28175 0.64525,-57.10699 -7.12072,-57.10699 l -3.95715,0 0.28894,-8.75 0.28893,-8.75 19.75,-0.27114 19.75,-0.27114 0,9.36016 0,9.36017 -3.75,-0.17845 c -7.87869,-0.37492 -7.29807,-5.07973 -7.00845,56.79011 l 0.25845,55.21029 5.25,0.30226 5.25,0.30226 0,8.92869 c 0,9.85625 -0.19452,10.10661 -7.5,9.65305 -1.65,-0.10244 -9.6375,-0.31079 -17.75,-0.46299 z m 37.79905,-0.008 c -0.30198,-0.30153 -0.54905,-4.5236 -0.54905,-9.38194 l 0,-8.83333 5.5,0 5.5,0 0,-55.98095 0,-55.98095 -2.5128,-0.63067 c -1.38204,-0.34687 -3.87293,-0.43105 -5.5353,-0.18706 l -3.02251,0.44361 0.28531,-9.08199 0.2853,-9.08199 14.88358,0 14.88359,0 16.15299,31 c 8.88414,17.05 19.9326,38.2 24.55213,47 4.61952,8.8 9.42383,18.1006 10.67623,20.668 2.5941,5.31786 4.18942,6.69712 5.44797,4.71012 0.48009,-0.75797 0.87978,-19.92479 0.8882,-42.59294 0.0152,-40.93891 0.001,-41.22239 -2.09854,-42.34611 -1.16262,-0.62221 -3.63762,-0.95341 -5.5,-0.73599 l -3.38615,0.39532 0,-9.2992 0,-9.2992 20,0 20,0 0,9.56739 c 0,9.04105 -0.10762,9.53323 -1.95629,8.94648 -1.07595,-0.34149 -3.55095,-0.32174 -5.5,0.0439 l -3.54371,0.6648 0,64.88871 0,64.88871 -2.25,0.0554 c -7.63124,0.18802 -16.94586,0.0699 -17.16392,-0.21767 -0.14087,-0.18577 -4.21634,-7.98777 -9.0566,-17.33777 -4.84026,-9.35 -10.92823,-21.05 -13.52882,-26 -2.60059,-4.95 -8.22279,-15.75 -12.49376,-24 -13.19429,-25.48667 -18.63526,-35.4613 -19.70363,-36.12159 -0.56478,-0.34905 -1.42249,-0.0145 -1.90601,0.74347 -0.48352,0.75797 -0.77071,20.05312 -0.6382,42.87812 l 0.24094,41.5 5.18031,0.29984 5.18032,0.29985 0.31968,8.95245 0.31969,8.95245 -11.5,0.10263 c -6.325,0.0564 -15.19043,0.22748 -19.70095,0.38008 -4.51052,0.15261 -8.44802,0.0304 -8.75,-0.27158 z m 137.20095,0.0882 -8.75,-0.38175 0,-8.96106 0,-8.96107 5.5,0 5.5,0 0,-55.89301 c 0,-62.25631 0.63861,-57.10658 -7.08179,-57.10658 l -3.91821,0 0,-9 0,-9 20,0 20,0 0,9 0,9 -3.91821,0 c -7.47954,0 -7.08179,-1.34798 -7.08179,24 0,18.1897 0.27191,22.89036 1.34799,23.30329 1.49044,0.57194 45.65201,-42.99992 45.65201,-45.04239 0,-1.51037 -4.19868,-2.64724 -7.46835,-2.0222 -2.91639,0.5575 -3.17829,-0.50735 -2.70265,-10.9887 l 0.32901,-7.25 23.92099,0 23.921,0 0,9.25721 0,9.2572 -4.43362,-0.35262 -4.43361,-0.35262 -24.56639,24.49353 c -13.51151,13.47143 -24.56638,25.15701 -24.56638,25.96795 0,0.81094 2.1375,4.1873 4.75,7.50303 2.6125,3.31573 8.22823,10.46059 12.47939,15.87746 4.25117,5.41687 12.96016,16.48636 19.35332,24.59886 l 11.62392,14.75 4.93421,0 4.93421,0 -0.28752,9.12748 -0.28753,9.12748 -16.5,-0.0883 c -9.075,-0.0486 -19.11706,-0.10594 -22.31569,-0.12748 l -5.81569,-0.0392 0.31569,-8.75 0.31569,-8.75 5.25,-0.30226 c 3.52301,-0.20283 5.25,-0.73552 5.25,-1.61937 0,-1.06317 -6.82699,-10.60319 -9.00127,-12.57837 -0.30273,-0.275 -2.10215,-2.525 -3.99873,-5 -1.89658,-2.475 -3.68877,-4.725 -3.98266,-5 -0.29388,-0.275 -4.92937,-6.0125 -10.30108,-12.75 -5.37172,-6.7375 -10.25697,-12.25 -10.85612,-12.25 -0.59915,0 -3.73779,2.56178 -6.97475,5.69283 l -5.88538,5.69284 0,18.80716 0,18.80717 5.5,0 5.5,0 0,9 0,9 -6.86043,0 c -3.77323,0 -8.83573,0.15427 -11.25,0.34281 -2.41426,0.18855 -8.32707,0.17103 -13.13957,-0.0389 z m -53.98092,-49.55347 c -0.92716,-1.7875 -5.68324,-10.9 -10.56907,-20.25 -4.88583,-9.35 -12.74009,-24.425 -17.45391,-33.5 -4.71383,-9.075 -11.98508,-23.00984 -16.15835,-30.96631 -4.17326,-7.95647 -7.58775,-14.81897 -7.58775,-15.25 0,-1.44011 8.03772,-0.80508 10.53695,0.83248 1.35662,0.88889 3.34925,1.38535 4.42805,1.10323 2.46907,-0.64567 2.92259,-0.0763 8.62516,10.82755 17.94426,34.31125 23.45754,45.56685 22.82284,46.59381 -0.44801,0.72491 -0.28786,0.89993 0.42201,0.46121 0.72726,-0.44947 2.0752,1.32869 3.70007,4.88102 2.30195,5.03257 2.61423,7.22479 3.14139,22.05254 0.32195,9.05546 0.40378,16.46447 0.18185,16.46447 -0.22193,0 -1.1621,-1.4625 -2.08925,-3.25 z m 76.2525,-57.44774 -0.0216,-22.19774 5.25,-0.30226 5.25,-0.30226 0.28498,-10.25 0.28499,-10.25 3.84257,0 c 2.19567,0 4.37612,0.64289 5.08746,1.5 0.68469,0.825 2.78053,1.5 4.65743,1.5 l 3.41254,0 -0.28499,10.25 -0.28498,10.25 -4.65595,-0.30669 c -2.80401,-0.18469 -4.94525,0.16142 -5.38328,0.87016 -0.67224,1.08769 -0.71227,10.65172 -0.0793,18.9334 0.21821,2.85502 -0.41954,4.23164 -3.4746,7.5 -2.05804,2.20172 -6.01932,6.47813 -8.80284,9.50313 l -5.06095,5.5 -0.0216,-22.19774 z m -76.02157,-21.30226 c 0,-0.55 0.45,-1 1,-1 0.55,0 1,0.45 1,1 0,0.55 -0.45,1 -1,1 -0.55,0 -1,-0.45 -1,-1 z"
         id="path3816"
         inkscape:connector-curvature="0" />
      <path
         style="fill:#ea73a0"
         d="m 202.15079,419.68867 c -1.40587,-0.27173 -1.67285,-1.66819 -1.67285,-8.75 l 0,-8.42668 -4,0 c -2.19999,0 -4,-0.2215 -4,-0.49221 0,-1.10771 16.5193,-33.50779 17.08407,-33.50779 0.78373,0 4.24926,7.64524 4.24926,9.37422 0,0.71973 -2.55,6.29382 -5.66667,12.38686 -3.11666,6.09304 -5.66666,11.33941 -5.66666,11.65859 0,0.31918 2.025,0.58033 4.5,0.58033 l 4.5,0 0,8.5 c 0,4.675 -0.3375,8.53463 -0.75,8.57697 -3.14374,0.32261 -7.18106,0.36954 -8.57716,0.0997 z m 160.76262,-0.58696 c -0.20832,-0.59934 -0.50402,-6.60307 -0.65712,-13.34161 l -0.27835,-12.25189 4.75,0.002 4.75,0.002 0,4.39301 c 0,2.92726 -0.48673,4.57979 -1.4588,4.9528 -1.07921,0.41414 -1.53456,2.69783 -1.75,8.77669 -0.27684,7.81174 -0.40672,8.22527 -2.63409,8.38692 -1.28859,0.0935 -2.51333,-0.32035 -2.72164,-0.9197 z m 88.56453,-12.3067 0,-13.28302 4,0 4,0 0,4.5 c 0,2.475 -0.43248,4.5 -0.96107,4.5 -0.52858,0 -1.09108,3.89926 -1.25,8.66501 l -0.28893,8.66502 -2.75,0.11801 -2.75,0.118 0,-13.28302 z m 43.46943,12.85308 c -0.25818,-0.25819 -0.46943,-4.21943 -0.46943,-8.80277 l 0,-8.33333 -4.5,0 -4.5,0 0,-14.21215 0,-14.21215 4.19083,-4.27014 c 3.88755,-3.96113 4.31808,-4.15498 5.94928,-2.67876 1.67482,1.51569 1.66433,1.71869 -0.22044,4.26798 -1.78605,2.41576 -1.95165,4.0375 -1.69928,16.64091 l 0.27961,13.96431 4.25,0.3075 4.25,0.3075 0,8.33309 0,8.3331 -3.53057,0.41217 c -1.94181,0.2267 -3.74181,0.20093 -4,-0.0573 z m 64.78057,0.0505 -3.25,-0.31336 0,-8.497 0,-8.49701 3.75,0.31036 3.75,0.31037 0.29401,7.26014 c 0.16171,3.99308 -0.0633,7.81808 -0.5,8.5 -0.4437,0.69285 -2.22787,1.10161 -4.04401,0.9265 z m -304.45956,-8.4366 -0.29044,-8.25 -4.25,-0.3075 c -2.48833,-0.18003 -4.23005,-0.8018 -4.20187,-1.5 0.0265,-0.65587 3.97362,-20.7675 8.77143,-44.6925 l 8.72328,-43.5 4.72858,-0.30479 4.72858,-0.30479 0,-8.94521 0,-8.94521 3,0 3,0 0,8.5 c 0,8.33306 -0.0477,8.5 -2.42828,8.5 -2.12448,0 -2.56445,0.65682 -3.51666,5.25 -2.35504,11.35987 -5.27051,25.92809 -8.05503,40.25 -1.60401,8.25 -4.28519,21.70771 -5.95819,29.90602 -1.67302,8.19831 -3.04183,15.06081 -3.04183,15.25 0,0.18919 2.02499,0.34398 4.5,0.34398 l 4.5,0 0,8.5 0,8.5 -4.95956,0 -4.95956,0 -0.29044,-8.25 z m 52.20956,-26.23095 0,-17.48095 2.5,-0.62746 c 1.375,-0.3451 3.625,-0.3451 5,0 l 2.5,0.62746 0,17.48095 0,17.48095 -5,0 -5,0 0,-17.48095 z m 89,-0.019 0,-17.5 4.5,0 4.5,0 0,17.5 0,17.5 -4.5,0 -4.5,0 0,-17.5 z m 131.92053,-6.07175 c -10.13129,-12.96446 -18.9728,-24.3414 -19.64781,-25.28208 -1.07257,-1.49474 1.27008,-4.20533 18.5849,-21.50392 18.50688,-18.48953 20.02717,-19.77214 23.07547,-19.46792 3.23397,0.32274 3.09113,0.49881 -15.8932,19.5893 l -19.1565,19.26362 13.75407,17.73638 c 7.56475,9.755 16.36599,20.96349 19.55831,24.90776 3.19232,3.94426 5.80424,7.43176 5.80424,7.75 0,0.31823 -1.72326,0.57861 -3.82947,0.57861 -3.81002,0 -3.92308,-0.11978 -22.25,-23.57175 z m -91.67053,-4.21766 c -1.98333,-0.20587 -3.26146,-0.89728 -3.27941,-1.774 -0.0162,-0.79015 -0.0294,-7.96164 -0.0294,-15.93664 0,-7.975 0.0132,-15.175 0.0294,-16 0.0211,-1.07843 1.15359,-1.5 4.02941,-1.5 l 4,0 0,17.44098 c 0,9.59254 -0.3375,17.59084 -0.75,17.774 -0.4125,0.18316 -2.2125,0.18121 -4,-0.004 z M 180.07802,345.89264 c -3.15991,-15.88436 -5.9864,-29.89315 -6.28109,-31.13065 -0.49659,-2.08535 -0.19857,-2.25 4.07261,-2.25 l 4.6084,0 0,-9 0,-9 5.5,0 5.5,0 0,8.5 0,8.5 -4.57946,0 c -4.45838,0 -4.56536,0.0727 -4.04618,2.75 0.2933,1.5125 2.42063,12.2 4.7274,23.75 l 4.19413,21 -3.97526,7.88065 -3.97526,7.88065 -5.7453,-28.88065 z m 43.9765,11.24434 c -9.53238,-19.08658 -9.54502,-19.1535 -4.79198,-25.36776 1.69752,-2.21938 1.79103,-2.09264 8.96541,12.15084 3.9875,7.91649 7.22111,15.45074 7.1858,16.74278 -0.0353,1.29203 -0.62298,4.99703 -1.30592,8.23333 l -1.24171,5.88418 -8.8116,-17.64337 z m 120.42343,-0.12499 0,-17.5 4.5,0 4.5,0 0,17.5 0,17.5 -4.5,0 -4.5,0 0,-17.5 z m -37,-26.5 0,-18 5,0 5,0 0,18 0,18 -5,0 -5,0 0,-18 z m 89,0 0,-18 4.5,0 4.5,0 0,18 0,18 -4.5,0 -4.5,0 0,-18 z m 89,-0.29705 0,-17.70295 4,0 4,0 0,13.79705 0,13.79705 -4,3.9059 -4,3.9059 0,-17.70295 z m -123,-22.70295 0,-13 3,0 3,0 0,9 c 0,7.33333 0.27778,9 1.5,9 1.08333,0 1.5,1.11111 1.5,4 l 0,4 -4.5,0 -4.5,0 0,-13 z m 89,0 0,-13 3,0 3,0 0,9 c 0,5.33333 0.40741,9 1,9 0.55,0 1,1.8 1,4 0,4 0,4 -4,4 l -4,0 0,-13 z m 43,-4.5 0,-8.5 4,0 4,0 0,8.5 0,8.5 -4,0 -4,0 0,-8.5 z m 61.99999,0 0,-8.62073 3.75,0.31036 3.75,0.31037 0,8 0,8 -3.75,0.31037 -3.75,0.31036 0,-8.62073 z m -364,-27 0,-10.5 4.93138,0 4.93138,0 0.31862,9.52231 c 0.17524,5.23728 0.16862,9.96228 -0.0147,10.5 -0.18334,0.53773 -2.54584,0.97769 -5.25001,0.97769 l -4.91666,0 0,-10.5 z m 106.5078,9.51262 c -0.6607,-1.06904 -0.43129,-16.71408 0.27513,-18.76262 0.23707,-0.6875 1.9579,-1.25 3.82406,-1.25 l 3.39301,0 0,10.5 0,10.5 -3.44098,0 c -1.89254,0 -3.71559,-0.44432 -4.05122,-0.98738 z m 52.3922,-2.51262 c -0.055,-1.925 -0.1,-5.975 -0.1,-9 0,-8.95412 -0.2511,-8.5 4.7,-8.5 l 4.5,0 0,10.5 0,10.5 -4.5,0 c -4.45714,0 -4.50095,-0.0333 -4.6,-3.5 z m 65.1,-61.39931 0,-64.8993 4.5,-0.3579 4.5,-0.3579 0,65.2572 0,65.25721 -4.5,0 -4.5,0 0,-64.89931 z m 63,54.34181 0,-10.5575 4.25,0.3075 4.25,0.3075 0.28498,10.25 0.28499,10.25 -4.53499,0 -4.53498,0 0,-10.5575 z m 74.83593,10.0601 c -0.4058,-0.4058 -0.37121,-5.37264 0.13754,-19.7526 0.0146,-0.4125 1.60153,-0.75 3.52653,-0.75 l 3.5,0 0,10.5 0,10.5 -3.33333,0 c -1.83334,0 -3.55717,-0.22383 -3.83074,-0.4974 z m -372.83593,-43.0026 0,-21.5 5.37594,0 5.37594,0 0.17788,21.5 0.17788,21.5 -5.55382,0 -5.55382,0 0,-21.5 z m 106.74321,-30.74984 c 0.13376,-28.73759 0.24627,-53.01414 0.25,-53.9479 0.005,-1.34194 1.10704,-1.76109 5.2568,-2 l 5.25,-0.30226 -0.26288,-8 c -0.37057,-11.27712 0.042,-12.5 4.21758,-12.5 l 3.41661,0 0.31435,10.45755 0.31434,10.45755 -4.3032,0.29245 -4.30321,0.29245 0.0495,53.75 0.0495,53.75 -5.24629,1.6e-4 -5.24629,1.7e-4 0.24321,-52.25017 z m 52.2568,12.74984 c 0,-21.725 0.17786,-39.5 0.39524,-39.5 0.21738,0 2.24238,3.6142 4.5,8.03156 l 4.10476,8.03155 0,31.46845 0,31.46844 -4.5,0 -4.5,0 0,-39.5 z m 128,22.5861 0,-16.9139 4.82551,-5.0861 c 5.28699,-5.57249 5.65648,-5.74696 7.74592,-3.65753 1.97852,1.97853 1.80774,2.86659 -1.07143,5.57143 -2.4801,2.32993 -2.5,2.48655 -2.5,19.67431 l 0,17.32569 -4.5,0 -4.5,0 0,-16.9139 z m 64.33947,4.3225 c -5.41171,-6.92527 -12.31544,-15.81277 -15.34162,-19.75 -3.02618,-3.93723 -8.89943,-11.4336 -13.05168,-16.6586 -4.15224,-5.225 -7.85051,-9.99807 -8.21838,-10.60682 -0.38463,-0.6365 9.33415,-11.15363 22.87124,-24.75 23.30644,-23.40851 23.58199,-23.64318 27.76283,-23.64318 l 4.22275,0 -23.92618,23.86709 -23.92618,23.86708 5.38387,7.00248 c 2.96114,3.85137 13.37138,17.16885 23.13388,29.59442 9.7625,12.42556 17.75,22.83425 17.75,23.13043 0,0.29617 -1.53474,0.5385 -3.41053,0.5385 -3.17917,0 -4.07801,-0.85416 -13.25,-12.5914 z m -143.60527,-23.6586 c -10.93615,-21.20478 -30.04039,-57.89558 -41.86973,-80.4133 -3.22546,-6.13981 -5.86447,-11.42731 -5.86447,-11.75 0,-0.32268 1.74825,-0.5867 3.88499,-0.5867 4.65446,0 4.23735,-0.55769 14.62882,19.55921 4.24476,8.21743 9.85285,18.99079 12.46243,23.94079 21.94374,41.62416 21.10985,39.72869 21.32567,48.47443 0.10895,4.41514 -0.0329,8.02709 -0.31525,8.02655 -0.28234,-5.4e-4 -2.19594,-3.26348 -4.25246,-7.25098 z m -151.39154,-15.5 8.63521,-8.75 0.0111,-26.47788 0.011,-26.47787 -7.72654,-7.77213 -7.72654,-7.77212 4.50157,0 c 4.2606,0 4.8883,0.38934 11.72654,7.27352 5.46187,5.49857 7.22497,7.94651 7.22497,10.03138 0,1.52895 0.66841,3.01436 1.5,3.33347 1.27486,0.48921 1.5,4.12742 1.5,24.23947 l 0,23.66386 -8.76978,8.72915 -8.76979,8.72915 -5.37649,0 -5.37649,0 8.63521,-8.75 z m -56.34266,-34.69774 0,-21.55226 5.51988,0 5.51989,0 -0.26989,21.25 -0.26988,21.25 -5.25,0.30226 -5.25,0.30226 0,-21.55226 z m 287,-1.05226 0,-20.5 4.5,0 4.5,0 0,16.79705 0,16.79705 -3.79216,3.70295 c -2.08569,2.03662 -4.11069,3.70295 -4.5,3.70295 -0.38931,0 -0.70784,-9.225 -0.70784,-20.5 z m -41,-31 0,-10.5 4,0 4,0 0,10.5 0,10.5 -4,0 -4,0 0,-10.5 z m 51.5,9.95759 c 0.60141,-0.27229 0.87388,-4.43959 0.68359,-10.45517 l -0.31642,-10.00242 4.04736,0 c 4.92059,0 5.30872,0.99406 4.88197,12.50336 l -0.2965,7.99664 -5,0.20517 c -2.75,0.11284 -4.55,0.001 -4,-0.24758 z m 75.07709,-8.20759 c 0.16807,-12.94325 -0.0539,-12.25 3.92291,-12.25 l 3.5,0 0,10.5 0,10.5 -3.76826,0 -3.76827,0 0.11361,-8.75 z"
         id="path3814"
         inkscape:connector-curvature="0" />
    </g>
    <g
       transform="matrix(0.40884023,0,0,0.40884023,125.12502,606.82842)"
       id="layer1-2"
       inkscape:label="Layer 1"
       style="stroke:none;filter:url(#filter4020)">
      <path
         id="rect2160"
         d="M 304.08017,-439.68676 4.3382038,-93.504066 218.9715,51.696719 l 88.1133,-101.764648 0,601.704759 644.94493,0 0,-601.639433 88.04797,101.699322 214.6333,-145.200785 -299.67664,-346.182694 -3.00463,2.02482 0,-2.02482 -102.61377,0 c -42.68434,87.67458 -125.16409,147.09497 -219.85869,147.09497 -94.69457,-2e-5 -177.23967,-59.42039 -219.92399,-147.09497 l -102.54848,0 0,2.02482 -3.00463,-2.02482 z"
         style="fill:#ffffff;fill-opacity:1;stroke:none"
         inkscape:connector-curvature="0" />
      <path
         id="path3153"
         d="m 312.0132,246.59437 c -0.6844,-218.418489 -2.04555,-298.788204 -5.07772,-299.798717 -2.27832,-0.759278 -22.67478,20.069083 -45.32505,46.2854368 -22.6503,26.2163542 -42.65357,47.6660922 -44.4521,47.6660922 -1.7982,0 -48.33934,-30.471923 -103.42486,-67.71539 L 13.577948,-94.683687 160.50081,-264.45361 l 146.92321,-169.7701 49.33033,0.0778 49.33032,0.0778 12.78933,22.72926 c 15.59971,27.72437 60.44244,73.21565 88.39628,89.67546 35.05376,20.64003 69.75343,30.97279 110.13304,32.79465 46.21702,2.08532 72.47902,-3.32033 115.28166,-23.72894 28.35177,-13.51823 39.4606,-21.49571 64.30299,-46.1765 16.51687,-16.40939 35.73012,-39.70122 42.6963,-51.75975 l 12.66584,-21.92458 49.51338,-1.01343 49.51301,-1.01346 138.4402,159.90378 c 76.1419,87.9469 142.189,164.33894 146.7716,169.76006 l 8.3317,9.85656 -33.91,23.389447 c -18.6512,12.864353 -64.4659,44.03494 -101.8108,69.2680484 L 1041.2987,43.570959 999.57625,-5.1928617 c -23.5163,-27.4847743 -44.11484,-48.4094883 -47.204,-47.9517703 -4.81209,0.71291 -5.59516,37.273432 -6.41587,299.484642 l -0.93507,298.67264 -316.0367,0 -316.03669,0 -0.93472,-298.41828 z"
         style="fill:#ff69b4;fill-opacity:0;fill-rule:evenodd;stroke:none"
         inkscape:connector-curvature="0" />
      <path
         id="path3155"
         d="m 312.0132,246.59437 c -0.6844,-218.418489 -2.04555,-298.788204 -5.07772,-299.798717 -2.27832,-0.759278 -22.67478,20.069083 -45.32505,46.2854368 -22.6503,26.2163542 -42.65357,47.6660922 -44.4521,47.6660922 -1.7982,0 -48.33934,-30.471923 -103.42486,-67.71539 L 13.577948,-94.683687 160.50081,-264.45361 l 146.92321,-169.7701 49.33033,0.0778 49.33032,0.0778 12.78933,22.72926 c 15.59971,27.72437 60.44244,73.21565 88.39628,89.67546 35.05376,20.64003 69.75343,30.97279 110.13304,32.79465 46.21702,2.08532 72.47902,-3.32033 115.28166,-23.72894 28.35177,-13.51823 39.4606,-21.49571 64.30299,-46.1765 16.51687,-16.40939 35.73012,-39.70122 42.6963,-51.75975 l 12.66584,-21.92458 49.51338,-1.01343 49.51301,-1.01346 138.4402,159.90378 c 76.1419,87.9469 142.189,164.33894 146.7716,169.76006 l 8.3317,9.85656 -33.91,23.389447 c -18.6512,12.864353 -64.4659,44.03494 -101.8108,69.2680484 L 1041.2987,43.570959 999.57625,-5.1928617 c -23.5163,-27.4847743 -44.11484,-48.4094883 -47.204,-47.9517703 -4.81209,0.71291 -5.59516,37.273432 -6.41587,299.484642 l -0.93507,298.67264 -316.0367,0 -316.03669,0 -0.93472,-298.41828 z"
         style="fill:#ff69b4;fill-opacity:0;fill-rule:evenodd;stroke:none"
         inkscape:connector-curvature="0" />
      <path
         id="path3157"
         d="m 312.0132,246.59437 c -0.6844,-218.418489 -2.04555,-298.788204 -5.07772,-299.798717 -2.27832,-0.759278 -22.67478,20.069083 -45.32505,46.2854368 -22.6503,26.2163542 -42.65357,47.6660922 -44.4521,47.6660922 -1.7982,0 -48.33934,-30.471923 -103.42486,-67.71539 L 13.577948,-94.683687 160.50081,-264.45361 l 146.92321,-169.7701 49.33033,0.0778 49.33032,0.0778 12.78933,22.72926 c 15.59971,27.72437 60.44244,73.21565 88.39628,89.67546 35.05376,20.64003 69.75343,30.97279 110.13304,32.79465 46.21702,2.08532 72.47902,-3.32033 115.28166,-23.72894 28.35177,-13.51823 39.4606,-21.49571 64.30299,-46.1765 16.51687,-16.40939 35.73012,-39.70122 42.6963,-51.75975 l 12.66584,-21.92458 49.51338,-1.01343 49.51301,-1.01346 138.4402,159.90378 c 76.1419,87.9469 142.189,164.33894 146.7716,169.76006 l 8.3317,9.85656 -33.91,23.389447 c -18.6512,12.864353 -64.4659,44.03494 -101.8108,69.2680484 L 1041.2987,43.570959 999.57625,-5.1928617 c -23.5163,-27.4847743 -44.11484,-48.4094883 -47.204,-47.9517703 -4.81209,0.71291 -5.59516,37.273432 -6.41587,299.484642 l -0.93507,298.67264 -316.0367,0 -316.03669,0 -0.93472,-298.41828 z"
         style="fill:#ff69b4;fill-opacity:0;fill-rule:evenodd;stroke:none"
         inkscape:connector-curvature="0" />
      <path
         id="path3159"
         d="m 312.90517,247.99945 c 0,-250.0841688 -0.8229,-299.560845 -5.00904,-301.16714 -4.05604,-1.556545 -57.67481,55.9166769 -85.17482,91.297632 -3.68515,4.740896 -19.21653,-4.522505 -106.70074,-63.639145 L 13.632394,-94.696835 159.67096,-263.37525 l 146.03856,-168.6784 50.75249,0 50.75213,0 11.74355,21.01106 c 6.58614,11.78366 25.66271,34.65155 43.43808,52.07089 49.62812,48.63399 100.82971,70.36276 166.58884,70.69615 39.38459,0.19959 64.39981,-5.25481 98.66065,-21.5128 46.98,-22.29358 90.01466,-61.74789 114.42404,-104.90461 l 9.81526,-17.35335 51.15737,0.11219 51.15736,0.11221 145.37611,168.27872 145.376,168.278722 -13.8285,9.906918 c -14.8956,10.671432 -179.1363,121.713024 -186.1565,125.858767 -2.5883,1.52845 -20.8193,-16.640061 -46.8032,-46.643006 -28.20669,-32.568977 -44.34064,-48.464779 -47.8314,-47.125222 -4.52852,1.737703 -5.26774,44.0322777 -5.26774,301.266461 l 0,299.24504 -316.07945,0 -316.07944,0 0,-299.24504 z"
         style="fill:#ff69b4;fill-opacity:0;fill-rule:evenodd;stroke:none"
         inkscape:connector-curvature="0" />
      <path
         id="path3161"
         d="m 312.90517,247.99945 c 0,-250.0841688 -0.8229,-299.560845 -5.00904,-301.16714 -4.05604,-1.556545 -57.67481,55.9166769 -85.17482,91.297632 -3.68515,4.740896 -19.21653,-4.522505 -106.70074,-63.639145 L 13.632394,-94.696835 159.67096,-263.37525 l 146.03856,-168.6784 50.75249,0 50.75213,0 11.74355,21.01106 c 6.58614,11.78366 25.66271,34.65155 43.43808,52.07089 49.62812,48.63399 100.82971,70.36276 166.58884,70.69615 39.38459,0.19959 64.39981,-5.25481 98.66065,-21.5128 46.98,-22.29358 90.01466,-61.74789 114.42404,-104.90461 l 9.81526,-17.35335 51.15737,0.11219 51.15736,0.11221 145.37611,168.27872 145.376,168.278722 -13.8285,9.906918 c -14.8956,10.671432 -179.1363,121.713024 -186.1565,125.858767 -2.5883,1.52845 -20.8193,-16.640061 -46.8032,-46.643006 -28.20669,-32.568977 -44.34064,-48.464779 -47.8314,-47.125222 -4.52852,1.737703 -5.26774,44.0322777 -5.26774,301.266461 l 0,299.24504 -316.07945,0 -316.07944,0 0,-299.24504 z"
         style="fill:#ff69b3;fill-opacity:0;fill-rule:evenodd;stroke:none"
         inkscape:connector-curvature="0" />
    </g>
    <g
       id="g3792"
       transform="translate(705.12664,-59.71779)"
       style="filter:url(#filter4024)">
      <path
         style="fill:#fad0ec"
         d="m -389.18402,838.33111 c -12.85651,-8.83747 -14.67316,-10.22904 -14.67316,-11.23974 0,-0.46497 2.5875,-4.40054 5.75,-8.7457 21.49504,-29.53343 26.85577,-37.15055 45.38909,-64.49391 9.60633,-14.17281 10.0144,-14.98788 8.76139,-17.5 -0.72282,-1.44916 -1.85046,-3.30984 -2.50587,-4.13484 -0.65541,-0.825 -2.06909,-3.075 -3.1415,-5 -1.07242,-1.925 -4.99741,-8.86338 -8.72219,-15.41862 -16.17773,-28.47116 -25.56251,-54.26324 -25.50001,-70.08138 0.0174,-4.40907 1.14038,-6.60804 13.41588,-26.27087 10.56819,-16.92808 12.20876,-19.01276 16.8095,-21.35988 5.91746,-3.01886 17.87017,-4.98029 31.24371,-5.12705 10.354,-0.11363 12.79995,0.18341 17.83196,2.16557 6.8608,2.70253 12.07844,6.99314 14.58974,11.99755 0.99213,1.97707 3.91049,9.80856 6.48526,17.4033 2.57476,7.59474 6.3721,17.26974 8.43852,21.5 5.52518,11.31082 6.55368,15.85312 5.75582,25.42018 -1.21702,14.59306 -8.78143,32.61726 -23.4061,55.7712 -7.37086,11.66961 -10.54655,17.47205 -10.44465,19.08385 0.0551,0.87111 2.49622,5.03404 5.42479,9.25094 2.92856,4.2169 8.02131,11.60417 11.31721,16.41615 6.83475,9.97865 18.65723,26.5026 19.49604,27.24906 0.30902,0.275 2.80051,3.74438 5.53663,7.70974 6.69815,9.70735 8.0244,11.54683 14.8612,20.61222 3.3754,4.47569 5.50829,8.1727 5,8.6667 -1.71338,1.66521 -24.87934,13.01134 -26.56589,13.01134 -0.93865,0 -4.2154,-3.26169 -7.28346,-7.25 -3.06743,-3.9875 -6.58064,-8.54371 -7.80711,-10.12491 -1.22648,-1.5812 -4.81588,-6.5312 -7.97644,-11 -3.16057,-4.4688 -6.09568,-8.57509 -6.52247,-9.12509 -0.4268,-0.55 -6.06102,-8.9875 -12.5205,-18.75 -6.45948,-9.7625 -11.92117,-17.75 -12.13709,-17.75 -0.21592,0 -5.00766,6.8625 -10.64832,15.25 -5.64065,8.3875 -10.54855,15.475 -10.90644,15.75 -0.35788,0.275 -2.1663,2.75 -4.0187,5.5 -1.8524,2.75 -3.6227,5.225 -3.934,5.5 -0.3113,0.275 -2.13351,2.75 -4.04935,5.5 -1.91585,2.75 -4.02724,5.675 -4.69197,6.5 -0.66474,0.825 -4.24785,5.325 -7.96247,10 -7.00897,8.82107 -8.18447,10.00336 -9.86221,9.91923 -0.55,-0.0276 -5.42208,-3.08985 -10.82684,-6.80504 z m 70.615,-138.36419 c 6.03274,-10.27438 13.00482,-22.71036 13.59547,-24.25 0.61641,-1.60681 6.06132,-12.85854 7.0168,-14.5 3.54876,-6.09656 8.75895,-22.77448 9.68442,-31 0.58632,-5.21125 0.46909,-5.60999 -2.23302,-7.59507 -5.10652,-3.75145 -9.36356,-5.5042 -16.6709,-6.8639 -16.72183,-3.11149 -29.45464,-2.84228 -46.22063,0.97725 -10.28768,2.34367 -9.92831,1.85455 -8.50656,11.57795 0.66879,4.57387 2.07779,10.00542 3.13112,12.07011 1.05333,2.06469 1.91514,4.20171 1.91514,4.74892 0,3.67194 30.32169,64.05015 32.17845,64.07548 0.37315,0.005 3.12252,-4.15324 6.10971,-9.24074 z"
         id="path3806"
         inkscape:connector-curvature="0" />
      <path
         style="fill:#fab4e9"
         d="m -383.62797,841.46692 c -2.82261,-2.0625 -8.30388,-5.95666 -12.18061,-8.65369 -3.87673,-2.69703 -7.0486,-5.33064 -7.0486,-5.85246 0,-0.52183 7.57402,-11.36517 16.83116,-24.09631 9.25714,-12.73115 17.68425,-24.49754 18.72691,-26.14754 1.04265,-1.65 2.13489,-3.225 2.42719,-3.5 0.2923,-0.275 5.62463,-8.06083 11.84963,-17.30184 l 11.31817,-16.80183 -5.98755,-10.19817 c -12.15276,-20.69894 -16.1003,-28.06159 -21.70711,-40.48648 -6.81207,-15.09578 -11.4584,-28.37345 -11.4584,-32.74428 0,-3.1318 2.50444,-6.4674 4.85587,-6.4674 0.65911,0 4.37826,-1.66578 8.26478,-3.70174 l 7.06641,-3.70173 1.79769,2.38325 c 0.98873,1.31079 2.81589,4.88907 4.06035,7.95174 3.11713,7.67138 21.13988,43.99854 25.67487,51.75099 2.04015,3.48757 4.15653,6.19199 4.70306,6.00981 2.06543,-0.68847 10.40388,-15.42594 23.30661,-41.19232 7.30505,-14.58798 9.5121,-20.08513 11.64318,-29 1.44624,-6.05 2.629,-11.99088 2.62836,-13.20196 -0.001,-2.3025 -6.18228,-7.26567 -11.67552,-9.37505 -3.94064,-1.51319 -17.9216,-3.90586 -23.32566,-3.99191 -2.475,-0.0394 -5.4,-0.42319 -6.5,-0.85285 -1.1,-0.42965 -2.675,-0.4374 -3.5,-0.0172 -0.825,0.4202 -5.587,1.2515 -10.58221,1.84734 -8.20624,0.97886 -19.57679,3.9173 -21.11655,5.45707 -0.33124,0.33123 -0.10075,3.62869 0.51219,7.32767 1.03657,6.25548 0.97258,6.8576 -0.91561,8.61672 -1.11653,1.0402 -2.2628,1.65853 -2.54727,1.37406 -0.28447,-0.28447 -1.37972,0.34528 -2.43388,1.39945 -1.05417,1.05417 -2.72667,1.91667 -3.71667,1.91667 -0.99,0 -2.25785,0.45785 -2.81745,1.01745 -0.5596,0.5596 -2.50642,1.44448 -4.32627,1.96641 l -3.30881,0.94895 0.49269,-4.37116 c 0.36539,-3.24176 2.45666,-7.43171 8.09385,-16.21641 4.18063,-6.51488 9.20681,-14.6471 11.16928,-18.07159 5.79987,-10.12069 12.90523,-14.11108 26.37448,-14.81195 4.05777,-0.21115 7.62027,-0.62641 7.91666,-0.9228 1.14071,-1.1407 15.06664,-0.46604 20.74547,1.00505 7.03216,1.82166 12.29958,5.06797 15.91555,9.80875 1.43949,1.88727 5.03492,10.56748 7.98985,19.28935 2.95492,8.72187 7.21678,19.75613 9.4708,24.52057 4.78,10.10376 6.26172,17.44818 3.71712,18.42463 -0.89827,0.3447 -1.63322,1.05514 -1.63322,1.57876 0,0.52361 0.39257,0.7094 0.87238,0.41286 0.47981,-0.29654 1.13035,1.05055 1.44565,2.99352 1.40889,8.68192 -6.46607,27.97002 -21.45266,52.54392 -4.48919,7.36103 -9.24592,15.27305 -10.57051,17.58226 -2.75019,4.7945 -3.12599,3.72789 5.74341,16.30143 2.52181,3.575 7.90953,11.225 11.97271,17 10.2234,14.53052 29.01638,40.7348 36.81836,51.33824 5.19147,7.05557 6.2175,9.0237 5.08691,9.75775 -0.77894,0.50573 -6.73192,3.64775 -13.22885,6.98226 -9.11993,4.68074 -12.12156,5.80632 -13.168,4.93785 -4.33518,-3.59788 -28.07188,-36.73641 -43.16783,-60.2661 -4.85188,-7.5625 -9.27834,-13.73959 -9.83658,-13.72687 -0.55825,0.0127 -3.67705,4.17522 -6.93069,9.25 -8.39393,13.09224 -39.08561,55.70913 -41.57352,57.72687 -0.33908,0.275 -1.88363,2.1875 -3.43233,4.25 -1.54871,2.0625 -3.13115,3.75 -3.51653,3.75 -0.38539,0 -3.01011,-1.6875 -5.83271,-3.75 z"
         id="path3804"
         inkscape:connector-curvature="0" />
      <path
         style="fill:#efacd1"
         d="m -383.85718,841.08375 c -3.025,-2.18726 -7.75,-5.5287 -10.5,-7.42542 -6.85437,-4.72759 -8.5,-6.05047 -8.5,-6.83296 0,-0.36909 4.35316,-6.61948 9.67368,-13.88976 19.10462,-26.10567 51.32632,-72.59385 51.32632,-74.05156 0,-0.27178 -3.85492,-6.94557 -8.5665,-14.83064 -14.43797,-24.16272 -28.2134,-54.3542 -30.05508,-65.87146 -0.62153,-3.88682 -0.51285,-4.23059 1.13724,-3.59739 1.00344,0.38505 2.08542,0.34736 2.40439,-0.0838 0.31897,-0.43113 3.89563,-2.35887 7.94814,-4.28387 4.0525,-1.925 7.94222,-4.31942 8.64383,-5.32093 1.3995,-1.99773 0.69843,-3.20443 10.06318,17.32093 4.96231,10.87622 18.97795,38.33188 22.06042,43.21484 1.30041,2.05998 2.36438,4.20436 2.36438,4.76529 0,2.51429 1.87926,0.42806 6.51062,-7.22762 6.13734,-10.14508 10.87821,-18.94197 17.92066,-33.25251 2.97731,-6.05 6.10894,-11.9 6.9592,-13 1.49075,-1.92863 1.54705,-1.88686 1.57772,1.17054 0.0267,2.66566 0.48801,3.27074 2.89667,3.79977 1.57567,0.34608 3.80686,1.50684 4.95818,2.57946 1.15133,1.07263 2.53,1.95023 3.06371,1.95023 0.53371,0 1.58243,0.5625 2.33048,1.25 2.73918,2.51745 5.45177,3.57274 6.87224,2.67354 2.40714,-1.52381 2.88131,-1.03877 2.27428,2.32646 -1.44064,7.98672 -4.00368,15.05648 -9.33526,25.75 -6.06497,12.16447 -7.74326,15.11469 -18.36114,32.27659 -3.66705,5.92712 -6.66736,11.03778 -6.66736,11.35702 0,0.79175 14.23844,21.81638 24.47621,36.14183 4.60847,6.44851 10.5491,14.7751 13.20141,18.50353 2.65231,3.72843 9.4891,13.08671 15.19287,20.79617 5.70377,7.70947 10.20377,14.16533 10,14.34637 -0.64667,0.57453 -25.70065,13.57849 -26.1609,13.57849 -0.43925,0 -15.02878,-18.3998 -19.31572,-24.36032 -1.24198,-1.72682 -9.55671,-14.03669 -18.47718,-27.35527 -8.92047,-13.31857 -16.5449,-24.01419 -16.94318,-23.76804 -0.39828,0.24615 -2.58426,3.49316 -4.85775,7.21559 -10.22452,16.74083 -47.38318,67.30917 -49.92363,67.93987 -0.38067,0.0945 -3.16713,-1.61774 -6.19213,-3.805 z m 106.5,-183.9229 c -3.3,-2.14534 -6.54558,-4.3623 -7.21241,-4.92658 -0.66682,-0.56429 -2.39306,-1.56392 -3.83609,-2.2214 -2.95976,-1.34856 -2.96268,-1.05396 0.15992,-16.17839 l 1.83387,-8.88245 -3.45127,-2.88125 c -4.94719,-4.13009 -13.00922,-6.83959 -24.52369,-8.24195 -5.51631,-0.67184 -10.47586,-1.49729 -11.0212,-1.83434 -0.54535,-0.33704 -0.90854,-2.11238 -0.80709,-3.94519 0.10145,-1.83281 0.29306,-5.35738 0.42579,-7.83238 0.13273,-2.475 -0.089,-5.9625 -0.4927,-7.75 l -0.73404,-3.25 6.36936,0 c 7.78935,0 16.51461,2.17008 21.57866,5.36687 5.62293,3.5496 9.11916,8.80118 12.29994,18.47534 5.63613,17.14197 7.76605,22.79361 11.7634,31.21369 3.95936,8.34005 6.28893,17.02254 4.52536,16.86637 -0.4828,-0.0428 -3.57781,-1.83301 -6.87781,-3.97834 z m -105.16565,-17.70713 c 0.36873,-3.28262 3.07908,-8.30422 11.78356,-21.83197 6.21757,-9.66282 12.25583,-18.59508 13.41836,-19.84946 1.16252,-1.25439 4.55494,-3.18221 7.5387,-4.28405 6.48562,-2.39501 17.92503,-3.87621 17.92503,-2.32098 0,0.57731 -0.57857,1.04966 -1.28571,1.04966 -0.70715,0 -1.28572,0.9 -1.28572,2 0,1.1 0.2729,2 0.60644,2 0.33353,0 0.31714,2.25503 -0.0364,5.01118 -0.35359,2.75615 -0.39115,5.26291 -0.0835,5.57058 0.93546,0.93546 0.65056,3.84826 -0.49595,5.07053 -0.59448,0.63376 -3.96948,1.46979 -7.5,1.85784 -3.53055,0.38805 -9.79416,1.6753 -13.91916,2.86055 l -7.5,2.155 0.31877,7.10378 c 0.26406,5.88447 0.034,7.21305 -1.34024,7.7404 -0.91246,0.35015 -2.06841,0.38361 -2.56877,0.0744 -0.50037,-0.30924 -0.90976,-0.0857 -0.90976,0.49676 0,0.58246 -0.69083,1.05902 -1.53518,1.05902 -0.84435,0 -2.592,0.69245 -3.88366,1.53878 -1.29166,0.84633 -2.77012,1.40883 -3.28545,1.25 -0.51534,-0.15883 -2.17521,1.06122 -3.68861,2.71122 l -2.75162,3 0.47887,-4.2632 z"
         id="path3802"
         inkscape:connector-curvature="0" />
      <path
         style="fill:#f392c2"
         d="m -390.1635,836.29951 c -5.94347,-4.28738 -11.20318,-8.19738 -11.68823,-8.68891 -0.69059,-0.69981 9.04378,-15.17042 14.72789,-21.89368 2.98407,-3.52961 14.02544,-19.0701 19.40239,-27.30843 2.53227,-3.87983 4.6265,-6.11305 5.43989,-5.80093 0.76447,0.29336 1.12301,-0.0124 0.84969,-0.72469 -0.26006,-0.67771 4.2592,-8.37009 10.0428,-17.09418 l 10.51564,-15.86199 -1.91885,-3.10489 c -13.12818,-21.24262 -30.4649,-55.52737 -30.4649,-60.24678 0,-1.83091 -0.29738,-2.84777 -0.66084,-2.25967 -0.41233,0.66717 -0.90241,0.43972 -1.30324,-0.60484 -0.35333,-0.92074 -0.34642,-2.153 0.0153,-2.73835 0.3714,-0.60094 0.18762,-0.77371 -0.42215,-0.39685 -0.68073,0.42072 -1.5511,-1.43811 -2.35466,-5.02878 -1.03876,-4.64167 -1.0359,-5.7758 0.0154,-6.12625 0.7096,-0.23653 5.15878,-2.40405 9.88706,-4.81671 4.72828,-2.41267 9.09423,-4.38666 9.70211,-4.38666 1.48416,0 9.67443,17.91948 8.84994,19.36277 -0.3573,0.62548 -0.26396,0.78619 0.20743,0.35715 0.47139,-0.42905 3.62577,4.74595 7.00974,11.5 9.79008,19.53999 16.67179,31.78008 17.86761,31.78008 1.04782,0 10.49691,-16.66024 20.27506,-35.74817 4.29615,-8.38649 8.39288,-15.24899 9.10387,-15.25 0.71098,-10e-4 3.64283,1.73431 6.51521,3.85626 2.87237,2.12195 6.32496,4.208 7.67241,4.63567 1.34746,0.42766 3.90205,2.27287 5.67688,4.10046 3.50454,3.60871 3.50584,3.41098 -0.0881,13.40578 -3.03535,8.44139 -15.41793,30.84161 -24.59906,44.5 -1.47884,2.2 -3.43965,5.46446 -4.35736,7.25436 -1.66092,3.23946 -1.65125,3.28016 2.10937,8.88266 6.90704,10.28995 8.89413,13.16272 11.08441,16.02493 2.00756,2.62342 15.76085,21.74889 19.18921,26.68471 3.47308,5.0002 24.0081,33.37227 25.91322,35.80282 3.85744,4.92132 3.77779,5.02592 -8.84154,11.60974 -6.579,3.43243 -12.41078,6.24078 -12.95951,6.24078 -0.99283,0 -10.14565,-11.14273 -17.4273,-21.21617 -9.47011,-13.10094 -13.12938,-18.49169 -22.9922,-33.87148 -5.78874,-9.02679 -11.31072,-17.49508 -12.27108,-18.81842 l -1.74609,-2.40608 -1.96782,2.40608 c -1.0823,1.32334 -2.39176,2.28242 -2.90992,2.13129 -0.51815,-0.15112 -0.66284,0.17708 -0.32153,0.72934 0.59944,0.96991 -1.0509,5.02342 -2.46134,6.04544 -0.37951,0.275 -2.78849,3.65 -5.35328,7.5 -2.56479,3.85 -5.89941,8.69503 -7.41027,10.76672 -1.51086,2.0717 -5.32419,7.4717 -8.47407,12 -10.46933,15.05086 -25.4386,34.23068 -26.86548,34.42219 -0.77411,0.1039 -6.27031,-3.31895 -12.21379,-7.60632 z m 118.38527,-180.66592 c 0.048,-1.16495 0.28494,-1.4019 0.60416,-0.60417 0.28887,0.72187 0.25335,1.58437 -0.0789,1.91667 -0.3323,0.33229 -0.56864,-0.25834 -0.52522,-1.3125 z m -6.07895,-2.91667 c -1.29175,-1.375 -2.84073,-2.5 -3.44218,-2.5 -0.60145,0 -2.7884,-1.15168 -4.85988,-2.55929 -3.51669,-2.38965 -3.72227,-2.8039 -3.10174,-6.25 0.36552,-2.02989 1.01254,-4.14071 1.43782,-4.69071 0.42528,-0.55 1.06868,-3.475 1.42978,-6.5 0.64077,-5.36787 0.57576,-5.56331 -2.7061,-8.13502 -6.4924,-5.08755 -18.10393,-8.86498 -27.25023,-8.86498 -5.86653,0 -6.67031,-1.47839 -6.9177,-12.72375 l -0.22249,-10.11331 2.55232,-0.4879 c 4.06413,-0.77691 13.88351,1.1915 19.08015,3.82483 8.16887,4.13948 10.92861,8.43605 16.4806,25.65822 2.72022,8.43805 6.86046,19.28038 9.20054,24.09406 4.04492,8.32064 4.59525,11.74785 1.88644,11.74785 -0.67029,0 -2.27558,-1.125 -3.56733,-2.5 z m -103,-17.22752 c 0,-0.53482 1.35,-2.83602 3,-5.11378 1.65,-2.27776 3,-4.3616 3,-4.63075 0,-0.26915 2.19103,-3.76054 4.86896,-7.75866 2.67793,-3.99811 6.00839,-9.51929 7.40102,-12.26929 3.08439,-6.0907 5.86762,-8.78927 11.74248,-11.3853 5.45896,-2.41225 15.64923,-3.99436 14.57954,-2.26356 -0.39052,0.63187 -0.34598,1.1488 0.099,1.14872 0.76308,-1.3e-4 0.63142,16.23685 -0.15085,18.6033 -0.20056,0.60673 -2.99164,1.34428 -6.2024,1.639 -3.21075,0.29472 -9.59184,1.5678 -14.18019,2.82907 l -8.34245,2.29322 0.66441,5.31777 c 0.38078,3.04784 0.27213,5.31778 -0.25455,5.31778 -0.50542,0 -1.95666,0.9 -3.22497,2 -1.26831,1.1 -3.33002,2 -4.58158,2 -1.25156,0 -2.98271,0.70714 -3.84699,1.57143 -1.00691,1.00691 -1.57143,1.14254 -1.57143,0.37755 0,-0.90249 -0.3661,-0.89004 -1.5,0.051 -0.825,0.68469 -1.5,0.80731 -1.5,0.27248 z"
         id="path3800"
         inkscape:connector-curvature="0" />
      <path
         style="fill:#ee8ebc"
         d="m -385.19195,839.46692 c -3.62686,-2.6125 -9.10667,-6.47945 -12.17734,-8.59323 l -5.58305,-3.84323 2.54758,-3.40677 c 1.40117,-1.87372 3.78508,-5.0939 5.29758,-7.15596 1.5125,-2.06205 3.53235,-4.61638 4.48856,-5.67628 0.95621,-1.05991 2.00937,-2.78032 2.34035,-3.82314 0.33938,-1.0693 1.19422,-1.66869 1.9605,-1.37464 0.78376,0.30076 1.16428,0.014 0.89921,-0.67768 -0.25274,-0.65949 0.67018,-2.41693 2.05093,-3.90543 1.38075,-1.48849 2.52542,-3.06349 2.54372,-3.5 0.0587,-1.40097 3.74531,-5.29364 5.01339,-5.29364 0.67434,0 0.0397,1.18636 -1.4103,2.63636 -2.92789,2.9279 -3.24219,3.9806 -1.38636,4.6434 0.6875,0.24554 0.88803,0.83251 0.44563,1.30437 -0.44241,0.47187 -1.22302,0.19598 -1.73469,-0.61309 -0.79045,-1.24989 -0.93262,-1.22048 -0.94563,0.19563 -0.008,0.91666 -0.57781,1.90025 -1.26531,2.18574 -0.86599,0.35962 -0.55878,1.12568 1,2.49363 1.2375,1.086 2.25,2.68991 2.25,3.56425 0,1.79389 2.63371,2.1886 3.20322,0.48006 0.23139,-0.69419 0.87005,-0.50699 1.70578,0.5 0.95506,1.15078 0.99908,1.60965 0.15443,1.60965 -0.64981,0 -0.90335,0.45 -0.56343,1 0.33992,0.55 1.71648,1 3.05902,1 1.34254,0 2.44098,0.49774 2.44098,1.10608 0,0.60834 1.125,1.991 2.5,3.07258 2.49886,1.96561 3.38733,4.82134 1.5,4.82134 -0.55,0 -1,0.65983 -1,1.4663 0,0.96255 1.03065,0.4588 3,-1.4663 1.65,-1.61293 3,-3.1924 3,-3.50994 0,-0.31754 1.125,-1.79061 2.5,-3.27349 3.37172,-3.63625 3.18607,-1.37417 -0.25,3.04612 -1.5125,1.94574 -3.51512,4.59512 -4.45027,5.88751 -7.60255,10.50683 -15.09577,19.84973 -15.91996,19.84977 -0.34113,2e-5 -3.58767,-2.13747 -7.21454,-4.74997 z m 107.76853,-6.63995 c -4.91357,-6.26447 -9.60876,-12.38102 -10.43376,-13.59235 -0.825,-1.21132 -3.4125,-4.85375 -5.75,-8.09429 -2.3375,-3.24054 -4.25,-6.154 -4.25,-6.47437 0,-0.32037 -1.125,-2.05743 -2.5,-3.86015 -1.375,-1.80272 -2.5,-3.7602 -2.5,-4.34995 0,-0.58975 -0.3637,-1.22227 -0.80821,-1.40561 -0.91789,-0.37857 -7.19179,-9.36896 -7.19179,-10.30571 0,-0.33662 -0.47625,-1.15554 -1.05834,-1.81983 -1.30941,-1.49432 -9.94166,-14.75256 -9.94166,-15.26935 0,-0.20662 0.68848,-0.11148 1.52995,0.21143 1.46632,0.56267 5.47005,-2.95273 5.47005,-4.80288 0,-0.46584 0.45,-0.84699 1,-0.84699 0.55,0 1,0.9 1,2 0,1.11111 -0.66667,2 -1.5,2 -1.81491,0 -1.99651,1.65601 -0.25,2.27976 0.72707,0.25967 0.87897,0.81746 0.3631,1.33334 -0.51588,0.51587 -1.07367,0.36397 -1.33334,-0.3631 -0.24553,-0.6875 -0.88925,-1.25 -1.43048,-1.25 -1.23231,0 -0.19851,3.58059 2.12061,7.34478 l 1.75266,2.84479 0.0188,-2.84479 c 0.0443,-6.7066 0.43285,-7.34478 4.47145,-7.34478 2.69973,0 3.7872,-0.43071 3.7872,-1.5 0,-0.825 -0.7301,-1.5 -1.62244,-1.5 -1.3288,0 -1.39713,-0.27149 -0.37756,-1.5 1.25447,-1.51155 7.42745,-2.04067 10.41821,-0.89301 1.71857,0.65947 2.21302,4.39301 0.58179,4.39301 -1.208,0 -1.34393,3.6694 -0.16297,4.39928 1.39907,0.86467 5.16297,-2.38382 5.16297,-4.45598 0,-1.06882 -0.41936,-1.9433 -0.93191,-1.9433 -1.36184,0 -5.40836,-5.99306 -4.59542,-6.806 0.37997,-0.37997 1.34717,0.20844 2.14934,1.30757 0.80216,1.09914 2.30395,2.97247 3.33731,4.16297 1.03336,1.19049 2.43424,3.21549 3.11307,4.5 0.67883,1.2845 3.11204,4.81046 5.40714,7.83546 2.29509,3.025 6.81768,9.325 10.0502,14 3.23252,4.675 6.23865,8.95 6.68031,9.5 0.44165,0.55 4.59343,6.175 9.22618,12.5 4.63275,6.325 9.35158,12.69227 10.48629,14.14948 3.82523,4.91243 3.74728,5.01126 -9.16889,11.62492 -6.73949,3.45092 -12.50843,6.26342 -12.81986,6.25 -0.31143,-0.0134 -4.58643,-5.14988 -9.5,-11.41435 z m -23.08868,-38.15318 c -0.32569,-0.84872 -0.80663,-1.32866 -1.06875,-1.06653 -0.26213,0.26213 -0.17998,0.95654 0.18255,1.54313 0.98605,1.59546 1.56238,1.28551 0.8862,-0.4766 z m -0.87033,-6.70687 c 0.38941,-1.2375 0.81667,-3.03728 0.94948,-3.99951 0.32753,-2.37311 1.57577,-3.49571 1.57577,-1.41716 0,0.91667 0.45,1.66667 1,1.66667 0.55,0 1,-1.54844 1,-3.44098 0,-1.89254 0.45,-3.7191 1,-4.05902 0.55,-0.33992 1,-0.0922 1,0.55039 0,0.7465 1.26386,1.02087 3.5,0.75982 1.925,-0.22474 3.5,-0.049 3.5,0.39059 0,0.43956 0.5051,0.7992 1.12244,0.7992 0.76466,0 0.80367,-0.39845 0.12239,-1.25 -0.55003,-0.6875 -1.30961,-2.375 -1.68795,-3.75 -0.52517,-1.90861 -0.43946,-2.14517 0.3623,-1 0.74338,1.06178 1.05467,1.12564 1.06551,0.21862 0.021,-1.75691 -2.73359,-2.6719 -4.25144,-1.4122 -0.6827,0.56659 -2.79858,1.17944 -4.70196,1.36188 -3.01532,0.28901 -3.54682,0.75647 -4.13006,3.63245 -0.36816,1.81541 -0.89298,3.52433 -1.16626,3.79762 -0.99258,0.99257 -3.73497,-2.80333 -3.73497,-5.1698 0,-2.03174 -0.4902,-2.42857 -3,-2.42857 -2.77679,0 -3,0.26738 -3,3.59362 0,2.76641 0.46574,3.71541 2.0233,4.12272 1.85477,0.48504 1.8838,0.63111 0.34851,1.75374 -1.17765,0.86112 -1.33298,1.43588 -0.5233,1.93629 0.63332,0.39142 1.15149,0.23511 1.15149,-0.34735 0,-0.58246 0.48032,-1.05902 1.06739,-1.05902 0.58992,0 0.80025,0.84167 0.4702,1.88158 -0.67092,2.11386 1.97578,3.77436 2.88857,1.81224 0.30546,-0.6566 0.30421,-0.18132 -0.003,1.05618 -0.30698,1.2375 -0.13032,2.25 0.3926,2.25 0.52292,0 1.26936,-1.0125 1.65877,-2.25 z m 20.64934,-7.01667 c -0.98762,-0.98026 -1.10248,-0.8654 -0.5598,0.5598 0.37553,0.98622 0.93469,1.54122 1.24258,1.23333 0.30789,-0.30789 6.4e-4,-1.11479 -0.68278,-1.79313 z m -79.48572,33.76667 c 0.31659,-0.825 1.03256,-1.5 1.59106,-1.5 0.58531,0 0.48812,0.63541 -0.22943,1.5 -0.68469,0.825 -1.40067,1.5 -1.59106,1.5 -0.19039,0 -0.0872,-0.675 0.22943,-1.5 z m 6.36163,-2.15068 c 0,-0.5766 1.34181,-3.02857 2.9818,-5.44884 1.63999,-2.42026 2.98999,-4.96298 3,-5.65048 0.01,-0.6875 0.66288,-1.25 1.45081,-1.25 0.78794,0 1.71826,-0.9 2.06739,-2 0.34913,-1.1 1.07028,-2 1.60257,-2 1.11909,0 -0.54699,3.5386 -2.12537,4.51409 -0.55663,0.34402 -2.80421,3.38355 -4.99462,6.75453 -2.19042,3.37098 -3.98258,5.65729 -3.98258,5.0807 z m -22,-6.34932 c 0,-0.55 0.45,-1 1,-1 0.55,0 1,0.45 1,1 0,0.55 -0.45,1 -1,1 -0.55,0 -1,-0.45 -1,-1 z m -2.36163,-2.5 c 0.31659,-0.825 0.75246,-1.5 0.96862,-1.5 0.21615,0 0.39301,0.675 0.39301,1.5 0,0.825 -0.43588,1.5 -0.96862,1.5 -0.53273,0 -0.70959,-0.675 -0.39301,-1.5 z m 6.36163,-8.39301 c 0,-0.49116 0.73865,-1.17646 1.64144,-1.52289 1.37248,-0.52667 1.43434,-0.38034 0.37756,0.89301 -1.44013,1.73524 -2.019,1.91584 -2.019,0.62988 z m 30,-0.91843 c 0,-0.91647 3.79329,-5.18856 4.60705,-5.18856 0.29103,0 -0.43215,1.35 -1.60705,3 -2.16876,3.04574 -3,3.65215 -3,2.18856 z m -32.31971,-4.57934 c -0.47912,-1.24855 1.71064,-4.83013 6.30777,-10.31701 0.55657,-0.66429 1.01194,-1.56889 1.01194,-2.01022 0,-0.44134 1.125,-2.01569 2.5,-3.49856 1.375,-1.48288 2.5,-2.93974 2.5,-3.23747 0,-0.61211 6.83708,-10.51074 8.32026,-12.04596 1.23637,-1.27975 -3.35609,7.5034 -4.96729,9.5 -1.18419,1.46745 -1.35297,1.96645 -1.35297,4 0,0.55 -0.5625,0.8875 -1.25,0.75 -0.78519,-0.15704 -1.18295,0.75097 -1.0697,2.44187 0.11822,1.76496 -0.24162,2.52996 -1.04502,2.22167 -1.72646,-0.66251 -9.51376,9.13 -9.479,11.91979 0.0196,1.57688 -0.91007,1.75067 -1.47599,0.27589 z m 3.33977,-2.13339 c 0.69572,-0.83829 1.47088,-1.31823 1.72258,-1.06653 0.69349,0.6935 -0.71555,2.5907 -1.9241,2.5907 -0.6631,0 -0.58723,-0.57378 0.20152,-1.52417 z m 33.97994,0.0546 c 0,-1.26305 4.36015,-8.22976 6.06615,-9.69259 1.16659,-1.0003 1.68961,-2.31072 1.31349,-3.29089 -0.41026,-1.06911 -0.15336,-1.52878 0.74768,-1.33783 0.99067,0.20994 1.30661,-0.68313 1.13525,-3.20911 -0.22166,-3.26759 -0.16849,-3.3357 0.80074,-1.02573 0.79578,1.89659 0.64065,3.35583 -0.66444,6.25 -0.93644,2.07665 -1.97178,3.77653 -2.30074,3.77752 -0.32897,9.8e-4 -1.87695,2.02598 -3.43995,4.5 -2.59743,4.11136 -3.65818,5.27953 -3.65818,4.02863 z m 1.66667,-9.19709 c -0.36667,-0.36666 -0.66667,-1.13166 -0.66667,-1.7 0,-0.6266 0.46577,-0.56756 1.18333,0.15 0.65084,0.65084 0.95084,1.41584 0.66667,1.7 -0.28417,0.28417 -0.81667,0.21667 -1.18333,-0.15 z m 10.41228,-9.91666 c 0.048,-1.16495 0.28494,-1.4019 0.60416,-0.60417 0.28887,0.72187 0.25335,1.58437 -0.0789,1.91667 -0.3323,0.33229 -0.56864,-0.25834 -0.52522,-1.3125 z m 22.92105,-12.33334 c 0,-0.50416 0.5625,-1.15089 1.25,-1.43718 0.9389,-0.39096 0.86224,-0.84724 -0.30804,-1.83333 -1.44711,-1.21935 -5.41323,-9.81282 -4.52888,-9.81282 0.21828,0 1.52163,1.9125 2.89632,4.25 1.3747,2.3375 3.44532,5.33465 4.60137,6.66032 2.30814,2.64681 2.03784,4.12185 -0.3866,2.10974 -1.04232,-0.86505 -1.52417,-0.9101 -1.52417,-0.1425 0,0.61734 -0.45,1.12244 -1,1.12244 -0.55,0 -1,-0.4125 -1,-0.91667 z m -49,-1.49451 c 0,-0.39725 1.01363,-2.15474 2.25251,-3.90554 2.50202,-3.53589 4.01977,-5.93525 6.1576,-9.73439 1.32036,-2.34641 1.21485,-2.90807 -1.3151,-7 -3.16384,-5.11718 -8.11761,-14.00468 -12.234,-21.94889 -1.56744,-3.025 -3.20814,-5.95 -3.64599,-6.5 -0.43785,-0.55 -3.13867,-5.65546 -6.00182,-11.34546 -4.09886,-8.14575 -4.97785,-10.69726 -4.13396,-12 0.93351,-1.44111 0.99316,-1.40686 0.4624,0.26551 -0.33516,1.05603 -0.25321,2.18103 0.18212,2.5 1.10465,0.80941 5.89711,10.05618 6.77913,13.07995 0.40108,1.375 1.80201,3.93248 3.11318,5.68328 1.31116,1.7508 2.38393,3.9434 2.38393,4.87244 0,1.3881 0.26735,1.46729 1.5,0.44428 0.90562,-0.7516 1.5,-0.83314 1.5,-0.20578 0,0.57151 -0.47575,1.1977 -1.05723,1.39152 -0.60866,0.20289 -0.74661,1.16186 -0.32513,2.26022 0.71829,1.87184 0.74633,1.87148 1.48694,-0.0191 0.70757,-1.80619 0.75925,-1.79265 0.82513,0.21612 0.0387,1.17866 0.76866,2.411 1.62223,2.73855 0.88992,0.34149 1.29132,0.17385 0.94098,-0.39301 -0.33602,-0.54367 -0.18688,-0.98852 0.33143,-0.98852 0.51831,0 1.17774,0.9 1.4654,2 0.28766,1.1 1.12764,1.99311 1.86663,1.98469 0.81428,-0.009 0.94966,-0.30475 0.34362,-0.75 -1.76298,-1.29524 -1.73089,-3.53727 0.0409,-2.85737 0.89248,0.34247 1.78747,0.62268 1.98888,0.62268 0.2014,0 -0.10944,1.3644 -0.69077,3.032 -0.84877,2.43477 -1.33095,2.8046 -2.44798,1.87755 -1.05064,-0.87194 -1.39103,-0.87209 -1.39103,-6.1e-4 0,1.61058 3.2907,2.71897 3.77336,1.27097 0.21632,-0.64895 1.03081,-1.17991 1.80997,-1.17991 0.77917,0 1.30417,-0.41824 1.16667,-0.92942 -0.1375,-0.51118 0.65,-1.67291 1.75,-2.58163 1.61041,-1.33037 1.66534,-1.54743 0.28203,-1.11426 -0.94489,0.29588 -1.96154,0.14388 -2.25921,-0.33777 -0.67243,-1.08802 6.0659,-3.40914 7.43696,-2.56178 1.49489,0.9239 5.04022,-1.30927 5.04022,-3.17478 0,-1.45634 -3.72439,-9.47057 -8.9693,-19.30036 -1.02712,-1.925 -2.38514,-4.82653 -3.01781,-6.44785 -0.9309,-2.38559 -1.34448,-2.67169 -2.16834,-1.5 -0.78387,1.11482 -0.90303,0.92425 -0.51803,-0.8285 0.32709,-1.48906 -0.33462,-3.26826 -1.91325,-5.14435 -1.3273,-1.57741 -2.41327,-3.59055 -2.41327,-4.47366 0,-0.8831 -0.675,-1.60564 -1.5,-1.60564 -0.825,0 -1.5,-0.43588 -1.5,-0.96862 0,-0.53273 0.72735,-0.6895 1.61633,-0.34836 1.3997,0.53711 1.45231,0.31375 0.39252,-1.66649 -0.78063,-1.45862 -1.47461,-1.88095 -1.91634,-1.16622 -0.38088,0.61628 -0.69251,-0.48164 -0.69251,-2.43983 0,-3.02159 1.31137,-0.93876 8.66634,13.7646 8.412,16.81647 11.52695,22.68499 17.11326,32.24111 1.47379,2.52109 2.22914,4.58381 1.67857,4.58381 -1.53356,0 -3.85817,2.66828 -3.85817,4.42857 0,0.86429 -0.36978,1.57143 -0.82174,1.57143 -0.45196,0 -1.83862,2.25 -3.08146,5 -1.24285,2.75 -2.67306,5 -3.17826,5 -0.5052,0 -0.91854,0.675 -0.91854,1.5 0,0.825 -0.40512,1.5 -0.90026,1.5 -0.49514,0 -1.4482,2.28406 -2.1179,5.07569 -0.6697,2.79164 -2.28958,6.23235 -3.59974,7.64603 -1.31015,1.41368 -2.38265,2.84212 -2.38332,3.1743 -6.7e-4,0.33219 -1.12567,1.91147 -2.5,3.50952 -1.37433,1.59805 -2.49878,2.58052 -2.49878,2.18328 z m 5.5,-29.58882 c 0.33992,-0.55 0.14148,-1 -0.44098,-1 -0.58246,0 -1.05902,0.45 -1.05902,1 0,0.55 0.19844,1 0.44098,1 0.24254,0 0.7191,-0.45 1.05902,-1 z m 6.53063,15.5 c 0,-0.55 0.43621,-1.675 0.96937,-2.5 0.53316,-0.825 0.96937,-1.05 0.96937,-0.5 0,0.55 -0.43621,1.675 -0.96937,2.5 -0.53316,0.825 -0.96937,1.05 -0.96937,0.5 z m 31.96937,-0.26787 c 0,-0.42232 1.09825,-2.38408 2.44055,-4.35945 1.80637,-2.65831 2.1485,-3.88363 1.31666,-4.71547 -0.61813,-0.61813 -0.79191,-1.45584 -0.38617,-1.86158 0.40574,-0.40574 1.15635,-0.0757 1.66802,0.73333 0.78028,1.2338 0.93278,1.18881 0.94563,-0.27896 0.008,-0.9625 0.49831,-1.75 1.08863,-1.75 1.46764,0 0.93261,1.6066 -2.57608,7.73559 -2.7174,4.74677 -4.49724,6.52633 -4.49724,4.49654 z m 9.00257,-12.33291 c -0.007,-1.58777 2.28634,-6.89922 2.97862,-6.89922 0.43205,0 1.0209,-0.9 1.30856,-2 0.64468,-2.46528 -0.81709,-2.62926 -2.22847,-0.25 -0.78595,1.32492 -0.89545,0.77838 -0.4508,-2.25 0.66526,-4.53097 1.10002,-5.5 2.46759,-5.5 0.52802,0 0.6958,1.2375 0.37285,2.75 -0.53441,2.50288 -0.45882,2.59274 0.84119,1 0.78561,-0.9625 1.92714,-1.75 2.53675,-1.75 1.51775,0 0.35678,-2.69664 -2.47771,-5.75511 -1.29313,-1.39532 -2.35115,-3.17837 -2.35115,-3.96234 0,-0.78397 -0.675,-2.10041 -1.5,-2.92541 -0.825,-0.825 -1.5,-2.61626 -1.5,-3.98059 0,-1.86627 0.75546,-2.74394 3.05052,-3.54401 2.91291,-1.01544 2.97358,-1.14842 1.34501,-2.94798 -2.70053,-2.98405 -12.39553,-2.41902 -12.39553,0.72243 0,0.76615 -0.45,1.39301 -1,1.39301 -0.55,0 -1,-0.42344 -1,-0.94098 0,-0.51754 0.45,-1.2191 1,-1.55902 0.55,-0.33992 1,-1.71648 1,-3.05902 0,-1.34254 0.45,-2.44098 1,-2.44098 0.55,0 1,-0.45 1,-1 0,-0.55 -0.36069,-1 -0.80153,-1 -0.87902,0 -5.40786,10.12394 -4.80053,10.73128 0.2068,0.20679 1.32686,0.44762 2.48903,0.53516 3.66952,0.27642 2.4228,2.73356 -1.38697,2.73356 -1.925,0 -3.5,0.47656 -3.5,1.05902 0,0.58246 -0.46451,0.77193 -1.03225,0.42105 -0.66006,-0.40794 -0.89168,0.63769 -0.64238,2.89997 0.35125,3.18736 0.20581,3.43942 -1.46775,2.54376 -1.52732,-0.8174 -1.85762,-0.6323 -1.85762,1.04102 0,1.11935 -0.45,2.03518 -1,2.03518 -0.55,0 -1,0.47656 -1,1.05902 0,0.58246 0.45,0.7809 1,0.44098 0.55,-0.33992 1,-0.14148 1,0.44098 0,0.58246 -0.73789,1.05902 -1.63976,1.05902 -0.90186,0 -2.23755,0.7875 -2.96819,1.75 -1.12257,1.4788 -1.33337,1.50891 -1.36025,0.19428 -0.0175,-0.85565 1.11961,-3.10565 2.52689,-5 1.40728,-1.89435 3.60625,-5.46928 4.8866,-7.94428 1.28036,-2.475 4.39956,-8.325 6.93155,-13 2.532,-4.675 6.04459,-11.58077 7.80576,-15.34615 2.57536,-5.50614 3.34254,-6.46655 3.91955,-4.90675 0.39459,1.06667 2.22053,2.69003 4.05764,3.60747 1.83712,0.91744 5.14021,2.79085 7.34021,4.16314 2.2,1.37229 5.4625,3.17323 7.25,4.0021 1.7875,0.82887 3.25,1.97755 3.25,2.55263 0,0.57508 0.45,0.76748 1,0.42756 1.20595,-0.74532 1.34164,1.70964 0.16858,3.05 -0.45728,0.5225 -1.40167,2.975 -2.09864,5.45 -0.69697,2.475 -1.84461,5.175 -2.5503,6 -0.70569,0.825 -1.58659,2.49661 -1.95754,3.71468 -0.85729,2.81503 -8.79498,16.67511 -9.80388,17.11865 -0.41702,0.18334 -0.75822,0.7233 -0.75822,1.19992 0,0.47663 -1.57384,3.47663 -3.49743,6.66667 -1.92359,3.19004 -3.49859,5.52973 -3.5,5.1993 z m 11.91714,-22.89922 c 1.12265,-2.35727 1.10183,-2.38918 -0.36454,-0.55887 -1.48559,1.85428 -1.55517,1.858 -1.55517,0.0833 0,-1.02178 -0.26609,-1.59171 -0.59131,-1.26649 -0.32521,0.32522 -0.28413,1.55913 0.0913,2.74203 0.77137,2.43038 0.78958,2.42285 2.41971,-1 z m -3.2366,-6.1875 c -0.31922,-0.79773 -0.55618,-0.56078 -0.60416,0.60417 -0.0434,1.05416 0.19292,1.64479 0.52522,1.3125 0.33229,-0.3323 0.36781,-1.1948 0.0789,-1.91667 z m 6.31689,0.13746 c 0,-0.39418 -0.86633,-0.94325 -1.92518,-1.22014 -1.24678,-0.32604 -1.76019,-0.0735 -1.45697,0.7167 0.49589,1.29225 3.38215,1.72189 3.38215,0.50344 z m -41,17.70503 c 0,-0.36025 0.9,-1.55499 2,-2.65499 1.1,-1.1 2,-1.61974 2,-1.15499 0,0.46476 -0.9,1.6595 -2,2.65499 -1.1,0.99549 -2,1.51523 -2,1.15499 z m 27,-6.65499 c 0,-0.55 0.45,-1 1,-1 0.55,0 1,0.45 1,1 0,0.55 -0.45,1 -1,1 -0.55,0 -1,-0.45 -1,-1 z m -39.71636,-10.75 c -0.13165,-2.37301 -0.0341,-2.47583 0.71161,-0.75 1.12546,2.60469 1.18247,3.5 0.22286,3.5 -0.43004,0 -0.85055,-1.2375 -0.93447,-2.75 z m 33.71636,-7.25 c 0,-0.55 0.64844,-1 1.44098,-1 0.79254,0 1.7191,0.45 2.05902,1 0.33992,0.55 -0.30852,1 -1.44098,1 -1.13246,0 -2.05902,-0.45 -2.05902,-1 z m 0.8125,-2.68311 c 0.72187,-0.28887 1.58437,-0.25335 1.91667,0.0789 0.33229,0.3323 -0.25834,0.56864 -1.3125,0.52522 -1.16495,-0.048 -1.4019,-0.28494 -0.60417,-0.60416 z M -373.3983,677.1504 c -0.36253,-0.58659 -0.44468,-1.281 -0.18255,-1.54313 0.26212,-0.26213 0.74306,0.21781 1.06875,1.06653 0.67618,1.76211 0.0999,2.07206 -0.8862,0.4766 z m 2.62007,-0.5168 c 0.048,-1.16495 0.28494,-1.4019 0.60416,-0.60417 0.28887,0.72187 0.25335,1.58437 -0.0789,1.91667 -0.3323,0.33229 -0.56864,-0.25834 -0.52522,-1.3125 z m -4.07895,-4.35765 c 0,-1.06754 0.38499,-2.17893 0.85554,-2.46974 0.47055,-0.29082 0.64309,0.58263 0.38343,1.94098 -0.56402,2.95046 -1.23897,3.23851 -1.23897,0.52876 z m -3.375,-8.18402 c -0.35139,-1.75694 -0.45359,-3.37975 -0.22711,-3.60623 0.22649,-0.22648 0.72243,1.00257 1.10211,2.73123 0.37968,1.72866 0.48187,3.35146 0.2271,3.60623 -0.25476,0.25477 -0.75071,-0.97429 -1.1021,-2.73123 z m 17.39031,-4.56598 c -0.008,-1.20504 0.43469,-2.4691 0.98469,-2.80902 1.27319,-0.78687 1.27319,1.52988 0,3.5 -0.78809,1.21948 -0.97224,1.09025 -0.98469,-0.69098 z m 4.72297,-3.30902 c -0.31418,-0.825 -0.83525,-2.85 -1.15794,-4.5 l -0.58671,-3 1.56538,2.80776 c 0.86097,1.54427 1.38204,3.56927 1.15795,4.5 -0.34168,1.41911 -0.49964,1.45013 -0.97868,0.19224 z m 84.34067,-0.58333 c 0.048,-1.16495 0.28494,-1.4019 0.60416,-0.60417 0.28887,0.72187 0.25335,1.58437 -0.0789,1.91667 -0.3323,0.33229 -0.56864,-0.25834 -0.52522,-1.3125 z m -2.42722,-5.083 c -1.01655,-1.35875 -1.61501,-2.70372 -1.32991,-2.98883 0.28511,-0.2851 1.29029,0.65972 2.23374,2.0996 2.22502,3.39582 1.50296,4.10621 -0.90383,0.88923 z m -4.49838,-8.52881 c -1.18434,-2.58232 -2.14895,-5.50732 -2.14358,-6.5 0.005,-0.99267 1.14352,0.6307 2.52921,3.60749 1.3857,2.9768 2.35031,5.9018 2.14359,6.5 -0.20673,0.59821 -1.34487,-1.02516 -2.52922,-3.60749 z m -11.0744,1.61181 c 0.048,-1.16495 0.28494,-1.4019 0.60416,-0.60417 0.28887,0.72187 0.25335,1.58437 -0.0789,1.91667 -0.3323,0.33229 -0.56864,-0.25834 -0.52522,-1.3125 z m 0.95285,-4.18024 c -0.0175,-0.69496 0.36504,-2.04496 0.85007,-3 0.99349,-1.95621 3.33531,-11.40139 2.90027,-11.69755 -0.15518,-0.10563 -2.32191,-1.6262 -4.81496,-3.37902 -5.71506,-4.01818 -13.38918,-6.95693 -20.28276,-7.76713 -3.94194,-0.4633 -5.38541,-1.05866 -5.48144,-2.26082 -0.38302,-4.79491 -0.24594,-11.25339 0.25609,-12.06569 0.31546,-0.51041 0.15846,-1.18457 -0.34888,-1.49812 -0.50734,-0.31355 -0.70047,-1.41886 -0.42919,-2.45624 0.27128,-1.03738 0.004,-2.18849 -0.59388,-2.55802 -2.15496,-1.33184 -1.01836,-2.55384 2.37537,-2.55384 8.35325,0 19.86776,6.80669 23.47467,13.87682 1.75473,3.43956 5.43241,14.38283 5.58652,16.62318 0.0378,0.55 0.61048,1.98292 1.27255,3.18426 1.46228,2.65332 1.56942,4.65976 0.20377,3.81574 -0.55,-0.33992 -1,-0.17898 -1,0.35765 0,0.53663 0.55848,1.16184 1.24107,1.38937 0.89237,0.29746 0.75189,0.90288 -0.5,2.15477 -0.95759,0.95758 -1.74107,2.52292 -1.74107,3.47851 0,2.00419 -2.91955,6.28893 -2.9682,4.35613 z m -21.30263,-46.8406 c -0.3323,-0.33229 -1.1948,-0.36782 -1.91667,-0.0789 -0.79773,0.31923 -0.56078,0.55619 0.60417,0.60417 1.05416,0.0434 1.64479,-0.19293 1.3125,-0.52522 z m -70.6849,43.00421 c -0.0244,-0.60498 1.30573,-2.96358 2.95573,-5.24134 1.65,-2.27776 3,-4.38113 3,-4.67415 0,-0.29302 1.63609,-2.88442 3.63576,-5.75866 3.98644,-5.72994 3.99755,-5.65098 0.36424,2.58817 -1.375,3.11804 -3.175,5.89848 -4,6.17875 -0.825,0.28028 -2.49258,2.19655 -3.70573,4.25839 -1.21316,2.06184 -2.22566,3.25382 -2.25,2.64884 z m 15.67619,-7.73183 c -0.39625,-1.00748 -0.72046,-3.05498 -0.72046,-4.55 0,-1.49501 -0.54,-3.25821 -1.2,-3.91821 -0.88909,-0.88909 -0.89907,-1.2 -0.0385,-1.2 1.30866,0 3.53709,7.25524 3.01782,9.8253 -0.30098,1.48964 -0.41798,1.47228 -1.05882,-0.15709 z m 0.83014,-12.89859 c 0.63864,-2.9077 0.54668,-3.09525 -0.92054,-1.87756 -0.89654,0.74406 -1.63006,1.09684 -1.63006,0.78396 0,-1.09221 6.83703,-12.198 9.15899,-14.87749 2.92926,-3.38031 9.81321,-6.44046 16.34101,-7.26416 4.638,-0.58523 4.82614,-0.5285 2.59861,0.78356 -1.7677,1.04122 -2.03159,1.56089 -1,1.96933 0.9298,0.36813 0.72836,0.58656 -0.59861,0.6491 -1.6644,0.0784 -1.7483,0.25692 -0.5,1.06364 0.84344,0.54507 0.99276,0.97608 0.34113,0.98469 -0.74988,0.01 -1.1028,1.86813 -1,5.26531 0.0874,2.8875 -0.19734,6.2259 -0.6327,7.41867 -0.60765,1.66476 -0.37529,2.25939 1,2.55909 0.98536,0.21473 -0.90276,0.74705 -4.19584,1.18295 -3.29307,0.43589 -8.69307,1.64099 -12,2.67801 -7.8164,2.45113 -7.79112,2.45592 -6.96199,-1.3191 z"
         id="path3798"
         inkscape:connector-curvature="0" />
      <path
         style="fill:#f478c1"
         d="m -383.35718,840.10959 c -2.2,-1.61888 -6.7,-4.81976 -10,-7.11306 -8.76836,-6.09349 -8.79613,-6.13342 -6.392,-9.18978 1.12868,-1.43489 2.47727,-2.34615 2.99685,-2.02503 0.51959,0.32112 0.82105,0.004 0.66993,-0.70387 -0.15113,-0.70825 0.73772,-1.74841 1.97522,-2.31146 1.2375,-0.56305 2.25,-1.50783 2.25,-2.09951 0,-0.59168 1.29059,-2.31224 2.86797,-3.82347 2.71355,-2.59974 2.96069,-2.65498 4.58983,-1.02583 1.09924,1.09924 1.5702,2.7552 1.30244,4.57958 -0.51998,3.54285 1.75021,5.93756 2.72305,2.87241 1.00911,-3.17943 3.32207,-2.43345 5.26274,1.69735 2.05424,4.37252 5.68535,5.61693 6.73547,2.3083 0.3593,-1.13207 1.27595,-2.0583 2.037,-2.0583 1.10636,0 1.01829,0.8162 -0.43936,4.07197 -1.00269,2.23958 -2.33069,4.57958 -2.95111,5.2 -0.62041,0.62041 -1.12803,1.75197 -1.12803,2.51455 0,1.91481 -6.09106,10.23229 -7.41952,10.13153 -0.59426,-0.0451 -2.88048,-1.4065 -5.08048,-3.02538 z m 110.92683,-1.781 c -2.15976,-2.68859 -4.60183,-5.88456 -5.42683,-7.10216 -0.825,-1.2176 -2.70411,-3.61485 -4.1758,-5.32721 -1.47169,-1.71237 -2.47472,-3.43875 -2.22897,-3.83639 0.24576,-0.39764 -0.12513,-1.08815 -0.8242,-1.53445 -0.69907,-0.4463 -2.34449,-2.33819 -3.6565,-4.2042 -1.31201,-1.86601 -1.79287,-3.0265 -1.06857,-2.57885 0.7243,0.44764 0.11026,-0.76811 -1.36453,-2.70165 -1.47479,-1.93355 -2.68143,-4.00524 -2.68143,-4.60376 0,-0.59853 -0.94114,-1.38693 -2.09142,-1.75202 -1.63333,-0.51839 -1.9251,-1.1355 -1.33209,-2.81738 1.2298,-3.48797 0.79398,-10.79525 -0.70692,-11.85264 -0.91091,-0.64174 0.66751,-0.78096 4.71324,-0.41572 7.75402,0.70002 9.08339,-0.46056 5.2401,-4.57482 -1.58496,-1.6967 -2.69291,-3.27375 -2.46211,-3.50455 0.2308,-0.2308 2.37506,-0.59862 4.76503,-0.81739 2.97118,-0.27196 3.87558,-0.10069 2.85979,0.54157 -1.25244,0.79189 -1.20758,0.94173 0.28582,0.95464 0.97429,0.008 2.28532,1.14315 2.91339,2.52163 0.62808,1.37847 1.78552,2.39097 2.57211,2.25 0.90459,-0.16213 2.14144,1.63281 3.36574,4.88443 1.45184,3.85595 2.67807,5.44829 4.90645,6.37132 1.63398,0.67681 2.97087,1.85098 2.97087,2.60925 0,0.75827 0.49814,1.37868 1.10699,1.37868 0.60884,0 0.839,0.69837 0.51145,1.55194 -0.32754,0.85356 -0.21673,1.31782 0.24625,1.03169 0.46298,-0.28614 2.27513,1.47565 4.027,3.91509 1.75188,2.43944 3.74641,5.01268 4.4323,5.71831 0.68589,0.70563 2.80609,3.53297 4.71154,6.28297 1.90546,2.75 3.7346,5.225 4.06477,5.5 0.92066,0.76684 3.10493,5.13371 2.73072,5.45936 -1.21477,1.05714 -22.40742,11.54064 -23.32969,11.54064 -0.63122,0 -2.91475,-2.19975 -5.0745,-4.88833 z m -29.76016,-41.77834 c -0.36667,-0.36666 -0.66667,-1.74699 -0.66667,-3.06738 0,-2.0279 0.34942,-2.29332 2.25,-1.70911 2.93464,0.90206 2.90871,0.86598 2.11271,2.94033 -0.64889,1.69098 -0.75914,1.68544 -2.12696,-0.10687 -1.37327,-1.79945 -1.41037,-1.78216 -0.77179,0.3597 0.67904,2.27759 0.41712,2.79774 -0.79729,1.58333 z m -39.55134,-63.71057 c -1.17349,-1.24912 -1.93388,-2.47088 -1.68975,-2.71501 0.24413,-0.24413 0.64087,-1.78575 0.88164,-3.42581 0.28427,-1.93635 0.92078,-2.84089 1.81527,-2.57968 0.75763,0.22124 2.12499,0.43016 3.03858,0.46428 1.31756,0.0492 1.58234,0.8534 1.28037,3.88881 -0.20939,2.10473 -1.01336,4.45942 -1.7866,5.23266 -1.20785,1.20786 -1.70643,1.08597 -3.53951,-0.86525 z m 53.88467,-29.56374 c 0,-0.51754 0.44485,-1.21592 0.98855,-1.55194 0.56686,-0.35034 0.7345,0.0511 0.39301,0.94098 -0.66479,1.73242 -1.38156,2.04939 -1.38156,0.61096 z m 5.60975,-10.85777 c 0.55588,-2.77942 0.38107,-2.9523 -3.76339,-3.72174 -3.11646,-0.57859 -3.70967,-0.92177 -2.09636,-1.21277 4.0763,-0.73526 2.346,-2.15669 -3,-2.46448 -4.89669,-0.28192 -5.27129,-0.48733 -5.56642,-3.05226 -0.44765,-3.89044 -1.96893,-3.41108 -2.77276,0.8737 -0.47604,2.5375 -1.53685,4.11118 -3.53899,5.25 -1.57255,0.89447 -2.86203,2.1888 -2.86551,2.8763 -0.003,0.6875 -0.45632,1.25 -1.00632,1.25 -1.3303,0 -1.36363,0.12807 1.52485,-5.85945 1.38866,-2.87856 3.17848,-7.74322 3.97736,-10.81036 1.28344,-4.92743 3.53962,-8.20214 5.71737,-8.29839 0.39577,-0.0175 2.24662,0.82588 4.113,1.87416 1.86637,1.04829 4.46756,2.51079 5.78041,3.25 1.31286,0.73922 3.28701,2.08662 4.38701,2.99421 1.1,0.90759 2.9,1.81219 4,2.01022 2.75025,0.4951 3.12674,4.50062 0.72799,7.74511 -1.07074,1.44825 -2.29444,3.72849 -2.71933,5.0672 -0.42489,1.33871 -1.38213,3.04362 -2.1272,3.7887 -1.13957,1.13956 -1.26211,0.89183 -0.77171,-1.56015 z m -8.83443,-73.33502 c -1.39309,-1.3931 -3.14994,-2.5686 -3.90411,-2.61223 -2.23,-0.12903 -19.82374,-4.8732 -20.47041,-5.51987 -0.74154,-0.74154 -0.71184,-10.75643 0.0341,-11.50238 0.30125,-0.30125 0.0861,-1.10396 -0.47811,-1.7838 -0.72067,-0.86835 -0.58001,-1.68189 0.47284,-2.73474 1.33158,-1.33158 1.2518,-1.58055 -0.71548,-2.2329 -2.19806,-0.72887 -2.19622,-0.73764 0.25315,-1.20529 1.35703,-0.25909 2.63203,0.023 2.83334,0.62695 0.2013,0.60392 1.8175,1.09803 3.59154,1.09803 1.77405,0 4.0802,0.62494 5.12478,1.38876 1.04458,0.76381 2.48059,1.16567 3.19113,0.89301 0.71056,-0.27266 1.29191,0.002 1.29191,0.61124 0,0.60884 0.60526,1.10699 1.34501,1.10699 0.73976,0 2.1595,0.9 3.15499,2 1.28825,1.4235 1.42662,2 0.48002,2 -0.89472,0 -0.7,0.61266 0.59501,1.87212 1.05874,1.02967 2.21313,1.70861 2.56532,1.50875 0.35219,-0.19985 0.92659,1.1624 1.27643,3.02722 0.34984,1.86483 1.30489,4.73126 2.12233,6.36986 1.00396,2.01248 1.20764,3.73242 0.62768,5.30022 l -0.85858,2.32095 -2.53289,-2.53289 z m -71.52532,-3.52851 c -1.7448,-0.70404 -1.57289,-2.29405 0.88834,-8.21644 1.46094,-3.51541 2.6489,-5.0624 3.75,-4.88335 0.88641,0.14414 1.67225,-0.41293 1.74631,-1.23793 0.0741,-0.825 0.18656,-1.99416 0.25,-2.59813 0.19329,-1.8401 7.31938,-4.24924 12.61535,-4.26493 3.68862,-0.0109 4.47545,0.21302 3,0.85384 -1.35135,0.58693 -1.51351,0.89641 -0.5,0.95425 1.1661,0.0665 1.21317,0.26758 0.21145,0.90312 -0.88187,0.55951 -1.09347,2.05383 -0.67045,4.73469 0.67018,4.24724 -0.75014,9.26486 -2.77599,9.80685 -0.69576,0.18614 -4.44694,1.29961 -8.33596,2.47437 -7.31646,2.2101 -8.08,2.32064 -10.17905,1.47366 z"
         id="path3796"
         inkscape:connector-curvature="0" />
      <path
         style="fill:#f379ba"
         d="m -383.35718,840.10959 c -2.2,-1.61888 -6.7,-4.81976 -10,-7.11306 -9.25413,-6.43107 -9.10467,-6.10455 -4.91617,-10.74072 3.85895,-4.2714 5.41617,-5.00136 5.41617,-2.53889 0,0.91273 0.93084,1.5 2.37755,1.5 1.30766,0 2.93776,0.675 3.62245,1.5 0.68469,0.825 1.97729,1.57335 2.87245,1.663 0.89515,0.0896 -0.84745,0.42714 -3.87245,0.75 -3.025,0.32285 -5.725,0.30271 -6,-0.0448 -0.40846,-0.5161 -4.20348,-0.51345 -5.92431,0.004 -0.23338,0.0702 0.64502,1.26588 1.952,2.65709 1.30697,1.39121 2.98379,2.29637 3.72625,2.01146 0.74247,-0.28491 1.11692,-0.141 0.83213,0.31981 -0.2848,0.46081 0.69066,1.46815 2.16768,2.23855 1.47702,0.77039 3.48666,2.18821 4.46587,3.15071 0.97921,0.9625 2.53038,1.75 3.44705,1.75 0.91666,0 1.36953,0.29714 1.00636,0.66031 -0.36317,0.36316 0.25618,1.30224 1.37634,2.08682 1.78099,1.24746 2.34907,1.22182 4.52551,-0.20423 1.36887,-0.89692 2.19186,-2.11131 1.82887,-2.69864 -0.36299,-0.58732 -0.0933,-1.41812 0.5994,-1.84621 0.69266,-0.42808 1.34271,-1.61527 1.44455,-2.63819 0.36906,-3.70695 1.78566,-7.33367 2.65472,-6.79656 0.48899,0.30221 1.41322,-0.6009 2.05384,-2.00691 0.64062,-1.40602 1.52054,-2.55639 1.95536,-2.55639 0.93315,0 -2.34752,7.6359 -3.98359,9.27197 -0.62041,0.62041 -1.12803,1.75197 -1.12803,2.51455 0,1.91481 -6.09106,10.23229 -7.41952,10.13153 -0.59426,-0.0449 -2.88048,-1.40632 -5.08048,-3.0252 z m -12.81689,-18.08017 c -0.31922,-0.79773 -0.55618,-0.56078 -0.60416,0.60417 -0.0434,1.05416 0.19292,1.64479 0.52522,1.3125 0.33229,-0.33229 0.36782,-1.1948 0.079,-1.91667 z m 123.49372,16.05288 c -4.4519,-5.47278 -4.81482,-6.35305 -3.06503,-7.43448 1.42434,-0.88029 2.77726,1.27732 2.19563,3.5015 -0.32387,1.23848 0.90661,2.41352 4.45553,4.25477 4.44788,2.30764 5.15054,2.41404 7.57001,1.14635 1.58357,-0.82971 2.66703,-2.24037 2.66703,-3.47245 0,-1.24702 0.4988,-1.88527 1.25,-1.59946 0.6875,0.26157 2.375,0.0178 3.75,-0.54165 1.375,-0.55948 3.09764,-1.14069 3.82809,-1.29158 3.81091,-0.7872 4.28733,-1.34419 3.07976,-3.60056 -1.98504,-3.70909 -3.09664,-4.40418 -6.42234,-4.01592 -4.19888,0.49019 -5.61589,-2.33974 -1.99716,-3.98855 1.34692,-0.61369 2.20695,-1.50734 1.91119,-1.98589 -0.29575,-0.47855 -0.95664,-0.61119 -1.46864,-0.29475 -0.51199,0.31643 -0.9309,-0.0887 -0.9309,-0.90036 0,-0.81163 -0.3375,-1.62568 -0.75,-1.80902 -0.4125,-0.18333 -2.0045,-2.26188 -3.53779,-4.61899 -1.53328,-2.35712 -3.17363,-4.0472 -3.64521,-3.75575 -0.47159,0.29146 -1.10117,-0.10525 -1.39907,-0.88157 -0.29791,-0.77633 0.0531,-1.63972 0.77999,-1.91866 0.76727,-0.29443 2.64444,1.33483 4.47531,3.88427 1.73453,2.41529 3.71487,4.96877 4.40076,5.6744 0.68589,0.70563 2.80609,3.53297 4.71154,6.28297 1.90546,2.75 3.7346,5.225 4.06477,5.5 0.92066,0.76684 3.10493,5.13371 2.73072,5.45936 -1.21477,1.05714 -22.40742,11.54064 -23.32969,11.54064 -0.63122,0 -3.02725,-2.31058 -5.3245,-5.13462 z m 5.8565,-4.23205 c -0.56833,-0.56833 -1.03333,-1.61833 -1.03333,-2.33333 0,-0.715 -0.43417,-1.3 -0.96482,-1.3 -0.53065,0 -1.44648,-0.9 -2.03518,-2 -0.99341,-1.8562 -0.76227,-1.9989 3.21482,-1.98469 6.22835,0.0223 7.34698,0.9976 5.41936,4.7252 -0.85493,1.65326 -1.34736,3.21297 -1.0943,3.46604 0.25307,0.25306 -0.19988,0.46012 -1.00655,0.46012 -0.80666,0 -1.93166,-0.465 -2.5,-1.03334 z m 9.96667,-0.72695 c 0,-0.49851 0.9,-0.90638 2,-0.90638 1.1,0 2,0.17252 2,0.38337 0,0.21085 -0.9,0.61872 -2,0.90638 -1.1,0.28766 -2,0.11514 -2,-0.38337 z m -119.92105,-2.48971 c 0.048,-1.16495 0.28494,-1.4019 0.60416,-0.60417 0.28888,0.72187 0.25335,1.58438 -0.079,1.91667 -0.33229,0.33229 -0.56864,-0.25834 -0.52522,-1.3125 z m 97.92105,-0.28116 c 0,-0.47547 -1.31661,-2.37247 -2.9258,-4.21555 -1.60919,-1.84308 -2.72472,-3.67641 -2.47897,-4.07405 0.24576,-0.39764 -0.12513,-1.08815 -0.8242,-1.53445 -0.69907,-0.4463 -2.32519,-2.31209 -3.61361,-4.14619 -2.23949,-3.18798 -2.2505,-3.28545 -0.25,-2.21482 1.15092,0.61596 2.09258,1.46033 2.09258,1.8764 0,0.41606 1.54523,2.39471 3.43384,4.39699 2.88703,3.0608 3.62312,3.41246 4.62245,2.20834 1.34733,-1.62343 3.94371,-1.92863 3.94371,-0.46356 0,0.53273 -0.75312,0.67961 -1.67361,0.32639 -1.2679,-0.48654 -1.51792,-0.23652 -1.03138,1.03138 0.42081,1.09662 0.13591,1.67361 -0.82639,1.67361 -2.12665,0 -1.8017,1.75137 0.55939,3.01499 1.1154,0.59695 1.76385,1.51278 1.44098,2.03518 -0.73373,1.18721 -2.46899,1.24719 -2.46899,0.0853 z m -103.75,-8.79779 c -0.6875,-0.27741 -1.25,-0.97199 -1.25,-1.5435 0,-0.65479 0.52368,-0.60449 1.4159,0.13598 1.13082,0.9385 1.54708,0.76181 2.06739,-0.87755 0.83379,-2.62704 3.13339,-2.6374 4.53395,-0.0204 0.9889,1.84778 0.85597,1.97407 -1.46482,1.39159 -1.58668,-0.39827 -2.55242,-0.22128 -2.55242,0.46775 0,1.16695 -0.6873,1.27845 -2.75,0.44613 z m 118.41667,-1.00439 c -1.26779,-1.26779 -0.65891,-2.33333 1.33333,-2.33333 1.11111,0 2,0.66667 2,1.5 0,1.52241 -2.1154,2.05126 -3.33333,0.83333 z m -120.03988,-4.98248 c 0.50868,-2.02675 0.35938,-2.46034 -0.63546,-1.84549 -0.93599,0.57847 -1.06317,0.41012 -0.45388,-0.60085 0.66759,-1.10771 0.4361,-1.08754 -1.09549,0.0955 -1.06808,0.825 -2.27257,1.95 -2.67665,2.5 -0.48979,0.66667 -0.74489,0.66667 -0.76531,0 -0.0168,-0.55 -0.46684,-0.325 -1,0.5 -0.53316,0.825 -0.97627,1.02169 -0.98469,0.43709 -0.008,-0.5846 1.27528,-2.29937 2.85266,-3.8106 2.65243,-2.54118 2.99063,-2.62503 4.5,-1.11566 1.79244,1.79244 2.2361,6.48917 0.61298,6.48917 -0.60295,0 -0.74756,-1.08172 -0.35416,-2.64915 z m 92.87321,-4.35085 c -0.33992,-0.55 0.0835,-1 0.94098,-1 0.85746,0 1.55902,0.45 1.55902,1 0,0.55 -0.42344,1 -0.94098,1 -0.51754,0 -1.2191,-0.45 -1.55902,-1 z m -2.384,-4.18261 c -0.0638,-0.92544 -1.05714,-1.98132 -2.20742,-2.34641 -1.63333,-0.51839 -1.9251,-1.1355 -1.33209,-2.81738 1.23657,-3.50715 0.79788,-10.8021 -0.70692,-11.75537 -0.89949,-0.56981 0.0892,-0.87286 2.88043,-0.88292 l 4.25,-0.0153 0,4 c 0,2.2 0.45,4 1,4 0.55,0 1,0.675 1,1.5 0,0.83333 0.88889,1.5 2,1.5 1.30269,0 2,0.66667 2,1.9121 0,1.44678 -0.95925,2.07417 -3.94171,2.57805 -2.44995,0.41392 -4.10909,1.2987 -4.384,2.3379 -0.4109,1.55328 -0.45052,1.55253 -0.55829,-0.0107 z m 22.91853,-3.77489 c -0.80601,-0.50978 -1.51962,-2.48614 -1.5858,-4.39192 -0.10065,-2.89836 0.0991,-3.24561 1.22139,-2.12332 0.73795,0.73795 2.23906,1.62653 3.3358,1.97462 1.09674,0.34809 1.99408,1.24007 1.99408,1.98217 0,0.74211 0.5625,1.55018 1.25,1.79571 0.72707,0.25967 0.87897,0.81746 0.3631,1.33334 -0.51588,0.51587 -1.07527,0.35918 -1.33716,-0.37456 -0.6107,-1.71101 -4.27594,-3.66 -4.27594,-2.27372 0,0.56935 0.70156,1.03518 1.55902,1.03518 0.85746,0 1.2809,0.45 0.94098,1 -0.76085,1.23108 -1.57052,1.24101 -3.46547,0.0425 z m -31.36786,-6.70917 c -0.36667,-0.36666 -0.66667,-1.13166 -0.66667,-1.7 0,-0.6266 0.46577,-0.56756 1.18333,0.15 0.65084,0.65084 0.95084,1.41584 0.66667,1.7 -0.28417,0.28417 -0.81667,0.21667 -1.18333,-0.15 z m 21.13163,-0.54107 c -0.24646,-0.71074 -0.0308,-3.30385 0.47919,-5.76247 0.83227,-4.01209 1.0616,-4.28654 2.23773,-2.67808 1.25755,1.7198 1.32788,1.71859 1.74285,-0.0298 0.4155,-1.75065 0.46372,-1.74952 1.23289,0.029 0.44026,1.01801 0.39156,2.14301 -0.10823,2.5 -0.49979,0.357 -1.35287,1.96231 -1.89572,3.56737 -1.07927,3.19105 -2.98097,4.41495 -3.68871,2.37397 z m -18.78299,-1.54226 c -0.008,-1.2375 0.43469,-2.25 0.98469,-2.25 1.25292,0 1.25292,1.06124 0,3 -0.78387,1.21296 -0.9723,1.06944 -0.98469,-0.75 z m 14.2755,-5.87414 c 0.34328,-0.34328 -0.35292,-1.41532 -1.5471,-2.38231 -2.15064,-1.74148 -2.12601,-1.76176 2.59679,-2.13738 4.37291,-0.34779 4.72324,-0.21252 4.22742,1.63231 -0.29733,1.10634 -0.54676,2.34902 -0.55427,2.76152 -0.008,0.4125 -1.21365,0.75 -2.68032,0.75 -1.46666,0 -2.3858,-0.28086 -2.04252,-0.62414 z m -55.25607,-54.834 c -0.9164,-1.10419 -0.75293,-1.62232 0.76879,-2.43671 2.58525,-1.38359 1.82802,-6.10515 -0.97912,-6.10515 -1.06835,0 -1.66358,-0.45122 -1.32274,-1.0027 0.41146,-0.66576 1.27833,-0.65022 2.57969,0.0462 1.07798,0.57692 2.37107,0.79488 2.87352,0.48435 1.47827,-0.91363 0.25075,7.40934 -1.32521,8.98529 -1.22651,1.22652 -1.59741,1.23061 -2.59493,0.0287 z m 52.96526,-30.48284 c 0,-0.51754 0.44485,-1.21592 0.98855,-1.55194 0.56686,-0.35034 0.7345,0.0511 0.39301,0.94098 -0.66479,1.73242 -1.38156,2.04939 -1.38156,0.61096 z m 6,-11.93121 c 0,-1.41492 -1.03804,-2.06059 -4.25,-2.64354 -2.75565,-0.50013 -3.57164,-0.9346 -2.32072,-1.23565 3.28086,-0.7896 4.9695,-3.06319 3.54758,-4.7765 -1.02289,-1.23251 -0.79491,-1.47212 1.4007,-1.47212 1.92919,0 2.62244,0.5131 2.62244,1.94098 0,3.138 1.67339,3.27346 3.88116,0.31417 1.13051,-1.51533 2.06974,-2.25334 2.08716,-1.64001 0.0174,0.61333 -0.84042,2.22384 -1.90633,3.57892 -1.06591,1.35508 -2.23969,3.66577 -2.60841,5.13486 -0.76645,3.05381 -2.45358,3.60314 -2.45358,0.79889 z m -0.95315,-12.57136 c -0.97794,-1.17835 -0.83691,-1.41634 0.76769,-1.29547 1.16443,0.0877 1.76308,0.67615 1.4686,1.44355 -0.62468,1.62788 -0.77038,1.61823 -2.23629,-0.14808 z m -11.37828,-5.63056 c -1.40014,-1.63525 -1.4241,-1.92589 -0.15878,-1.92589 0.81961,0 1.49021,0.40787 1.49021,0.90638 0,0.49851 0.9,0.67103 2,0.38337 1.29859,-0.33959 2,-0.0307 2,0.88081 0,2.10728 -3.45332,1.9488 -5.33143,-0.24467 z m -6.65383,-0.10446 c -0.0158,-1.79915 2.52711,-4.82143 4.05669,-4.82143 0.51071,0 0.92857,0.45 0.92857,1 0,0.55 -0.52571,0.8875 -1.16825,0.75 -0.64253,-0.1375 -1.7609,0.875 -2.48525,2.25 -0.91488,1.73665 -1.32152,1.98746 -1.33176,0.82143 z m 9.76058,-53.9552 c -1.39309,-1.3931 -3.14994,-2.57536 -3.90411,-2.62725 -2.92619,-0.20135 -18.41953,-4.43917 -19.27883,-5.27325 -0.54259,-0.52666 -0.50053,-1.40074 0.10458,-2.17335 0.5567,-0.71081 1.10076,-3.87988 1.209,-7.04238 0.15792,-4.61367 -0.10977,-5.75 -1.35457,-5.75 -1.8357,0 -2.12359,-1.97098 -0.30139,-2.06339 0.6875,-0.0349 0.125,-0.56291 -1.25,-1.17343 l -2.5,-1.11005 2.46732,-0.4246 c 1.35703,-0.23352 2.63203,0.0695 2.83334,0.67344 0.2013,0.60392 1.8175,1.09803 3.59154,1.09803 1.77405,0 4.0802,0.62494 5.12478,1.38876 1.04458,0.76381 2.48059,1.16567 3.19113,0.89301 0.71054,-0.27266 1.29189,0.002 1.29189,0.61124 0,0.60884 0.60526,1.10699 1.34501,1.10699 0.73976,0 2.1595,0.9 3.15499,2 1.28825,1.4235 1.42662,2 0.48002,2 -0.89472,0 -0.7,0.61266 0.59501,1.87212 1.05874,1.02967 2.21313,1.70861 2.56532,1.50875 0.35219,-0.19985 0.92659,1.1624 1.27643,3.02722 0.34984,1.86483 1.30489,4.73126 2.12233,6.36986 1.00396,2.01248 1.20764,3.73242 0.62768,5.30022 l -0.85858,2.32095 -2.53289,-2.53289 z m -14.77532,-22.90308 c 1.1359,-0.76198 0.83248,-0.8957 -1.25,-0.55091 -1.5125,0.25043 -2.75,0.0351 -2.75,-0.47846 0,-0.51358 -0.675,-0.93378 -1.5,-0.93378 -1.56157,0 -1.98397,1.1827 -0.83333,2.33333 0.99083,0.99084 4.62071,0.77867 6.33333,-0.37018 z m -56.75,19.37457 c -1.7448,-0.70404 -1.57289,-2.29405 0.88834,-8.21644 1.46094,-3.51541 2.6489,-5.0624 3.75,-4.88335 0.88641,0.14414 1.67225,-0.41293 1.74631,-1.23793 0.0741,-0.825 0.18656,-1.99416 0.25,-2.59813 0.17585,-1.6741 7.12102,-4.24433 11.61535,-4.29855 2.58673,-0.0312 3.51837,0.25257 2.63685,0.80316 -1.15087,0.71883 -1.15087,0.93584 0,1.39352 0.96784,0.3849 1.00065,0.565 0.11315,0.62105 -0.874,0.0552 -1.25,2.194 -1.25,7.11033 0,4.78102 -0.40006,7.13786 -1.25,7.36407 -0.6875,0.18297 -4.43193,1.29385 -8.32095,2.46861 -7.31646,2.2101 -8.08,2.32064 -10.17905,1.47366 z"
         id="path3794"
         inkscape:connector-curvature="0" />
    </g>
    <text
       xml:space="preserve"
       style="font-size:40px;font-style:normal;font-weight:normal;line-height:125%;letter-spacing:0px;word-spacing:0px;fill:#ffffff;fill-opacity:1;stroke:none;font-family:Sans"
       x="105.85938"
       y="891.79327"
       id="text3884"
       sodipodi:linespacing="125%"><tspan
         sodipodi:role="line"
         id="tspan3886"
         x="105.85938"
         y="891.79327">Pink Week T-Shirt Preorders</tspan></text>
    <text
       sodipodi:linespacing="125%"
       id="text3968"
       y="951.79327"
       x="135.87891"
       style="font-size:40px;font-style:normal;font-weight:normal;line-height:125%;letter-spacing:0px;word-spacing:0px;fill:#ffffff;fill-opacity:1;stroke:none;font-family:Sans"
       xml:space="preserve"><tspan
         y="951.79327"
         x="135.87891"
         id="tspan3970"
         sodipodi:role="line">9/21  9/25 @ Cafeteria</tspan></text>
    <text
       xml:space="preserve"
       style="font-size:40px;font-style:normal;font-weight:normal;line-height:125%;letter-spacing:0px;word-spacing:0px;fill:#ffffff;fill-opacity:1;stroke:none;font-family:Sans"
       x="107.23633"
       y="971.79327"
       id="text3972"
       sodipodi:linespacing="125%"><tspan
         sodipodi:role="line"
         id="tspan3974"
         x="107.23633"
         y="971.79327" /></text>
  </g>
</svg>
